G04 #@! TF.GenerationSoftware,KiCad,Pcbnew,8.0.9-8.0.9-0~ubuntu22.04.1*
G04 #@! TF.CreationDate,2025-05-22T00:01:40+08:00*
G04 #@! TF.ProjectId,macropad,6d616372-6f70-4616-942e-6b696361645f,rev?*
G04 #@! TF.SameCoordinates,Original*
G04 #@! TF.FileFunction,Paste,Bot*
G04 #@! TF.FilePolarity,Positive*
%FSLAX46Y46*%
G04 Gerber Fmt 4.6, Leading zero omitted, Abs format (unit mm)*
G04 Created by KiCad (PCBNEW 8.0.9-8.0.9-0~ubuntu22.04.1) date 2025-05-22 00:01:40*
%MOMM*%
%LPD*%
G01*
G04 APERTURE LIST*
G04 Aperture macros list*
%AMRoundRect*
0 Rectangle with rounded corners*
0 $1 Rounding radius*
0 $2 $3 $4 $5 $6 $7 $8 $9 X,Y pos of 4 corners*
0 Add a 4 corners polygon primitive as box body*
4,1,4,$2,$3,$4,$5,$6,$7,$8,$9,$2,$3,0*
0 Add four circle primitives for the rounded corners*
1,1,$1+$1,$2,$3*
1,1,$1+$1,$4,$5*
1,1,$1+$1,$6,$7*
1,1,$1+$1,$8,$9*
0 Add four rect primitives between the rounded corners*
20,1,$1+$1,$2,$3,$4,$5,0*
20,1,$1+$1,$4,$5,$6,$7,0*
20,1,$1+$1,$6,$7,$8,$9,0*
20,1,$1+$1,$8,$9,$2,$3,0*%
%AMRotRect*
0 Rectangle, with rotation*
0 The origin of the aperture is its center*
0 $1 length*
0 $2 width*
0 $3 Rotation angle, in degrees counterclockwise*
0 Add horizontal line*
21,1,$1,$2,0,0,$3*%
G04 Aperture macros list end*
%ADD10RoundRect,0.225000X0.375000X-0.225000X0.375000X0.225000X-0.375000X0.225000X-0.375000X-0.225000X0*%
%ADD11RoundRect,0.250000X-0.337500X-0.475000X0.337500X-0.475000X0.337500X0.475000X-0.337500X0.475000X0*%
%ADD12RoundRect,0.225000X-0.375000X0.225000X-0.375000X-0.225000X0.375000X-0.225000X0.375000X0.225000X0*%
%ADD13RoundRect,0.250000X-0.350000X-0.450000X0.350000X-0.450000X0.350000X0.450000X-0.350000X0.450000X0*%
%ADD14RoundRect,0.250000X0.350000X0.450000X-0.350000X0.450000X-0.350000X-0.450000X0.350000X-0.450000X0*%
%ADD15RoundRect,0.250000X0.337500X0.475000X-0.337500X0.475000X-0.337500X-0.475000X0.337500X-0.475000X0*%
%ADD16RoundRect,0.250000X0.475000X-0.337500X0.475000X0.337500X-0.475000X0.337500X-0.475000X-0.337500X0*%
%ADD17RoundRect,0.250000X-0.475000X0.337500X-0.475000X-0.337500X0.475000X-0.337500X0.475000X0.337500X0*%
%ADD18R,1.800000X2.100000*%
%ADD19RoundRect,0.250000X-0.450000X0.350000X-0.450000X-0.350000X0.450000X-0.350000X0.450000X0.350000X0*%
%ADD20R,1.450000X0.600000*%
%ADD21R,1.450000X0.300000*%
%ADD22RotRect,1.500000X0.550000X315.000000*%
%ADD23RotRect,1.500000X0.550000X225.000000*%
G04 APERTURE END LIST*
D10*
X83600000Y-92950000D03*
X83600000Y-89650000D03*
X69300000Y-92800000D03*
X69300000Y-89500000D03*
X78400000Y-107750000D03*
X78400000Y-104450000D03*
X112500000Y-73350000D03*
X112500000Y-70050000D03*
X73800000Y-107750000D03*
X73800000Y-104450000D03*
D11*
X98962500Y-68300000D03*
X101037500Y-68300000D03*
D12*
X71555556Y-59550000D03*
X71555556Y-62850000D03*
D13*
X63500000Y-73200000D03*
X65500000Y-73200000D03*
D10*
X90500000Y-92950000D03*
X90500000Y-89650000D03*
D12*
X87600000Y-104450000D03*
X87600000Y-107750000D03*
X101400000Y-104450000D03*
X101400000Y-107750000D03*
D10*
X81300000Y-92950000D03*
X81300000Y-89650000D03*
X67000000Y-92800000D03*
X67000000Y-89500000D03*
D12*
X99100000Y-104450000D03*
X99100000Y-107750000D03*
D14*
X65500000Y-77500000D03*
X63500000Y-77500000D03*
D11*
X85600000Y-59900000D03*
X87675000Y-59900000D03*
D10*
X73900000Y-92850000D03*
X73900000Y-89550000D03*
D15*
X77037500Y-75900000D03*
X74962500Y-75900000D03*
D11*
X94662500Y-78000000D03*
X96737500Y-78000000D03*
D12*
X96800000Y-104450000D03*
X96800000Y-107750000D03*
D10*
X76100000Y-107750000D03*
X76100000Y-104450000D03*
X114900000Y-73350000D03*
X114900000Y-70050000D03*
D12*
X55555556Y-59550000D03*
X55555556Y-62850000D03*
D16*
X91900000Y-65137500D03*
X91900000Y-63062500D03*
D10*
X64666667Y-92800000D03*
X64666667Y-89500000D03*
X64300000Y-107550000D03*
X64300000Y-104250000D03*
D14*
X65500000Y-75200000D03*
X63500000Y-75200000D03*
D10*
X55100000Y-107550000D03*
X55100000Y-104250000D03*
D12*
X94500000Y-104450000D03*
X94500000Y-107750000D03*
D15*
X79637500Y-68800000D03*
X77562500Y-68800000D03*
D10*
X85900000Y-92950000D03*
X85900000Y-89650000D03*
X105300000Y-73350000D03*
X105300000Y-70050000D03*
D17*
X85400000Y-84462500D03*
X85400000Y-86537500D03*
D12*
X85300000Y-104450000D03*
X85300000Y-107750000D03*
D18*
X98850000Y-73750000D03*
X98850000Y-70850000D03*
X101150000Y-70850000D03*
X101150000Y-73750000D03*
D12*
X69200000Y-59550000D03*
X69200000Y-62850000D03*
D10*
X59700000Y-107550000D03*
X59700000Y-104250000D03*
D12*
X58000000Y-59550000D03*
X58000000Y-62850000D03*
D10*
X62000000Y-107550000D03*
X62000000Y-104250000D03*
X83000000Y-107750000D03*
X83000000Y-104450000D03*
X80700000Y-107750000D03*
X80700000Y-104450000D03*
X71600000Y-92850000D03*
X71600000Y-89550000D03*
D12*
X73900000Y-59450000D03*
X73900000Y-62750000D03*
X92200000Y-104450000D03*
X92200000Y-107750000D03*
X89900000Y-104450000D03*
X89900000Y-107750000D03*
X106000000Y-104450000D03*
X106000000Y-107750000D03*
D14*
X65500000Y-70700000D03*
X63500000Y-70700000D03*
D19*
X87600000Y-84500000D03*
X87600000Y-86500000D03*
D10*
X88200000Y-92950000D03*
X88200000Y-89650000D03*
X107700000Y-73350000D03*
X107700000Y-70050000D03*
X110111108Y-73350000D03*
X110111108Y-70050000D03*
D20*
X59500000Y-77200000D03*
X59500000Y-76400000D03*
D21*
X59500000Y-75200000D03*
X59500000Y-74200000D03*
X59500000Y-73700000D03*
X59500000Y-72700000D03*
D20*
X59500000Y-71500000D03*
X59500000Y-70700000D03*
X59500000Y-70700000D03*
X59500000Y-71500000D03*
D21*
X59500000Y-72200000D03*
X59500000Y-73200000D03*
X59500000Y-74700000D03*
X59500000Y-75700000D03*
D20*
X59500000Y-76400000D03*
X59500000Y-77200000D03*
D22*
X79810555Y-72967409D03*
X80376241Y-72401724D03*
X80941926Y-71836039D03*
X81507611Y-71270353D03*
X82073297Y-70704668D03*
X82638982Y-70138982D03*
X83204668Y-69573297D03*
X83770353Y-69007611D03*
X84336039Y-68441926D03*
X84901724Y-67876241D03*
X85467409Y-67310555D03*
D23*
X87871573Y-67310555D03*
X88437258Y-67876241D03*
X89002943Y-68441926D03*
X89568629Y-69007611D03*
X90134314Y-69573297D03*
X90700000Y-70138982D03*
X91265685Y-70704668D03*
X91831371Y-71270353D03*
X92397056Y-71836039D03*
X92962741Y-72401724D03*
X93528427Y-72967409D03*
D22*
X93528427Y-75371573D03*
X92962741Y-75937258D03*
X92397056Y-76502943D03*
X91831371Y-77068629D03*
X91265685Y-77634314D03*
X90700000Y-78200000D03*
X90134314Y-78765685D03*
X89568629Y-79331371D03*
X89002943Y-79897056D03*
X88437258Y-80462741D03*
X87871573Y-81028427D03*
D23*
X85467409Y-81028427D03*
X84901724Y-80462741D03*
X84336039Y-79897056D03*
X83770353Y-79331371D03*
X83204668Y-78765685D03*
X82638982Y-78200000D03*
X82073297Y-77634314D03*
X81507611Y-77068629D03*
X80941926Y-76502943D03*
X80376241Y-75937258D03*
X79810555Y-75371573D03*
D14*
X89800000Y-63100000D03*
X87800000Y-63100000D03*
D10*
X57400000Y-107550000D03*
X57400000Y-104250000D03*
D15*
X100937500Y-76300000D03*
X98862500Y-76300000D03*
D12*
X103700000Y-104450000D03*
X103700000Y-107750000D03*
M02*
