G04 #@! TF.GenerationSoftware,KiCad,Pcbnew,8.0.9-8.0.9-0~ubuntu22.04.1*
G04 #@! TF.CreationDate,2025-05-22T00:01:40+08:00*
G04 #@! TF.ProjectId,macropad,6d616372-6f70-4616-942e-6b696361645f,rev?*
G04 #@! TF.SameCoordinates,Original*
G04 #@! TF.FileFunction,Legend,Top*
G04 #@! TF.FilePolarity,Positive*
%FSLAX46Y46*%
G04 Gerber Fmt 4.6, Leading zero omitted, Abs format (unit mm)*
G04 Created by KiCad (PCBNEW 8.0.9-8.0.9-0~ubuntu22.04.1) date 2025-05-22 00:01:40*
%MOMM*%
%LPD*%
G01*
G04 APERTURE LIST*
%ADD10C,1.900000*%
%ADD11C,3.450000*%
%ADD12C,2.200000*%
%ADD13C,2.700000*%
%ADD14C,0.650000*%
%ADD15O,1.600000X1.000000*%
%ADD16O,2.100000X1.000000*%
%ADD17C,0.600000*%
G04 APERTURE END LIST*
%LPC*%
D10*
X157500000Y-116700000D03*
D11*
X163000000Y-116700000D03*
D10*
X168500000Y-116700000D03*
D12*
X163000000Y-110800000D03*
X168000000Y-112900000D03*
D10*
X208500000Y-99700000D03*
D11*
X214000000Y-99700000D03*
D10*
X219500000Y-99700000D03*
D12*
X214000000Y-93800000D03*
X219000000Y-95900000D03*
D10*
X191500000Y-99700000D03*
D11*
X197000000Y-99700000D03*
D10*
X202500000Y-99700000D03*
D12*
X197000000Y-93800000D03*
X202000000Y-95900000D03*
D10*
X89500000Y-65700000D03*
D11*
X95000000Y-65700000D03*
D10*
X100500000Y-65700000D03*
D12*
X95000000Y-59800000D03*
X100000000Y-61900000D03*
D10*
X123500000Y-65700000D03*
D11*
X129000000Y-65700000D03*
D10*
X134500000Y-65700000D03*
D12*
X129000000Y-59800000D03*
X134000000Y-61900000D03*
D10*
X72500000Y-99700000D03*
D11*
X78000000Y-99700000D03*
D10*
X83500000Y-99700000D03*
D12*
X78000000Y-93800000D03*
X83000000Y-95900000D03*
D10*
X157500000Y-65700000D03*
D11*
X163000000Y-65700000D03*
D10*
X168500000Y-65700000D03*
D12*
X163000000Y-59800000D03*
X168000000Y-61900000D03*
D10*
X140500000Y-116700000D03*
D11*
X146000000Y-116700000D03*
D10*
X151500000Y-116700000D03*
D12*
X146000000Y-110800000D03*
X151000000Y-112900000D03*
D10*
X72500000Y-65700000D03*
D11*
X78000000Y-65700000D03*
D10*
X83500000Y-65700000D03*
D12*
X78000000Y-59800000D03*
X83000000Y-61900000D03*
D13*
X205500000Y-108200000D03*
D10*
X191500000Y-116700000D03*
D11*
X197000000Y-116700000D03*
D10*
X202500000Y-116700000D03*
D12*
X197000000Y-110800000D03*
X202000000Y-112900000D03*
D10*
X123500000Y-99700000D03*
D11*
X129000000Y-99700000D03*
D10*
X134500000Y-99700000D03*
D12*
X129000000Y-93800000D03*
X134000000Y-95900000D03*
D13*
X69500000Y-108200000D03*
D10*
X157500000Y-82700000D03*
D11*
X163000000Y-82700000D03*
D10*
X168500000Y-82700000D03*
D12*
X163000000Y-76800000D03*
X168000000Y-78900000D03*
D10*
X106500000Y-65700000D03*
D11*
X112000000Y-65700000D03*
D10*
X117500000Y-65700000D03*
D12*
X112000000Y-59800000D03*
X117000000Y-61900000D03*
D13*
X69500000Y-74200000D03*
D10*
X174500000Y-116700000D03*
D11*
X180000000Y-116700000D03*
D10*
X185500000Y-116700000D03*
D12*
X180000000Y-110800000D03*
X185000000Y-112900000D03*
D10*
X123500000Y-116700000D03*
D11*
X129000000Y-116700000D03*
D10*
X134500000Y-116700000D03*
D12*
X129000000Y-110800000D03*
X134000000Y-112900000D03*
D10*
X174500000Y-65700000D03*
D11*
X180000000Y-65700000D03*
D10*
X185500000Y-65700000D03*
D12*
X180000000Y-59800000D03*
X185000000Y-61900000D03*
D10*
X208500000Y-116700000D03*
D11*
X214000000Y-116700000D03*
D10*
X219500000Y-116700000D03*
D12*
X214000000Y-110800000D03*
X219000000Y-112900000D03*
D10*
X55500000Y-65700000D03*
D11*
X61000000Y-65700000D03*
D10*
X66500000Y-65700000D03*
D12*
X61000000Y-59800000D03*
X66000000Y-61900000D03*
D10*
X89500000Y-99700000D03*
D11*
X95000000Y-99700000D03*
D10*
X100500000Y-99700000D03*
D12*
X95000000Y-93800000D03*
X100000000Y-95900000D03*
D10*
X140500000Y-82700000D03*
D11*
X146000000Y-82700000D03*
D10*
X151500000Y-82700000D03*
D12*
X146000000Y-76800000D03*
X151000000Y-78900000D03*
D10*
X83500000Y-82700000D03*
D11*
X78000000Y-82700000D03*
D10*
X72500000Y-82700000D03*
D12*
X78000000Y-88600000D03*
X73000000Y-86500000D03*
D10*
X100500000Y-82700000D03*
D11*
X95000000Y-82700000D03*
D10*
X89500000Y-82700000D03*
D12*
X95000000Y-88600000D03*
X90000000Y-86500000D03*
D10*
X55500000Y-99700000D03*
D11*
X61000000Y-99700000D03*
D10*
X66500000Y-99700000D03*
D12*
X61000000Y-93800000D03*
X66000000Y-95900000D03*
D10*
X106500000Y-116700000D03*
D11*
X112000000Y-116700000D03*
D10*
X117500000Y-116700000D03*
D12*
X112000000Y-110800000D03*
X117000000Y-112900000D03*
D10*
X66500000Y-82700000D03*
D11*
X61000000Y-82700000D03*
D10*
X55500000Y-82700000D03*
D12*
X61000000Y-88600000D03*
X56000000Y-86500000D03*
D13*
X205500000Y-74200000D03*
D10*
X72500000Y-116700000D03*
D11*
X78000000Y-116700000D03*
D10*
X83500000Y-116700000D03*
D12*
X78000000Y-110800000D03*
X83000000Y-112900000D03*
D10*
X191500000Y-65700000D03*
D11*
X197000000Y-65700000D03*
D10*
X202500000Y-65700000D03*
D12*
X197000000Y-59800000D03*
X202000000Y-61900000D03*
D10*
X106500000Y-82700000D03*
D11*
X112000000Y-82700000D03*
D10*
X117500000Y-82700000D03*
D12*
X112000000Y-76800000D03*
X117000000Y-78900000D03*
D10*
X174500000Y-82700000D03*
D11*
X180000000Y-82700000D03*
D10*
X185500000Y-82700000D03*
D12*
X180000000Y-76800000D03*
X185000000Y-78900000D03*
D10*
X123500000Y-82700000D03*
D11*
X129000000Y-82700000D03*
D10*
X134500000Y-82700000D03*
D12*
X129000000Y-76800000D03*
X134000000Y-78900000D03*
D10*
X208500000Y-65700000D03*
D11*
X214000000Y-65700000D03*
D10*
X219500000Y-65700000D03*
D12*
X214000000Y-59800000D03*
X219000000Y-61900000D03*
D10*
X208500000Y-82700000D03*
D11*
X214000000Y-82700000D03*
D10*
X219500000Y-82700000D03*
D12*
X214000000Y-76800000D03*
X219000000Y-78900000D03*
D10*
X157500000Y-99700000D03*
D11*
X163000000Y-99700000D03*
D10*
X168500000Y-99700000D03*
D12*
X163000000Y-93800000D03*
X168000000Y-95900000D03*
D13*
X137500000Y-91200000D03*
D10*
X89500000Y-116700000D03*
D11*
X95000000Y-116700000D03*
D10*
X100500000Y-116700000D03*
D12*
X95000000Y-110800000D03*
X100000000Y-112900000D03*
D10*
X140500000Y-99700000D03*
D11*
X146000000Y-99700000D03*
D10*
X151500000Y-99700000D03*
D12*
X146000000Y-93800000D03*
X151000000Y-95900000D03*
D10*
X106500000Y-99700000D03*
D11*
X112000000Y-99700000D03*
D10*
X117500000Y-99700000D03*
D12*
X112000000Y-93800000D03*
X117000000Y-95900000D03*
D10*
X174500000Y-99700000D03*
D11*
X180000000Y-99700000D03*
D10*
X185500000Y-99700000D03*
D12*
X180000000Y-93800000D03*
X185000000Y-95900000D03*
D10*
X55500000Y-116700000D03*
D11*
X61000000Y-116700000D03*
D10*
X66500000Y-116700000D03*
D12*
X61000000Y-110800000D03*
X66000000Y-112900000D03*
D10*
X140500000Y-65700000D03*
D11*
X146000000Y-65700000D03*
D10*
X151500000Y-65700000D03*
D12*
X146000000Y-59800000D03*
X151000000Y-61900000D03*
D10*
X191500000Y-82700000D03*
D11*
X197000000Y-82700000D03*
D10*
X202500000Y-82700000D03*
D12*
X197000000Y-76800000D03*
X202000000Y-78900000D03*
D14*
X58055000Y-76840000D03*
X58055000Y-71060000D03*
D15*
X54405000Y-78270000D03*
D16*
X58585000Y-78270000D03*
D15*
X54405000Y-69630000D03*
D16*
X58585000Y-69630000D03*
D17*
X56000000Y-76000000D03*
X107000000Y-68000000D03*
X109000000Y-68000000D03*
X62600000Y-77200000D03*
X108000000Y-68000000D03*
X105000000Y-111000000D03*
X91600000Y-75000000D03*
X80800000Y-69800000D03*
X97000000Y-113000000D03*
X71000000Y-84000000D03*
X64000000Y-60000000D03*
X56000000Y-74000000D03*
X87000000Y-77000000D03*
X58000000Y-121000000D03*
X85000000Y-77000000D03*
X91000000Y-62600000D03*
X83000000Y-86000000D03*
X106000000Y-62000000D03*
X56000000Y-72000000D03*
X220000000Y-121000000D03*
X104000000Y-111000000D03*
X83000000Y-87000000D03*
X105000000Y-112000000D03*
X123100000Y-59000000D03*
X86000000Y-78000000D03*
X56000000Y-121000000D03*
X69000000Y-77000000D03*
X107000000Y-58900000D03*
X75000000Y-88000000D03*
X218000000Y-121000000D03*
X71000000Y-77000000D03*
X104000000Y-112000000D03*
X62600000Y-70700000D03*
X77000000Y-80000000D03*
X82000000Y-86000000D03*
X85800000Y-64600000D03*
X76812500Y-69550000D03*
X86000000Y-76000000D03*
X89000000Y-106000000D03*
X91000000Y-106000000D03*
X110000000Y-68000000D03*
X96370889Y-76729111D03*
X182600000Y-91200000D03*
X63900000Y-85700000D03*
X210900000Y-90700000D03*
X134700000Y-90600000D03*
X199400000Y-91400000D03*
X120550000Y-66900000D03*
X98300000Y-100900000D03*
X81900000Y-84100000D03*
X121350000Y-77621428D03*
X121200000Y-67550000D03*
X120700000Y-100000000D03*
X82600000Y-80000000D03*
X165600000Y-91200000D03*
X97700000Y-76100000D03*
X61700000Y-71500000D03*
X95600000Y-70100000D03*
X78300000Y-79000000D03*
X92700000Y-64200000D03*
X61700000Y-76300000D03*
X83700000Y-63700000D03*
X86600000Y-82200000D03*
X94900000Y-76900000D03*
X62400000Y-78700000D03*
X62100000Y-69500000D03*
X142700000Y-90500000D03*
X87700000Y-88700000D03*
X81815544Y-87742228D03*
X121300330Y-73800460D03*
X81100000Y-88100000D03*
X120834599Y-73150000D03*
X80400000Y-88500000D03*
X120253650Y-72600000D03*
X119629149Y-72100000D03*
X70909620Y-87590380D03*
X119100000Y-71500000D03*
X70100000Y-87700000D03*
X69300000Y-87700000D03*
X118600000Y-70850000D03*
X92788258Y-95900000D03*
X86100000Y-96300000D03*
X86400000Y-97200000D03*
X93362068Y-96550000D03*
X94089811Y-97050000D03*
X86715136Y-98000000D03*
X75400000Y-102000000D03*
X76100000Y-102500000D03*
X78600000Y-103000000D03*
X80750000Y-103500000D03*
X81900000Y-104000000D03*
X94400000Y-105700000D03*
X96600000Y-105600000D03*
X98600000Y-105600000D03*
X100100000Y-105500000D03*
X102100000Y-105400000D03*
X104200000Y-105400000D03*
X107400000Y-104500000D03*
X70909622Y-64209621D03*
X70000003Y-64200000D03*
X69200000Y-64200000D03*
%LPD*%
M02*
