G04 #@! TF.GenerationSoftware,KiCad,Pcbnew,8.0.9-8.0.9-0~ubuntu22.04.1*
G04 #@! TF.CreationDate,2025-05-22T00:01:40+08:00*
G04 #@! TF.ProjectId,macropad,6d616372-6f70-4616-942e-6b696361645f,rev?*
G04 #@! TF.SameCoordinates,Original*
G04 #@! TF.FileFunction,Legend,Bot*
G04 #@! TF.FilePolarity,Positive*
%FSLAX46Y46*%
G04 Gerber Fmt 4.6, Leading zero omitted, Abs format (unit mm)*
G04 Created by KiCad (PCBNEW 8.0.9-8.0.9-0~ubuntu22.04.1) date 2025-05-22 00:01:40*
%MOMM*%
%LPD*%
G01*
G04 APERTURE LIST*
G04 Aperture macros list*
%AMRoundRect*
0 Rectangle with rounded corners*
0 $1 Rounding radius*
0 $2 $3 $4 $5 $6 $7 $8 $9 X,Y pos of 4 corners*
0 Add a 4 corners polygon primitive as box body*
4,1,4,$2,$3,$4,$5,$6,$7,$8,$9,$2,$3,0*
0 Add four circle primitives for the rounded corners*
1,1,$1+$1,$2,$3*
1,1,$1+$1,$4,$5*
1,1,$1+$1,$6,$7*
1,1,$1+$1,$8,$9*
0 Add four rect primitives between the rounded corners*
20,1,$1+$1,$2,$3,$4,$5,0*
20,1,$1+$1,$4,$5,$6,$7,0*
20,1,$1+$1,$6,$7,$8,$9,0*
20,1,$1+$1,$8,$9,$2,$3,0*%
%AMRotRect*
0 Rectangle, with rotation*
0 The origin of the aperture is its center*
0 $1 length*
0 $2 width*
0 $3 Rotation angle, in degrees counterclockwise*
0 Add horizontal line*
21,1,$1,$2,0,0,$3*%
G04 Aperture macros list end*
%ADD10C,0.000000*%
%ADD11C,0.100000*%
%ADD12C,0.150000*%
%ADD13C,0.120000*%
%ADD14C,1.900000*%
%ADD15C,3.450000*%
%ADD16C,2.200000*%
%ADD17C,2.700000*%
%ADD18RoundRect,0.225000X0.375000X-0.225000X0.375000X0.225000X-0.375000X0.225000X-0.375000X-0.225000X0*%
%ADD19RoundRect,0.250000X-0.337500X-0.475000X0.337500X-0.475000X0.337500X0.475000X-0.337500X0.475000X0*%
%ADD20RoundRect,0.225000X-0.375000X0.225000X-0.375000X-0.225000X0.375000X-0.225000X0.375000X0.225000X0*%
%ADD21RoundRect,0.250000X-0.350000X-0.450000X0.350000X-0.450000X0.350000X0.450000X-0.350000X0.450000X0*%
%ADD22RoundRect,0.250000X0.350000X0.450000X-0.350000X0.450000X-0.350000X-0.450000X0.350000X-0.450000X0*%
%ADD23RoundRect,0.250000X0.337500X0.475000X-0.337500X0.475000X-0.337500X-0.475000X0.337500X-0.475000X0*%
%ADD24RoundRect,0.250000X0.475000X-0.337500X0.475000X0.337500X-0.475000X0.337500X-0.475000X-0.337500X0*%
%ADD25RoundRect,0.250000X-0.475000X0.337500X-0.475000X-0.337500X0.475000X-0.337500X0.475000X0.337500X0*%
%ADD26R,1.800000X2.100000*%
%ADD27RoundRect,0.250000X-0.450000X0.350000X-0.450000X-0.350000X0.450000X-0.350000X0.450000X0.350000X0*%
%ADD28C,0.650000*%
%ADD29R,1.450000X0.600000*%
%ADD30R,1.450000X0.300000*%
%ADD31O,1.600000X1.000000*%
%ADD32O,2.100000X1.000000*%
%ADD33RotRect,1.500000X0.550000X315.000000*%
%ADD34RotRect,1.500000X0.550000X225.000000*%
%ADD35C,0.600000*%
G04 APERTURE END LIST*
D10*
G36*
X143850000Y-120600000D02*
G01*
X143453125Y-120600000D01*
X143453125Y-120203125D01*
X143850000Y-120203125D01*
X143850000Y-120600000D01*
G37*
G36*
X145437500Y-120600000D02*
G01*
X145040625Y-120600000D01*
X145040625Y-120203125D01*
X145437500Y-120203125D01*
X145437500Y-120600000D01*
G37*
G36*
X144246875Y-120996875D02*
G01*
X143850000Y-120996875D01*
X143850000Y-120600000D01*
X144246875Y-120600000D01*
X144246875Y-120996875D01*
G37*
G36*
X145040625Y-120996875D02*
G01*
X144643750Y-120996875D01*
X144643750Y-120600000D01*
X145040625Y-120600000D01*
X145040625Y-120996875D01*
G37*
G36*
X153374999Y-121790625D02*
G01*
X152978124Y-121790625D01*
X152978124Y-120203125D01*
X153374999Y-120203125D01*
X153374999Y-121790625D01*
G37*
G36*
X154565624Y-121790625D02*
G01*
X154168749Y-121790625D01*
X154168749Y-121393750D01*
X154565624Y-121393750D01*
X154565624Y-121790625D01*
G37*
G36*
X113290628Y-122187500D02*
G01*
X112100000Y-122187500D01*
X112100000Y-121790625D01*
X111703127Y-121790625D01*
X111703127Y-120600000D01*
X112100000Y-120600000D01*
X112115877Y-120600000D01*
X112115877Y-121790625D01*
X112893751Y-121790625D01*
X112893751Y-120600000D01*
X112115877Y-120600000D01*
X112100000Y-120600000D01*
X112100000Y-120203125D01*
X113290628Y-120203125D01*
X113290628Y-121790625D01*
X113290628Y-122187500D01*
G37*
G36*
X114481253Y-122187500D02*
G01*
X114084375Y-122187500D01*
X114084375Y-121790625D01*
X114481253Y-121790625D01*
X114481253Y-122187500D01*
G37*
G36*
X115671877Y-122187500D02*
G01*
X115275000Y-122187500D01*
X115275000Y-121393750D01*
X114878126Y-121393750D01*
X114878126Y-121790625D01*
X114481253Y-121790625D01*
X114481253Y-120996875D01*
X114084375Y-120996875D01*
X114084375Y-120600000D01*
X114481253Y-120600000D01*
X114497126Y-120600000D01*
X114497126Y-120996875D01*
X115275000Y-120996875D01*
X115275000Y-120600000D01*
X114497126Y-120600000D01*
X114481253Y-120600000D01*
X114481253Y-120203125D01*
X115671877Y-120203125D01*
X115671877Y-120996875D01*
X115671877Y-122187500D01*
G37*
G36*
X116862501Y-122187500D02*
G01*
X116465628Y-122187500D01*
X116465628Y-120203125D01*
X116862501Y-120203125D01*
X116862501Y-122187500D01*
G37*
G36*
X118053125Y-120996875D02*
G01*
X118846876Y-120996875D01*
X118846876Y-120203125D01*
X119243750Y-120203125D01*
X119243750Y-122187500D01*
X118846876Y-122187500D01*
X118846876Y-121393750D01*
X118053125Y-121393750D01*
X118053125Y-122187500D01*
X117656252Y-122187500D01*
X117656252Y-120203125D01*
X118053125Y-120203125D01*
X118053125Y-120996875D01*
G37*
G36*
X121228125Y-120600000D02*
G01*
X120831251Y-120600000D01*
X120831251Y-122187500D01*
X120434378Y-122187500D01*
X120434378Y-120600000D01*
X120037500Y-120600000D01*
X120037500Y-120203125D01*
X121228125Y-120203125D01*
X121228125Y-120600000D01*
G37*
G36*
X124800001Y-122187500D02*
G01*
X123609377Y-122187500D01*
X123609377Y-121790625D01*
X124403126Y-121790625D01*
X124403126Y-121393750D01*
X123609377Y-121393750D01*
X123609377Y-120996875D01*
X124403126Y-120996875D01*
X124403126Y-120600000D01*
X123609377Y-120600000D01*
X123609377Y-120203125D01*
X124800001Y-120203125D01*
X124800001Y-122187500D01*
G37*
G36*
X125990625Y-120996875D02*
G01*
X126784376Y-120996875D01*
X126784376Y-120203125D01*
X127181252Y-120203125D01*
X127181252Y-122187500D01*
X126784376Y-122187500D01*
X126784376Y-121393750D01*
X125990625Y-121393750D01*
X125990625Y-122187500D01*
X125593750Y-122187500D01*
X125593750Y-120203125D01*
X125990625Y-120203125D01*
X125990625Y-120996875D01*
G37*
G36*
X129165627Y-120600000D02*
G01*
X128768751Y-120600000D01*
X128768751Y-122187500D01*
X128371876Y-122187500D01*
X128371876Y-120600000D01*
X127975000Y-120600000D01*
X127975000Y-120203125D01*
X129165627Y-120203125D01*
X129165627Y-120600000D01*
G37*
G36*
X133134375Y-122187500D02*
G01*
X131943750Y-122187500D01*
X131943750Y-121790625D01*
X131546875Y-121790625D01*
X131546875Y-120600000D01*
X131943750Y-120600000D01*
X131959625Y-120600000D01*
X131959625Y-121790625D01*
X132737501Y-121790625D01*
X132737501Y-120600000D01*
X131959625Y-120600000D01*
X131943750Y-120600000D01*
X131943750Y-120203125D01*
X133134375Y-120203125D01*
X133134375Y-121790625D01*
X133134375Y-122187500D01*
G37*
G36*
X134325001Y-122187500D02*
G01*
X133928125Y-122187500D01*
X133928125Y-121790625D01*
X134325001Y-121790625D01*
X134325001Y-122187500D01*
G37*
G36*
X135515625Y-122187500D02*
G01*
X135118750Y-122187500D01*
X135118750Y-121393750D01*
X134721876Y-121393750D01*
X134721876Y-121790625D01*
X134325001Y-121790625D01*
X134325001Y-120996875D01*
X133928125Y-120996875D01*
X133928125Y-120600000D01*
X134325001Y-120600000D01*
X134340876Y-120600000D01*
X134340876Y-120996875D01*
X135118750Y-120996875D01*
X135118750Y-120600000D01*
X134340876Y-120600000D01*
X134325001Y-120600000D01*
X134325001Y-120203125D01*
X135515625Y-120203125D01*
X135515625Y-120996875D01*
X135515625Y-122187500D01*
G37*
G36*
X137896875Y-122187500D02*
G01*
X137500000Y-122187500D01*
X137500000Y-121393750D01*
X136706251Y-121393750D01*
X136706251Y-122187500D01*
X136309376Y-122187500D01*
X136309376Y-120615875D01*
X136706251Y-120615875D01*
X136706251Y-120996875D01*
X137500000Y-120996875D01*
X137500000Y-120615875D01*
X136706251Y-120615875D01*
X136309376Y-120615875D01*
X136309376Y-120600000D01*
X136706251Y-120600000D01*
X136706251Y-120203125D01*
X137500000Y-120203125D01*
X137500000Y-120600000D01*
X137896875Y-120600000D01*
X137896875Y-120996875D01*
X137896875Y-122187500D01*
G37*
G36*
X140278125Y-121790625D02*
G01*
X139881250Y-121790625D01*
X139881250Y-122187500D01*
X139087501Y-122187500D01*
X139087501Y-121790625D01*
X138690626Y-121790625D01*
X138690626Y-120615875D01*
X139087501Y-120615875D01*
X139087501Y-121774750D01*
X139881250Y-121774750D01*
X139881250Y-120615875D01*
X139087501Y-120615875D01*
X138690626Y-120615875D01*
X138690626Y-120600000D01*
X139087501Y-120600000D01*
X139087501Y-120203125D01*
X139881250Y-120203125D01*
X139881250Y-120600000D01*
X140278125Y-120600000D01*
X140278125Y-121774750D01*
X140278125Y-121790625D01*
G37*
G36*
X142659375Y-121790625D02*
G01*
X142659375Y-122187500D01*
X141468750Y-122187500D01*
X141468750Y-121790625D01*
X141071875Y-121790625D01*
X141071875Y-121393750D01*
X141484626Y-121393750D01*
X141484626Y-121790625D01*
X142262500Y-121790625D01*
X142262500Y-121393750D01*
X141484626Y-121393750D01*
X141071875Y-121393750D01*
X141071875Y-120600000D01*
X141468750Y-120600000D01*
X141484626Y-120600000D01*
X141484626Y-120996875D01*
X142262500Y-120996875D01*
X142262500Y-120600000D01*
X141484626Y-120600000D01*
X141468750Y-120600000D01*
X141468750Y-120203125D01*
X142659375Y-120203125D01*
X142659375Y-120996875D01*
X142659375Y-121790625D01*
G37*
G36*
X144643750Y-122187500D02*
G01*
X144246875Y-122187500D01*
X144246875Y-120996875D01*
X144643750Y-120996875D01*
X144643750Y-122187500D01*
G37*
G36*
X146628125Y-122187500D02*
G01*
X146231250Y-122187500D01*
X146231250Y-121790625D01*
X146628125Y-121790625D01*
X146628125Y-122187500D01*
G37*
G36*
X147818750Y-122187500D02*
G01*
X147421874Y-122187500D01*
X147421874Y-121393750D01*
X147025000Y-121393750D01*
X147025000Y-121790625D01*
X146628125Y-121790625D01*
X146628125Y-120996875D01*
X146231250Y-120996875D01*
X146231250Y-120600000D01*
X146628125Y-120600000D01*
X146644000Y-120600000D01*
X146644000Y-120996875D01*
X147421874Y-120996875D01*
X147421874Y-120600000D01*
X146644000Y-120600000D01*
X146628125Y-120600000D01*
X146628125Y-120203125D01*
X147818750Y-120203125D01*
X147818750Y-120996875D01*
X147818750Y-122187500D01*
G37*
G36*
X149009375Y-122187500D02*
G01*
X148612500Y-122187500D01*
X148612500Y-121790625D01*
X149009375Y-121790625D01*
X149009375Y-122187500D01*
G37*
G36*
X150200000Y-122187500D02*
G01*
X149803124Y-122187500D01*
X149803124Y-121393750D01*
X149406249Y-121393750D01*
X149406249Y-121790625D01*
X149009375Y-121790625D01*
X149009375Y-120996875D01*
X148612500Y-120996875D01*
X148612500Y-120600000D01*
X149009375Y-120600000D01*
X149025249Y-120600000D01*
X149025249Y-120996875D01*
X149803124Y-120996875D01*
X149803124Y-120600000D01*
X149025249Y-120600000D01*
X149009375Y-120600000D01*
X149009375Y-120203125D01*
X150200000Y-120203125D01*
X150200000Y-120996875D01*
X150200000Y-122187500D01*
G37*
G36*
X152184375Y-122187500D02*
G01*
X150993750Y-122187500D01*
X150993750Y-121790625D01*
X151787499Y-121790625D01*
X151787499Y-121393750D01*
X150993750Y-121393750D01*
X150993750Y-120996875D01*
X151787499Y-120996875D01*
X151787499Y-120600000D01*
X150993750Y-120600000D01*
X150993750Y-120203125D01*
X152184375Y-120203125D01*
X152184375Y-122187500D01*
G37*
G36*
X154168749Y-122187500D02*
G01*
X153374999Y-122187500D01*
X153374999Y-121790625D01*
X154168749Y-121790625D01*
X154168749Y-122187500D01*
G37*
D11*
X64110401Y-122472419D02*
X64110401Y-123186704D01*
X64110401Y-123186704D02*
X64158020Y-123329561D01*
X64158020Y-123329561D02*
X64253258Y-123424800D01*
X64253258Y-123424800D02*
X64396115Y-123472419D01*
X64396115Y-123472419D02*
X64491353Y-123472419D01*
X63158020Y-123472419D02*
X63634210Y-123472419D01*
X63634210Y-123472419D02*
X63634210Y-122472419D01*
X62253258Y-123377180D02*
X62300877Y-123424800D01*
X62300877Y-123424800D02*
X62443734Y-123472419D01*
X62443734Y-123472419D02*
X62538972Y-123472419D01*
X62538972Y-123472419D02*
X62681829Y-123424800D01*
X62681829Y-123424800D02*
X62777067Y-123329561D01*
X62777067Y-123329561D02*
X62824686Y-123234323D01*
X62824686Y-123234323D02*
X62872305Y-123043847D01*
X62872305Y-123043847D02*
X62872305Y-122900990D01*
X62872305Y-122900990D02*
X62824686Y-122710514D01*
X62824686Y-122710514D02*
X62777067Y-122615276D01*
X62777067Y-122615276D02*
X62681829Y-122520038D01*
X62681829Y-122520038D02*
X62538972Y-122472419D01*
X62538972Y-122472419D02*
X62443734Y-122472419D01*
X62443734Y-122472419D02*
X62300877Y-122520038D01*
X62300877Y-122520038D02*
X62253258Y-122567657D01*
X61538972Y-122472419D02*
X61538972Y-123186704D01*
X61538972Y-123186704D02*
X61586591Y-123329561D01*
X61586591Y-123329561D02*
X61681829Y-123424800D01*
X61681829Y-123424800D02*
X61824686Y-123472419D01*
X61824686Y-123472419D02*
X61919924Y-123472419D01*
X60586591Y-123472419D02*
X61062781Y-123472419D01*
X61062781Y-123472419D02*
X61062781Y-122472419D01*
X59681829Y-123377180D02*
X59729448Y-123424800D01*
X59729448Y-123424800D02*
X59872305Y-123472419D01*
X59872305Y-123472419D02*
X59967543Y-123472419D01*
X59967543Y-123472419D02*
X60110400Y-123424800D01*
X60110400Y-123424800D02*
X60205638Y-123329561D01*
X60205638Y-123329561D02*
X60253257Y-123234323D01*
X60253257Y-123234323D02*
X60300876Y-123043847D01*
X60300876Y-123043847D02*
X60300876Y-122900990D01*
X60300876Y-122900990D02*
X60253257Y-122710514D01*
X60253257Y-122710514D02*
X60205638Y-122615276D01*
X60205638Y-122615276D02*
X60110400Y-122520038D01*
X60110400Y-122520038D02*
X59967543Y-122472419D01*
X59967543Y-122472419D02*
X59872305Y-122472419D01*
X59872305Y-122472419D02*
X59729448Y-122520038D01*
X59729448Y-122520038D02*
X59681829Y-122567657D01*
X58967543Y-122472419D02*
X58967543Y-123186704D01*
X58967543Y-123186704D02*
X59015162Y-123329561D01*
X59015162Y-123329561D02*
X59110400Y-123424800D01*
X59110400Y-123424800D02*
X59253257Y-123472419D01*
X59253257Y-123472419D02*
X59348495Y-123472419D01*
X58015162Y-123472419D02*
X58491352Y-123472419D01*
X58491352Y-123472419D02*
X58491352Y-122472419D01*
X57110400Y-123377180D02*
X57158019Y-123424800D01*
X57158019Y-123424800D02*
X57300876Y-123472419D01*
X57300876Y-123472419D02*
X57396114Y-123472419D01*
X57396114Y-123472419D02*
X57538971Y-123424800D01*
X57538971Y-123424800D02*
X57634209Y-123329561D01*
X57634209Y-123329561D02*
X57681828Y-123234323D01*
X57681828Y-123234323D02*
X57729447Y-123043847D01*
X57729447Y-123043847D02*
X57729447Y-122900990D01*
X57729447Y-122900990D02*
X57681828Y-122710514D01*
X57681828Y-122710514D02*
X57634209Y-122615276D01*
X57634209Y-122615276D02*
X57538971Y-122520038D01*
X57538971Y-122520038D02*
X57396114Y-122472419D01*
X57396114Y-122472419D02*
X57300876Y-122472419D01*
X57300876Y-122472419D02*
X57158019Y-122520038D01*
X57158019Y-122520038D02*
X57110400Y-122567657D01*
X56396114Y-122472419D02*
X56396114Y-123186704D01*
X56396114Y-123186704D02*
X56443733Y-123329561D01*
X56443733Y-123329561D02*
X56538971Y-123424800D01*
X56538971Y-123424800D02*
X56681828Y-123472419D01*
X56681828Y-123472419D02*
X56777066Y-123472419D01*
X55443733Y-123472419D02*
X55919923Y-123472419D01*
X55919923Y-123472419D02*
X55919923Y-122472419D01*
X54538971Y-123377180D02*
X54586590Y-123424800D01*
X54586590Y-123424800D02*
X54729447Y-123472419D01*
X54729447Y-123472419D02*
X54824685Y-123472419D01*
X54824685Y-123472419D02*
X54967542Y-123424800D01*
X54967542Y-123424800D02*
X55062780Y-123329561D01*
X55062780Y-123329561D02*
X55110399Y-123234323D01*
X55110399Y-123234323D02*
X55158018Y-123043847D01*
X55158018Y-123043847D02*
X55158018Y-122900990D01*
X55158018Y-122900990D02*
X55110399Y-122710514D01*
X55110399Y-122710514D02*
X55062780Y-122615276D01*
X55062780Y-122615276D02*
X54967542Y-122520038D01*
X54967542Y-122520038D02*
X54824685Y-122472419D01*
X54824685Y-122472419D02*
X54729447Y-122472419D01*
X54729447Y-122472419D02*
X54586590Y-122520038D01*
X54586590Y-122520038D02*
X54538971Y-122567657D01*
D12*
X103066666Y-68759580D02*
X103114285Y-68807200D01*
X103114285Y-68807200D02*
X103257142Y-68854819D01*
X103257142Y-68854819D02*
X103352380Y-68854819D01*
X103352380Y-68854819D02*
X103495237Y-68807200D01*
X103495237Y-68807200D02*
X103590475Y-68711961D01*
X103590475Y-68711961D02*
X103638094Y-68616723D01*
X103638094Y-68616723D02*
X103685713Y-68426247D01*
X103685713Y-68426247D02*
X103685713Y-68283390D01*
X103685713Y-68283390D02*
X103638094Y-68092914D01*
X103638094Y-68092914D02*
X103590475Y-67997676D01*
X103590475Y-67997676D02*
X103495237Y-67902438D01*
X103495237Y-67902438D02*
X103352380Y-67854819D01*
X103352380Y-67854819D02*
X103257142Y-67854819D01*
X103257142Y-67854819D02*
X103114285Y-67902438D01*
X103114285Y-67902438D02*
X103066666Y-67950057D01*
X102733332Y-67854819D02*
X102066666Y-67854819D01*
X102066666Y-67854819D02*
X102495237Y-68854819D01*
X67466666Y-72754819D02*
X67799999Y-72278628D01*
X68038094Y-72754819D02*
X68038094Y-71754819D01*
X68038094Y-71754819D02*
X67657142Y-71754819D01*
X67657142Y-71754819D02*
X67561904Y-71802438D01*
X67561904Y-71802438D02*
X67514285Y-71850057D01*
X67514285Y-71850057D02*
X67466666Y-71945295D01*
X67466666Y-71945295D02*
X67466666Y-72088152D01*
X67466666Y-72088152D02*
X67514285Y-72183390D01*
X67514285Y-72183390D02*
X67561904Y-72231009D01*
X67561904Y-72231009D02*
X67657142Y-72278628D01*
X67657142Y-72278628D02*
X68038094Y-72278628D01*
X67085713Y-71850057D02*
X67038094Y-71802438D01*
X67038094Y-71802438D02*
X66942856Y-71754819D01*
X66942856Y-71754819D02*
X66704761Y-71754819D01*
X66704761Y-71754819D02*
X66609523Y-71802438D01*
X66609523Y-71802438D02*
X66561904Y-71850057D01*
X66561904Y-71850057D02*
X66514285Y-71945295D01*
X66514285Y-71945295D02*
X66514285Y-72040533D01*
X66514285Y-72040533D02*
X66561904Y-72183390D01*
X66561904Y-72183390D02*
X67133332Y-72754819D01*
X67133332Y-72754819D02*
X66514285Y-72754819D01*
X67466666Y-78254819D02*
X67799999Y-77778628D01*
X68038094Y-78254819D02*
X68038094Y-77254819D01*
X68038094Y-77254819D02*
X67657142Y-77254819D01*
X67657142Y-77254819D02*
X67561904Y-77302438D01*
X67561904Y-77302438D02*
X67514285Y-77350057D01*
X67514285Y-77350057D02*
X67466666Y-77445295D01*
X67466666Y-77445295D02*
X67466666Y-77588152D01*
X67466666Y-77588152D02*
X67514285Y-77683390D01*
X67514285Y-77683390D02*
X67561904Y-77731009D01*
X67561904Y-77731009D02*
X67657142Y-77778628D01*
X67657142Y-77778628D02*
X68038094Y-77778628D01*
X66609523Y-77254819D02*
X66799999Y-77254819D01*
X66799999Y-77254819D02*
X66895237Y-77302438D01*
X66895237Y-77302438D02*
X66942856Y-77350057D01*
X66942856Y-77350057D02*
X67038094Y-77492914D01*
X67038094Y-77492914D02*
X67085713Y-77683390D01*
X67085713Y-77683390D02*
X67085713Y-78064342D01*
X67085713Y-78064342D02*
X67038094Y-78159580D01*
X67038094Y-78159580D02*
X66990475Y-78207200D01*
X66990475Y-78207200D02*
X66895237Y-78254819D01*
X66895237Y-78254819D02*
X66704761Y-78254819D01*
X66704761Y-78254819D02*
X66609523Y-78207200D01*
X66609523Y-78207200D02*
X66561904Y-78159580D01*
X66561904Y-78159580D02*
X66514285Y-78064342D01*
X66514285Y-78064342D02*
X66514285Y-77826247D01*
X66514285Y-77826247D02*
X66561904Y-77731009D01*
X66561904Y-77731009D02*
X66609523Y-77683390D01*
X66609523Y-77683390D02*
X66704761Y-77635771D01*
X66704761Y-77635771D02*
X66895237Y-77635771D01*
X66895237Y-77635771D02*
X66990475Y-77683390D01*
X66990475Y-77683390D02*
X67038094Y-77731009D01*
X67038094Y-77731009D02*
X67085713Y-77826247D01*
X76166666Y-74579580D02*
X76214285Y-74627200D01*
X76214285Y-74627200D02*
X76357142Y-74674819D01*
X76357142Y-74674819D02*
X76452380Y-74674819D01*
X76452380Y-74674819D02*
X76595237Y-74627200D01*
X76595237Y-74627200D02*
X76690475Y-74531961D01*
X76690475Y-74531961D02*
X76738094Y-74436723D01*
X76738094Y-74436723D02*
X76785713Y-74246247D01*
X76785713Y-74246247D02*
X76785713Y-74103390D01*
X76785713Y-74103390D02*
X76738094Y-73912914D01*
X76738094Y-73912914D02*
X76690475Y-73817676D01*
X76690475Y-73817676D02*
X76595237Y-73722438D01*
X76595237Y-73722438D02*
X76452380Y-73674819D01*
X76452380Y-73674819D02*
X76357142Y-73674819D01*
X76357142Y-73674819D02*
X76214285Y-73722438D01*
X76214285Y-73722438D02*
X76166666Y-73770057D01*
X75833332Y-73674819D02*
X75214285Y-73674819D01*
X75214285Y-73674819D02*
X75547618Y-74055771D01*
X75547618Y-74055771D02*
X75404761Y-74055771D01*
X75404761Y-74055771D02*
X75309523Y-74103390D01*
X75309523Y-74103390D02*
X75261904Y-74151009D01*
X75261904Y-74151009D02*
X75214285Y-74246247D01*
X75214285Y-74246247D02*
X75214285Y-74484342D01*
X75214285Y-74484342D02*
X75261904Y-74579580D01*
X75261904Y-74579580D02*
X75309523Y-74627200D01*
X75309523Y-74627200D02*
X75404761Y-74674819D01*
X75404761Y-74674819D02*
X75690475Y-74674819D01*
X75690475Y-74674819D02*
X75785713Y-74627200D01*
X75785713Y-74627200D02*
X75833332Y-74579580D01*
X95866666Y-80039580D02*
X95914285Y-80087200D01*
X95914285Y-80087200D02*
X96057142Y-80134819D01*
X96057142Y-80134819D02*
X96152380Y-80134819D01*
X96152380Y-80134819D02*
X96295237Y-80087200D01*
X96295237Y-80087200D02*
X96390475Y-79991961D01*
X96390475Y-79991961D02*
X96438094Y-79896723D01*
X96438094Y-79896723D02*
X96485713Y-79706247D01*
X96485713Y-79706247D02*
X96485713Y-79563390D01*
X96485713Y-79563390D02*
X96438094Y-79372914D01*
X96438094Y-79372914D02*
X96390475Y-79277676D01*
X96390475Y-79277676D02*
X96295237Y-79182438D01*
X96295237Y-79182438D02*
X96152380Y-79134819D01*
X96152380Y-79134819D02*
X96057142Y-79134819D01*
X96057142Y-79134819D02*
X95914285Y-79182438D01*
X95914285Y-79182438D02*
X95866666Y-79230057D01*
X95009523Y-79468152D02*
X95009523Y-80134819D01*
X95247618Y-79087200D02*
X95485713Y-79801485D01*
X95485713Y-79801485D02*
X94866666Y-79801485D01*
X94066666Y-63459580D02*
X94114285Y-63507200D01*
X94114285Y-63507200D02*
X94257142Y-63554819D01*
X94257142Y-63554819D02*
X94352380Y-63554819D01*
X94352380Y-63554819D02*
X94495237Y-63507200D01*
X94495237Y-63507200D02*
X94590475Y-63411961D01*
X94590475Y-63411961D02*
X94638094Y-63316723D01*
X94638094Y-63316723D02*
X94685713Y-63126247D01*
X94685713Y-63126247D02*
X94685713Y-62983390D01*
X94685713Y-62983390D02*
X94638094Y-62792914D01*
X94638094Y-62792914D02*
X94590475Y-62697676D01*
X94590475Y-62697676D02*
X94495237Y-62602438D01*
X94495237Y-62602438D02*
X94352380Y-62554819D01*
X94352380Y-62554819D02*
X94257142Y-62554819D01*
X94257142Y-62554819D02*
X94114285Y-62602438D01*
X94114285Y-62602438D02*
X94066666Y-62650057D01*
X93161904Y-62554819D02*
X93638094Y-62554819D01*
X93638094Y-62554819D02*
X93685713Y-63031009D01*
X93685713Y-63031009D02*
X93638094Y-62983390D01*
X93638094Y-62983390D02*
X93542856Y-62935771D01*
X93542856Y-62935771D02*
X93304761Y-62935771D01*
X93304761Y-62935771D02*
X93209523Y-62983390D01*
X93209523Y-62983390D02*
X93161904Y-63031009D01*
X93161904Y-63031009D02*
X93114285Y-63126247D01*
X93114285Y-63126247D02*
X93114285Y-63364342D01*
X93114285Y-63364342D02*
X93161904Y-63459580D01*
X93161904Y-63459580D02*
X93209523Y-63507200D01*
X93209523Y-63507200D02*
X93304761Y-63554819D01*
X93304761Y-63554819D02*
X93542856Y-63554819D01*
X93542856Y-63554819D02*
X93638094Y-63507200D01*
X93638094Y-63507200D02*
X93685713Y-63459580D01*
X67466666Y-76354819D02*
X67799999Y-75878628D01*
X68038094Y-76354819D02*
X68038094Y-75354819D01*
X68038094Y-75354819D02*
X67657142Y-75354819D01*
X67657142Y-75354819D02*
X67561904Y-75402438D01*
X67561904Y-75402438D02*
X67514285Y-75450057D01*
X67514285Y-75450057D02*
X67466666Y-75545295D01*
X67466666Y-75545295D02*
X67466666Y-75688152D01*
X67466666Y-75688152D02*
X67514285Y-75783390D01*
X67514285Y-75783390D02*
X67561904Y-75831009D01*
X67561904Y-75831009D02*
X67657142Y-75878628D01*
X67657142Y-75878628D02*
X68038094Y-75878628D01*
X67133332Y-75354819D02*
X66514285Y-75354819D01*
X66514285Y-75354819D02*
X66847618Y-75735771D01*
X66847618Y-75735771D02*
X66704761Y-75735771D01*
X66704761Y-75735771D02*
X66609523Y-75783390D01*
X66609523Y-75783390D02*
X66561904Y-75831009D01*
X66561904Y-75831009D02*
X66514285Y-75926247D01*
X66514285Y-75926247D02*
X66514285Y-76164342D01*
X66514285Y-76164342D02*
X66561904Y-76259580D01*
X66561904Y-76259580D02*
X66609523Y-76307200D01*
X66609523Y-76307200D02*
X66704761Y-76354819D01*
X66704761Y-76354819D02*
X66990475Y-76354819D01*
X66990475Y-76354819D02*
X67085713Y-76307200D01*
X67085713Y-76307200D02*
X67133332Y-76259580D01*
X78666666Y-70859580D02*
X78714285Y-70907200D01*
X78714285Y-70907200D02*
X78857142Y-70954819D01*
X78857142Y-70954819D02*
X78952380Y-70954819D01*
X78952380Y-70954819D02*
X79095237Y-70907200D01*
X79095237Y-70907200D02*
X79190475Y-70811961D01*
X79190475Y-70811961D02*
X79238094Y-70716723D01*
X79238094Y-70716723D02*
X79285713Y-70526247D01*
X79285713Y-70526247D02*
X79285713Y-70383390D01*
X79285713Y-70383390D02*
X79238094Y-70192914D01*
X79238094Y-70192914D02*
X79190475Y-70097676D01*
X79190475Y-70097676D02*
X79095237Y-70002438D01*
X79095237Y-70002438D02*
X78952380Y-69954819D01*
X78952380Y-69954819D02*
X78857142Y-69954819D01*
X78857142Y-69954819D02*
X78714285Y-70002438D01*
X78714285Y-70002438D02*
X78666666Y-70050057D01*
X77714285Y-70954819D02*
X78285713Y-70954819D01*
X77999999Y-70954819D02*
X77999999Y-69954819D01*
X77999999Y-69954819D02*
X78095237Y-70097676D01*
X78095237Y-70097676D02*
X78190475Y-70192914D01*
X78190475Y-70192914D02*
X78285713Y-70240533D01*
X83886666Y-85359580D02*
X83934285Y-85407200D01*
X83934285Y-85407200D02*
X84077142Y-85454819D01*
X84077142Y-85454819D02*
X84172380Y-85454819D01*
X84172380Y-85454819D02*
X84315237Y-85407200D01*
X84315237Y-85407200D02*
X84410475Y-85311961D01*
X84410475Y-85311961D02*
X84458094Y-85216723D01*
X84458094Y-85216723D02*
X84505713Y-85026247D01*
X84505713Y-85026247D02*
X84505713Y-84883390D01*
X84505713Y-84883390D02*
X84458094Y-84692914D01*
X84458094Y-84692914D02*
X84410475Y-84597676D01*
X84410475Y-84597676D02*
X84315237Y-84502438D01*
X84315237Y-84502438D02*
X84172380Y-84454819D01*
X84172380Y-84454819D02*
X84077142Y-84454819D01*
X84077142Y-84454819D02*
X83934285Y-84502438D01*
X83934285Y-84502438D02*
X83886666Y-84550057D01*
X83505713Y-84550057D02*
X83458094Y-84502438D01*
X83458094Y-84502438D02*
X83362856Y-84454819D01*
X83362856Y-84454819D02*
X83124761Y-84454819D01*
X83124761Y-84454819D02*
X83029523Y-84502438D01*
X83029523Y-84502438D02*
X82981904Y-84550057D01*
X82981904Y-84550057D02*
X82934285Y-84645295D01*
X82934285Y-84645295D02*
X82934285Y-84740533D01*
X82934285Y-84740533D02*
X82981904Y-84883390D01*
X82981904Y-84883390D02*
X83553332Y-85454819D01*
X83553332Y-85454819D02*
X82934285Y-85454819D01*
X103526190Y-72278628D02*
X103526190Y-72754819D01*
X103859523Y-71754819D02*
X103526190Y-72278628D01*
X103526190Y-72278628D02*
X103192857Y-71754819D01*
X102335714Y-72754819D02*
X102907142Y-72754819D01*
X102621428Y-72754819D02*
X102621428Y-71754819D01*
X102621428Y-71754819D02*
X102716666Y-71897676D01*
X102716666Y-71897676D02*
X102811904Y-71992914D01*
X102811904Y-71992914D02*
X102907142Y-72040533D01*
X67466666Y-70954819D02*
X67799999Y-70478628D01*
X68038094Y-70954819D02*
X68038094Y-69954819D01*
X68038094Y-69954819D02*
X67657142Y-69954819D01*
X67657142Y-69954819D02*
X67561904Y-70002438D01*
X67561904Y-70002438D02*
X67514285Y-70050057D01*
X67514285Y-70050057D02*
X67466666Y-70145295D01*
X67466666Y-70145295D02*
X67466666Y-70288152D01*
X67466666Y-70288152D02*
X67514285Y-70383390D01*
X67514285Y-70383390D02*
X67561904Y-70431009D01*
X67561904Y-70431009D02*
X67657142Y-70478628D01*
X67657142Y-70478628D02*
X68038094Y-70478628D01*
X66561904Y-69954819D02*
X67038094Y-69954819D01*
X67038094Y-69954819D02*
X67085713Y-70431009D01*
X67085713Y-70431009D02*
X67038094Y-70383390D01*
X67038094Y-70383390D02*
X66942856Y-70335771D01*
X66942856Y-70335771D02*
X66704761Y-70335771D01*
X66704761Y-70335771D02*
X66609523Y-70383390D01*
X66609523Y-70383390D02*
X66561904Y-70431009D01*
X66561904Y-70431009D02*
X66514285Y-70526247D01*
X66514285Y-70526247D02*
X66514285Y-70764342D01*
X66514285Y-70764342D02*
X66561904Y-70859580D01*
X66561904Y-70859580D02*
X66609523Y-70907200D01*
X66609523Y-70907200D02*
X66704761Y-70954819D01*
X66704761Y-70954819D02*
X66942856Y-70954819D01*
X66942856Y-70954819D02*
X67038094Y-70907200D01*
X67038094Y-70907200D02*
X67085713Y-70859580D01*
X89766666Y-85054819D02*
X90099999Y-84578628D01*
X90338094Y-85054819D02*
X90338094Y-84054819D01*
X90338094Y-84054819D02*
X89957142Y-84054819D01*
X89957142Y-84054819D02*
X89861904Y-84102438D01*
X89861904Y-84102438D02*
X89814285Y-84150057D01*
X89814285Y-84150057D02*
X89766666Y-84245295D01*
X89766666Y-84245295D02*
X89766666Y-84388152D01*
X89766666Y-84388152D02*
X89814285Y-84483390D01*
X89814285Y-84483390D02*
X89861904Y-84531009D01*
X89861904Y-84531009D02*
X89957142Y-84578628D01*
X89957142Y-84578628D02*
X90338094Y-84578628D01*
X88814285Y-85054819D02*
X89385713Y-85054819D01*
X89099999Y-85054819D02*
X89099999Y-84054819D01*
X89099999Y-84054819D02*
X89195237Y-84197676D01*
X89195237Y-84197676D02*
X89290475Y-84292914D01*
X89290475Y-84292914D02*
X89385713Y-84340533D01*
X87431395Y-73624310D02*
X87431395Y-74433833D01*
X87431395Y-74433833D02*
X87383776Y-74529071D01*
X87383776Y-74529071D02*
X87336157Y-74576691D01*
X87336157Y-74576691D02*
X87240919Y-74624310D01*
X87240919Y-74624310D02*
X87050443Y-74624310D01*
X87050443Y-74624310D02*
X86955205Y-74576691D01*
X86955205Y-74576691D02*
X86907586Y-74529071D01*
X86907586Y-74529071D02*
X86859967Y-74433833D01*
X86859967Y-74433833D02*
X86859967Y-73624310D01*
X85859967Y-74624310D02*
X86431395Y-74624310D01*
X86145681Y-74624310D02*
X86145681Y-73624310D01*
X86145681Y-73624310D02*
X86240919Y-73767167D01*
X86240919Y-73767167D02*
X86336157Y-73862405D01*
X86336157Y-73862405D02*
X86431395Y-73910024D01*
X88966666Y-62054819D02*
X89299999Y-61578628D01*
X89538094Y-62054819D02*
X89538094Y-61054819D01*
X89538094Y-61054819D02*
X89157142Y-61054819D01*
X89157142Y-61054819D02*
X89061904Y-61102438D01*
X89061904Y-61102438D02*
X89014285Y-61150057D01*
X89014285Y-61150057D02*
X88966666Y-61245295D01*
X88966666Y-61245295D02*
X88966666Y-61388152D01*
X88966666Y-61388152D02*
X89014285Y-61483390D01*
X89014285Y-61483390D02*
X89061904Y-61531009D01*
X89061904Y-61531009D02*
X89157142Y-61578628D01*
X89157142Y-61578628D02*
X89538094Y-61578628D01*
X88109523Y-61388152D02*
X88109523Y-62054819D01*
X88347618Y-61007200D02*
X88585713Y-61721485D01*
X88585713Y-61721485D02*
X87966666Y-61721485D01*
X100066666Y-78359580D02*
X100114285Y-78407200D01*
X100114285Y-78407200D02*
X100257142Y-78454819D01*
X100257142Y-78454819D02*
X100352380Y-78454819D01*
X100352380Y-78454819D02*
X100495237Y-78407200D01*
X100495237Y-78407200D02*
X100590475Y-78311961D01*
X100590475Y-78311961D02*
X100638094Y-78216723D01*
X100638094Y-78216723D02*
X100685713Y-78026247D01*
X100685713Y-78026247D02*
X100685713Y-77883390D01*
X100685713Y-77883390D02*
X100638094Y-77692914D01*
X100638094Y-77692914D02*
X100590475Y-77597676D01*
X100590475Y-77597676D02*
X100495237Y-77502438D01*
X100495237Y-77502438D02*
X100352380Y-77454819D01*
X100352380Y-77454819D02*
X100257142Y-77454819D01*
X100257142Y-77454819D02*
X100114285Y-77502438D01*
X100114285Y-77502438D02*
X100066666Y-77550057D01*
X99209523Y-77454819D02*
X99399999Y-77454819D01*
X99399999Y-77454819D02*
X99495237Y-77502438D01*
X99495237Y-77502438D02*
X99542856Y-77550057D01*
X99542856Y-77550057D02*
X99638094Y-77692914D01*
X99638094Y-77692914D02*
X99685713Y-77883390D01*
X99685713Y-77883390D02*
X99685713Y-78264342D01*
X99685713Y-78264342D02*
X99638094Y-78359580D01*
X99638094Y-78359580D02*
X99590475Y-78407200D01*
X99590475Y-78407200D02*
X99495237Y-78454819D01*
X99495237Y-78454819D02*
X99304761Y-78454819D01*
X99304761Y-78454819D02*
X99209523Y-78407200D01*
X99209523Y-78407200D02*
X99161904Y-78359580D01*
X99161904Y-78359580D02*
X99114285Y-78264342D01*
X99114285Y-78264342D02*
X99114285Y-78026247D01*
X99114285Y-78026247D02*
X99161904Y-77931009D01*
X99161904Y-77931009D02*
X99209523Y-77883390D01*
X99209523Y-77883390D02*
X99304761Y-77835771D01*
X99304761Y-77835771D02*
X99495237Y-77835771D01*
X99495237Y-77835771D02*
X99590475Y-77883390D01*
X99590475Y-77883390D02*
X99638094Y-77931009D01*
X99638094Y-77931009D02*
X99685713Y-78026247D01*
D13*
X82600000Y-89650000D02*
X82600000Y-93660000D01*
X82600000Y-93660000D02*
X84600000Y-93660000D01*
X84600000Y-89650000D02*
X84600000Y-93660000D01*
X68300000Y-89500000D02*
X68300000Y-93510000D01*
X68300000Y-93510000D02*
X70300000Y-93510000D01*
X70300000Y-89500000D02*
X70300000Y-93510000D01*
X77400000Y-104450000D02*
X77400000Y-108460000D01*
X77400000Y-108460000D02*
X79400000Y-108460000D01*
X79400000Y-104450000D02*
X79400000Y-108460000D01*
X111500000Y-70050000D02*
X111500000Y-74060000D01*
X111500000Y-74060000D02*
X113500000Y-74060000D01*
X113500000Y-70050000D02*
X113500000Y-74060000D01*
X72800000Y-104450000D02*
X72800000Y-108460000D01*
X72800000Y-108460000D02*
X74800000Y-108460000D01*
X74800000Y-104450000D02*
X74800000Y-108460000D01*
X100261252Y-67565000D02*
X99738748Y-67565000D01*
X100261252Y-69035000D02*
X99738748Y-69035000D01*
X70555556Y-62850000D02*
X70555556Y-58840000D01*
X72555556Y-58840000D02*
X70555556Y-58840000D01*
X72555556Y-62850000D02*
X72555556Y-58840000D01*
X64727064Y-72465000D02*
X64272936Y-72465000D01*
X64727064Y-73935000D02*
X64272936Y-73935000D01*
X89500000Y-89650000D02*
X89500000Y-93660000D01*
X89500000Y-93660000D02*
X91500000Y-93660000D01*
X91500000Y-89650000D02*
X91500000Y-93660000D01*
X86600000Y-107750000D02*
X86600000Y-103740000D01*
X88600000Y-103740000D02*
X86600000Y-103740000D01*
X88600000Y-107750000D02*
X88600000Y-103740000D01*
X100400000Y-107750000D02*
X100400000Y-103740000D01*
X102400000Y-103740000D02*
X100400000Y-103740000D01*
X102400000Y-107750000D02*
X102400000Y-103740000D01*
X80300000Y-89650000D02*
X80300000Y-93660000D01*
X80300000Y-93660000D02*
X82300000Y-93660000D01*
X82300000Y-89650000D02*
X82300000Y-93660000D01*
X66000000Y-89500000D02*
X66000000Y-93510000D01*
X66000000Y-93510000D02*
X68000000Y-93510000D01*
X68000000Y-89500000D02*
X68000000Y-93510000D01*
X98100000Y-107750000D02*
X98100000Y-103740000D01*
X100100000Y-103740000D02*
X98100000Y-103740000D01*
X100100000Y-107750000D02*
X100100000Y-103740000D01*
X64272936Y-76765000D02*
X64727064Y-76765000D01*
X64272936Y-78235000D02*
X64727064Y-78235000D01*
X86898752Y-59165000D02*
X86376248Y-59165000D01*
X86898752Y-60635000D02*
X86376248Y-60635000D01*
X72900000Y-89550000D02*
X72900000Y-93560000D01*
X72900000Y-93560000D02*
X74900000Y-93560000D01*
X74900000Y-89550000D02*
X74900000Y-93560000D01*
X75738748Y-75165000D02*
X76261252Y-75165000D01*
X75738748Y-76635000D02*
X76261252Y-76635000D01*
X95961252Y-77265000D02*
X95438748Y-77265000D01*
X95961252Y-78735000D02*
X95438748Y-78735000D01*
X95800000Y-107750000D02*
X95800000Y-103740000D01*
X97800000Y-103740000D02*
X95800000Y-103740000D01*
X97800000Y-107750000D02*
X97800000Y-103740000D01*
X75100000Y-104450000D02*
X75100000Y-108460000D01*
X75100000Y-108460000D02*
X77100000Y-108460000D01*
X77100000Y-104450000D02*
X77100000Y-108460000D01*
X113900000Y-70050000D02*
X113900000Y-74060000D01*
X113900000Y-74060000D02*
X115900000Y-74060000D01*
X115900000Y-70050000D02*
X115900000Y-74060000D01*
X54555556Y-62850000D02*
X54555556Y-58840000D01*
X56555556Y-58840000D02*
X54555556Y-58840000D01*
X56555556Y-62850000D02*
X56555556Y-58840000D01*
X91165000Y-63838748D02*
X91165000Y-64361252D01*
X92635000Y-63838748D02*
X92635000Y-64361252D01*
X63666667Y-89500000D02*
X63666667Y-93510000D01*
X63666667Y-93510000D02*
X65666667Y-93510000D01*
X65666667Y-89500000D02*
X65666667Y-93510000D01*
X63300000Y-104250000D02*
X63300000Y-108260000D01*
X63300000Y-108260000D02*
X65300000Y-108260000D01*
X65300000Y-104250000D02*
X65300000Y-108260000D01*
X64272936Y-74465000D02*
X64727064Y-74465000D01*
X64272936Y-75935000D02*
X64727064Y-75935000D01*
X54100000Y-104250000D02*
X54100000Y-108260000D01*
X54100000Y-108260000D02*
X56100000Y-108260000D01*
X56100000Y-104250000D02*
X56100000Y-108260000D01*
X93500000Y-107750000D02*
X93500000Y-103740000D01*
X95500000Y-103740000D02*
X93500000Y-103740000D01*
X95500000Y-107750000D02*
X95500000Y-103740000D01*
X78338748Y-68065000D02*
X78861252Y-68065000D01*
X78338748Y-69535000D02*
X78861252Y-69535000D01*
X84900000Y-89650000D02*
X84900000Y-93660000D01*
X84900000Y-93660000D02*
X86900000Y-93660000D01*
X86900000Y-89650000D02*
X86900000Y-93660000D01*
X104300000Y-70050000D02*
X104300000Y-74060000D01*
X104300000Y-74060000D02*
X106300000Y-74060000D01*
X106300000Y-70050000D02*
X106300000Y-74060000D01*
X84665000Y-85761252D02*
X84665000Y-85238748D01*
X86135000Y-85761252D02*
X86135000Y-85238748D01*
X84300000Y-107750000D02*
X84300000Y-103740000D01*
X86300000Y-103740000D02*
X84300000Y-103740000D01*
X86300000Y-107750000D02*
X86300000Y-103740000D01*
X97750000Y-69600000D02*
X97750000Y-75000000D01*
X97750000Y-75000000D02*
X102250000Y-75000000D01*
X68200000Y-62850000D02*
X68200000Y-58840000D01*
X70200000Y-58840000D02*
X68200000Y-58840000D01*
X70200000Y-62850000D02*
X70200000Y-58840000D01*
X58700000Y-104250000D02*
X58700000Y-108260000D01*
X58700000Y-108260000D02*
X60700000Y-108260000D01*
X60700000Y-104250000D02*
X60700000Y-108260000D01*
X57000000Y-62850000D02*
X57000000Y-58840000D01*
X59000000Y-58840000D02*
X57000000Y-58840000D01*
X59000000Y-62850000D02*
X59000000Y-58840000D01*
X61000000Y-104250000D02*
X61000000Y-108260000D01*
X61000000Y-108260000D02*
X63000000Y-108260000D01*
X63000000Y-104250000D02*
X63000000Y-108260000D01*
X82000000Y-104450000D02*
X82000000Y-108460000D01*
X82000000Y-108460000D02*
X84000000Y-108460000D01*
X84000000Y-104450000D02*
X84000000Y-108460000D01*
X79700000Y-104450000D02*
X79700000Y-108460000D01*
X79700000Y-108460000D02*
X81700000Y-108460000D01*
X81700000Y-104450000D02*
X81700000Y-108460000D01*
X70600000Y-89550000D02*
X70600000Y-93560000D01*
X70600000Y-93560000D02*
X72600000Y-93560000D01*
X72600000Y-89550000D02*
X72600000Y-93560000D01*
X72900000Y-62750000D02*
X72900000Y-58740000D01*
X74900000Y-58740000D02*
X72900000Y-58740000D01*
X74900000Y-62750000D02*
X74900000Y-58740000D01*
X91200000Y-107750000D02*
X91200000Y-103740000D01*
X93200000Y-103740000D02*
X91200000Y-103740000D01*
X93200000Y-107750000D02*
X93200000Y-103740000D01*
X88900000Y-107750000D02*
X88900000Y-103740000D01*
X90900000Y-103740000D02*
X88900000Y-103740000D01*
X90900000Y-107750000D02*
X90900000Y-103740000D01*
X105000000Y-107750000D02*
X105000000Y-103740000D01*
X107000000Y-103740000D02*
X105000000Y-103740000D01*
X107000000Y-107750000D02*
X107000000Y-103740000D01*
X64272936Y-69965000D02*
X64727064Y-69965000D01*
X64272936Y-71435000D02*
X64727064Y-71435000D01*
X86865000Y-85727064D02*
X86865000Y-85272936D01*
X88335000Y-85727064D02*
X88335000Y-85272936D01*
X87200000Y-89650000D02*
X87200000Y-93660000D01*
X87200000Y-93660000D02*
X89200000Y-93660000D01*
X89200000Y-89650000D02*
X89200000Y-93660000D01*
X106700000Y-70050000D02*
X106700000Y-74060000D01*
X106700000Y-74060000D02*
X108700000Y-74060000D01*
X108700000Y-70050000D02*
X108700000Y-74060000D01*
X109111108Y-70050000D02*
X109111108Y-74060000D01*
X109111108Y-74060000D02*
X111111108Y-74060000D01*
X111111108Y-70050000D02*
X111111108Y-74060000D01*
X51555000Y-69250000D02*
X51555000Y-78650000D01*
X51555000Y-69250000D02*
X53455000Y-69250000D01*
X51555000Y-78650000D02*
X53455000Y-78650000D01*
X55355000Y-69250000D02*
X57355000Y-69250000D01*
X55355000Y-78650000D02*
X57355000Y-78650000D01*
D12*
X79785806Y-73734620D02*
X79350936Y-74169491D01*
X79828233Y-74646788D02*
X79350936Y-74169491D01*
X86192194Y-67328233D02*
X86669491Y-66850936D01*
X86192194Y-81010749D02*
X86669491Y-81488046D01*
X87146788Y-67328233D02*
X86669491Y-66850936D01*
X87146788Y-81010749D02*
X86669491Y-81488046D01*
X93510749Y-73692194D02*
X93988046Y-74169491D01*
X93510749Y-74646788D02*
X93988046Y-74169491D01*
D13*
X79223657Y-73808867D02*
X78742824Y-73328034D01*
X79315580Y-73236110D01*
X79223657Y-73808867D01*
G36*
X79223657Y-73808867D02*
G01*
X78742824Y-73328034D01*
X79315580Y-73236110D01*
X79223657Y-73808867D01*
G37*
X88572936Y-62365000D02*
X89027064Y-62365000D01*
X88572936Y-63835000D02*
X89027064Y-63835000D01*
X56400000Y-104250000D02*
X56400000Y-108260000D01*
X56400000Y-108260000D02*
X58400000Y-108260000D01*
X58400000Y-104250000D02*
X58400000Y-108260000D01*
X99638748Y-75565000D02*
X100161252Y-75565000D01*
X99638748Y-77035000D02*
X100161252Y-77035000D01*
X102700000Y-107750000D02*
X102700000Y-103740000D01*
X104700000Y-103740000D02*
X102700000Y-103740000D01*
X104700000Y-107750000D02*
X104700000Y-103740000D01*
%LPC*%
D14*
X157500000Y-116700000D03*
D15*
X163000000Y-116700000D03*
D14*
X168500000Y-116700000D03*
D16*
X163000000Y-110800000D03*
X168000000Y-112900000D03*
D14*
X208500000Y-99700000D03*
D15*
X214000000Y-99700000D03*
D14*
X219500000Y-99700000D03*
D16*
X214000000Y-93800000D03*
X219000000Y-95900000D03*
D14*
X191500000Y-99700000D03*
D15*
X197000000Y-99700000D03*
D14*
X202500000Y-99700000D03*
D16*
X197000000Y-93800000D03*
X202000000Y-95900000D03*
D14*
X89500000Y-65700000D03*
D15*
X95000000Y-65700000D03*
D14*
X100500000Y-65700000D03*
D16*
X95000000Y-59800000D03*
X100000000Y-61900000D03*
D14*
X123500000Y-65700000D03*
D15*
X129000000Y-65700000D03*
D14*
X134500000Y-65700000D03*
D16*
X129000000Y-59800000D03*
X134000000Y-61900000D03*
D14*
X72500000Y-99700000D03*
D15*
X78000000Y-99700000D03*
D14*
X83500000Y-99700000D03*
D16*
X78000000Y-93800000D03*
X83000000Y-95900000D03*
D14*
X157500000Y-65700000D03*
D15*
X163000000Y-65700000D03*
D14*
X168500000Y-65700000D03*
D16*
X163000000Y-59800000D03*
X168000000Y-61900000D03*
D14*
X140500000Y-116700000D03*
D15*
X146000000Y-116700000D03*
D14*
X151500000Y-116700000D03*
D16*
X146000000Y-110800000D03*
X151000000Y-112900000D03*
D14*
X72500000Y-65700000D03*
D15*
X78000000Y-65700000D03*
D14*
X83500000Y-65700000D03*
D16*
X78000000Y-59800000D03*
X83000000Y-61900000D03*
D17*
X205500000Y-108200000D03*
D14*
X191500000Y-116700000D03*
D15*
X197000000Y-116700000D03*
D14*
X202500000Y-116700000D03*
D16*
X197000000Y-110800000D03*
X202000000Y-112900000D03*
D14*
X123500000Y-99700000D03*
D15*
X129000000Y-99700000D03*
D14*
X134500000Y-99700000D03*
D16*
X129000000Y-93800000D03*
X134000000Y-95900000D03*
D17*
X69500000Y-108200000D03*
D14*
X157500000Y-82700000D03*
D15*
X163000000Y-82700000D03*
D14*
X168500000Y-82700000D03*
D16*
X163000000Y-76800000D03*
X168000000Y-78900000D03*
D14*
X106500000Y-65700000D03*
D15*
X112000000Y-65700000D03*
D14*
X117500000Y-65700000D03*
D16*
X112000000Y-59800000D03*
X117000000Y-61900000D03*
D17*
X69500000Y-74200000D03*
D14*
X174500000Y-116700000D03*
D15*
X180000000Y-116700000D03*
D14*
X185500000Y-116700000D03*
D16*
X180000000Y-110800000D03*
X185000000Y-112900000D03*
D14*
X123500000Y-116700000D03*
D15*
X129000000Y-116700000D03*
D14*
X134500000Y-116700000D03*
D16*
X129000000Y-110800000D03*
X134000000Y-112900000D03*
D14*
X174500000Y-65700000D03*
D15*
X180000000Y-65700000D03*
D14*
X185500000Y-65700000D03*
D16*
X180000000Y-59800000D03*
X185000000Y-61900000D03*
D14*
X208500000Y-116700000D03*
D15*
X214000000Y-116700000D03*
D14*
X219500000Y-116700000D03*
D16*
X214000000Y-110800000D03*
X219000000Y-112900000D03*
D14*
X55500000Y-65700000D03*
D15*
X61000000Y-65700000D03*
D14*
X66500000Y-65700000D03*
D16*
X61000000Y-59800000D03*
X66000000Y-61900000D03*
D14*
X89500000Y-99700000D03*
D15*
X95000000Y-99700000D03*
D14*
X100500000Y-99700000D03*
D16*
X95000000Y-93800000D03*
X100000000Y-95900000D03*
D14*
X140500000Y-82700000D03*
D15*
X146000000Y-82700000D03*
D14*
X151500000Y-82700000D03*
D16*
X146000000Y-76800000D03*
X151000000Y-78900000D03*
D14*
X83500000Y-82700000D03*
D15*
X78000000Y-82700000D03*
D14*
X72500000Y-82700000D03*
D16*
X78000000Y-88600000D03*
X73000000Y-86500000D03*
D14*
X100500000Y-82700000D03*
D15*
X95000000Y-82700000D03*
D14*
X89500000Y-82700000D03*
D16*
X95000000Y-88600000D03*
X90000000Y-86500000D03*
D14*
X55500000Y-99700000D03*
D15*
X61000000Y-99700000D03*
D14*
X66500000Y-99700000D03*
D16*
X61000000Y-93800000D03*
X66000000Y-95900000D03*
D14*
X106500000Y-116700000D03*
D15*
X112000000Y-116700000D03*
D14*
X117500000Y-116700000D03*
D16*
X112000000Y-110800000D03*
X117000000Y-112900000D03*
D14*
X66500000Y-82700000D03*
D15*
X61000000Y-82700000D03*
D14*
X55500000Y-82700000D03*
D16*
X61000000Y-88600000D03*
X56000000Y-86500000D03*
D17*
X205500000Y-74200000D03*
D14*
X72500000Y-116700000D03*
D15*
X78000000Y-116700000D03*
D14*
X83500000Y-116700000D03*
D16*
X78000000Y-110800000D03*
X83000000Y-112900000D03*
D14*
X191500000Y-65700000D03*
D15*
X197000000Y-65700000D03*
D14*
X202500000Y-65700000D03*
D16*
X197000000Y-59800000D03*
X202000000Y-61900000D03*
D14*
X106500000Y-82700000D03*
D15*
X112000000Y-82700000D03*
D14*
X117500000Y-82700000D03*
D16*
X112000000Y-76800000D03*
X117000000Y-78900000D03*
D14*
X174500000Y-82700000D03*
D15*
X180000000Y-82700000D03*
D14*
X185500000Y-82700000D03*
D16*
X180000000Y-76800000D03*
X185000000Y-78900000D03*
D14*
X123500000Y-82700000D03*
D15*
X129000000Y-82700000D03*
D14*
X134500000Y-82700000D03*
D16*
X129000000Y-76800000D03*
X134000000Y-78900000D03*
D14*
X208500000Y-65700000D03*
D15*
X214000000Y-65700000D03*
D14*
X219500000Y-65700000D03*
D16*
X214000000Y-59800000D03*
X219000000Y-61900000D03*
D14*
X208500000Y-82700000D03*
D15*
X214000000Y-82700000D03*
D14*
X219500000Y-82700000D03*
D16*
X214000000Y-76800000D03*
X219000000Y-78900000D03*
D14*
X157500000Y-99700000D03*
D15*
X163000000Y-99700000D03*
D14*
X168500000Y-99700000D03*
D16*
X163000000Y-93800000D03*
X168000000Y-95900000D03*
D17*
X137500000Y-91200000D03*
D14*
X89500000Y-116700000D03*
D15*
X95000000Y-116700000D03*
D14*
X100500000Y-116700000D03*
D16*
X95000000Y-110800000D03*
X100000000Y-112900000D03*
D14*
X140500000Y-99700000D03*
D15*
X146000000Y-99700000D03*
D14*
X151500000Y-99700000D03*
D16*
X146000000Y-93800000D03*
X151000000Y-95900000D03*
D14*
X106500000Y-99700000D03*
D15*
X112000000Y-99700000D03*
D14*
X117500000Y-99700000D03*
D16*
X112000000Y-93800000D03*
X117000000Y-95900000D03*
D14*
X174500000Y-99700000D03*
D15*
X180000000Y-99700000D03*
D14*
X185500000Y-99700000D03*
D16*
X180000000Y-93800000D03*
X185000000Y-95900000D03*
D14*
X55500000Y-116700000D03*
D15*
X61000000Y-116700000D03*
D14*
X66500000Y-116700000D03*
D16*
X61000000Y-110800000D03*
X66000000Y-112900000D03*
D14*
X140500000Y-65700000D03*
D15*
X146000000Y-65700000D03*
D14*
X151500000Y-65700000D03*
D16*
X146000000Y-59800000D03*
X151000000Y-61900000D03*
D14*
X191500000Y-82700000D03*
D15*
X197000000Y-82700000D03*
D14*
X202500000Y-82700000D03*
D16*
X197000000Y-76800000D03*
X202000000Y-78900000D03*
D18*
X83600000Y-92950000D03*
X83600000Y-89650000D03*
X69300000Y-92800000D03*
X69300000Y-89500000D03*
X78400000Y-107750000D03*
X78400000Y-104450000D03*
X112500000Y-73350000D03*
X112500000Y-70050000D03*
X73800000Y-107750000D03*
X73800000Y-104450000D03*
D19*
X98962500Y-68300000D03*
X101037500Y-68300000D03*
D20*
X71555556Y-59550000D03*
X71555556Y-62850000D03*
D21*
X63500000Y-73200000D03*
X65500000Y-73200000D03*
D18*
X90500000Y-92950000D03*
X90500000Y-89650000D03*
D20*
X87600000Y-104450000D03*
X87600000Y-107750000D03*
X101400000Y-104450000D03*
X101400000Y-107750000D03*
D18*
X81300000Y-92950000D03*
X81300000Y-89650000D03*
X67000000Y-92800000D03*
X67000000Y-89500000D03*
D20*
X99100000Y-104450000D03*
X99100000Y-107750000D03*
D22*
X65500000Y-77500000D03*
X63500000Y-77500000D03*
D19*
X85600000Y-59900000D03*
X87675000Y-59900000D03*
D18*
X73900000Y-92850000D03*
X73900000Y-89550000D03*
D23*
X77037500Y-75900000D03*
X74962500Y-75900000D03*
D19*
X94662500Y-78000000D03*
X96737500Y-78000000D03*
D20*
X96800000Y-104450000D03*
X96800000Y-107750000D03*
D18*
X76100000Y-107750000D03*
X76100000Y-104450000D03*
X114900000Y-73350000D03*
X114900000Y-70050000D03*
D20*
X55555556Y-59550000D03*
X55555556Y-62850000D03*
D24*
X91900000Y-65137500D03*
X91900000Y-63062500D03*
D18*
X64666667Y-92800000D03*
X64666667Y-89500000D03*
X64300000Y-107550000D03*
X64300000Y-104250000D03*
D22*
X65500000Y-75200000D03*
X63500000Y-75200000D03*
D18*
X55100000Y-107550000D03*
X55100000Y-104250000D03*
D20*
X94500000Y-104450000D03*
X94500000Y-107750000D03*
D23*
X79637500Y-68800000D03*
X77562500Y-68800000D03*
D18*
X85900000Y-92950000D03*
X85900000Y-89650000D03*
X105300000Y-73350000D03*
X105300000Y-70050000D03*
D25*
X85400000Y-84462500D03*
X85400000Y-86537500D03*
D20*
X85300000Y-104450000D03*
X85300000Y-107750000D03*
D26*
X98850000Y-73750000D03*
X98850000Y-70850000D03*
X101150000Y-70850000D03*
X101150000Y-73750000D03*
D20*
X69200000Y-59550000D03*
X69200000Y-62850000D03*
D18*
X59700000Y-107550000D03*
X59700000Y-104250000D03*
D20*
X58000000Y-59550000D03*
X58000000Y-62850000D03*
D18*
X62000000Y-107550000D03*
X62000000Y-104250000D03*
X83000000Y-107750000D03*
X83000000Y-104450000D03*
X80700000Y-107750000D03*
X80700000Y-104450000D03*
X71600000Y-92850000D03*
X71600000Y-89550000D03*
D20*
X73900000Y-59450000D03*
X73900000Y-62750000D03*
X92200000Y-104450000D03*
X92200000Y-107750000D03*
X89900000Y-104450000D03*
X89900000Y-107750000D03*
X106000000Y-104450000D03*
X106000000Y-107750000D03*
D22*
X65500000Y-70700000D03*
X63500000Y-70700000D03*
D27*
X87600000Y-84500000D03*
X87600000Y-86500000D03*
D18*
X88200000Y-92950000D03*
X88200000Y-89650000D03*
X107700000Y-73350000D03*
X107700000Y-70050000D03*
X110111108Y-73350000D03*
X110111108Y-70050000D03*
D28*
X58055000Y-76840000D03*
X58055000Y-71060000D03*
D29*
X59500000Y-77200000D03*
X59500000Y-76400000D03*
D30*
X59500000Y-75200000D03*
X59500000Y-74200000D03*
X59500000Y-73700000D03*
X59500000Y-72700000D03*
D29*
X59500000Y-71500000D03*
X59500000Y-70700000D03*
X59500000Y-70700000D03*
X59500000Y-71500000D03*
D30*
X59500000Y-72200000D03*
X59500000Y-73200000D03*
X59500000Y-74700000D03*
X59500000Y-75700000D03*
D29*
X59500000Y-76400000D03*
X59500000Y-77200000D03*
D31*
X54405000Y-78270000D03*
D32*
X58585000Y-78270000D03*
D31*
X54405000Y-69630000D03*
D32*
X58585000Y-69630000D03*
D33*
X79810555Y-72967409D03*
X80376241Y-72401724D03*
X80941926Y-71836039D03*
X81507611Y-71270353D03*
X82073297Y-70704668D03*
X82638982Y-70138982D03*
X83204668Y-69573297D03*
X83770353Y-69007611D03*
X84336039Y-68441926D03*
X84901724Y-67876241D03*
X85467409Y-67310555D03*
D34*
X87871573Y-67310555D03*
X88437258Y-67876241D03*
X89002943Y-68441926D03*
X89568629Y-69007611D03*
X90134314Y-69573297D03*
X90700000Y-70138982D03*
X91265685Y-70704668D03*
X91831371Y-71270353D03*
X92397056Y-71836039D03*
X92962741Y-72401724D03*
X93528427Y-72967409D03*
D33*
X93528427Y-75371573D03*
X92962741Y-75937258D03*
X92397056Y-76502943D03*
X91831371Y-77068629D03*
X91265685Y-77634314D03*
X90700000Y-78200000D03*
X90134314Y-78765685D03*
X89568629Y-79331371D03*
X89002943Y-79897056D03*
X88437258Y-80462741D03*
X87871573Y-81028427D03*
D34*
X85467409Y-81028427D03*
X84901724Y-80462741D03*
X84336039Y-79897056D03*
X83770353Y-79331371D03*
X83204668Y-78765685D03*
X82638982Y-78200000D03*
X82073297Y-77634314D03*
X81507611Y-77068629D03*
X80941926Y-76502943D03*
X80376241Y-75937258D03*
X79810555Y-75371573D03*
D22*
X89800000Y-63100000D03*
X87800000Y-63100000D03*
D18*
X57400000Y-107550000D03*
X57400000Y-104250000D03*
D23*
X100937500Y-76300000D03*
X98862500Y-76300000D03*
D20*
X103700000Y-104450000D03*
X103700000Y-107750000D03*
D35*
X56000000Y-76000000D03*
X107000000Y-68000000D03*
X109000000Y-68000000D03*
X62600000Y-77200000D03*
X108000000Y-68000000D03*
X105000000Y-111000000D03*
X91600000Y-75000000D03*
X80800000Y-69800000D03*
X97000000Y-113000000D03*
X71000000Y-84000000D03*
X64000000Y-60000000D03*
X56000000Y-74000000D03*
X87000000Y-77000000D03*
X58000000Y-121000000D03*
X85000000Y-77000000D03*
X91000000Y-62600000D03*
X83000000Y-86000000D03*
X106000000Y-62000000D03*
X56000000Y-72000000D03*
X220000000Y-121000000D03*
X104000000Y-111000000D03*
X83000000Y-87000000D03*
X105000000Y-112000000D03*
X123100000Y-59000000D03*
X86000000Y-78000000D03*
X56000000Y-121000000D03*
X69000000Y-77000000D03*
X107000000Y-58900000D03*
X75000000Y-88000000D03*
X218000000Y-121000000D03*
X71000000Y-77000000D03*
X104000000Y-112000000D03*
X62600000Y-70700000D03*
X77000000Y-80000000D03*
X82000000Y-86000000D03*
X85800000Y-64600000D03*
X76812500Y-69550000D03*
X86000000Y-76000000D03*
X89000000Y-106000000D03*
X91000000Y-106000000D03*
X110000000Y-68000000D03*
X96370889Y-76729111D03*
X182600000Y-91200000D03*
X63900000Y-85700000D03*
X210900000Y-90700000D03*
X134700000Y-90600000D03*
X199400000Y-91400000D03*
X120550000Y-66900000D03*
X98300000Y-100900000D03*
X81900000Y-84100000D03*
X121350000Y-77621428D03*
X121200000Y-67550000D03*
X120700000Y-100000000D03*
X82600000Y-80000000D03*
X165600000Y-91200000D03*
X97700000Y-76100000D03*
X61700000Y-71500000D03*
X95600000Y-70100000D03*
X78300000Y-79000000D03*
X92700000Y-64200000D03*
X61700000Y-76300000D03*
X83700000Y-63700000D03*
X86600000Y-82200000D03*
X94900000Y-76900000D03*
X62400000Y-78700000D03*
X62100000Y-69500000D03*
X142700000Y-90500000D03*
X87700000Y-88700000D03*
X81815544Y-87742228D03*
X121300330Y-73800460D03*
X81100000Y-88100000D03*
X120834599Y-73150000D03*
X80400000Y-88500000D03*
X120253650Y-72600000D03*
X119629149Y-72100000D03*
X70909620Y-87590380D03*
X119100000Y-71500000D03*
X70100000Y-87700000D03*
X69300000Y-87700000D03*
X118600000Y-70850000D03*
X92788258Y-95900000D03*
X86100000Y-96300000D03*
X86400000Y-97200000D03*
X93362068Y-96550000D03*
X94089811Y-97050000D03*
X86715136Y-98000000D03*
X75400000Y-102000000D03*
X76100000Y-102500000D03*
X78600000Y-103000000D03*
X80750000Y-103500000D03*
X81900000Y-104000000D03*
X94400000Y-105700000D03*
X96600000Y-105600000D03*
X98600000Y-105600000D03*
X100100000Y-105500000D03*
X102100000Y-105400000D03*
X104200000Y-105400000D03*
X107400000Y-104500000D03*
X70909622Y-64209621D03*
X70000003Y-64200000D03*
X69200000Y-64200000D03*
%LPD*%
M02*
