M48
; DRILL file {KiCad 8.0.9-8.0.9-0~ubuntu22.04.1} date 2025-05-22T00:01:43+0800
; FORMAT={-:-/ absolute / metric / decimal}
; #@! TF.CreationDate,2025-05-22T00:01:43+08:00
; #@! TF.GenerationSoftware,Kicad,Pcbnew,8.0.9-8.0.9-0~ubuntu22.04.1
; #@! TF.FileFunction,NonPlated,1,2,NPTH
FMAT,2
METRIC
; #@! TA.AperFunction,NonPlated,NPTH,ComponentDrill
T1C0.650
; #@! TA.AperFunction,NonPlated,NPTH,ComponentDrill
T2C1.900
; #@! TA.AperFunction,NonPlated,NPTH,ComponentDrill
T3C2.700
; #@! TA.AperFunction,NonPlated,NPTH,ComponentDrill
T4C3.450
%
G90
G05
T1
X58.055Y-71.06
X58.055Y-76.84
T2
X55.5Y-65.7
X55.5Y-82.7
X55.5Y-99.7
X55.5Y-116.7
X66.5Y-65.7
X66.5Y-82.7
X66.5Y-99.7
X66.5Y-116.7
X72.5Y-65.7
X72.5Y-82.7
X72.5Y-99.7
X72.5Y-116.7
X83.5Y-65.7
X83.5Y-82.7
X83.5Y-99.7
X83.5Y-116.7
X89.5Y-65.7
X89.5Y-82.7
X89.5Y-99.7
X89.5Y-116.7
X100.5Y-65.7
X100.5Y-82.7
X100.5Y-99.7
X100.5Y-116.7
X106.5Y-65.7
X106.5Y-82.7
X106.5Y-99.7
X106.5Y-116.7
X117.5Y-65.7
X117.5Y-82.7
X117.5Y-99.7
X117.5Y-116.7
X123.5Y-65.7
X123.5Y-82.7
X123.5Y-99.7
X123.5Y-116.7
X134.5Y-65.7
X134.5Y-82.7
X134.5Y-99.7
X134.5Y-116.7
X140.5Y-65.7
X140.5Y-82.7
X140.5Y-99.7
X140.5Y-116.7
X151.5Y-65.7
X151.5Y-82.7
X151.5Y-99.7
X151.5Y-116.7
X157.5Y-65.7
X157.5Y-82.7
X157.5Y-99.7
X157.5Y-116.7
X168.5Y-65.7
X168.5Y-82.7
X168.5Y-99.7
X168.5Y-116.7
X174.5Y-65.7
X174.5Y-82.7
X174.5Y-99.7
X174.5Y-116.7
X185.5Y-65.7
X185.5Y-82.7
X185.5Y-99.7
X185.5Y-116.7
X191.5Y-65.7
X191.5Y-82.7
X191.5Y-99.7
X191.5Y-116.7
X202.5Y-65.7
X202.5Y-82.7
X202.5Y-99.7
X202.5Y-116.7
X208.5Y-65.7
X208.5Y-82.7
X208.5Y-99.7
X208.5Y-116.7
X219.5Y-65.7
X219.5Y-82.7
X219.5Y-99.7
X219.5Y-116.7
T3
X69.5Y-74.2
X69.5Y-108.2
X137.5Y-91.2
X205.5Y-74.2
X205.5Y-108.2
T4
X61.0Y-65.7
X61.0Y-82.7
X61.0Y-99.7
X61.0Y-116.7
X78.0Y-65.7
X78.0Y-82.7
X78.0Y-99.7
X78.0Y-116.7
X95.0Y-65.7
X95.0Y-82.7
X95.0Y-99.7
X95.0Y-116.7
X112.0Y-65.7
X112.0Y-82.7
X112.0Y-99.7
X112.0Y-116.7
X129.0Y-65.7
X129.0Y-82.7
X129.0Y-99.7
X129.0Y-116.7
X146.0Y-65.7
X146.0Y-82.7
X146.0Y-99.7
X146.0Y-116.7
X163.0Y-65.7
X163.0Y-82.7
X163.0Y-99.7
X163.0Y-116.7
X180.0Y-65.7
X180.0Y-82.7
X180.0Y-99.7
X180.0Y-116.7
X197.0Y-65.7
X197.0Y-82.7
X197.0Y-99.7
X197.0Y-116.7
X214.0Y-65.7
X214.0Y-82.7
X214.0Y-99.7
X214.0Y-116.7
M30
