%TF.GenerationSoftware,KiCad,Pcbnew,8.0.9-8.0.9-0~ubuntu22.04.1*%
%TF.CreationDate,2025-05-22T00:01:45+08:00*%
%TF.ProjectId,macropad,6d616372-6f70-4616-942e-6b696361645f,rev?*%
%TF.SameCoordinates,Original*%
%TF.FileFunction,Drillmap*%
%TF.FilePolarity,Positive*%
%FSLAX45Y45*%
G04 Gerber Fmt 4.5, Leading zero omitted, Abs format (unit mm)*
G04 Created by KiCad (PCBNEW 8.0.9-8.0.9-0~ubuntu22.04.1) date 2025-05-22 00:01:45*
%MOMM*%
%LPD*%
G01*
G04 APERTURE LIST*
%ADD10C,0.050000*%
%ADD11C,0.200000*%
%ADD12C,0.100000*%
%ADD13C,0.190000*%
%ADD14C,0.270000*%
%ADD15C,0.345000*%
G04 APERTURE END LIST*
D10*
X5450000Y-12470000D02*
G75*
G02*
X5300000Y-12320000I0J150000D01*
G01*
X5450000Y-12470000D02*
X22050000Y-12470000D01*
X22200000Y-12320000D02*
G75*
G02*
X22050000Y-12470000I-150000J0D01*
G01*
X22050000Y-5770000D02*
G75*
G02*
X22200000Y-5920000I0J-150000D01*
G01*
X5500000Y-5770000D02*
X22050000Y-5770000D01*
X5300000Y-5970000D02*
G75*
G02*
X5500000Y-5770000I200000J0D01*
G01*
X22200000Y-12320000D02*
X22200000Y-5920000D01*
X5300000Y-5970000D02*
X5300000Y-12320000D01*
D11*
D12*
X5773000Y-7073500D02*
X5838000Y-7138500D01*
X5838000Y-7073500D02*
X5773000Y-7138500D01*
X5773000Y-7651500D02*
X5838000Y-7716500D01*
X5838000Y-7651500D02*
X5773000Y-7716500D01*
D13*
X5645000Y-6570000D02*
G75*
G02*
X5455000Y-6570000I-95000J0D01*
G01*
X5455000Y-6570000D02*
G75*
G02*
X5645000Y-6570000I95000J0D01*
G01*
X5645000Y-8270000D02*
G75*
G02*
X5455000Y-8270000I-95000J0D01*
G01*
X5455000Y-8270000D02*
G75*
G02*
X5645000Y-8270000I95000J0D01*
G01*
X5645000Y-9970000D02*
G75*
G02*
X5455000Y-9970000I-95000J0D01*
G01*
X5455000Y-9970000D02*
G75*
G02*
X5645000Y-9970000I95000J0D01*
G01*
X5645000Y-11670000D02*
G75*
G02*
X5455000Y-11670000I-95000J0D01*
G01*
X5455000Y-11670000D02*
G75*
G02*
X5645000Y-11670000I95000J0D01*
G01*
X6745000Y-6570000D02*
G75*
G02*
X6555000Y-6570000I-95000J0D01*
G01*
X6555000Y-6570000D02*
G75*
G02*
X6745000Y-6570000I95000J0D01*
G01*
X6745000Y-8270000D02*
G75*
G02*
X6555000Y-8270000I-95000J0D01*
G01*
X6555000Y-8270000D02*
G75*
G02*
X6745000Y-8270000I95000J0D01*
G01*
X6745000Y-9970000D02*
G75*
G02*
X6555000Y-9970000I-95000J0D01*
G01*
X6555000Y-9970000D02*
G75*
G02*
X6745000Y-9970000I95000J0D01*
G01*
X6745000Y-11670000D02*
G75*
G02*
X6555000Y-11670000I-95000J0D01*
G01*
X6555000Y-11670000D02*
G75*
G02*
X6745000Y-11670000I95000J0D01*
G01*
X7345000Y-6570000D02*
G75*
G02*
X7155000Y-6570000I-95000J0D01*
G01*
X7155000Y-6570000D02*
G75*
G02*
X7345000Y-6570000I95000J0D01*
G01*
X7345000Y-8270000D02*
G75*
G02*
X7155000Y-8270000I-95000J0D01*
G01*
X7155000Y-8270000D02*
G75*
G02*
X7345000Y-8270000I95000J0D01*
G01*
X7345000Y-9970000D02*
G75*
G02*
X7155000Y-9970000I-95000J0D01*
G01*
X7155000Y-9970000D02*
G75*
G02*
X7345000Y-9970000I95000J0D01*
G01*
X7345000Y-11670000D02*
G75*
G02*
X7155000Y-11670000I-95000J0D01*
G01*
X7155000Y-11670000D02*
G75*
G02*
X7345000Y-11670000I95000J0D01*
G01*
X8445000Y-6570000D02*
G75*
G02*
X8255000Y-6570000I-95000J0D01*
G01*
X8255000Y-6570000D02*
G75*
G02*
X8445000Y-6570000I95000J0D01*
G01*
X8445000Y-8270000D02*
G75*
G02*
X8255000Y-8270000I-95000J0D01*
G01*
X8255000Y-8270000D02*
G75*
G02*
X8445000Y-8270000I95000J0D01*
G01*
X8445000Y-9970000D02*
G75*
G02*
X8255000Y-9970000I-95000J0D01*
G01*
X8255000Y-9970000D02*
G75*
G02*
X8445000Y-9970000I95000J0D01*
G01*
X8445000Y-11670000D02*
G75*
G02*
X8255000Y-11670000I-95000J0D01*
G01*
X8255000Y-11670000D02*
G75*
G02*
X8445000Y-11670000I95000J0D01*
G01*
X9045000Y-6570000D02*
G75*
G02*
X8855000Y-6570000I-95000J0D01*
G01*
X8855000Y-6570000D02*
G75*
G02*
X9045000Y-6570000I95000J0D01*
G01*
X9045000Y-8270000D02*
G75*
G02*
X8855000Y-8270000I-95000J0D01*
G01*
X8855000Y-8270000D02*
G75*
G02*
X9045000Y-8270000I95000J0D01*
G01*
X9045000Y-9970000D02*
G75*
G02*
X8855000Y-9970000I-95000J0D01*
G01*
X8855000Y-9970000D02*
G75*
G02*
X9045000Y-9970000I95000J0D01*
G01*
X9045000Y-11670000D02*
G75*
G02*
X8855000Y-11670000I-95000J0D01*
G01*
X8855000Y-11670000D02*
G75*
G02*
X9045000Y-11670000I95000J0D01*
G01*
X10145000Y-6570000D02*
G75*
G02*
X9955000Y-6570000I-95000J0D01*
G01*
X9955000Y-6570000D02*
G75*
G02*
X10145000Y-6570000I95000J0D01*
G01*
X10145000Y-8270000D02*
G75*
G02*
X9955000Y-8270000I-95000J0D01*
G01*
X9955000Y-8270000D02*
G75*
G02*
X10145000Y-8270000I95000J0D01*
G01*
X10145000Y-9970000D02*
G75*
G02*
X9955000Y-9970000I-95000J0D01*
G01*
X9955000Y-9970000D02*
G75*
G02*
X10145000Y-9970000I95000J0D01*
G01*
X10145000Y-11670000D02*
G75*
G02*
X9955000Y-11670000I-95000J0D01*
G01*
X9955000Y-11670000D02*
G75*
G02*
X10145000Y-11670000I95000J0D01*
G01*
X10745000Y-6570000D02*
G75*
G02*
X10555000Y-6570000I-95000J0D01*
G01*
X10555000Y-6570000D02*
G75*
G02*
X10745000Y-6570000I95000J0D01*
G01*
X10745000Y-8270000D02*
G75*
G02*
X10555000Y-8270000I-95000J0D01*
G01*
X10555000Y-8270000D02*
G75*
G02*
X10745000Y-8270000I95000J0D01*
G01*
X10745000Y-9970000D02*
G75*
G02*
X10555000Y-9970000I-95000J0D01*
G01*
X10555000Y-9970000D02*
G75*
G02*
X10745000Y-9970000I95000J0D01*
G01*
X10745000Y-11670000D02*
G75*
G02*
X10555000Y-11670000I-95000J0D01*
G01*
X10555000Y-11670000D02*
G75*
G02*
X10745000Y-11670000I95000J0D01*
G01*
X11845000Y-6570000D02*
G75*
G02*
X11655000Y-6570000I-95000J0D01*
G01*
X11655000Y-6570000D02*
G75*
G02*
X11845000Y-6570000I95000J0D01*
G01*
X11845000Y-8270000D02*
G75*
G02*
X11655000Y-8270000I-95000J0D01*
G01*
X11655000Y-8270000D02*
G75*
G02*
X11845000Y-8270000I95000J0D01*
G01*
X11845000Y-9970000D02*
G75*
G02*
X11655000Y-9970000I-95000J0D01*
G01*
X11655000Y-9970000D02*
G75*
G02*
X11845000Y-9970000I95000J0D01*
G01*
X11845000Y-11670000D02*
G75*
G02*
X11655000Y-11670000I-95000J0D01*
G01*
X11655000Y-11670000D02*
G75*
G02*
X11845000Y-11670000I95000J0D01*
G01*
X12445000Y-6570000D02*
G75*
G02*
X12255000Y-6570000I-95000J0D01*
G01*
X12255000Y-6570000D02*
G75*
G02*
X12445000Y-6570000I95000J0D01*
G01*
X12445000Y-8270000D02*
G75*
G02*
X12255000Y-8270000I-95000J0D01*
G01*
X12255000Y-8270000D02*
G75*
G02*
X12445000Y-8270000I95000J0D01*
G01*
X12445000Y-9970000D02*
G75*
G02*
X12255000Y-9970000I-95000J0D01*
G01*
X12255000Y-9970000D02*
G75*
G02*
X12445000Y-9970000I95000J0D01*
G01*
X12445000Y-11670000D02*
G75*
G02*
X12255000Y-11670000I-95000J0D01*
G01*
X12255000Y-11670000D02*
G75*
G02*
X12445000Y-11670000I95000J0D01*
G01*
X13545000Y-6570000D02*
G75*
G02*
X13355000Y-6570000I-95000J0D01*
G01*
X13355000Y-6570000D02*
G75*
G02*
X13545000Y-6570000I95000J0D01*
G01*
X13545000Y-8270000D02*
G75*
G02*
X13355000Y-8270000I-95000J0D01*
G01*
X13355000Y-8270000D02*
G75*
G02*
X13545000Y-8270000I95000J0D01*
G01*
X13545000Y-9970000D02*
G75*
G02*
X13355000Y-9970000I-95000J0D01*
G01*
X13355000Y-9970000D02*
G75*
G02*
X13545000Y-9970000I95000J0D01*
G01*
X13545000Y-11670000D02*
G75*
G02*
X13355000Y-11670000I-95000J0D01*
G01*
X13355000Y-11670000D02*
G75*
G02*
X13545000Y-11670000I95000J0D01*
G01*
X14145000Y-6570000D02*
G75*
G02*
X13955000Y-6570000I-95000J0D01*
G01*
X13955000Y-6570000D02*
G75*
G02*
X14145000Y-6570000I95000J0D01*
G01*
X14145000Y-8270000D02*
G75*
G02*
X13955000Y-8270000I-95000J0D01*
G01*
X13955000Y-8270000D02*
G75*
G02*
X14145000Y-8270000I95000J0D01*
G01*
X14145000Y-9970000D02*
G75*
G02*
X13955000Y-9970000I-95000J0D01*
G01*
X13955000Y-9970000D02*
G75*
G02*
X14145000Y-9970000I95000J0D01*
G01*
X14145000Y-11670000D02*
G75*
G02*
X13955000Y-11670000I-95000J0D01*
G01*
X13955000Y-11670000D02*
G75*
G02*
X14145000Y-11670000I95000J0D01*
G01*
X15245000Y-6570000D02*
G75*
G02*
X15055000Y-6570000I-95000J0D01*
G01*
X15055000Y-6570000D02*
G75*
G02*
X15245000Y-6570000I95000J0D01*
G01*
X15245000Y-8270000D02*
G75*
G02*
X15055000Y-8270000I-95000J0D01*
G01*
X15055000Y-8270000D02*
G75*
G02*
X15245000Y-8270000I95000J0D01*
G01*
X15245000Y-9970000D02*
G75*
G02*
X15055000Y-9970000I-95000J0D01*
G01*
X15055000Y-9970000D02*
G75*
G02*
X15245000Y-9970000I95000J0D01*
G01*
X15245000Y-11670000D02*
G75*
G02*
X15055000Y-11670000I-95000J0D01*
G01*
X15055000Y-11670000D02*
G75*
G02*
X15245000Y-11670000I95000J0D01*
G01*
X15845000Y-6570000D02*
G75*
G02*
X15655000Y-6570000I-95000J0D01*
G01*
X15655000Y-6570000D02*
G75*
G02*
X15845000Y-6570000I95000J0D01*
G01*
X15845000Y-8270000D02*
G75*
G02*
X15655000Y-8270000I-95000J0D01*
G01*
X15655000Y-8270000D02*
G75*
G02*
X15845000Y-8270000I95000J0D01*
G01*
X15845000Y-9970000D02*
G75*
G02*
X15655000Y-9970000I-95000J0D01*
G01*
X15655000Y-9970000D02*
G75*
G02*
X15845000Y-9970000I95000J0D01*
G01*
X15845000Y-11670000D02*
G75*
G02*
X15655000Y-11670000I-95000J0D01*
G01*
X15655000Y-11670000D02*
G75*
G02*
X15845000Y-11670000I95000J0D01*
G01*
X16945000Y-6570000D02*
G75*
G02*
X16755000Y-6570000I-95000J0D01*
G01*
X16755000Y-6570000D02*
G75*
G02*
X16945000Y-6570000I95000J0D01*
G01*
X16945000Y-8270000D02*
G75*
G02*
X16755000Y-8270000I-95000J0D01*
G01*
X16755000Y-8270000D02*
G75*
G02*
X16945000Y-8270000I95000J0D01*
G01*
X16945000Y-9970000D02*
G75*
G02*
X16755000Y-9970000I-95000J0D01*
G01*
X16755000Y-9970000D02*
G75*
G02*
X16945000Y-9970000I95000J0D01*
G01*
X16945000Y-11670000D02*
G75*
G02*
X16755000Y-11670000I-95000J0D01*
G01*
X16755000Y-11670000D02*
G75*
G02*
X16945000Y-11670000I95000J0D01*
G01*
X17545000Y-6570000D02*
G75*
G02*
X17355000Y-6570000I-95000J0D01*
G01*
X17355000Y-6570000D02*
G75*
G02*
X17545000Y-6570000I95000J0D01*
G01*
X17545000Y-8270000D02*
G75*
G02*
X17355000Y-8270000I-95000J0D01*
G01*
X17355000Y-8270000D02*
G75*
G02*
X17545000Y-8270000I95000J0D01*
G01*
X17545000Y-9970000D02*
G75*
G02*
X17355000Y-9970000I-95000J0D01*
G01*
X17355000Y-9970000D02*
G75*
G02*
X17545000Y-9970000I95000J0D01*
G01*
X17545000Y-11670000D02*
G75*
G02*
X17355000Y-11670000I-95000J0D01*
G01*
X17355000Y-11670000D02*
G75*
G02*
X17545000Y-11670000I95000J0D01*
G01*
X18645000Y-6570000D02*
G75*
G02*
X18455000Y-6570000I-95000J0D01*
G01*
X18455000Y-6570000D02*
G75*
G02*
X18645000Y-6570000I95000J0D01*
G01*
X18645000Y-8270000D02*
G75*
G02*
X18455000Y-8270000I-95000J0D01*
G01*
X18455000Y-8270000D02*
G75*
G02*
X18645000Y-8270000I95000J0D01*
G01*
X18645000Y-9970000D02*
G75*
G02*
X18455000Y-9970000I-95000J0D01*
G01*
X18455000Y-9970000D02*
G75*
G02*
X18645000Y-9970000I95000J0D01*
G01*
X18645000Y-11670000D02*
G75*
G02*
X18455000Y-11670000I-95000J0D01*
G01*
X18455000Y-11670000D02*
G75*
G02*
X18645000Y-11670000I95000J0D01*
G01*
X19245000Y-6570000D02*
G75*
G02*
X19055000Y-6570000I-95000J0D01*
G01*
X19055000Y-6570000D02*
G75*
G02*
X19245000Y-6570000I95000J0D01*
G01*
X19245000Y-8270000D02*
G75*
G02*
X19055000Y-8270000I-95000J0D01*
G01*
X19055000Y-8270000D02*
G75*
G02*
X19245000Y-8270000I95000J0D01*
G01*
X19245000Y-9970000D02*
G75*
G02*
X19055000Y-9970000I-95000J0D01*
G01*
X19055000Y-9970000D02*
G75*
G02*
X19245000Y-9970000I95000J0D01*
G01*
X19245000Y-11670000D02*
G75*
G02*
X19055000Y-11670000I-95000J0D01*
G01*
X19055000Y-11670000D02*
G75*
G02*
X19245000Y-11670000I95000J0D01*
G01*
X20345000Y-6570000D02*
G75*
G02*
X20155000Y-6570000I-95000J0D01*
G01*
X20155000Y-6570000D02*
G75*
G02*
X20345000Y-6570000I95000J0D01*
G01*
X20345000Y-8270000D02*
G75*
G02*
X20155000Y-8270000I-95000J0D01*
G01*
X20155000Y-8270000D02*
G75*
G02*
X20345000Y-8270000I95000J0D01*
G01*
X20345000Y-9970000D02*
G75*
G02*
X20155000Y-9970000I-95000J0D01*
G01*
X20155000Y-9970000D02*
G75*
G02*
X20345000Y-9970000I95000J0D01*
G01*
X20345000Y-11670000D02*
G75*
G02*
X20155000Y-11670000I-95000J0D01*
G01*
X20155000Y-11670000D02*
G75*
G02*
X20345000Y-11670000I95000J0D01*
G01*
X20945000Y-6570000D02*
G75*
G02*
X20755000Y-6570000I-95000J0D01*
G01*
X20755000Y-6570000D02*
G75*
G02*
X20945000Y-6570000I95000J0D01*
G01*
X20945000Y-8270000D02*
G75*
G02*
X20755000Y-8270000I-95000J0D01*
G01*
X20755000Y-8270000D02*
G75*
G02*
X20945000Y-8270000I95000J0D01*
G01*
X20945000Y-9970000D02*
G75*
G02*
X20755000Y-9970000I-95000J0D01*
G01*
X20755000Y-9970000D02*
G75*
G02*
X20945000Y-9970000I95000J0D01*
G01*
X20945000Y-11670000D02*
G75*
G02*
X20755000Y-11670000I-95000J0D01*
G01*
X20755000Y-11670000D02*
G75*
G02*
X20945000Y-11670000I95000J0D01*
G01*
X22045000Y-6570000D02*
G75*
G02*
X21855000Y-6570000I-95000J0D01*
G01*
X21855000Y-6570000D02*
G75*
G02*
X22045000Y-6570000I95000J0D01*
G01*
X22045000Y-8270000D02*
G75*
G02*
X21855000Y-8270000I-95000J0D01*
G01*
X21855000Y-8270000D02*
G75*
G02*
X22045000Y-8270000I95000J0D01*
G01*
X22045000Y-9970000D02*
G75*
G02*
X21855000Y-9970000I-95000J0D01*
G01*
X21855000Y-9970000D02*
G75*
G02*
X22045000Y-9970000I95000J0D01*
G01*
X22045000Y-11670000D02*
G75*
G02*
X21855000Y-11670000I-95000J0D01*
G01*
X21855000Y-11670000D02*
G75*
G02*
X22045000Y-11670000I95000J0D01*
G01*
D14*
X6950000Y-7285000D02*
X6950000Y-7555000D01*
X6815000Y-7420000D02*
X7085000Y-7420000D01*
X6950000Y-10685000D02*
X6950000Y-10955000D01*
X6815000Y-10820000D02*
X7085000Y-10820000D01*
X13750000Y-8985000D02*
X13750000Y-9255000D01*
X13615000Y-9120000D02*
X13885000Y-9120000D01*
X20550000Y-7285000D02*
X20550000Y-7555000D01*
X20415000Y-7420000D02*
X20685000Y-7420000D01*
X20550000Y-10685000D02*
X20550000Y-10955000D01*
X20415000Y-10820000D02*
X20685000Y-10820000D01*
D15*
X6221977Y-6691977D02*
X6221977Y-6448023D01*
X5978023Y-6448023D01*
X5978023Y-6691977D01*
X6221977Y-6691977D01*
X6221977Y-8391977D02*
X6221977Y-8148023D01*
X5978023Y-8148023D01*
X5978023Y-8391977D01*
X6221977Y-8391977D01*
X6221977Y-10091977D02*
X6221977Y-9848023D01*
X5978023Y-9848023D01*
X5978023Y-10091977D01*
X6221977Y-10091977D01*
X6221977Y-11791977D02*
X6221977Y-11548023D01*
X5978023Y-11548023D01*
X5978023Y-11791977D01*
X6221977Y-11791977D01*
X7921977Y-6691977D02*
X7921977Y-6448023D01*
X7678023Y-6448023D01*
X7678023Y-6691977D01*
X7921977Y-6691977D01*
X7921977Y-8391977D02*
X7921977Y-8148023D01*
X7678023Y-8148023D01*
X7678023Y-8391977D01*
X7921977Y-8391977D01*
X7921977Y-10091977D02*
X7921977Y-9848023D01*
X7678023Y-9848023D01*
X7678023Y-10091977D01*
X7921977Y-10091977D01*
X7921977Y-11791977D02*
X7921977Y-11548023D01*
X7678023Y-11548023D01*
X7678023Y-11791977D01*
X7921977Y-11791977D01*
X9621977Y-6691977D02*
X9621977Y-6448023D01*
X9378023Y-6448023D01*
X9378023Y-6691977D01*
X9621977Y-6691977D01*
X9621977Y-8391977D02*
X9621977Y-8148023D01*
X9378023Y-8148023D01*
X9378023Y-8391977D01*
X9621977Y-8391977D01*
X9621977Y-10091977D02*
X9621977Y-9848023D01*
X9378023Y-9848023D01*
X9378023Y-10091977D01*
X9621977Y-10091977D01*
X9621977Y-11791977D02*
X9621977Y-11548023D01*
X9378023Y-11548023D01*
X9378023Y-11791977D01*
X9621977Y-11791977D01*
X11321977Y-6691977D02*
X11321977Y-6448023D01*
X11078023Y-6448023D01*
X11078023Y-6691977D01*
X11321977Y-6691977D01*
X11321977Y-8391977D02*
X11321977Y-8148023D01*
X11078023Y-8148023D01*
X11078023Y-8391977D01*
X11321977Y-8391977D01*
X11321977Y-10091977D02*
X11321977Y-9848023D01*
X11078023Y-9848023D01*
X11078023Y-10091977D01*
X11321977Y-10091977D01*
X11321977Y-11791977D02*
X11321977Y-11548023D01*
X11078023Y-11548023D01*
X11078023Y-11791977D01*
X11321977Y-11791977D01*
X13021977Y-6691977D02*
X13021977Y-6448023D01*
X12778023Y-6448023D01*
X12778023Y-6691977D01*
X13021977Y-6691977D01*
X13021977Y-8391977D02*
X13021977Y-8148023D01*
X12778023Y-8148023D01*
X12778023Y-8391977D01*
X13021977Y-8391977D01*
X13021977Y-10091977D02*
X13021977Y-9848023D01*
X12778023Y-9848023D01*
X12778023Y-10091977D01*
X13021977Y-10091977D01*
X13021977Y-11791977D02*
X13021977Y-11548023D01*
X12778023Y-11548023D01*
X12778023Y-11791977D01*
X13021977Y-11791977D01*
X14721977Y-6691977D02*
X14721977Y-6448023D01*
X14478023Y-6448023D01*
X14478023Y-6691977D01*
X14721977Y-6691977D01*
X14721977Y-8391977D02*
X14721977Y-8148023D01*
X14478023Y-8148023D01*
X14478023Y-8391977D01*
X14721977Y-8391977D01*
X14721977Y-10091977D02*
X14721977Y-9848023D01*
X14478023Y-9848023D01*
X14478023Y-10091977D01*
X14721977Y-10091977D01*
X14721977Y-11791977D02*
X14721977Y-11548023D01*
X14478023Y-11548023D01*
X14478023Y-11791977D01*
X14721977Y-11791977D01*
X16421977Y-6691977D02*
X16421977Y-6448023D01*
X16178023Y-6448023D01*
X16178023Y-6691977D01*
X16421977Y-6691977D01*
X16421977Y-8391977D02*
X16421977Y-8148023D01*
X16178023Y-8148023D01*
X16178023Y-8391977D01*
X16421977Y-8391977D01*
X16421977Y-10091977D02*
X16421977Y-9848023D01*
X16178023Y-9848023D01*
X16178023Y-10091977D01*
X16421977Y-10091977D01*
X16421977Y-11791977D02*
X16421977Y-11548023D01*
X16178023Y-11548023D01*
X16178023Y-11791977D01*
X16421977Y-11791977D01*
X18121977Y-6691977D02*
X18121977Y-6448023D01*
X17878023Y-6448023D01*
X17878023Y-6691977D01*
X18121977Y-6691977D01*
X18121977Y-8391977D02*
X18121977Y-8148023D01*
X17878023Y-8148023D01*
X17878023Y-8391977D01*
X18121977Y-8391977D01*
X18121977Y-10091977D02*
X18121977Y-9848023D01*
X17878023Y-9848023D01*
X17878023Y-10091977D01*
X18121977Y-10091977D01*
X18121977Y-11791977D02*
X18121977Y-11548023D01*
X17878023Y-11548023D01*
X17878023Y-11791977D01*
X18121977Y-11791977D01*
X19821977Y-6691977D02*
X19821977Y-6448023D01*
X19578023Y-6448023D01*
X19578023Y-6691977D01*
X19821977Y-6691977D01*
X19821977Y-8391977D02*
X19821977Y-8148023D01*
X19578023Y-8148023D01*
X19578023Y-8391977D01*
X19821977Y-8391977D01*
X19821977Y-10091977D02*
X19821977Y-9848023D01*
X19578023Y-9848023D01*
X19578023Y-10091977D01*
X19821977Y-10091977D01*
X19821977Y-11791977D02*
X19821977Y-11548023D01*
X19578023Y-11548023D01*
X19578023Y-11791977D01*
X19821977Y-11791977D01*
X21521977Y-6691977D02*
X21521977Y-6448023D01*
X21278023Y-6448023D01*
X21278023Y-6691977D01*
X21521977Y-6691977D01*
X21521977Y-8391977D02*
X21521977Y-8148023D01*
X21278023Y-8148023D01*
X21278023Y-8391977D01*
X21521977Y-8391977D01*
X21521977Y-10091977D02*
X21521977Y-9848023D01*
X21278023Y-9848023D01*
X21278023Y-10091977D01*
X21521977Y-10091977D01*
X21521977Y-11791977D02*
X21521977Y-11548023D01*
X21278023Y-11548023D01*
X21278023Y-11791977D01*
X21521977Y-11791977D01*
D11*
X5558277Y-12783984D02*
X5558277Y-12583984D01*
X5558277Y-12583984D02*
X5605896Y-12583984D01*
X5605896Y-12583984D02*
X5634467Y-12593508D01*
X5634467Y-12593508D02*
X5653515Y-12612555D01*
X5653515Y-12612555D02*
X5663039Y-12631603D01*
X5663039Y-12631603D02*
X5672562Y-12669698D01*
X5672562Y-12669698D02*
X5672562Y-12698269D01*
X5672562Y-12698269D02*
X5663039Y-12736365D01*
X5663039Y-12736365D02*
X5653515Y-12755412D01*
X5653515Y-12755412D02*
X5634467Y-12774460D01*
X5634467Y-12774460D02*
X5605896Y-12783984D01*
X5605896Y-12783984D02*
X5558277Y-12783984D01*
X5758277Y-12783984D02*
X5758277Y-12650650D01*
X5758277Y-12688746D02*
X5767801Y-12669698D01*
X5767801Y-12669698D02*
X5777324Y-12660174D01*
X5777324Y-12660174D02*
X5796372Y-12650650D01*
X5796372Y-12650650D02*
X5815420Y-12650650D01*
X5882086Y-12783984D02*
X5882086Y-12650650D01*
X5882086Y-12583984D02*
X5872562Y-12593508D01*
X5872562Y-12593508D02*
X5882086Y-12603031D01*
X5882086Y-12603031D02*
X5891610Y-12593508D01*
X5891610Y-12593508D02*
X5882086Y-12583984D01*
X5882086Y-12583984D02*
X5882086Y-12603031D01*
X6005896Y-12783984D02*
X5986848Y-12774460D01*
X5986848Y-12774460D02*
X5977324Y-12755412D01*
X5977324Y-12755412D02*
X5977324Y-12583984D01*
X6110658Y-12783984D02*
X6091610Y-12774460D01*
X6091610Y-12774460D02*
X6082086Y-12755412D01*
X6082086Y-12755412D02*
X6082086Y-12583984D01*
X6339229Y-12783984D02*
X6339229Y-12583984D01*
X6339229Y-12583984D02*
X6405896Y-12726841D01*
X6405896Y-12726841D02*
X6472562Y-12583984D01*
X6472562Y-12583984D02*
X6472562Y-12783984D01*
X6653515Y-12783984D02*
X6653515Y-12679222D01*
X6653515Y-12679222D02*
X6643991Y-12660174D01*
X6643991Y-12660174D02*
X6624943Y-12650650D01*
X6624943Y-12650650D02*
X6586848Y-12650650D01*
X6586848Y-12650650D02*
X6567801Y-12660174D01*
X6653515Y-12774460D02*
X6634467Y-12783984D01*
X6634467Y-12783984D02*
X6586848Y-12783984D01*
X6586848Y-12783984D02*
X6567801Y-12774460D01*
X6567801Y-12774460D02*
X6558277Y-12755412D01*
X6558277Y-12755412D02*
X6558277Y-12736365D01*
X6558277Y-12736365D02*
X6567801Y-12717317D01*
X6567801Y-12717317D02*
X6586848Y-12707793D01*
X6586848Y-12707793D02*
X6634467Y-12707793D01*
X6634467Y-12707793D02*
X6653515Y-12698269D01*
X6748753Y-12650650D02*
X6748753Y-12850650D01*
X6748753Y-12660174D02*
X6767801Y-12650650D01*
X6767801Y-12650650D02*
X6805896Y-12650650D01*
X6805896Y-12650650D02*
X6824943Y-12660174D01*
X6824943Y-12660174D02*
X6834467Y-12669698D01*
X6834467Y-12669698D02*
X6843991Y-12688746D01*
X6843991Y-12688746D02*
X6843991Y-12745888D01*
X6843991Y-12745888D02*
X6834467Y-12764936D01*
X6834467Y-12764936D02*
X6824943Y-12774460D01*
X6824943Y-12774460D02*
X6805896Y-12783984D01*
X6805896Y-12783984D02*
X6767801Y-12783984D01*
X6767801Y-12783984D02*
X6748753Y-12774460D01*
X6929705Y-12764936D02*
X6939229Y-12774460D01*
X6939229Y-12774460D02*
X6929705Y-12783984D01*
X6929705Y-12783984D02*
X6920182Y-12774460D01*
X6920182Y-12774460D02*
X6929705Y-12764936D01*
X6929705Y-12764936D02*
X6929705Y-12783984D01*
X6929705Y-12660174D02*
X6939229Y-12669698D01*
X6939229Y-12669698D02*
X6929705Y-12679222D01*
X6929705Y-12679222D02*
X6920182Y-12669698D01*
X6920182Y-12669698D02*
X6929705Y-12660174D01*
X6929705Y-12660174D02*
X6929705Y-12679222D01*
D12*
X5232500Y-13080000D02*
X5297500Y-13145000D01*
X5297500Y-13080000D02*
X5232500Y-13145000D01*
D11*
X5596372Y-13003984D02*
X5615420Y-13003984D01*
X5615420Y-13003984D02*
X5634467Y-13013508D01*
X5634467Y-13013508D02*
X5643991Y-13023031D01*
X5643991Y-13023031D02*
X5653515Y-13042079D01*
X5653515Y-13042079D02*
X5663039Y-13080174D01*
X5663039Y-13080174D02*
X5663039Y-13127793D01*
X5663039Y-13127793D02*
X5653515Y-13165888D01*
X5653515Y-13165888D02*
X5643991Y-13184936D01*
X5643991Y-13184936D02*
X5634467Y-13194460D01*
X5634467Y-13194460D02*
X5615420Y-13203984D01*
X5615420Y-13203984D02*
X5596372Y-13203984D01*
X5596372Y-13203984D02*
X5577324Y-13194460D01*
X5577324Y-13194460D02*
X5567801Y-13184936D01*
X5567801Y-13184936D02*
X5558277Y-13165888D01*
X5558277Y-13165888D02*
X5548753Y-13127793D01*
X5548753Y-13127793D02*
X5548753Y-13080174D01*
X5548753Y-13080174D02*
X5558277Y-13042079D01*
X5558277Y-13042079D02*
X5567801Y-13023031D01*
X5567801Y-13023031D02*
X5577324Y-13013508D01*
X5577324Y-13013508D02*
X5596372Y-13003984D01*
X5748753Y-13184936D02*
X5758277Y-13194460D01*
X5758277Y-13194460D02*
X5748753Y-13203984D01*
X5748753Y-13203984D02*
X5739229Y-13194460D01*
X5739229Y-13194460D02*
X5748753Y-13184936D01*
X5748753Y-13184936D02*
X5748753Y-13203984D01*
X5929705Y-13003984D02*
X5891610Y-13003984D01*
X5891610Y-13003984D02*
X5872562Y-13013508D01*
X5872562Y-13013508D02*
X5863039Y-13023031D01*
X5863039Y-13023031D02*
X5843991Y-13051603D01*
X5843991Y-13051603D02*
X5834467Y-13089698D01*
X5834467Y-13089698D02*
X5834467Y-13165888D01*
X5834467Y-13165888D02*
X5843991Y-13184936D01*
X5843991Y-13184936D02*
X5853515Y-13194460D01*
X5853515Y-13194460D02*
X5872562Y-13203984D01*
X5872562Y-13203984D02*
X5910658Y-13203984D01*
X5910658Y-13203984D02*
X5929705Y-13194460D01*
X5929705Y-13194460D02*
X5939229Y-13184936D01*
X5939229Y-13184936D02*
X5948753Y-13165888D01*
X5948753Y-13165888D02*
X5948753Y-13118269D01*
X5948753Y-13118269D02*
X5939229Y-13099222D01*
X5939229Y-13099222D02*
X5929705Y-13089698D01*
X5929705Y-13089698D02*
X5910658Y-13080174D01*
X5910658Y-13080174D02*
X5872562Y-13080174D01*
X5872562Y-13080174D02*
X5853515Y-13089698D01*
X5853515Y-13089698D02*
X5843991Y-13099222D01*
X5843991Y-13099222D02*
X5834467Y-13118269D01*
X6129705Y-13003984D02*
X6034467Y-13003984D01*
X6034467Y-13003984D02*
X6024943Y-13099222D01*
X6024943Y-13099222D02*
X6034467Y-13089698D01*
X6034467Y-13089698D02*
X6053515Y-13080174D01*
X6053515Y-13080174D02*
X6101134Y-13080174D01*
X6101134Y-13080174D02*
X6120182Y-13089698D01*
X6120182Y-13089698D02*
X6129705Y-13099222D01*
X6129705Y-13099222D02*
X6139229Y-13118269D01*
X6139229Y-13118269D02*
X6139229Y-13165888D01*
X6139229Y-13165888D02*
X6129705Y-13184936D01*
X6129705Y-13184936D02*
X6120182Y-13194460D01*
X6120182Y-13194460D02*
X6101134Y-13203984D01*
X6101134Y-13203984D02*
X6053515Y-13203984D01*
X6053515Y-13203984D02*
X6034467Y-13194460D01*
X6034467Y-13194460D02*
X6024943Y-13184936D01*
X6263039Y-13003984D02*
X6282086Y-13003984D01*
X6282086Y-13003984D02*
X6301134Y-13013508D01*
X6301134Y-13013508D02*
X6310658Y-13023031D01*
X6310658Y-13023031D02*
X6320182Y-13042079D01*
X6320182Y-13042079D02*
X6329705Y-13080174D01*
X6329705Y-13080174D02*
X6329705Y-13127793D01*
X6329705Y-13127793D02*
X6320182Y-13165888D01*
X6320182Y-13165888D02*
X6310658Y-13184936D01*
X6310658Y-13184936D02*
X6301134Y-13194460D01*
X6301134Y-13194460D02*
X6282086Y-13203984D01*
X6282086Y-13203984D02*
X6263039Y-13203984D01*
X6263039Y-13203984D02*
X6243991Y-13194460D01*
X6243991Y-13194460D02*
X6234467Y-13184936D01*
X6234467Y-13184936D02*
X6224943Y-13165888D01*
X6224943Y-13165888D02*
X6215420Y-13127793D01*
X6215420Y-13127793D02*
X6215420Y-13080174D01*
X6215420Y-13080174D02*
X6224943Y-13042079D01*
X6224943Y-13042079D02*
X6234467Y-13023031D01*
X6234467Y-13023031D02*
X6243991Y-13013508D01*
X6243991Y-13013508D02*
X6263039Y-13003984D01*
X6415420Y-13203984D02*
X6415420Y-13070650D01*
X6415420Y-13089698D02*
X6424943Y-13080174D01*
X6424943Y-13080174D02*
X6443991Y-13070650D01*
X6443991Y-13070650D02*
X6472563Y-13070650D01*
X6472563Y-13070650D02*
X6491610Y-13080174D01*
X6491610Y-13080174D02*
X6501134Y-13099222D01*
X6501134Y-13099222D02*
X6501134Y-13203984D01*
X6501134Y-13099222D02*
X6510658Y-13080174D01*
X6510658Y-13080174D02*
X6529705Y-13070650D01*
X6529705Y-13070650D02*
X6558277Y-13070650D01*
X6558277Y-13070650D02*
X6577324Y-13080174D01*
X6577324Y-13080174D02*
X6586848Y-13099222D01*
X6586848Y-13099222D02*
X6586848Y-13203984D01*
X6682086Y-13203984D02*
X6682086Y-13070650D01*
X6682086Y-13089698D02*
X6691610Y-13080174D01*
X6691610Y-13080174D02*
X6710658Y-13070650D01*
X6710658Y-13070650D02*
X6739229Y-13070650D01*
X6739229Y-13070650D02*
X6758277Y-13080174D01*
X6758277Y-13080174D02*
X6767801Y-13099222D01*
X6767801Y-13099222D02*
X6767801Y-13203984D01*
X6767801Y-13099222D02*
X6777324Y-13080174D01*
X6777324Y-13080174D02*
X6796372Y-13070650D01*
X6796372Y-13070650D02*
X6824943Y-13070650D01*
X6824943Y-13070650D02*
X6843991Y-13080174D01*
X6843991Y-13080174D02*
X6853515Y-13099222D01*
X6853515Y-13099222D02*
X6853515Y-13203984D01*
X7243991Y-12994460D02*
X7072563Y-13251603D01*
X7501134Y-13003984D02*
X7520182Y-13003984D01*
X7520182Y-13003984D02*
X7539229Y-13013508D01*
X7539229Y-13013508D02*
X7548753Y-13023031D01*
X7548753Y-13023031D02*
X7558277Y-13042079D01*
X7558277Y-13042079D02*
X7567801Y-13080174D01*
X7567801Y-13080174D02*
X7567801Y-13127793D01*
X7567801Y-13127793D02*
X7558277Y-13165888D01*
X7558277Y-13165888D02*
X7548753Y-13184936D01*
X7548753Y-13184936D02*
X7539229Y-13194460D01*
X7539229Y-13194460D02*
X7520182Y-13203984D01*
X7520182Y-13203984D02*
X7501134Y-13203984D01*
X7501134Y-13203984D02*
X7482086Y-13194460D01*
X7482086Y-13194460D02*
X7472563Y-13184936D01*
X7472563Y-13184936D02*
X7463039Y-13165888D01*
X7463039Y-13165888D02*
X7453515Y-13127793D01*
X7453515Y-13127793D02*
X7453515Y-13080174D01*
X7453515Y-13080174D02*
X7463039Y-13042079D01*
X7463039Y-13042079D02*
X7472563Y-13023031D01*
X7472563Y-13023031D02*
X7482086Y-13013508D01*
X7482086Y-13013508D02*
X7501134Y-13003984D01*
X7653515Y-13184936D02*
X7663039Y-13194460D01*
X7663039Y-13194460D02*
X7653515Y-13203984D01*
X7653515Y-13203984D02*
X7643991Y-13194460D01*
X7643991Y-13194460D02*
X7653515Y-13184936D01*
X7653515Y-13184936D02*
X7653515Y-13203984D01*
X7786848Y-13003984D02*
X7805896Y-13003984D01*
X7805896Y-13003984D02*
X7824944Y-13013508D01*
X7824944Y-13013508D02*
X7834467Y-13023031D01*
X7834467Y-13023031D02*
X7843991Y-13042079D01*
X7843991Y-13042079D02*
X7853515Y-13080174D01*
X7853515Y-13080174D02*
X7853515Y-13127793D01*
X7853515Y-13127793D02*
X7843991Y-13165888D01*
X7843991Y-13165888D02*
X7834467Y-13184936D01*
X7834467Y-13184936D02*
X7824944Y-13194460D01*
X7824944Y-13194460D02*
X7805896Y-13203984D01*
X7805896Y-13203984D02*
X7786848Y-13203984D01*
X7786848Y-13203984D02*
X7767801Y-13194460D01*
X7767801Y-13194460D02*
X7758277Y-13184936D01*
X7758277Y-13184936D02*
X7748753Y-13165888D01*
X7748753Y-13165888D02*
X7739229Y-13127793D01*
X7739229Y-13127793D02*
X7739229Y-13080174D01*
X7739229Y-13080174D02*
X7748753Y-13042079D01*
X7748753Y-13042079D02*
X7758277Y-13023031D01*
X7758277Y-13023031D02*
X7767801Y-13013508D01*
X7767801Y-13013508D02*
X7786848Y-13003984D01*
X7929706Y-13023031D02*
X7939229Y-13013508D01*
X7939229Y-13013508D02*
X7958277Y-13003984D01*
X7958277Y-13003984D02*
X8005896Y-13003984D01*
X8005896Y-13003984D02*
X8024944Y-13013508D01*
X8024944Y-13013508D02*
X8034467Y-13023031D01*
X8034467Y-13023031D02*
X8043991Y-13042079D01*
X8043991Y-13042079D02*
X8043991Y-13061127D01*
X8043991Y-13061127D02*
X8034467Y-13089698D01*
X8034467Y-13089698D02*
X7920182Y-13203984D01*
X7920182Y-13203984D02*
X8043991Y-13203984D01*
X8224944Y-13003984D02*
X8129706Y-13003984D01*
X8129706Y-13003984D02*
X8120182Y-13099222D01*
X8120182Y-13099222D02*
X8129706Y-13089698D01*
X8129706Y-13089698D02*
X8148753Y-13080174D01*
X8148753Y-13080174D02*
X8196372Y-13080174D01*
X8196372Y-13080174D02*
X8215420Y-13089698D01*
X8215420Y-13089698D02*
X8224944Y-13099222D01*
X8224944Y-13099222D02*
X8234467Y-13118269D01*
X8234467Y-13118269D02*
X8234467Y-13165888D01*
X8234467Y-13165888D02*
X8224944Y-13184936D01*
X8224944Y-13184936D02*
X8215420Y-13194460D01*
X8215420Y-13194460D02*
X8196372Y-13203984D01*
X8196372Y-13203984D02*
X8148753Y-13203984D01*
X8148753Y-13203984D02*
X8129706Y-13194460D01*
X8129706Y-13194460D02*
X8120182Y-13184936D01*
X8405896Y-13003984D02*
X8367801Y-13003984D01*
X8367801Y-13003984D02*
X8348753Y-13013508D01*
X8348753Y-13013508D02*
X8339229Y-13023031D01*
X8339229Y-13023031D02*
X8320182Y-13051603D01*
X8320182Y-13051603D02*
X8310658Y-13089698D01*
X8310658Y-13089698D02*
X8310658Y-13165888D01*
X8310658Y-13165888D02*
X8320182Y-13184936D01*
X8320182Y-13184936D02*
X8329706Y-13194460D01*
X8329706Y-13194460D02*
X8348753Y-13203984D01*
X8348753Y-13203984D02*
X8386848Y-13203984D01*
X8386848Y-13203984D02*
X8405896Y-13194460D01*
X8405896Y-13194460D02*
X8415420Y-13184936D01*
X8415420Y-13184936D02*
X8424944Y-13165888D01*
X8424944Y-13165888D02*
X8424944Y-13118269D01*
X8424944Y-13118269D02*
X8415420Y-13099222D01*
X8415420Y-13099222D02*
X8405896Y-13089698D01*
X8405896Y-13089698D02*
X8386848Y-13080174D01*
X8386848Y-13080174D02*
X8348753Y-13080174D01*
X8348753Y-13080174D02*
X8329706Y-13089698D01*
X8329706Y-13089698D02*
X8320182Y-13099222D01*
X8320182Y-13099222D02*
X8310658Y-13118269D01*
X8501134Y-13003984D02*
X8501134Y-13042079D01*
X8577325Y-13003984D02*
X8577325Y-13042079D01*
X8872563Y-13280174D02*
X8863039Y-13270650D01*
X8863039Y-13270650D02*
X8843991Y-13242079D01*
X8843991Y-13242079D02*
X8834468Y-13223031D01*
X8834468Y-13223031D02*
X8824944Y-13194460D01*
X8824944Y-13194460D02*
X8815420Y-13146841D01*
X8815420Y-13146841D02*
X8815420Y-13108746D01*
X8815420Y-13108746D02*
X8824944Y-13061127D01*
X8824944Y-13061127D02*
X8834468Y-13032555D01*
X8834468Y-13032555D02*
X8843991Y-13013508D01*
X8843991Y-13013508D02*
X8863039Y-12984936D01*
X8863039Y-12984936D02*
X8872563Y-12975412D01*
X8939230Y-13023031D02*
X8948753Y-13013508D01*
X8948753Y-13013508D02*
X8967801Y-13003984D01*
X8967801Y-13003984D02*
X9015420Y-13003984D01*
X9015420Y-13003984D02*
X9034468Y-13013508D01*
X9034468Y-13013508D02*
X9043991Y-13023031D01*
X9043991Y-13023031D02*
X9053515Y-13042079D01*
X9053515Y-13042079D02*
X9053515Y-13061127D01*
X9053515Y-13061127D02*
X9043991Y-13089698D01*
X9043991Y-13089698D02*
X8929706Y-13203984D01*
X8929706Y-13203984D02*
X9053515Y-13203984D01*
X9291611Y-13203984D02*
X9291611Y-13003984D01*
X9377325Y-13203984D02*
X9377325Y-13099222D01*
X9377325Y-13099222D02*
X9367801Y-13080174D01*
X9367801Y-13080174D02*
X9348753Y-13070650D01*
X9348753Y-13070650D02*
X9320182Y-13070650D01*
X9320182Y-13070650D02*
X9301134Y-13080174D01*
X9301134Y-13080174D02*
X9291611Y-13089698D01*
X9501134Y-13203984D02*
X9482087Y-13194460D01*
X9482087Y-13194460D02*
X9472563Y-13184936D01*
X9472563Y-13184936D02*
X9463039Y-13165888D01*
X9463039Y-13165888D02*
X9463039Y-13108746D01*
X9463039Y-13108746D02*
X9472563Y-13089698D01*
X9472563Y-13089698D02*
X9482087Y-13080174D01*
X9482087Y-13080174D02*
X9501134Y-13070650D01*
X9501134Y-13070650D02*
X9529706Y-13070650D01*
X9529706Y-13070650D02*
X9548753Y-13080174D01*
X9548753Y-13080174D02*
X9558277Y-13089698D01*
X9558277Y-13089698D02*
X9567801Y-13108746D01*
X9567801Y-13108746D02*
X9567801Y-13165888D01*
X9567801Y-13165888D02*
X9558277Y-13184936D01*
X9558277Y-13184936D02*
X9548753Y-13194460D01*
X9548753Y-13194460D02*
X9529706Y-13203984D01*
X9529706Y-13203984D02*
X9501134Y-13203984D01*
X9682087Y-13203984D02*
X9663039Y-13194460D01*
X9663039Y-13194460D02*
X9653515Y-13175412D01*
X9653515Y-13175412D02*
X9653515Y-13003984D01*
X9834468Y-13194460D02*
X9815420Y-13203984D01*
X9815420Y-13203984D02*
X9777325Y-13203984D01*
X9777325Y-13203984D02*
X9758277Y-13194460D01*
X9758277Y-13194460D02*
X9748753Y-13175412D01*
X9748753Y-13175412D02*
X9748753Y-13099222D01*
X9748753Y-13099222D02*
X9758277Y-13080174D01*
X9758277Y-13080174D02*
X9777325Y-13070650D01*
X9777325Y-13070650D02*
X9815420Y-13070650D01*
X9815420Y-13070650D02*
X9834468Y-13080174D01*
X9834468Y-13080174D02*
X9843992Y-13099222D01*
X9843992Y-13099222D02*
X9843992Y-13118269D01*
X9843992Y-13118269D02*
X9748753Y-13137317D01*
X9920182Y-13194460D02*
X9939230Y-13203984D01*
X9939230Y-13203984D02*
X9977325Y-13203984D01*
X9977325Y-13203984D02*
X9996373Y-13194460D01*
X9996373Y-13194460D02*
X10005896Y-13175412D01*
X10005896Y-13175412D02*
X10005896Y-13165888D01*
X10005896Y-13165888D02*
X9996373Y-13146841D01*
X9996373Y-13146841D02*
X9977325Y-13137317D01*
X9977325Y-13137317D02*
X9948753Y-13137317D01*
X9948753Y-13137317D02*
X9929706Y-13127793D01*
X9929706Y-13127793D02*
X9920182Y-13108746D01*
X9920182Y-13108746D02*
X9920182Y-13099222D01*
X9920182Y-13099222D02*
X9929706Y-13080174D01*
X9929706Y-13080174D02*
X9948753Y-13070650D01*
X9948753Y-13070650D02*
X9977325Y-13070650D01*
X9977325Y-13070650D02*
X9996373Y-13080174D01*
X10072563Y-13280174D02*
X10082087Y-13270650D01*
X10082087Y-13270650D02*
X10101134Y-13242079D01*
X10101134Y-13242079D02*
X10110658Y-13223031D01*
X10110658Y-13223031D02*
X10120182Y-13194460D01*
X10120182Y-13194460D02*
X10129706Y-13146841D01*
X10129706Y-13146841D02*
X10129706Y-13108746D01*
X10129706Y-13108746D02*
X10120182Y-13061127D01*
X10120182Y-13061127D02*
X10110658Y-13032555D01*
X10110658Y-13032555D02*
X10101134Y-13013508D01*
X10101134Y-13013508D02*
X10082087Y-12984936D01*
X10082087Y-12984936D02*
X10072563Y-12975412D01*
X10434468Y-13280174D02*
X10424944Y-13270650D01*
X10424944Y-13270650D02*
X10405896Y-13242079D01*
X10405896Y-13242079D02*
X10396373Y-13223031D01*
X10396373Y-13223031D02*
X10386849Y-13194460D01*
X10386849Y-13194460D02*
X10377325Y-13146841D01*
X10377325Y-13146841D02*
X10377325Y-13108746D01*
X10377325Y-13108746D02*
X10386849Y-13061127D01*
X10386849Y-13061127D02*
X10396373Y-13032555D01*
X10396373Y-13032555D02*
X10405896Y-13013508D01*
X10405896Y-13013508D02*
X10424944Y-12984936D01*
X10424944Y-12984936D02*
X10434468Y-12975412D01*
X10510658Y-13070650D02*
X10510658Y-13203984D01*
X10510658Y-13089698D02*
X10520182Y-13080174D01*
X10520182Y-13080174D02*
X10539230Y-13070650D01*
X10539230Y-13070650D02*
X10567801Y-13070650D01*
X10567801Y-13070650D02*
X10586849Y-13080174D01*
X10586849Y-13080174D02*
X10596373Y-13099222D01*
X10596373Y-13099222D02*
X10596373Y-13203984D01*
X10720182Y-13203984D02*
X10701134Y-13194460D01*
X10701134Y-13194460D02*
X10691611Y-13184936D01*
X10691611Y-13184936D02*
X10682087Y-13165888D01*
X10682087Y-13165888D02*
X10682087Y-13108746D01*
X10682087Y-13108746D02*
X10691611Y-13089698D01*
X10691611Y-13089698D02*
X10701134Y-13080174D01*
X10701134Y-13080174D02*
X10720182Y-13070650D01*
X10720182Y-13070650D02*
X10748754Y-13070650D01*
X10748754Y-13070650D02*
X10767801Y-13080174D01*
X10767801Y-13080174D02*
X10777325Y-13089698D01*
X10777325Y-13089698D02*
X10786849Y-13108746D01*
X10786849Y-13108746D02*
X10786849Y-13165888D01*
X10786849Y-13165888D02*
X10777325Y-13184936D01*
X10777325Y-13184936D02*
X10767801Y-13194460D01*
X10767801Y-13194460D02*
X10748754Y-13203984D01*
X10748754Y-13203984D02*
X10720182Y-13203984D01*
X10843992Y-13070650D02*
X10920182Y-13070650D01*
X10872563Y-13003984D02*
X10872563Y-13175412D01*
X10872563Y-13175412D02*
X10882087Y-13194460D01*
X10882087Y-13194460D02*
X10901134Y-13203984D01*
X10901134Y-13203984D02*
X10920182Y-13203984D01*
X11139230Y-13070650D02*
X11139230Y-13270650D01*
X11139230Y-13080174D02*
X11158277Y-13070650D01*
X11158277Y-13070650D02*
X11196373Y-13070650D01*
X11196373Y-13070650D02*
X11215420Y-13080174D01*
X11215420Y-13080174D02*
X11224944Y-13089698D01*
X11224944Y-13089698D02*
X11234468Y-13108746D01*
X11234468Y-13108746D02*
X11234468Y-13165888D01*
X11234468Y-13165888D02*
X11224944Y-13184936D01*
X11224944Y-13184936D02*
X11215420Y-13194460D01*
X11215420Y-13194460D02*
X11196373Y-13203984D01*
X11196373Y-13203984D02*
X11158277Y-13203984D01*
X11158277Y-13203984D02*
X11139230Y-13194460D01*
X11348753Y-13203984D02*
X11329706Y-13194460D01*
X11329706Y-13194460D02*
X11320182Y-13175412D01*
X11320182Y-13175412D02*
X11320182Y-13003984D01*
X11510658Y-13203984D02*
X11510658Y-13099222D01*
X11510658Y-13099222D02*
X11501134Y-13080174D01*
X11501134Y-13080174D02*
X11482087Y-13070650D01*
X11482087Y-13070650D02*
X11443992Y-13070650D01*
X11443992Y-13070650D02*
X11424944Y-13080174D01*
X11510658Y-13194460D02*
X11491611Y-13203984D01*
X11491611Y-13203984D02*
X11443992Y-13203984D01*
X11443992Y-13203984D02*
X11424944Y-13194460D01*
X11424944Y-13194460D02*
X11415420Y-13175412D01*
X11415420Y-13175412D02*
X11415420Y-13156365D01*
X11415420Y-13156365D02*
X11424944Y-13137317D01*
X11424944Y-13137317D02*
X11443992Y-13127793D01*
X11443992Y-13127793D02*
X11491611Y-13127793D01*
X11491611Y-13127793D02*
X11510658Y-13118269D01*
X11577325Y-13070650D02*
X11653515Y-13070650D01*
X11605896Y-13003984D02*
X11605896Y-13175412D01*
X11605896Y-13175412D02*
X11615420Y-13194460D01*
X11615420Y-13194460D02*
X11634468Y-13203984D01*
X11634468Y-13203984D02*
X11653515Y-13203984D01*
X11796373Y-13194460D02*
X11777325Y-13203984D01*
X11777325Y-13203984D02*
X11739230Y-13203984D01*
X11739230Y-13203984D02*
X11720182Y-13194460D01*
X11720182Y-13194460D02*
X11710658Y-13175412D01*
X11710658Y-13175412D02*
X11710658Y-13099222D01*
X11710658Y-13099222D02*
X11720182Y-13080174D01*
X11720182Y-13080174D02*
X11739230Y-13070650D01*
X11739230Y-13070650D02*
X11777325Y-13070650D01*
X11777325Y-13070650D02*
X11796373Y-13080174D01*
X11796373Y-13080174D02*
X11805896Y-13099222D01*
X11805896Y-13099222D02*
X11805896Y-13118269D01*
X11805896Y-13118269D02*
X11710658Y-13137317D01*
X11977325Y-13203984D02*
X11977325Y-13003984D01*
X11977325Y-13194460D02*
X11958277Y-13203984D01*
X11958277Y-13203984D02*
X11920182Y-13203984D01*
X11920182Y-13203984D02*
X11901134Y-13194460D01*
X11901134Y-13194460D02*
X11891611Y-13184936D01*
X11891611Y-13184936D02*
X11882087Y-13165888D01*
X11882087Y-13165888D02*
X11882087Y-13108746D01*
X11882087Y-13108746D02*
X11891611Y-13089698D01*
X11891611Y-13089698D02*
X11901134Y-13080174D01*
X11901134Y-13080174D02*
X11920182Y-13070650D01*
X11920182Y-13070650D02*
X11958277Y-13070650D01*
X11958277Y-13070650D02*
X11977325Y-13080174D01*
X12053515Y-13280174D02*
X12063039Y-13270650D01*
X12063039Y-13270650D02*
X12082087Y-13242079D01*
X12082087Y-13242079D02*
X12091611Y-13223031D01*
X12091611Y-13223031D02*
X12101134Y-13194460D01*
X12101134Y-13194460D02*
X12110658Y-13146841D01*
X12110658Y-13146841D02*
X12110658Y-13108746D01*
X12110658Y-13108746D02*
X12101134Y-13061127D01*
X12101134Y-13061127D02*
X12091611Y-13032555D01*
X12091611Y-13032555D02*
X12082087Y-13013508D01*
X12082087Y-13013508D02*
X12063039Y-12984936D01*
X12063039Y-12984936D02*
X12053515Y-12975412D01*
D13*
X5297500Y-13376500D02*
G75*
G02*
X5107500Y-13376500I-95000J0D01*
G01*
X5107500Y-13376500D02*
G75*
G02*
X5297500Y-13376500I95000J0D01*
G01*
D11*
X5663039Y-13467984D02*
X5548753Y-13467984D01*
X5605896Y-13467984D02*
X5605896Y-13267984D01*
X5605896Y-13267984D02*
X5586848Y-13296555D01*
X5586848Y-13296555D02*
X5567801Y-13315603D01*
X5567801Y-13315603D02*
X5548753Y-13325127D01*
X5748753Y-13448936D02*
X5758277Y-13458460D01*
X5758277Y-13458460D02*
X5748753Y-13467984D01*
X5748753Y-13467984D02*
X5739229Y-13458460D01*
X5739229Y-13458460D02*
X5748753Y-13448936D01*
X5748753Y-13448936D02*
X5748753Y-13467984D01*
X5853515Y-13467984D02*
X5891610Y-13467984D01*
X5891610Y-13467984D02*
X5910658Y-13458460D01*
X5910658Y-13458460D02*
X5920182Y-13448936D01*
X5920182Y-13448936D02*
X5939229Y-13420365D01*
X5939229Y-13420365D02*
X5948753Y-13382269D01*
X5948753Y-13382269D02*
X5948753Y-13306079D01*
X5948753Y-13306079D02*
X5939229Y-13287031D01*
X5939229Y-13287031D02*
X5929705Y-13277508D01*
X5929705Y-13277508D02*
X5910658Y-13267984D01*
X5910658Y-13267984D02*
X5872562Y-13267984D01*
X5872562Y-13267984D02*
X5853515Y-13277508D01*
X5853515Y-13277508D02*
X5843991Y-13287031D01*
X5843991Y-13287031D02*
X5834467Y-13306079D01*
X5834467Y-13306079D02*
X5834467Y-13353698D01*
X5834467Y-13353698D02*
X5843991Y-13372746D01*
X5843991Y-13372746D02*
X5853515Y-13382269D01*
X5853515Y-13382269D02*
X5872562Y-13391793D01*
X5872562Y-13391793D02*
X5910658Y-13391793D01*
X5910658Y-13391793D02*
X5929705Y-13382269D01*
X5929705Y-13382269D02*
X5939229Y-13372746D01*
X5939229Y-13372746D02*
X5948753Y-13353698D01*
X6072562Y-13267984D02*
X6091610Y-13267984D01*
X6091610Y-13267984D02*
X6110658Y-13277508D01*
X6110658Y-13277508D02*
X6120182Y-13287031D01*
X6120182Y-13287031D02*
X6129705Y-13306079D01*
X6129705Y-13306079D02*
X6139229Y-13344174D01*
X6139229Y-13344174D02*
X6139229Y-13391793D01*
X6139229Y-13391793D02*
X6129705Y-13429888D01*
X6129705Y-13429888D02*
X6120182Y-13448936D01*
X6120182Y-13448936D02*
X6110658Y-13458460D01*
X6110658Y-13458460D02*
X6091610Y-13467984D01*
X6091610Y-13467984D02*
X6072562Y-13467984D01*
X6072562Y-13467984D02*
X6053515Y-13458460D01*
X6053515Y-13458460D02*
X6043991Y-13448936D01*
X6043991Y-13448936D02*
X6034467Y-13429888D01*
X6034467Y-13429888D02*
X6024943Y-13391793D01*
X6024943Y-13391793D02*
X6024943Y-13344174D01*
X6024943Y-13344174D02*
X6034467Y-13306079D01*
X6034467Y-13306079D02*
X6043991Y-13287031D01*
X6043991Y-13287031D02*
X6053515Y-13277508D01*
X6053515Y-13277508D02*
X6072562Y-13267984D01*
X6263039Y-13267984D02*
X6282086Y-13267984D01*
X6282086Y-13267984D02*
X6301134Y-13277508D01*
X6301134Y-13277508D02*
X6310658Y-13287031D01*
X6310658Y-13287031D02*
X6320182Y-13306079D01*
X6320182Y-13306079D02*
X6329705Y-13344174D01*
X6329705Y-13344174D02*
X6329705Y-13391793D01*
X6329705Y-13391793D02*
X6320182Y-13429888D01*
X6320182Y-13429888D02*
X6310658Y-13448936D01*
X6310658Y-13448936D02*
X6301134Y-13458460D01*
X6301134Y-13458460D02*
X6282086Y-13467984D01*
X6282086Y-13467984D02*
X6263039Y-13467984D01*
X6263039Y-13467984D02*
X6243991Y-13458460D01*
X6243991Y-13458460D02*
X6234467Y-13448936D01*
X6234467Y-13448936D02*
X6224943Y-13429888D01*
X6224943Y-13429888D02*
X6215420Y-13391793D01*
X6215420Y-13391793D02*
X6215420Y-13344174D01*
X6215420Y-13344174D02*
X6224943Y-13306079D01*
X6224943Y-13306079D02*
X6234467Y-13287031D01*
X6234467Y-13287031D02*
X6243991Y-13277508D01*
X6243991Y-13277508D02*
X6263039Y-13267984D01*
X6415420Y-13467984D02*
X6415420Y-13334650D01*
X6415420Y-13353698D02*
X6424943Y-13344174D01*
X6424943Y-13344174D02*
X6443991Y-13334650D01*
X6443991Y-13334650D02*
X6472563Y-13334650D01*
X6472563Y-13334650D02*
X6491610Y-13344174D01*
X6491610Y-13344174D02*
X6501134Y-13363222D01*
X6501134Y-13363222D02*
X6501134Y-13467984D01*
X6501134Y-13363222D02*
X6510658Y-13344174D01*
X6510658Y-13344174D02*
X6529705Y-13334650D01*
X6529705Y-13334650D02*
X6558277Y-13334650D01*
X6558277Y-13334650D02*
X6577324Y-13344174D01*
X6577324Y-13344174D02*
X6586848Y-13363222D01*
X6586848Y-13363222D02*
X6586848Y-13467984D01*
X6682086Y-13467984D02*
X6682086Y-13334650D01*
X6682086Y-13353698D02*
X6691610Y-13344174D01*
X6691610Y-13344174D02*
X6710658Y-13334650D01*
X6710658Y-13334650D02*
X6739229Y-13334650D01*
X6739229Y-13334650D02*
X6758277Y-13344174D01*
X6758277Y-13344174D02*
X6767801Y-13363222D01*
X6767801Y-13363222D02*
X6767801Y-13467984D01*
X6767801Y-13363222D02*
X6777324Y-13344174D01*
X6777324Y-13344174D02*
X6796372Y-13334650D01*
X6796372Y-13334650D02*
X6824943Y-13334650D01*
X6824943Y-13334650D02*
X6843991Y-13344174D01*
X6843991Y-13344174D02*
X6853515Y-13363222D01*
X6853515Y-13363222D02*
X6853515Y-13467984D01*
X7243991Y-13258460D02*
X7072563Y-13515603D01*
X7501134Y-13267984D02*
X7520182Y-13267984D01*
X7520182Y-13267984D02*
X7539229Y-13277508D01*
X7539229Y-13277508D02*
X7548753Y-13287031D01*
X7548753Y-13287031D02*
X7558277Y-13306079D01*
X7558277Y-13306079D02*
X7567801Y-13344174D01*
X7567801Y-13344174D02*
X7567801Y-13391793D01*
X7567801Y-13391793D02*
X7558277Y-13429888D01*
X7558277Y-13429888D02*
X7548753Y-13448936D01*
X7548753Y-13448936D02*
X7539229Y-13458460D01*
X7539229Y-13458460D02*
X7520182Y-13467984D01*
X7520182Y-13467984D02*
X7501134Y-13467984D01*
X7501134Y-13467984D02*
X7482086Y-13458460D01*
X7482086Y-13458460D02*
X7472563Y-13448936D01*
X7472563Y-13448936D02*
X7463039Y-13429888D01*
X7463039Y-13429888D02*
X7453515Y-13391793D01*
X7453515Y-13391793D02*
X7453515Y-13344174D01*
X7453515Y-13344174D02*
X7463039Y-13306079D01*
X7463039Y-13306079D02*
X7472563Y-13287031D01*
X7472563Y-13287031D02*
X7482086Y-13277508D01*
X7482086Y-13277508D02*
X7501134Y-13267984D01*
X7653515Y-13448936D02*
X7663039Y-13458460D01*
X7663039Y-13458460D02*
X7653515Y-13467984D01*
X7653515Y-13467984D02*
X7643991Y-13458460D01*
X7643991Y-13458460D02*
X7653515Y-13448936D01*
X7653515Y-13448936D02*
X7653515Y-13467984D01*
X7786848Y-13267984D02*
X7805896Y-13267984D01*
X7805896Y-13267984D02*
X7824944Y-13277508D01*
X7824944Y-13277508D02*
X7834467Y-13287031D01*
X7834467Y-13287031D02*
X7843991Y-13306079D01*
X7843991Y-13306079D02*
X7853515Y-13344174D01*
X7853515Y-13344174D02*
X7853515Y-13391793D01*
X7853515Y-13391793D02*
X7843991Y-13429888D01*
X7843991Y-13429888D02*
X7834467Y-13448936D01*
X7834467Y-13448936D02*
X7824944Y-13458460D01*
X7824944Y-13458460D02*
X7805896Y-13467984D01*
X7805896Y-13467984D02*
X7786848Y-13467984D01*
X7786848Y-13467984D02*
X7767801Y-13458460D01*
X7767801Y-13458460D02*
X7758277Y-13448936D01*
X7758277Y-13448936D02*
X7748753Y-13429888D01*
X7748753Y-13429888D02*
X7739229Y-13391793D01*
X7739229Y-13391793D02*
X7739229Y-13344174D01*
X7739229Y-13344174D02*
X7748753Y-13306079D01*
X7748753Y-13306079D02*
X7758277Y-13287031D01*
X7758277Y-13287031D02*
X7767801Y-13277508D01*
X7767801Y-13277508D02*
X7786848Y-13267984D01*
X7920182Y-13267984D02*
X8053515Y-13267984D01*
X8053515Y-13267984D02*
X7967801Y-13467984D01*
X8215420Y-13334650D02*
X8215420Y-13467984D01*
X8167801Y-13258460D02*
X8120182Y-13401317D01*
X8120182Y-13401317D02*
X8243991Y-13401317D01*
X8348753Y-13353698D02*
X8329706Y-13344174D01*
X8329706Y-13344174D02*
X8320182Y-13334650D01*
X8320182Y-13334650D02*
X8310658Y-13315603D01*
X8310658Y-13315603D02*
X8310658Y-13306079D01*
X8310658Y-13306079D02*
X8320182Y-13287031D01*
X8320182Y-13287031D02*
X8329706Y-13277508D01*
X8329706Y-13277508D02*
X8348753Y-13267984D01*
X8348753Y-13267984D02*
X8386848Y-13267984D01*
X8386848Y-13267984D02*
X8405896Y-13277508D01*
X8405896Y-13277508D02*
X8415420Y-13287031D01*
X8415420Y-13287031D02*
X8424944Y-13306079D01*
X8424944Y-13306079D02*
X8424944Y-13315603D01*
X8424944Y-13315603D02*
X8415420Y-13334650D01*
X8415420Y-13334650D02*
X8405896Y-13344174D01*
X8405896Y-13344174D02*
X8386848Y-13353698D01*
X8386848Y-13353698D02*
X8348753Y-13353698D01*
X8348753Y-13353698D02*
X8329706Y-13363222D01*
X8329706Y-13363222D02*
X8320182Y-13372746D01*
X8320182Y-13372746D02*
X8310658Y-13391793D01*
X8310658Y-13391793D02*
X8310658Y-13429888D01*
X8310658Y-13429888D02*
X8320182Y-13448936D01*
X8320182Y-13448936D02*
X8329706Y-13458460D01*
X8329706Y-13458460D02*
X8348753Y-13467984D01*
X8348753Y-13467984D02*
X8386848Y-13467984D01*
X8386848Y-13467984D02*
X8405896Y-13458460D01*
X8405896Y-13458460D02*
X8415420Y-13448936D01*
X8415420Y-13448936D02*
X8424944Y-13429888D01*
X8424944Y-13429888D02*
X8424944Y-13391793D01*
X8424944Y-13391793D02*
X8415420Y-13372746D01*
X8415420Y-13372746D02*
X8405896Y-13363222D01*
X8405896Y-13363222D02*
X8386848Y-13353698D01*
X8501134Y-13267984D02*
X8501134Y-13306079D01*
X8577325Y-13267984D02*
X8577325Y-13306079D01*
X8872563Y-13544174D02*
X8863039Y-13534650D01*
X8863039Y-13534650D02*
X8843991Y-13506079D01*
X8843991Y-13506079D02*
X8834468Y-13487031D01*
X8834468Y-13487031D02*
X8824944Y-13458460D01*
X8824944Y-13458460D02*
X8815420Y-13410841D01*
X8815420Y-13410841D02*
X8815420Y-13372746D01*
X8815420Y-13372746D02*
X8824944Y-13325127D01*
X8824944Y-13325127D02*
X8834468Y-13296555D01*
X8834468Y-13296555D02*
X8843991Y-13277508D01*
X8843991Y-13277508D02*
X8863039Y-13248936D01*
X8863039Y-13248936D02*
X8872563Y-13239412D01*
X8977325Y-13353698D02*
X8958277Y-13344174D01*
X8958277Y-13344174D02*
X8948753Y-13334650D01*
X8948753Y-13334650D02*
X8939230Y-13315603D01*
X8939230Y-13315603D02*
X8939230Y-13306079D01*
X8939230Y-13306079D02*
X8948753Y-13287031D01*
X8948753Y-13287031D02*
X8958277Y-13277508D01*
X8958277Y-13277508D02*
X8977325Y-13267984D01*
X8977325Y-13267984D02*
X9015420Y-13267984D01*
X9015420Y-13267984D02*
X9034468Y-13277508D01*
X9034468Y-13277508D02*
X9043991Y-13287031D01*
X9043991Y-13287031D02*
X9053515Y-13306079D01*
X9053515Y-13306079D02*
X9053515Y-13315603D01*
X9053515Y-13315603D02*
X9043991Y-13334650D01*
X9043991Y-13334650D02*
X9034468Y-13344174D01*
X9034468Y-13344174D02*
X9015420Y-13353698D01*
X9015420Y-13353698D02*
X8977325Y-13353698D01*
X8977325Y-13353698D02*
X8958277Y-13363222D01*
X8958277Y-13363222D02*
X8948753Y-13372746D01*
X8948753Y-13372746D02*
X8939230Y-13391793D01*
X8939230Y-13391793D02*
X8939230Y-13429888D01*
X8939230Y-13429888D02*
X8948753Y-13448936D01*
X8948753Y-13448936D02*
X8958277Y-13458460D01*
X8958277Y-13458460D02*
X8977325Y-13467984D01*
X8977325Y-13467984D02*
X9015420Y-13467984D01*
X9015420Y-13467984D02*
X9034468Y-13458460D01*
X9034468Y-13458460D02*
X9043991Y-13448936D01*
X9043991Y-13448936D02*
X9053515Y-13429888D01*
X9053515Y-13429888D02*
X9053515Y-13391793D01*
X9053515Y-13391793D02*
X9043991Y-13372746D01*
X9043991Y-13372746D02*
X9034468Y-13363222D01*
X9034468Y-13363222D02*
X9015420Y-13353698D01*
X9177325Y-13267984D02*
X9196372Y-13267984D01*
X9196372Y-13267984D02*
X9215420Y-13277508D01*
X9215420Y-13277508D02*
X9224944Y-13287031D01*
X9224944Y-13287031D02*
X9234468Y-13306079D01*
X9234468Y-13306079D02*
X9243991Y-13344174D01*
X9243991Y-13344174D02*
X9243991Y-13391793D01*
X9243991Y-13391793D02*
X9234468Y-13429888D01*
X9234468Y-13429888D02*
X9224944Y-13448936D01*
X9224944Y-13448936D02*
X9215420Y-13458460D01*
X9215420Y-13458460D02*
X9196372Y-13467984D01*
X9196372Y-13467984D02*
X9177325Y-13467984D01*
X9177325Y-13467984D02*
X9158277Y-13458460D01*
X9158277Y-13458460D02*
X9148753Y-13448936D01*
X9148753Y-13448936D02*
X9139230Y-13429888D01*
X9139230Y-13429888D02*
X9129706Y-13391793D01*
X9129706Y-13391793D02*
X9129706Y-13344174D01*
X9129706Y-13344174D02*
X9139230Y-13306079D01*
X9139230Y-13306079D02*
X9148753Y-13287031D01*
X9148753Y-13287031D02*
X9158277Y-13277508D01*
X9158277Y-13277508D02*
X9177325Y-13267984D01*
X9482087Y-13467984D02*
X9482087Y-13267984D01*
X9567801Y-13467984D02*
X9567801Y-13363222D01*
X9567801Y-13363222D02*
X9558277Y-13344174D01*
X9558277Y-13344174D02*
X9539230Y-13334650D01*
X9539230Y-13334650D02*
X9510658Y-13334650D01*
X9510658Y-13334650D02*
X9491611Y-13344174D01*
X9491611Y-13344174D02*
X9482087Y-13353698D01*
X9691611Y-13467984D02*
X9672563Y-13458460D01*
X9672563Y-13458460D02*
X9663039Y-13448936D01*
X9663039Y-13448936D02*
X9653515Y-13429888D01*
X9653515Y-13429888D02*
X9653515Y-13372746D01*
X9653515Y-13372746D02*
X9663039Y-13353698D01*
X9663039Y-13353698D02*
X9672563Y-13344174D01*
X9672563Y-13344174D02*
X9691611Y-13334650D01*
X9691611Y-13334650D02*
X9720182Y-13334650D01*
X9720182Y-13334650D02*
X9739230Y-13344174D01*
X9739230Y-13344174D02*
X9748753Y-13353698D01*
X9748753Y-13353698D02*
X9758277Y-13372746D01*
X9758277Y-13372746D02*
X9758277Y-13429888D01*
X9758277Y-13429888D02*
X9748753Y-13448936D01*
X9748753Y-13448936D02*
X9739230Y-13458460D01*
X9739230Y-13458460D02*
X9720182Y-13467984D01*
X9720182Y-13467984D02*
X9691611Y-13467984D01*
X9872563Y-13467984D02*
X9853515Y-13458460D01*
X9853515Y-13458460D02*
X9843992Y-13439412D01*
X9843992Y-13439412D02*
X9843992Y-13267984D01*
X10024944Y-13458460D02*
X10005896Y-13467984D01*
X10005896Y-13467984D02*
X9967801Y-13467984D01*
X9967801Y-13467984D02*
X9948753Y-13458460D01*
X9948753Y-13458460D02*
X9939230Y-13439412D01*
X9939230Y-13439412D02*
X9939230Y-13363222D01*
X9939230Y-13363222D02*
X9948753Y-13344174D01*
X9948753Y-13344174D02*
X9967801Y-13334650D01*
X9967801Y-13334650D02*
X10005896Y-13334650D01*
X10005896Y-13334650D02*
X10024944Y-13344174D01*
X10024944Y-13344174D02*
X10034468Y-13363222D01*
X10034468Y-13363222D02*
X10034468Y-13382269D01*
X10034468Y-13382269D02*
X9939230Y-13401317D01*
X10110658Y-13458460D02*
X10129706Y-13467984D01*
X10129706Y-13467984D02*
X10167801Y-13467984D01*
X10167801Y-13467984D02*
X10186849Y-13458460D01*
X10186849Y-13458460D02*
X10196373Y-13439412D01*
X10196373Y-13439412D02*
X10196373Y-13429888D01*
X10196373Y-13429888D02*
X10186849Y-13410841D01*
X10186849Y-13410841D02*
X10167801Y-13401317D01*
X10167801Y-13401317D02*
X10139230Y-13401317D01*
X10139230Y-13401317D02*
X10120182Y-13391793D01*
X10120182Y-13391793D02*
X10110658Y-13372746D01*
X10110658Y-13372746D02*
X10110658Y-13363222D01*
X10110658Y-13363222D02*
X10120182Y-13344174D01*
X10120182Y-13344174D02*
X10139230Y-13334650D01*
X10139230Y-13334650D02*
X10167801Y-13334650D01*
X10167801Y-13334650D02*
X10186849Y-13344174D01*
X10263039Y-13544174D02*
X10272563Y-13534650D01*
X10272563Y-13534650D02*
X10291611Y-13506079D01*
X10291611Y-13506079D02*
X10301134Y-13487031D01*
X10301134Y-13487031D02*
X10310658Y-13458460D01*
X10310658Y-13458460D02*
X10320182Y-13410841D01*
X10320182Y-13410841D02*
X10320182Y-13372746D01*
X10320182Y-13372746D02*
X10310658Y-13325127D01*
X10310658Y-13325127D02*
X10301134Y-13296555D01*
X10301134Y-13296555D02*
X10291611Y-13277508D01*
X10291611Y-13277508D02*
X10272563Y-13248936D01*
X10272563Y-13248936D02*
X10263039Y-13239412D01*
X10624944Y-13544174D02*
X10615420Y-13534650D01*
X10615420Y-13534650D02*
X10596373Y-13506079D01*
X10596373Y-13506079D02*
X10586849Y-13487031D01*
X10586849Y-13487031D02*
X10577325Y-13458460D01*
X10577325Y-13458460D02*
X10567801Y-13410841D01*
X10567801Y-13410841D02*
X10567801Y-13372746D01*
X10567801Y-13372746D02*
X10577325Y-13325127D01*
X10577325Y-13325127D02*
X10586849Y-13296555D01*
X10586849Y-13296555D02*
X10596373Y-13277508D01*
X10596373Y-13277508D02*
X10615420Y-13248936D01*
X10615420Y-13248936D02*
X10624944Y-13239412D01*
X10701134Y-13334650D02*
X10701134Y-13467984D01*
X10701134Y-13353698D02*
X10710658Y-13344174D01*
X10710658Y-13344174D02*
X10729706Y-13334650D01*
X10729706Y-13334650D02*
X10758277Y-13334650D01*
X10758277Y-13334650D02*
X10777325Y-13344174D01*
X10777325Y-13344174D02*
X10786849Y-13363222D01*
X10786849Y-13363222D02*
X10786849Y-13467984D01*
X10910658Y-13467984D02*
X10891611Y-13458460D01*
X10891611Y-13458460D02*
X10882087Y-13448936D01*
X10882087Y-13448936D02*
X10872563Y-13429888D01*
X10872563Y-13429888D02*
X10872563Y-13372746D01*
X10872563Y-13372746D02*
X10882087Y-13353698D01*
X10882087Y-13353698D02*
X10891611Y-13344174D01*
X10891611Y-13344174D02*
X10910658Y-13334650D01*
X10910658Y-13334650D02*
X10939230Y-13334650D01*
X10939230Y-13334650D02*
X10958277Y-13344174D01*
X10958277Y-13344174D02*
X10967801Y-13353698D01*
X10967801Y-13353698D02*
X10977325Y-13372746D01*
X10977325Y-13372746D02*
X10977325Y-13429888D01*
X10977325Y-13429888D02*
X10967801Y-13448936D01*
X10967801Y-13448936D02*
X10958277Y-13458460D01*
X10958277Y-13458460D02*
X10939230Y-13467984D01*
X10939230Y-13467984D02*
X10910658Y-13467984D01*
X11034468Y-13334650D02*
X11110658Y-13334650D01*
X11063039Y-13267984D02*
X11063039Y-13439412D01*
X11063039Y-13439412D02*
X11072563Y-13458460D01*
X11072563Y-13458460D02*
X11091611Y-13467984D01*
X11091611Y-13467984D02*
X11110658Y-13467984D01*
X11329706Y-13334650D02*
X11329706Y-13534650D01*
X11329706Y-13344174D02*
X11348753Y-13334650D01*
X11348753Y-13334650D02*
X11386849Y-13334650D01*
X11386849Y-13334650D02*
X11405896Y-13344174D01*
X11405896Y-13344174D02*
X11415420Y-13353698D01*
X11415420Y-13353698D02*
X11424944Y-13372746D01*
X11424944Y-13372746D02*
X11424944Y-13429888D01*
X11424944Y-13429888D02*
X11415420Y-13448936D01*
X11415420Y-13448936D02*
X11405896Y-13458460D01*
X11405896Y-13458460D02*
X11386849Y-13467984D01*
X11386849Y-13467984D02*
X11348753Y-13467984D01*
X11348753Y-13467984D02*
X11329706Y-13458460D01*
X11539230Y-13467984D02*
X11520182Y-13458460D01*
X11520182Y-13458460D02*
X11510658Y-13439412D01*
X11510658Y-13439412D02*
X11510658Y-13267984D01*
X11701134Y-13467984D02*
X11701134Y-13363222D01*
X11701134Y-13363222D02*
X11691611Y-13344174D01*
X11691611Y-13344174D02*
X11672563Y-13334650D01*
X11672563Y-13334650D02*
X11634468Y-13334650D01*
X11634468Y-13334650D02*
X11615420Y-13344174D01*
X11701134Y-13458460D02*
X11682087Y-13467984D01*
X11682087Y-13467984D02*
X11634468Y-13467984D01*
X11634468Y-13467984D02*
X11615420Y-13458460D01*
X11615420Y-13458460D02*
X11605896Y-13439412D01*
X11605896Y-13439412D02*
X11605896Y-13420365D01*
X11605896Y-13420365D02*
X11615420Y-13401317D01*
X11615420Y-13401317D02*
X11634468Y-13391793D01*
X11634468Y-13391793D02*
X11682087Y-13391793D01*
X11682087Y-13391793D02*
X11701134Y-13382269D01*
X11767801Y-13334650D02*
X11843992Y-13334650D01*
X11796373Y-13267984D02*
X11796373Y-13439412D01*
X11796373Y-13439412D02*
X11805896Y-13458460D01*
X11805896Y-13458460D02*
X11824944Y-13467984D01*
X11824944Y-13467984D02*
X11843992Y-13467984D01*
X11986849Y-13458460D02*
X11967801Y-13467984D01*
X11967801Y-13467984D02*
X11929706Y-13467984D01*
X11929706Y-13467984D02*
X11910658Y-13458460D01*
X11910658Y-13458460D02*
X11901134Y-13439412D01*
X11901134Y-13439412D02*
X11901134Y-13363222D01*
X11901134Y-13363222D02*
X11910658Y-13344174D01*
X11910658Y-13344174D02*
X11929706Y-13334650D01*
X11929706Y-13334650D02*
X11967801Y-13334650D01*
X11967801Y-13334650D02*
X11986849Y-13344174D01*
X11986849Y-13344174D02*
X11996373Y-13363222D01*
X11996373Y-13363222D02*
X11996373Y-13382269D01*
X11996373Y-13382269D02*
X11901134Y-13401317D01*
X12167801Y-13467984D02*
X12167801Y-13267984D01*
X12167801Y-13458460D02*
X12148754Y-13467984D01*
X12148754Y-13467984D02*
X12110658Y-13467984D01*
X12110658Y-13467984D02*
X12091611Y-13458460D01*
X12091611Y-13458460D02*
X12082087Y-13448936D01*
X12082087Y-13448936D02*
X12072563Y-13429888D01*
X12072563Y-13429888D02*
X12072563Y-13372746D01*
X12072563Y-13372746D02*
X12082087Y-13353698D01*
X12082087Y-13353698D02*
X12091611Y-13344174D01*
X12091611Y-13344174D02*
X12110658Y-13334650D01*
X12110658Y-13334650D02*
X12148754Y-13334650D01*
X12148754Y-13334650D02*
X12167801Y-13344174D01*
X12243992Y-13544174D02*
X12253515Y-13534650D01*
X12253515Y-13534650D02*
X12272563Y-13506079D01*
X12272563Y-13506079D02*
X12282087Y-13487031D01*
X12282087Y-13487031D02*
X12291611Y-13458460D01*
X12291611Y-13458460D02*
X12301134Y-13410841D01*
X12301134Y-13410841D02*
X12301134Y-13372746D01*
X12301134Y-13372746D02*
X12291611Y-13325127D01*
X12291611Y-13325127D02*
X12282087Y-13296555D01*
X12282087Y-13296555D02*
X12272563Y-13277508D01*
X12272563Y-13277508D02*
X12253515Y-13248936D01*
X12253515Y-13248936D02*
X12243992Y-13239412D01*
X5197500Y-13586500D02*
X5197500Y-13786500D01*
X5097500Y-13686500D02*
X5297500Y-13686500D01*
X5548753Y-13597031D02*
X5558277Y-13587508D01*
X5558277Y-13587508D02*
X5577324Y-13577984D01*
X5577324Y-13577984D02*
X5624943Y-13577984D01*
X5624943Y-13577984D02*
X5643991Y-13587508D01*
X5643991Y-13587508D02*
X5653515Y-13597031D01*
X5653515Y-13597031D02*
X5663039Y-13616079D01*
X5663039Y-13616079D02*
X5663039Y-13635127D01*
X5663039Y-13635127D02*
X5653515Y-13663698D01*
X5653515Y-13663698D02*
X5539229Y-13777984D01*
X5539229Y-13777984D02*
X5663039Y-13777984D01*
X5748753Y-13758936D02*
X5758277Y-13768460D01*
X5758277Y-13768460D02*
X5748753Y-13777984D01*
X5748753Y-13777984D02*
X5739229Y-13768460D01*
X5739229Y-13768460D02*
X5748753Y-13758936D01*
X5748753Y-13758936D02*
X5748753Y-13777984D01*
X5824943Y-13577984D02*
X5958277Y-13577984D01*
X5958277Y-13577984D02*
X5872562Y-13777984D01*
X6072562Y-13577984D02*
X6091610Y-13577984D01*
X6091610Y-13577984D02*
X6110658Y-13587508D01*
X6110658Y-13587508D02*
X6120182Y-13597031D01*
X6120182Y-13597031D02*
X6129705Y-13616079D01*
X6129705Y-13616079D02*
X6139229Y-13654174D01*
X6139229Y-13654174D02*
X6139229Y-13701793D01*
X6139229Y-13701793D02*
X6129705Y-13739888D01*
X6129705Y-13739888D02*
X6120182Y-13758936D01*
X6120182Y-13758936D02*
X6110658Y-13768460D01*
X6110658Y-13768460D02*
X6091610Y-13777984D01*
X6091610Y-13777984D02*
X6072562Y-13777984D01*
X6072562Y-13777984D02*
X6053515Y-13768460D01*
X6053515Y-13768460D02*
X6043991Y-13758936D01*
X6043991Y-13758936D02*
X6034467Y-13739888D01*
X6034467Y-13739888D02*
X6024943Y-13701793D01*
X6024943Y-13701793D02*
X6024943Y-13654174D01*
X6024943Y-13654174D02*
X6034467Y-13616079D01*
X6034467Y-13616079D02*
X6043991Y-13597031D01*
X6043991Y-13597031D02*
X6053515Y-13587508D01*
X6053515Y-13587508D02*
X6072562Y-13577984D01*
X6263039Y-13577984D02*
X6282086Y-13577984D01*
X6282086Y-13577984D02*
X6301134Y-13587508D01*
X6301134Y-13587508D02*
X6310658Y-13597031D01*
X6310658Y-13597031D02*
X6320182Y-13616079D01*
X6320182Y-13616079D02*
X6329705Y-13654174D01*
X6329705Y-13654174D02*
X6329705Y-13701793D01*
X6329705Y-13701793D02*
X6320182Y-13739888D01*
X6320182Y-13739888D02*
X6310658Y-13758936D01*
X6310658Y-13758936D02*
X6301134Y-13768460D01*
X6301134Y-13768460D02*
X6282086Y-13777984D01*
X6282086Y-13777984D02*
X6263039Y-13777984D01*
X6263039Y-13777984D02*
X6243991Y-13768460D01*
X6243991Y-13768460D02*
X6234467Y-13758936D01*
X6234467Y-13758936D02*
X6224943Y-13739888D01*
X6224943Y-13739888D02*
X6215420Y-13701793D01*
X6215420Y-13701793D02*
X6215420Y-13654174D01*
X6215420Y-13654174D02*
X6224943Y-13616079D01*
X6224943Y-13616079D02*
X6234467Y-13597031D01*
X6234467Y-13597031D02*
X6243991Y-13587508D01*
X6243991Y-13587508D02*
X6263039Y-13577984D01*
X6415420Y-13777984D02*
X6415420Y-13644650D01*
X6415420Y-13663698D02*
X6424943Y-13654174D01*
X6424943Y-13654174D02*
X6443991Y-13644650D01*
X6443991Y-13644650D02*
X6472563Y-13644650D01*
X6472563Y-13644650D02*
X6491610Y-13654174D01*
X6491610Y-13654174D02*
X6501134Y-13673222D01*
X6501134Y-13673222D02*
X6501134Y-13777984D01*
X6501134Y-13673222D02*
X6510658Y-13654174D01*
X6510658Y-13654174D02*
X6529705Y-13644650D01*
X6529705Y-13644650D02*
X6558277Y-13644650D01*
X6558277Y-13644650D02*
X6577324Y-13654174D01*
X6577324Y-13654174D02*
X6586848Y-13673222D01*
X6586848Y-13673222D02*
X6586848Y-13777984D01*
X6682086Y-13777984D02*
X6682086Y-13644650D01*
X6682086Y-13663698D02*
X6691610Y-13654174D01*
X6691610Y-13654174D02*
X6710658Y-13644650D01*
X6710658Y-13644650D02*
X6739229Y-13644650D01*
X6739229Y-13644650D02*
X6758277Y-13654174D01*
X6758277Y-13654174D02*
X6767801Y-13673222D01*
X6767801Y-13673222D02*
X6767801Y-13777984D01*
X6767801Y-13673222D02*
X6777324Y-13654174D01*
X6777324Y-13654174D02*
X6796372Y-13644650D01*
X6796372Y-13644650D02*
X6824943Y-13644650D01*
X6824943Y-13644650D02*
X6843991Y-13654174D01*
X6843991Y-13654174D02*
X6853515Y-13673222D01*
X6853515Y-13673222D02*
X6853515Y-13777984D01*
X7243991Y-13568460D02*
X7072563Y-13825603D01*
X7501134Y-13577984D02*
X7520182Y-13577984D01*
X7520182Y-13577984D02*
X7539229Y-13587508D01*
X7539229Y-13587508D02*
X7548753Y-13597031D01*
X7548753Y-13597031D02*
X7558277Y-13616079D01*
X7558277Y-13616079D02*
X7567801Y-13654174D01*
X7567801Y-13654174D02*
X7567801Y-13701793D01*
X7567801Y-13701793D02*
X7558277Y-13739888D01*
X7558277Y-13739888D02*
X7548753Y-13758936D01*
X7548753Y-13758936D02*
X7539229Y-13768460D01*
X7539229Y-13768460D02*
X7520182Y-13777984D01*
X7520182Y-13777984D02*
X7501134Y-13777984D01*
X7501134Y-13777984D02*
X7482086Y-13768460D01*
X7482086Y-13768460D02*
X7472563Y-13758936D01*
X7472563Y-13758936D02*
X7463039Y-13739888D01*
X7463039Y-13739888D02*
X7453515Y-13701793D01*
X7453515Y-13701793D02*
X7453515Y-13654174D01*
X7453515Y-13654174D02*
X7463039Y-13616079D01*
X7463039Y-13616079D02*
X7472563Y-13597031D01*
X7472563Y-13597031D02*
X7482086Y-13587508D01*
X7482086Y-13587508D02*
X7501134Y-13577984D01*
X7653515Y-13758936D02*
X7663039Y-13768460D01*
X7663039Y-13768460D02*
X7653515Y-13777984D01*
X7653515Y-13777984D02*
X7643991Y-13768460D01*
X7643991Y-13768460D02*
X7653515Y-13758936D01*
X7653515Y-13758936D02*
X7653515Y-13777984D01*
X7853515Y-13777984D02*
X7739229Y-13777984D01*
X7796372Y-13777984D02*
X7796372Y-13577984D01*
X7796372Y-13577984D02*
X7777325Y-13606555D01*
X7777325Y-13606555D02*
X7758277Y-13625603D01*
X7758277Y-13625603D02*
X7739229Y-13635127D01*
X7977325Y-13577984D02*
X7996372Y-13577984D01*
X7996372Y-13577984D02*
X8015420Y-13587508D01*
X8015420Y-13587508D02*
X8024944Y-13597031D01*
X8024944Y-13597031D02*
X8034467Y-13616079D01*
X8034467Y-13616079D02*
X8043991Y-13654174D01*
X8043991Y-13654174D02*
X8043991Y-13701793D01*
X8043991Y-13701793D02*
X8034467Y-13739888D01*
X8034467Y-13739888D02*
X8024944Y-13758936D01*
X8024944Y-13758936D02*
X8015420Y-13768460D01*
X8015420Y-13768460D02*
X7996372Y-13777984D01*
X7996372Y-13777984D02*
X7977325Y-13777984D01*
X7977325Y-13777984D02*
X7958277Y-13768460D01*
X7958277Y-13768460D02*
X7948753Y-13758936D01*
X7948753Y-13758936D02*
X7939229Y-13739888D01*
X7939229Y-13739888D02*
X7929706Y-13701793D01*
X7929706Y-13701793D02*
X7929706Y-13654174D01*
X7929706Y-13654174D02*
X7939229Y-13616079D01*
X7939229Y-13616079D02*
X7948753Y-13597031D01*
X7948753Y-13597031D02*
X7958277Y-13587508D01*
X7958277Y-13587508D02*
X7977325Y-13577984D01*
X8215420Y-13577984D02*
X8177325Y-13577984D01*
X8177325Y-13577984D02*
X8158277Y-13587508D01*
X8158277Y-13587508D02*
X8148753Y-13597031D01*
X8148753Y-13597031D02*
X8129706Y-13625603D01*
X8129706Y-13625603D02*
X8120182Y-13663698D01*
X8120182Y-13663698D02*
X8120182Y-13739888D01*
X8120182Y-13739888D02*
X8129706Y-13758936D01*
X8129706Y-13758936D02*
X8139229Y-13768460D01*
X8139229Y-13768460D02*
X8158277Y-13777984D01*
X8158277Y-13777984D02*
X8196372Y-13777984D01*
X8196372Y-13777984D02*
X8215420Y-13768460D01*
X8215420Y-13768460D02*
X8224944Y-13758936D01*
X8224944Y-13758936D02*
X8234467Y-13739888D01*
X8234467Y-13739888D02*
X8234467Y-13692269D01*
X8234467Y-13692269D02*
X8224944Y-13673222D01*
X8224944Y-13673222D02*
X8215420Y-13663698D01*
X8215420Y-13663698D02*
X8196372Y-13654174D01*
X8196372Y-13654174D02*
X8158277Y-13654174D01*
X8158277Y-13654174D02*
X8139229Y-13663698D01*
X8139229Y-13663698D02*
X8129706Y-13673222D01*
X8129706Y-13673222D02*
X8120182Y-13692269D01*
X8301134Y-13577984D02*
X8424944Y-13577984D01*
X8424944Y-13577984D02*
X8358277Y-13654174D01*
X8358277Y-13654174D02*
X8386848Y-13654174D01*
X8386848Y-13654174D02*
X8405896Y-13663698D01*
X8405896Y-13663698D02*
X8415420Y-13673222D01*
X8415420Y-13673222D02*
X8424944Y-13692269D01*
X8424944Y-13692269D02*
X8424944Y-13739888D01*
X8424944Y-13739888D02*
X8415420Y-13758936D01*
X8415420Y-13758936D02*
X8405896Y-13768460D01*
X8405896Y-13768460D02*
X8386848Y-13777984D01*
X8386848Y-13777984D02*
X8329706Y-13777984D01*
X8329706Y-13777984D02*
X8310658Y-13768460D01*
X8310658Y-13768460D02*
X8301134Y-13758936D01*
X8501134Y-13577984D02*
X8501134Y-13616079D01*
X8577325Y-13577984D02*
X8577325Y-13616079D01*
X8872563Y-13854174D02*
X8863039Y-13844650D01*
X8863039Y-13844650D02*
X8843991Y-13816079D01*
X8843991Y-13816079D02*
X8834468Y-13797031D01*
X8834468Y-13797031D02*
X8824944Y-13768460D01*
X8824944Y-13768460D02*
X8815420Y-13720841D01*
X8815420Y-13720841D02*
X8815420Y-13682746D01*
X8815420Y-13682746D02*
X8824944Y-13635127D01*
X8824944Y-13635127D02*
X8834468Y-13606555D01*
X8834468Y-13606555D02*
X8843991Y-13587508D01*
X8843991Y-13587508D02*
X8863039Y-13558936D01*
X8863039Y-13558936D02*
X8872563Y-13549412D01*
X9043991Y-13577984D02*
X8948753Y-13577984D01*
X8948753Y-13577984D02*
X8939230Y-13673222D01*
X8939230Y-13673222D02*
X8948753Y-13663698D01*
X8948753Y-13663698D02*
X8967801Y-13654174D01*
X8967801Y-13654174D02*
X9015420Y-13654174D01*
X9015420Y-13654174D02*
X9034468Y-13663698D01*
X9034468Y-13663698D02*
X9043991Y-13673222D01*
X9043991Y-13673222D02*
X9053515Y-13692269D01*
X9053515Y-13692269D02*
X9053515Y-13739888D01*
X9053515Y-13739888D02*
X9043991Y-13758936D01*
X9043991Y-13758936D02*
X9034468Y-13768460D01*
X9034468Y-13768460D02*
X9015420Y-13777984D01*
X9015420Y-13777984D02*
X8967801Y-13777984D01*
X8967801Y-13777984D02*
X8948753Y-13768460D01*
X8948753Y-13768460D02*
X8939230Y-13758936D01*
X9291611Y-13777984D02*
X9291611Y-13577984D01*
X9377325Y-13777984D02*
X9377325Y-13673222D01*
X9377325Y-13673222D02*
X9367801Y-13654174D01*
X9367801Y-13654174D02*
X9348753Y-13644650D01*
X9348753Y-13644650D02*
X9320182Y-13644650D01*
X9320182Y-13644650D02*
X9301134Y-13654174D01*
X9301134Y-13654174D02*
X9291611Y-13663698D01*
X9501134Y-13777984D02*
X9482087Y-13768460D01*
X9482087Y-13768460D02*
X9472563Y-13758936D01*
X9472563Y-13758936D02*
X9463039Y-13739888D01*
X9463039Y-13739888D02*
X9463039Y-13682746D01*
X9463039Y-13682746D02*
X9472563Y-13663698D01*
X9472563Y-13663698D02*
X9482087Y-13654174D01*
X9482087Y-13654174D02*
X9501134Y-13644650D01*
X9501134Y-13644650D02*
X9529706Y-13644650D01*
X9529706Y-13644650D02*
X9548753Y-13654174D01*
X9548753Y-13654174D02*
X9558277Y-13663698D01*
X9558277Y-13663698D02*
X9567801Y-13682746D01*
X9567801Y-13682746D02*
X9567801Y-13739888D01*
X9567801Y-13739888D02*
X9558277Y-13758936D01*
X9558277Y-13758936D02*
X9548753Y-13768460D01*
X9548753Y-13768460D02*
X9529706Y-13777984D01*
X9529706Y-13777984D02*
X9501134Y-13777984D01*
X9682087Y-13777984D02*
X9663039Y-13768460D01*
X9663039Y-13768460D02*
X9653515Y-13749412D01*
X9653515Y-13749412D02*
X9653515Y-13577984D01*
X9834468Y-13768460D02*
X9815420Y-13777984D01*
X9815420Y-13777984D02*
X9777325Y-13777984D01*
X9777325Y-13777984D02*
X9758277Y-13768460D01*
X9758277Y-13768460D02*
X9748753Y-13749412D01*
X9748753Y-13749412D02*
X9748753Y-13673222D01*
X9748753Y-13673222D02*
X9758277Y-13654174D01*
X9758277Y-13654174D02*
X9777325Y-13644650D01*
X9777325Y-13644650D02*
X9815420Y-13644650D01*
X9815420Y-13644650D02*
X9834468Y-13654174D01*
X9834468Y-13654174D02*
X9843992Y-13673222D01*
X9843992Y-13673222D02*
X9843992Y-13692269D01*
X9843992Y-13692269D02*
X9748753Y-13711317D01*
X9920182Y-13768460D02*
X9939230Y-13777984D01*
X9939230Y-13777984D02*
X9977325Y-13777984D01*
X9977325Y-13777984D02*
X9996373Y-13768460D01*
X9996373Y-13768460D02*
X10005896Y-13749412D01*
X10005896Y-13749412D02*
X10005896Y-13739888D01*
X10005896Y-13739888D02*
X9996373Y-13720841D01*
X9996373Y-13720841D02*
X9977325Y-13711317D01*
X9977325Y-13711317D02*
X9948753Y-13711317D01*
X9948753Y-13711317D02*
X9929706Y-13701793D01*
X9929706Y-13701793D02*
X9920182Y-13682746D01*
X9920182Y-13682746D02*
X9920182Y-13673222D01*
X9920182Y-13673222D02*
X9929706Y-13654174D01*
X9929706Y-13654174D02*
X9948753Y-13644650D01*
X9948753Y-13644650D02*
X9977325Y-13644650D01*
X9977325Y-13644650D02*
X9996373Y-13654174D01*
X10072563Y-13854174D02*
X10082087Y-13844650D01*
X10082087Y-13844650D02*
X10101134Y-13816079D01*
X10101134Y-13816079D02*
X10110658Y-13797031D01*
X10110658Y-13797031D02*
X10120182Y-13768460D01*
X10120182Y-13768460D02*
X10129706Y-13720841D01*
X10129706Y-13720841D02*
X10129706Y-13682746D01*
X10129706Y-13682746D02*
X10120182Y-13635127D01*
X10120182Y-13635127D02*
X10110658Y-13606555D01*
X10110658Y-13606555D02*
X10101134Y-13587508D01*
X10101134Y-13587508D02*
X10082087Y-13558936D01*
X10082087Y-13558936D02*
X10072563Y-13549412D01*
X10434468Y-13854174D02*
X10424944Y-13844650D01*
X10424944Y-13844650D02*
X10405896Y-13816079D01*
X10405896Y-13816079D02*
X10396373Y-13797031D01*
X10396373Y-13797031D02*
X10386849Y-13768460D01*
X10386849Y-13768460D02*
X10377325Y-13720841D01*
X10377325Y-13720841D02*
X10377325Y-13682746D01*
X10377325Y-13682746D02*
X10386849Y-13635127D01*
X10386849Y-13635127D02*
X10396373Y-13606555D01*
X10396373Y-13606555D02*
X10405896Y-13587508D01*
X10405896Y-13587508D02*
X10424944Y-13558936D01*
X10424944Y-13558936D02*
X10434468Y-13549412D01*
X10510658Y-13644650D02*
X10510658Y-13777984D01*
X10510658Y-13663698D02*
X10520182Y-13654174D01*
X10520182Y-13654174D02*
X10539230Y-13644650D01*
X10539230Y-13644650D02*
X10567801Y-13644650D01*
X10567801Y-13644650D02*
X10586849Y-13654174D01*
X10586849Y-13654174D02*
X10596373Y-13673222D01*
X10596373Y-13673222D02*
X10596373Y-13777984D01*
X10720182Y-13777984D02*
X10701134Y-13768460D01*
X10701134Y-13768460D02*
X10691611Y-13758936D01*
X10691611Y-13758936D02*
X10682087Y-13739888D01*
X10682087Y-13739888D02*
X10682087Y-13682746D01*
X10682087Y-13682746D02*
X10691611Y-13663698D01*
X10691611Y-13663698D02*
X10701134Y-13654174D01*
X10701134Y-13654174D02*
X10720182Y-13644650D01*
X10720182Y-13644650D02*
X10748754Y-13644650D01*
X10748754Y-13644650D02*
X10767801Y-13654174D01*
X10767801Y-13654174D02*
X10777325Y-13663698D01*
X10777325Y-13663698D02*
X10786849Y-13682746D01*
X10786849Y-13682746D02*
X10786849Y-13739888D01*
X10786849Y-13739888D02*
X10777325Y-13758936D01*
X10777325Y-13758936D02*
X10767801Y-13768460D01*
X10767801Y-13768460D02*
X10748754Y-13777984D01*
X10748754Y-13777984D02*
X10720182Y-13777984D01*
X10843992Y-13644650D02*
X10920182Y-13644650D01*
X10872563Y-13577984D02*
X10872563Y-13749412D01*
X10872563Y-13749412D02*
X10882087Y-13768460D01*
X10882087Y-13768460D02*
X10901134Y-13777984D01*
X10901134Y-13777984D02*
X10920182Y-13777984D01*
X11139230Y-13644650D02*
X11139230Y-13844650D01*
X11139230Y-13654174D02*
X11158277Y-13644650D01*
X11158277Y-13644650D02*
X11196373Y-13644650D01*
X11196373Y-13644650D02*
X11215420Y-13654174D01*
X11215420Y-13654174D02*
X11224944Y-13663698D01*
X11224944Y-13663698D02*
X11234468Y-13682746D01*
X11234468Y-13682746D02*
X11234468Y-13739888D01*
X11234468Y-13739888D02*
X11224944Y-13758936D01*
X11224944Y-13758936D02*
X11215420Y-13768460D01*
X11215420Y-13768460D02*
X11196373Y-13777984D01*
X11196373Y-13777984D02*
X11158277Y-13777984D01*
X11158277Y-13777984D02*
X11139230Y-13768460D01*
X11348753Y-13777984D02*
X11329706Y-13768460D01*
X11329706Y-13768460D02*
X11320182Y-13749412D01*
X11320182Y-13749412D02*
X11320182Y-13577984D01*
X11510658Y-13777984D02*
X11510658Y-13673222D01*
X11510658Y-13673222D02*
X11501134Y-13654174D01*
X11501134Y-13654174D02*
X11482087Y-13644650D01*
X11482087Y-13644650D02*
X11443992Y-13644650D01*
X11443992Y-13644650D02*
X11424944Y-13654174D01*
X11510658Y-13768460D02*
X11491611Y-13777984D01*
X11491611Y-13777984D02*
X11443992Y-13777984D01*
X11443992Y-13777984D02*
X11424944Y-13768460D01*
X11424944Y-13768460D02*
X11415420Y-13749412D01*
X11415420Y-13749412D02*
X11415420Y-13730365D01*
X11415420Y-13730365D02*
X11424944Y-13711317D01*
X11424944Y-13711317D02*
X11443992Y-13701793D01*
X11443992Y-13701793D02*
X11491611Y-13701793D01*
X11491611Y-13701793D02*
X11510658Y-13692269D01*
X11577325Y-13644650D02*
X11653515Y-13644650D01*
X11605896Y-13577984D02*
X11605896Y-13749412D01*
X11605896Y-13749412D02*
X11615420Y-13768460D01*
X11615420Y-13768460D02*
X11634468Y-13777984D01*
X11634468Y-13777984D02*
X11653515Y-13777984D01*
X11796373Y-13768460D02*
X11777325Y-13777984D01*
X11777325Y-13777984D02*
X11739230Y-13777984D01*
X11739230Y-13777984D02*
X11720182Y-13768460D01*
X11720182Y-13768460D02*
X11710658Y-13749412D01*
X11710658Y-13749412D02*
X11710658Y-13673222D01*
X11710658Y-13673222D02*
X11720182Y-13654174D01*
X11720182Y-13654174D02*
X11739230Y-13644650D01*
X11739230Y-13644650D02*
X11777325Y-13644650D01*
X11777325Y-13644650D02*
X11796373Y-13654174D01*
X11796373Y-13654174D02*
X11805896Y-13673222D01*
X11805896Y-13673222D02*
X11805896Y-13692269D01*
X11805896Y-13692269D02*
X11710658Y-13711317D01*
X11977325Y-13777984D02*
X11977325Y-13577984D01*
X11977325Y-13768460D02*
X11958277Y-13777984D01*
X11958277Y-13777984D02*
X11920182Y-13777984D01*
X11920182Y-13777984D02*
X11901134Y-13768460D01*
X11901134Y-13768460D02*
X11891611Y-13758936D01*
X11891611Y-13758936D02*
X11882087Y-13739888D01*
X11882087Y-13739888D02*
X11882087Y-13682746D01*
X11882087Y-13682746D02*
X11891611Y-13663698D01*
X11891611Y-13663698D02*
X11901134Y-13654174D01*
X11901134Y-13654174D02*
X11920182Y-13644650D01*
X11920182Y-13644650D02*
X11958277Y-13644650D01*
X11958277Y-13644650D02*
X11977325Y-13654174D01*
X12053515Y-13854174D02*
X12063039Y-13844650D01*
X12063039Y-13844650D02*
X12082087Y-13816079D01*
X12082087Y-13816079D02*
X12091611Y-13797031D01*
X12091611Y-13797031D02*
X12101134Y-13768460D01*
X12101134Y-13768460D02*
X12110658Y-13720841D01*
X12110658Y-13720841D02*
X12110658Y-13682746D01*
X12110658Y-13682746D02*
X12101134Y-13635127D01*
X12101134Y-13635127D02*
X12091611Y-13606555D01*
X12091611Y-13606555D02*
X12082087Y-13587508D01*
X12082087Y-13587508D02*
X12063039Y-13558936D01*
X12063039Y-13558936D02*
X12053515Y-13549412D01*
X5268211Y-14077211D02*
X5268211Y-13935789D01*
X5126789Y-13935789D01*
X5126789Y-14077211D01*
X5268211Y-14077211D01*
X5539229Y-13897984D02*
X5663039Y-13897984D01*
X5663039Y-13897984D02*
X5596372Y-13974174D01*
X5596372Y-13974174D02*
X5624943Y-13974174D01*
X5624943Y-13974174D02*
X5643991Y-13983698D01*
X5643991Y-13983698D02*
X5653515Y-13993222D01*
X5653515Y-13993222D02*
X5663039Y-14012269D01*
X5663039Y-14012269D02*
X5663039Y-14059888D01*
X5663039Y-14059888D02*
X5653515Y-14078936D01*
X5653515Y-14078936D02*
X5643991Y-14088460D01*
X5643991Y-14088460D02*
X5624943Y-14097984D01*
X5624943Y-14097984D02*
X5567801Y-14097984D01*
X5567801Y-14097984D02*
X5548753Y-14088460D01*
X5548753Y-14088460D02*
X5539229Y-14078936D01*
X5748753Y-14078936D02*
X5758277Y-14088460D01*
X5758277Y-14088460D02*
X5748753Y-14097984D01*
X5748753Y-14097984D02*
X5739229Y-14088460D01*
X5739229Y-14088460D02*
X5748753Y-14078936D01*
X5748753Y-14078936D02*
X5748753Y-14097984D01*
X5929705Y-13964650D02*
X5929705Y-14097984D01*
X5882086Y-13888460D02*
X5834467Y-14031317D01*
X5834467Y-14031317D02*
X5958277Y-14031317D01*
X6129705Y-13897984D02*
X6034467Y-13897984D01*
X6034467Y-13897984D02*
X6024943Y-13993222D01*
X6024943Y-13993222D02*
X6034467Y-13983698D01*
X6034467Y-13983698D02*
X6053515Y-13974174D01*
X6053515Y-13974174D02*
X6101134Y-13974174D01*
X6101134Y-13974174D02*
X6120182Y-13983698D01*
X6120182Y-13983698D02*
X6129705Y-13993222D01*
X6129705Y-13993222D02*
X6139229Y-14012269D01*
X6139229Y-14012269D02*
X6139229Y-14059888D01*
X6139229Y-14059888D02*
X6129705Y-14078936D01*
X6129705Y-14078936D02*
X6120182Y-14088460D01*
X6120182Y-14088460D02*
X6101134Y-14097984D01*
X6101134Y-14097984D02*
X6053515Y-14097984D01*
X6053515Y-14097984D02*
X6034467Y-14088460D01*
X6034467Y-14088460D02*
X6024943Y-14078936D01*
X6263039Y-13897984D02*
X6282086Y-13897984D01*
X6282086Y-13897984D02*
X6301134Y-13907508D01*
X6301134Y-13907508D02*
X6310658Y-13917031D01*
X6310658Y-13917031D02*
X6320182Y-13936079D01*
X6320182Y-13936079D02*
X6329705Y-13974174D01*
X6329705Y-13974174D02*
X6329705Y-14021793D01*
X6329705Y-14021793D02*
X6320182Y-14059888D01*
X6320182Y-14059888D02*
X6310658Y-14078936D01*
X6310658Y-14078936D02*
X6301134Y-14088460D01*
X6301134Y-14088460D02*
X6282086Y-14097984D01*
X6282086Y-14097984D02*
X6263039Y-14097984D01*
X6263039Y-14097984D02*
X6243991Y-14088460D01*
X6243991Y-14088460D02*
X6234467Y-14078936D01*
X6234467Y-14078936D02*
X6224943Y-14059888D01*
X6224943Y-14059888D02*
X6215420Y-14021793D01*
X6215420Y-14021793D02*
X6215420Y-13974174D01*
X6215420Y-13974174D02*
X6224943Y-13936079D01*
X6224943Y-13936079D02*
X6234467Y-13917031D01*
X6234467Y-13917031D02*
X6243991Y-13907508D01*
X6243991Y-13907508D02*
X6263039Y-13897984D01*
X6415420Y-14097984D02*
X6415420Y-13964650D01*
X6415420Y-13983698D02*
X6424943Y-13974174D01*
X6424943Y-13974174D02*
X6443991Y-13964650D01*
X6443991Y-13964650D02*
X6472563Y-13964650D01*
X6472563Y-13964650D02*
X6491610Y-13974174D01*
X6491610Y-13974174D02*
X6501134Y-13993222D01*
X6501134Y-13993222D02*
X6501134Y-14097984D01*
X6501134Y-13993222D02*
X6510658Y-13974174D01*
X6510658Y-13974174D02*
X6529705Y-13964650D01*
X6529705Y-13964650D02*
X6558277Y-13964650D01*
X6558277Y-13964650D02*
X6577324Y-13974174D01*
X6577324Y-13974174D02*
X6586848Y-13993222D01*
X6586848Y-13993222D02*
X6586848Y-14097984D01*
X6682086Y-14097984D02*
X6682086Y-13964650D01*
X6682086Y-13983698D02*
X6691610Y-13974174D01*
X6691610Y-13974174D02*
X6710658Y-13964650D01*
X6710658Y-13964650D02*
X6739229Y-13964650D01*
X6739229Y-13964650D02*
X6758277Y-13974174D01*
X6758277Y-13974174D02*
X6767801Y-13993222D01*
X6767801Y-13993222D02*
X6767801Y-14097984D01*
X6767801Y-13993222D02*
X6777324Y-13974174D01*
X6777324Y-13974174D02*
X6796372Y-13964650D01*
X6796372Y-13964650D02*
X6824943Y-13964650D01*
X6824943Y-13964650D02*
X6843991Y-13974174D01*
X6843991Y-13974174D02*
X6853515Y-13993222D01*
X6853515Y-13993222D02*
X6853515Y-14097984D01*
X7243991Y-13888460D02*
X7072563Y-14145603D01*
X7501134Y-13897984D02*
X7520182Y-13897984D01*
X7520182Y-13897984D02*
X7539229Y-13907508D01*
X7539229Y-13907508D02*
X7548753Y-13917031D01*
X7548753Y-13917031D02*
X7558277Y-13936079D01*
X7558277Y-13936079D02*
X7567801Y-13974174D01*
X7567801Y-13974174D02*
X7567801Y-14021793D01*
X7567801Y-14021793D02*
X7558277Y-14059888D01*
X7558277Y-14059888D02*
X7548753Y-14078936D01*
X7548753Y-14078936D02*
X7539229Y-14088460D01*
X7539229Y-14088460D02*
X7520182Y-14097984D01*
X7520182Y-14097984D02*
X7501134Y-14097984D01*
X7501134Y-14097984D02*
X7482086Y-14088460D01*
X7482086Y-14088460D02*
X7472563Y-14078936D01*
X7472563Y-14078936D02*
X7463039Y-14059888D01*
X7463039Y-14059888D02*
X7453515Y-14021793D01*
X7453515Y-14021793D02*
X7453515Y-13974174D01*
X7453515Y-13974174D02*
X7463039Y-13936079D01*
X7463039Y-13936079D02*
X7472563Y-13917031D01*
X7472563Y-13917031D02*
X7482086Y-13907508D01*
X7482086Y-13907508D02*
X7501134Y-13897984D01*
X7653515Y-14078936D02*
X7663039Y-14088460D01*
X7663039Y-14088460D02*
X7653515Y-14097984D01*
X7653515Y-14097984D02*
X7643991Y-14088460D01*
X7643991Y-14088460D02*
X7653515Y-14078936D01*
X7653515Y-14078936D02*
X7653515Y-14097984D01*
X7853515Y-14097984D02*
X7739229Y-14097984D01*
X7796372Y-14097984D02*
X7796372Y-13897984D01*
X7796372Y-13897984D02*
X7777325Y-13926555D01*
X7777325Y-13926555D02*
X7758277Y-13945603D01*
X7758277Y-13945603D02*
X7739229Y-13955127D01*
X7920182Y-13897984D02*
X8043991Y-13897984D01*
X8043991Y-13897984D02*
X7977325Y-13974174D01*
X7977325Y-13974174D02*
X8005896Y-13974174D01*
X8005896Y-13974174D02*
X8024944Y-13983698D01*
X8024944Y-13983698D02*
X8034467Y-13993222D01*
X8034467Y-13993222D02*
X8043991Y-14012269D01*
X8043991Y-14012269D02*
X8043991Y-14059888D01*
X8043991Y-14059888D02*
X8034467Y-14078936D01*
X8034467Y-14078936D02*
X8024944Y-14088460D01*
X8024944Y-14088460D02*
X8005896Y-14097984D01*
X8005896Y-14097984D02*
X7948753Y-14097984D01*
X7948753Y-14097984D02*
X7929706Y-14088460D01*
X7929706Y-14088460D02*
X7920182Y-14078936D01*
X8224944Y-13897984D02*
X8129706Y-13897984D01*
X8129706Y-13897984D02*
X8120182Y-13993222D01*
X8120182Y-13993222D02*
X8129706Y-13983698D01*
X8129706Y-13983698D02*
X8148753Y-13974174D01*
X8148753Y-13974174D02*
X8196372Y-13974174D01*
X8196372Y-13974174D02*
X8215420Y-13983698D01*
X8215420Y-13983698D02*
X8224944Y-13993222D01*
X8224944Y-13993222D02*
X8234467Y-14012269D01*
X8234467Y-14012269D02*
X8234467Y-14059888D01*
X8234467Y-14059888D02*
X8224944Y-14078936D01*
X8224944Y-14078936D02*
X8215420Y-14088460D01*
X8215420Y-14088460D02*
X8196372Y-14097984D01*
X8196372Y-14097984D02*
X8148753Y-14097984D01*
X8148753Y-14097984D02*
X8129706Y-14088460D01*
X8129706Y-14088460D02*
X8120182Y-14078936D01*
X8348753Y-13983698D02*
X8329706Y-13974174D01*
X8329706Y-13974174D02*
X8320182Y-13964650D01*
X8320182Y-13964650D02*
X8310658Y-13945603D01*
X8310658Y-13945603D02*
X8310658Y-13936079D01*
X8310658Y-13936079D02*
X8320182Y-13917031D01*
X8320182Y-13917031D02*
X8329706Y-13907508D01*
X8329706Y-13907508D02*
X8348753Y-13897984D01*
X8348753Y-13897984D02*
X8386848Y-13897984D01*
X8386848Y-13897984D02*
X8405896Y-13907508D01*
X8405896Y-13907508D02*
X8415420Y-13917031D01*
X8415420Y-13917031D02*
X8424944Y-13936079D01*
X8424944Y-13936079D02*
X8424944Y-13945603D01*
X8424944Y-13945603D02*
X8415420Y-13964650D01*
X8415420Y-13964650D02*
X8405896Y-13974174D01*
X8405896Y-13974174D02*
X8386848Y-13983698D01*
X8386848Y-13983698D02*
X8348753Y-13983698D01*
X8348753Y-13983698D02*
X8329706Y-13993222D01*
X8329706Y-13993222D02*
X8320182Y-14002746D01*
X8320182Y-14002746D02*
X8310658Y-14021793D01*
X8310658Y-14021793D02*
X8310658Y-14059888D01*
X8310658Y-14059888D02*
X8320182Y-14078936D01*
X8320182Y-14078936D02*
X8329706Y-14088460D01*
X8329706Y-14088460D02*
X8348753Y-14097984D01*
X8348753Y-14097984D02*
X8386848Y-14097984D01*
X8386848Y-14097984D02*
X8405896Y-14088460D01*
X8405896Y-14088460D02*
X8415420Y-14078936D01*
X8415420Y-14078936D02*
X8424944Y-14059888D01*
X8424944Y-14059888D02*
X8424944Y-14021793D01*
X8424944Y-14021793D02*
X8415420Y-14002746D01*
X8415420Y-14002746D02*
X8405896Y-13993222D01*
X8405896Y-13993222D02*
X8386848Y-13983698D01*
X8501134Y-13897984D02*
X8501134Y-13936079D01*
X8577325Y-13897984D02*
X8577325Y-13936079D01*
X8872563Y-14174174D02*
X8863039Y-14164650D01*
X8863039Y-14164650D02*
X8843991Y-14136079D01*
X8843991Y-14136079D02*
X8834468Y-14117031D01*
X8834468Y-14117031D02*
X8824944Y-14088460D01*
X8824944Y-14088460D02*
X8815420Y-14040841D01*
X8815420Y-14040841D02*
X8815420Y-14002746D01*
X8815420Y-14002746D02*
X8824944Y-13955127D01*
X8824944Y-13955127D02*
X8834468Y-13926555D01*
X8834468Y-13926555D02*
X8843991Y-13907508D01*
X8843991Y-13907508D02*
X8863039Y-13878936D01*
X8863039Y-13878936D02*
X8872563Y-13869412D01*
X9034468Y-13964650D02*
X9034468Y-14097984D01*
X8986849Y-13888460D02*
X8939230Y-14031317D01*
X8939230Y-14031317D02*
X9063039Y-14031317D01*
X9177325Y-13897984D02*
X9196372Y-13897984D01*
X9196372Y-13897984D02*
X9215420Y-13907508D01*
X9215420Y-13907508D02*
X9224944Y-13917031D01*
X9224944Y-13917031D02*
X9234468Y-13936079D01*
X9234468Y-13936079D02*
X9243991Y-13974174D01*
X9243991Y-13974174D02*
X9243991Y-14021793D01*
X9243991Y-14021793D02*
X9234468Y-14059888D01*
X9234468Y-14059888D02*
X9224944Y-14078936D01*
X9224944Y-14078936D02*
X9215420Y-14088460D01*
X9215420Y-14088460D02*
X9196372Y-14097984D01*
X9196372Y-14097984D02*
X9177325Y-14097984D01*
X9177325Y-14097984D02*
X9158277Y-14088460D01*
X9158277Y-14088460D02*
X9148753Y-14078936D01*
X9148753Y-14078936D02*
X9139230Y-14059888D01*
X9139230Y-14059888D02*
X9129706Y-14021793D01*
X9129706Y-14021793D02*
X9129706Y-13974174D01*
X9129706Y-13974174D02*
X9139230Y-13936079D01*
X9139230Y-13936079D02*
X9148753Y-13917031D01*
X9148753Y-13917031D02*
X9158277Y-13907508D01*
X9158277Y-13907508D02*
X9177325Y-13897984D01*
X9482087Y-14097984D02*
X9482087Y-13897984D01*
X9567801Y-14097984D02*
X9567801Y-13993222D01*
X9567801Y-13993222D02*
X9558277Y-13974174D01*
X9558277Y-13974174D02*
X9539230Y-13964650D01*
X9539230Y-13964650D02*
X9510658Y-13964650D01*
X9510658Y-13964650D02*
X9491611Y-13974174D01*
X9491611Y-13974174D02*
X9482087Y-13983698D01*
X9691611Y-14097984D02*
X9672563Y-14088460D01*
X9672563Y-14088460D02*
X9663039Y-14078936D01*
X9663039Y-14078936D02*
X9653515Y-14059888D01*
X9653515Y-14059888D02*
X9653515Y-14002746D01*
X9653515Y-14002746D02*
X9663039Y-13983698D01*
X9663039Y-13983698D02*
X9672563Y-13974174D01*
X9672563Y-13974174D02*
X9691611Y-13964650D01*
X9691611Y-13964650D02*
X9720182Y-13964650D01*
X9720182Y-13964650D02*
X9739230Y-13974174D01*
X9739230Y-13974174D02*
X9748753Y-13983698D01*
X9748753Y-13983698D02*
X9758277Y-14002746D01*
X9758277Y-14002746D02*
X9758277Y-14059888D01*
X9758277Y-14059888D02*
X9748753Y-14078936D01*
X9748753Y-14078936D02*
X9739230Y-14088460D01*
X9739230Y-14088460D02*
X9720182Y-14097984D01*
X9720182Y-14097984D02*
X9691611Y-14097984D01*
X9872563Y-14097984D02*
X9853515Y-14088460D01*
X9853515Y-14088460D02*
X9843992Y-14069412D01*
X9843992Y-14069412D02*
X9843992Y-13897984D01*
X10024944Y-14088460D02*
X10005896Y-14097984D01*
X10005896Y-14097984D02*
X9967801Y-14097984D01*
X9967801Y-14097984D02*
X9948753Y-14088460D01*
X9948753Y-14088460D02*
X9939230Y-14069412D01*
X9939230Y-14069412D02*
X9939230Y-13993222D01*
X9939230Y-13993222D02*
X9948753Y-13974174D01*
X9948753Y-13974174D02*
X9967801Y-13964650D01*
X9967801Y-13964650D02*
X10005896Y-13964650D01*
X10005896Y-13964650D02*
X10024944Y-13974174D01*
X10024944Y-13974174D02*
X10034468Y-13993222D01*
X10034468Y-13993222D02*
X10034468Y-14012269D01*
X10034468Y-14012269D02*
X9939230Y-14031317D01*
X10110658Y-14088460D02*
X10129706Y-14097984D01*
X10129706Y-14097984D02*
X10167801Y-14097984D01*
X10167801Y-14097984D02*
X10186849Y-14088460D01*
X10186849Y-14088460D02*
X10196373Y-14069412D01*
X10196373Y-14069412D02*
X10196373Y-14059888D01*
X10196373Y-14059888D02*
X10186849Y-14040841D01*
X10186849Y-14040841D02*
X10167801Y-14031317D01*
X10167801Y-14031317D02*
X10139230Y-14031317D01*
X10139230Y-14031317D02*
X10120182Y-14021793D01*
X10120182Y-14021793D02*
X10110658Y-14002746D01*
X10110658Y-14002746D02*
X10110658Y-13993222D01*
X10110658Y-13993222D02*
X10120182Y-13974174D01*
X10120182Y-13974174D02*
X10139230Y-13964650D01*
X10139230Y-13964650D02*
X10167801Y-13964650D01*
X10167801Y-13964650D02*
X10186849Y-13974174D01*
X10263039Y-14174174D02*
X10272563Y-14164650D01*
X10272563Y-14164650D02*
X10291611Y-14136079D01*
X10291611Y-14136079D02*
X10301134Y-14117031D01*
X10301134Y-14117031D02*
X10310658Y-14088460D01*
X10310658Y-14088460D02*
X10320182Y-14040841D01*
X10320182Y-14040841D02*
X10320182Y-14002746D01*
X10320182Y-14002746D02*
X10310658Y-13955127D01*
X10310658Y-13955127D02*
X10301134Y-13926555D01*
X10301134Y-13926555D02*
X10291611Y-13907508D01*
X10291611Y-13907508D02*
X10272563Y-13878936D01*
X10272563Y-13878936D02*
X10263039Y-13869412D01*
X10624944Y-14174174D02*
X10615420Y-14164650D01*
X10615420Y-14164650D02*
X10596373Y-14136079D01*
X10596373Y-14136079D02*
X10586849Y-14117031D01*
X10586849Y-14117031D02*
X10577325Y-14088460D01*
X10577325Y-14088460D02*
X10567801Y-14040841D01*
X10567801Y-14040841D02*
X10567801Y-14002746D01*
X10567801Y-14002746D02*
X10577325Y-13955127D01*
X10577325Y-13955127D02*
X10586849Y-13926555D01*
X10586849Y-13926555D02*
X10596373Y-13907508D01*
X10596373Y-13907508D02*
X10615420Y-13878936D01*
X10615420Y-13878936D02*
X10624944Y-13869412D01*
X10701134Y-13964650D02*
X10701134Y-14097984D01*
X10701134Y-13983698D02*
X10710658Y-13974174D01*
X10710658Y-13974174D02*
X10729706Y-13964650D01*
X10729706Y-13964650D02*
X10758277Y-13964650D01*
X10758277Y-13964650D02*
X10777325Y-13974174D01*
X10777325Y-13974174D02*
X10786849Y-13993222D01*
X10786849Y-13993222D02*
X10786849Y-14097984D01*
X10910658Y-14097984D02*
X10891611Y-14088460D01*
X10891611Y-14088460D02*
X10882087Y-14078936D01*
X10882087Y-14078936D02*
X10872563Y-14059888D01*
X10872563Y-14059888D02*
X10872563Y-14002746D01*
X10872563Y-14002746D02*
X10882087Y-13983698D01*
X10882087Y-13983698D02*
X10891611Y-13974174D01*
X10891611Y-13974174D02*
X10910658Y-13964650D01*
X10910658Y-13964650D02*
X10939230Y-13964650D01*
X10939230Y-13964650D02*
X10958277Y-13974174D01*
X10958277Y-13974174D02*
X10967801Y-13983698D01*
X10967801Y-13983698D02*
X10977325Y-14002746D01*
X10977325Y-14002746D02*
X10977325Y-14059888D01*
X10977325Y-14059888D02*
X10967801Y-14078936D01*
X10967801Y-14078936D02*
X10958277Y-14088460D01*
X10958277Y-14088460D02*
X10939230Y-14097984D01*
X10939230Y-14097984D02*
X10910658Y-14097984D01*
X11034468Y-13964650D02*
X11110658Y-13964650D01*
X11063039Y-13897984D02*
X11063039Y-14069412D01*
X11063039Y-14069412D02*
X11072563Y-14088460D01*
X11072563Y-14088460D02*
X11091611Y-14097984D01*
X11091611Y-14097984D02*
X11110658Y-14097984D01*
X11329706Y-13964650D02*
X11329706Y-14164650D01*
X11329706Y-13974174D02*
X11348753Y-13964650D01*
X11348753Y-13964650D02*
X11386849Y-13964650D01*
X11386849Y-13964650D02*
X11405896Y-13974174D01*
X11405896Y-13974174D02*
X11415420Y-13983698D01*
X11415420Y-13983698D02*
X11424944Y-14002746D01*
X11424944Y-14002746D02*
X11424944Y-14059888D01*
X11424944Y-14059888D02*
X11415420Y-14078936D01*
X11415420Y-14078936D02*
X11405896Y-14088460D01*
X11405896Y-14088460D02*
X11386849Y-14097984D01*
X11386849Y-14097984D02*
X11348753Y-14097984D01*
X11348753Y-14097984D02*
X11329706Y-14088460D01*
X11539230Y-14097984D02*
X11520182Y-14088460D01*
X11520182Y-14088460D02*
X11510658Y-14069412D01*
X11510658Y-14069412D02*
X11510658Y-13897984D01*
X11701134Y-14097984D02*
X11701134Y-13993222D01*
X11701134Y-13993222D02*
X11691611Y-13974174D01*
X11691611Y-13974174D02*
X11672563Y-13964650D01*
X11672563Y-13964650D02*
X11634468Y-13964650D01*
X11634468Y-13964650D02*
X11615420Y-13974174D01*
X11701134Y-14088460D02*
X11682087Y-14097984D01*
X11682087Y-14097984D02*
X11634468Y-14097984D01*
X11634468Y-14097984D02*
X11615420Y-14088460D01*
X11615420Y-14088460D02*
X11605896Y-14069412D01*
X11605896Y-14069412D02*
X11605896Y-14050365D01*
X11605896Y-14050365D02*
X11615420Y-14031317D01*
X11615420Y-14031317D02*
X11634468Y-14021793D01*
X11634468Y-14021793D02*
X11682087Y-14021793D01*
X11682087Y-14021793D02*
X11701134Y-14012269D01*
X11767801Y-13964650D02*
X11843992Y-13964650D01*
X11796373Y-13897984D02*
X11796373Y-14069412D01*
X11796373Y-14069412D02*
X11805896Y-14088460D01*
X11805896Y-14088460D02*
X11824944Y-14097984D01*
X11824944Y-14097984D02*
X11843992Y-14097984D01*
X11986849Y-14088460D02*
X11967801Y-14097984D01*
X11967801Y-14097984D02*
X11929706Y-14097984D01*
X11929706Y-14097984D02*
X11910658Y-14088460D01*
X11910658Y-14088460D02*
X11901134Y-14069412D01*
X11901134Y-14069412D02*
X11901134Y-13993222D01*
X11901134Y-13993222D02*
X11910658Y-13974174D01*
X11910658Y-13974174D02*
X11929706Y-13964650D01*
X11929706Y-13964650D02*
X11967801Y-13964650D01*
X11967801Y-13964650D02*
X11986849Y-13974174D01*
X11986849Y-13974174D02*
X11996373Y-13993222D01*
X11996373Y-13993222D02*
X11996373Y-14012269D01*
X11996373Y-14012269D02*
X11901134Y-14031317D01*
X12167801Y-14097984D02*
X12167801Y-13897984D01*
X12167801Y-14088460D02*
X12148754Y-14097984D01*
X12148754Y-14097984D02*
X12110658Y-14097984D01*
X12110658Y-14097984D02*
X12091611Y-14088460D01*
X12091611Y-14088460D02*
X12082087Y-14078936D01*
X12082087Y-14078936D02*
X12072563Y-14059888D01*
X12072563Y-14059888D02*
X12072563Y-14002746D01*
X12072563Y-14002746D02*
X12082087Y-13983698D01*
X12082087Y-13983698D02*
X12091611Y-13974174D01*
X12091611Y-13974174D02*
X12110658Y-13964650D01*
X12110658Y-13964650D02*
X12148754Y-13964650D01*
X12148754Y-13964650D02*
X12167801Y-13974174D01*
X12243992Y-14174174D02*
X12253515Y-14164650D01*
X12253515Y-14164650D02*
X12272563Y-14136079D01*
X12272563Y-14136079D02*
X12282087Y-14117031D01*
X12282087Y-14117031D02*
X12291611Y-14088460D01*
X12291611Y-14088460D02*
X12301134Y-14040841D01*
X12301134Y-14040841D02*
X12301134Y-14002746D01*
X12301134Y-14002746D02*
X12291611Y-13955127D01*
X12291611Y-13955127D02*
X12282087Y-13926555D01*
X12282087Y-13926555D02*
X12272563Y-13907508D01*
X12272563Y-13907508D02*
X12253515Y-13878936D01*
X12253515Y-13878936D02*
X12243992Y-13869412D01*
M02*
