M48
; DRILL file {KiCad 8.0.9-8.0.9-0~ubuntu22.04.1} date 2025-05-22T00:01:43+0800
; FORMAT={-:-/ absolute / metric / decimal}
; #@! TF.CreationDate,2025-05-22T00:01:43+08:00
; #@! TF.GenerationSoftware,Kicad,Pcbnew,8.0.9-8.0.9-0~ubuntu22.04.1
; #@! TF.FileFunction,Plated,1,2,PTH
FMAT,2
METRIC
; #@! TA.AperFunction,Plated,PTH,ViaDrill
T1C0.300
; #@! TA.AperFunction,Plated,PTH,ComponentDrill
T2C0.600
; #@! TA.AperFunction,Plated,PTH,ComponentDrill
T3C1.200
%
G90
G05
T1
X56.0Y-72.0
X56.0Y-74.0
X56.0Y-76.0
X56.0Y-121.0
X58.0Y-121.0
X61.7Y-71.5
X61.7Y-76.3
X62.1Y-69.5
X62.4Y-78.7
X62.6Y-70.7
X62.6Y-77.2
X63.9Y-85.7
X64.0Y-60.0
X69.0Y-77.0
X69.2Y-64.2
X69.3Y-87.7
X70.0Y-64.2
X70.1Y-87.7
X70.91Y-87.59
X70.91Y-64.21
X71.0Y-77.0
X71.0Y-84.0
X75.0Y-88.0
X75.4Y-102.0
X76.1Y-102.5
X76.812Y-69.55
X77.0Y-80.0
X78.3Y-79.0
X78.6Y-103.0
X80.4Y-88.5
X80.75Y-103.5
X80.8Y-69.8
X81.1Y-88.1
X81.816Y-87.742
X81.9Y-84.1
X81.9Y-104.0
X82.0Y-86.0
X82.6Y-80.0
X83.0Y-86.0
X83.0Y-87.0
X83.7Y-63.7
X85.0Y-77.0
X85.8Y-64.6
X86.0Y-76.0
X86.0Y-78.0
X86.1Y-96.3
X86.4Y-97.2
X86.6Y-82.2
X86.715Y-98.0
X87.0Y-77.0
X87.7Y-88.7
X89.0Y-106.0
X91.0Y-62.6
X91.0Y-106.0
X91.6Y-75.0
X92.7Y-64.2
X92.788Y-95.9
X93.362Y-96.55
X94.09Y-97.05
X94.4Y-105.7
X94.9Y-76.9
X95.6Y-70.1
X96.371Y-76.729
X96.6Y-105.6
X97.0Y-113.0
X97.7Y-76.1
X98.3Y-100.9
X98.6Y-105.6
X100.1Y-105.5
X102.1Y-105.4
X104.0Y-111.0
X104.0Y-112.0
X104.2Y-105.4
X105.0Y-111.0
X105.0Y-112.0
X106.0Y-62.0
X107.0Y-58.9
X107.0Y-68.0
X107.4Y-104.5
X108.0Y-68.0
X109.0Y-68.0
X110.0Y-68.0
X118.6Y-70.85
X119.1Y-71.5
X119.629Y-72.1
X120.254Y-72.6
X120.55Y-66.9
X120.7Y-100.0
X120.835Y-73.15
X121.2Y-67.55
X121.3Y-73.8
X121.35Y-77.621
X123.1Y-59.0
X134.7Y-90.6
X142.7Y-90.5
X165.6Y-91.2
X182.6Y-91.2
X199.4Y-91.4
X210.9Y-90.7
X218.0Y-121.0
X220.0Y-121.0
T3
X56.0Y-86.5
X61.0Y-59.8
X61.0Y-88.6
X61.0Y-93.8
X61.0Y-110.8
X66.0Y-61.9
X66.0Y-95.9
X66.0Y-112.9
X73.0Y-86.5
X78.0Y-59.8
X78.0Y-88.6
X78.0Y-93.8
X78.0Y-110.8
X83.0Y-61.9
X83.0Y-95.9
X83.0Y-112.9
X90.0Y-86.5
X95.0Y-59.8
X95.0Y-88.6
X95.0Y-93.8
X95.0Y-110.8
X100.0Y-61.9
X100.0Y-95.9
X100.0Y-112.9
X112.0Y-59.8
X112.0Y-76.8
X112.0Y-93.8
X112.0Y-110.8
X117.0Y-61.9
X117.0Y-78.9
X117.0Y-95.9
X117.0Y-112.9
X129.0Y-59.8
X129.0Y-76.8
X129.0Y-93.8
X129.0Y-110.8
X134.0Y-61.9
X134.0Y-78.9
X134.0Y-95.9
X134.0Y-112.9
X146.0Y-59.8
X146.0Y-76.8
X146.0Y-93.8
X146.0Y-110.8
X151.0Y-61.9
X151.0Y-78.9
X151.0Y-95.9
X151.0Y-112.9
X163.0Y-59.8
X163.0Y-76.8
X163.0Y-93.8
X163.0Y-110.8
X168.0Y-61.9
X168.0Y-78.9
X168.0Y-95.9
X168.0Y-112.9
X180.0Y-59.8
X180.0Y-76.8
X180.0Y-93.8
X180.0Y-110.8
X185.0Y-61.9
X185.0Y-78.9
X185.0Y-95.9
X185.0Y-112.9
X197.0Y-59.8
X197.0Y-76.8
X197.0Y-93.8
X197.0Y-110.8
X202.0Y-61.9
X202.0Y-78.9
X202.0Y-95.9
X202.0Y-112.9
X214.0Y-59.8
X214.0Y-76.8
X214.0Y-93.8
X214.0Y-110.8
X219.0Y-61.9
X219.0Y-78.9
X219.0Y-95.9
X219.0Y-112.9
T2
X54.105Y-69.63G85X54.705Y-69.63
G05
X54.105Y-78.27G85X54.705Y-78.27
G05
X58.035Y-69.63G85X59.135Y-69.63
G05
X58.035Y-78.27G85X59.135Y-78.27
G05
M30
