M48
; DRILL file {KiCad 8.0.9-8.0.9-0~ubuntu22.04.1} date 2025-10-12T01:46:20+0800
; FORMAT={-:-/ absolute / inch / decimal}
; #@! TF.CreationDate,2025-10-12T01:46:20+08:00
; #@! TF.GenerationSoftware,Kicad,Pcbnew,8.0.9-8.0.9-0~ubuntu22.04.1
; #@! TF.FileFunction,Plated,1,2,PTH
FMAT,2
INCH
; #@! TA.AperFunction,Plated,PTH,ViaDrill
T1C0.0118
; #@! TA.AperFunction,Plated,PTH,ComponentDrill
T2C0.0236
; #@! TA.AperFunction,Plated,PTH,ComponentDrill
T3C0.0394
; #@! TA.AperFunction,Plated,PTH,ComponentDrill
T4C0.0472
; #@! TA.AperFunction,Plated,PTH,ComponentDrill
T5C0.0591
%
G90
G05
T1
X4.7244Y-3.622
X4.8031Y-3.622
X4.8819Y-3.622
X4.8937Y-3.9764
X4.8937Y-4.1713
X4.9665Y-3.8366
X4.9665Y-4.0059
X5.0807Y-4.3681
X5.097Y-4.0615
X5.122Y-3.7598
X5.1367Y-4.058
X5.1398Y-4.1043
X5.1398Y-4.1516
X5.1437Y-3.9094
X5.1437Y-3.9646
X5.2343Y-3.6122
X5.2579Y-4.2717
X5.2835Y-3.6102
X5.3543Y-4.2106
X5.3937Y-4.0157
X5.3937Y-4.0945
X5.4724Y-4.0157
X5.4724Y-4.0945
X5.4902Y-3.5512
X5.5276Y-3.5512
X5.5592Y-3.5512
X5.5907Y-3.5512
X5.6222Y-3.5512
X5.6537Y-3.5512
X5.6814Y-3.533
X5.7047Y-3.5118
X5.7224Y-3.9311
X5.7224Y-3.9764
X5.7224Y-4.0157
X5.7244Y-3.8406
X5.7244Y-3.8898
X5.7264Y-3.7992
X5.7795Y-4.3346
X5.7933Y-3.7047
X5.8425Y-4.3346
X5.8465Y-3.9134
X5.8839Y-4.2185
X5.8858Y-3.8937
X5.9134Y-3.5118
X5.9331Y-4.2264
X5.935Y-4.1772
X5.9449Y-2.7972
X5.9469Y-3.5157
X5.9685Y-4.1339
X5.9764Y-2.0354
X6.0138Y-3.4409
X6.0197Y-4.2756
X6.0472Y-3.7953
X6.0551Y-4.0787
X6.1161Y-4.1083
X6.1211Y-3.4498
X6.2362Y-3.8701
X6.251Y-4.2254
X6.3071Y-3.878
X6.374Y-3.7283
X6.4291Y-3.7283
X6.4547Y-3.8642
X6.4843Y-3.7283
X6.5354Y-4.0906
X6.5591Y-3.9567
X6.6102Y-4.1299
X6.7559Y-4.0236
X6.7559Y-4.0748
X6.7559Y-4.1299
X6.7874Y-4.2402
X6.8661Y-3.4724
X7.0335Y-3.8209
X7.5807Y-3.4921
X7.7697Y-3.8189
X8.3012Y-3.5157
X8.565Y-3.8189
X9.061Y-3.5276
X9.2894Y-3.7992
T3
X4.6626Y-3.7717
X4.7626Y-3.7717
X4.8626Y-3.7717
X4.9626Y-3.7717
X9.7992Y-4.2022
X9.7992Y-4.3022
T4
X4.875Y-1.6427
X4.875Y-2.3927
X4.875Y-3.1427
X5.0719Y-1.7254
X5.0719Y-2.4754
X5.0719Y-3.2254
X5.625Y-1.6427
X5.625Y-2.3927
X5.625Y-3.1427
X5.8219Y-1.7254
X5.8219Y-2.4754
X5.8219Y-3.2254
X6.375Y-1.6427
X6.375Y-2.3927
X6.375Y-3.1427
X6.5719Y-1.7254
X6.5719Y-2.4754
X6.5719Y-3.2254
X7.125Y-1.6427
X7.125Y-2.3927
X7.125Y-3.1427
X7.125Y-3.8927
X7.3219Y-1.7254
X7.3219Y-2.4754
X7.3219Y-3.2254
X7.3219Y-3.9754
X7.875Y-1.6427
X7.875Y-2.3927
X7.875Y-3.1427
X7.875Y-3.8927
X8.0719Y-1.7254
X8.0719Y-2.4754
X8.0719Y-3.2254
X8.0719Y-3.9754
X8.625Y-1.6427
X8.625Y-2.3927
X8.625Y-3.1427
X8.625Y-3.8927
X8.8219Y-1.7254
X8.8219Y-2.4754
X8.8219Y-3.2254
X8.8219Y-3.9754
X9.375Y-1.6427
X9.375Y-2.3927
X9.375Y-3.1427
X9.375Y-3.8927
X9.5719Y-1.7254
X9.5719Y-2.4754
X9.5719Y-3.2254
X9.5719Y-3.9754
X10.125Y-1.6427
X10.125Y-2.3927
X10.125Y-3.1427
X10.3219Y-1.7254
X10.3219Y-2.4754
X10.3219Y-3.2254
X10.875Y-1.6427
X10.875Y-2.3927
X10.875Y-3.1427
X11.0719Y-1.7254
X11.0719Y-2.4754
X11.0719Y-3.2254
X11.625Y-1.6427
X11.625Y-2.3947
X11.625Y-3.1427
X11.8219Y-1.7254
X11.8219Y-2.4774
X11.8219Y-3.2254
T5
X4.725Y-1.775
X4.725Y-2.525
X4.725Y-3.275
X4.975Y-1.675
X4.975Y-2.425
X4.975Y-3.175
X5.475Y-1.775
X5.475Y-2.525
X5.475Y-3.275
X5.725Y-1.675
X5.725Y-2.425
X5.725Y-3.175
X6.225Y-1.775
X6.225Y-2.525
X6.225Y-3.275
X6.475Y-1.675
X6.475Y-2.425
X6.475Y-3.175
X6.975Y-1.775
X6.975Y-2.525
X6.975Y-3.275
X6.975Y-4.025
X7.225Y-1.675
X7.225Y-2.425
X7.225Y-3.175
X7.225Y-3.925
X7.725Y-1.775
X7.725Y-2.525
X7.725Y-3.275
X7.725Y-4.025
X7.975Y-1.675
X7.975Y-2.425
X7.975Y-3.175
X7.975Y-3.925
X8.475Y-1.775
X8.475Y-2.525
X8.475Y-3.275
X8.475Y-4.025
X8.725Y-1.675
X8.725Y-2.425
X8.725Y-3.175
X8.725Y-3.925
X9.225Y-1.775
X9.225Y-2.525
X9.225Y-3.275
X9.225Y-4.025
X9.475Y-1.675
X9.475Y-2.425
X9.475Y-3.175
X9.475Y-3.925
X9.975Y-1.775
X9.975Y-2.525
X9.975Y-3.275
X10.225Y-1.675
X10.225Y-2.425
X10.225Y-3.175
X10.725Y-1.775
X10.725Y-2.525
X10.725Y-3.275
X10.975Y-1.675
X10.975Y-2.425
X10.975Y-3.175
X11.475Y-1.775
X11.475Y-2.527
X11.475Y-3.275
X11.725Y-1.675
X11.725Y-2.427
X11.725Y-3.175
T2
G00X4.6537Y-3.9028
M15
G01X4.6301Y-3.9028
M16
G05
G00X4.6537Y-4.2429
M15
G01X4.6301Y-4.2429
M16
G05
G00X4.8281Y-3.9028
M15
G01X4.7848Y-3.9028
M16
G05
G00X4.8281Y-4.2429
M15
G01X4.7848Y-4.2429
M16
G05
M30
