M48
; DRILL file {KiCad 8.0.9-8.0.9-0~ubuntu22.04.1} date 2025-10-12T01:46:20+0800
; FORMAT={-:-/ absolute / inch / decimal}
; #@! TF.CreationDate,2025-10-12T01:46:20+08:00
; #@! TF.GenerationSoftware,Kicad,Pcbnew,8.0.9-8.0.9-0~ubuntu22.04.1
; #@! TF.FileFunction,NonPlated,1,2,NPTH
FMAT,2
INCH
; #@! TA.AperFunction,NonPlated,NPTH,ComponentDrill
T1C0.0256
; #@! TA.AperFunction,NonPlated,NPTH,ComponentDrill
T2C0.0295
; #@! TA.AperFunction,NonPlated,NPTH,ComponentDrill
T3C0.0354
; #@! TA.AperFunction,NonPlated,NPTH,ComponentDrill
T4C0.0689
; #@! TA.AperFunction,NonPlated,NPTH,ComponentDrill
T5C0.0748
; #@! TA.AperFunction,NonPlated,NPTH,ComponentDrill
T6C0.1358
; #@! TA.AperFunction,NonPlated,NPTH,ComponentDrill
T7C0.1575
; #@! TA.AperFunction,NonPlated,NPTH,ComponentDrill
T8C0.2087
%
G90
G05
T1
X4.7856Y-3.9591
X4.7856Y-4.1866
T2
X5.8858Y-3.9616
X5.8858Y-4.0699
T3
X6.5098Y-4.3547
X6.628Y-4.3547
T4
X4.675Y-1.875
X4.675Y-2.625
X4.675Y-3.375
X5.075Y-1.875
X5.075Y-2.625
X5.075Y-3.375
X5.425Y-1.875
X5.425Y-2.625
X5.425Y-3.375
X5.825Y-1.875
X5.825Y-2.625
X5.825Y-3.375
X6.175Y-1.875
X6.175Y-2.625
X6.175Y-3.375
X6.575Y-1.875
X6.575Y-2.625
X6.575Y-3.375
X6.925Y-1.875
X6.925Y-2.625
X6.925Y-3.375
X6.925Y-4.125
X7.325Y-1.875
X7.325Y-2.625
X7.325Y-3.375
X7.325Y-4.125
X7.675Y-1.875
X7.675Y-2.625
X7.675Y-3.375
X7.675Y-4.125
X8.075Y-1.875
X8.075Y-2.625
X8.075Y-3.375
X8.075Y-4.125
X8.425Y-1.875
X8.425Y-2.625
X8.425Y-3.375
X8.425Y-4.125
X8.825Y-1.875
X8.825Y-2.625
X8.825Y-3.375
X8.825Y-4.125
X9.175Y-1.875
X9.175Y-2.625
X9.175Y-3.375
X9.175Y-4.125
X9.575Y-1.875
X9.575Y-2.625
X9.575Y-3.375
X9.575Y-4.125
X9.925Y-1.875
X9.925Y-2.625
X9.925Y-3.375
X10.325Y-1.875
X10.325Y-2.625
X10.325Y-3.375
X10.675Y-1.875
X10.675Y-2.625
X10.675Y-3.375
X11.075Y-1.875
X11.075Y-2.625
X11.075Y-3.375
X11.425Y-1.875
X11.425Y-2.627
X11.425Y-3.375
X11.825Y-1.875
X11.825Y-2.627
X11.825Y-3.375
T5
X4.6585Y-1.875
X4.6585Y-2.625
X4.6585Y-3.375
X5.0915Y-1.875
X5.0915Y-2.625
X5.0915Y-3.375
X5.4085Y-1.875
X5.4085Y-2.625
X5.4085Y-3.375
X5.8415Y-1.875
X5.8415Y-2.625
X5.8415Y-3.375
X6.1585Y-1.875
X6.1585Y-2.625
X6.1585Y-3.375
X6.5915Y-1.875
X6.5915Y-2.625
X6.5915Y-3.375
X6.9085Y-1.875
X6.9085Y-2.625
X6.9085Y-3.375
X6.9085Y-4.125
X7.3415Y-1.875
X7.3415Y-2.625
X7.3415Y-3.375
X7.3415Y-4.125
X7.6585Y-1.875
X7.6585Y-2.625
X7.6585Y-3.375
X7.6585Y-4.125
X8.0915Y-1.875
X8.0915Y-2.625
X8.0915Y-3.375
X8.0915Y-4.125
X8.4085Y-1.875
X8.4085Y-2.625
X8.4085Y-3.375
X8.4085Y-4.125
X8.8415Y-1.875
X8.8415Y-2.625
X8.8415Y-3.375
X8.8415Y-4.125
X9.1585Y-1.875
X9.1585Y-2.625
X9.1585Y-3.375
X9.1585Y-4.125
X9.5915Y-1.875
X9.5915Y-2.625
X9.5915Y-3.375
X9.5915Y-4.125
X9.9085Y-1.875
X9.9085Y-2.625
X9.9085Y-3.375
X10.3415Y-1.875
X10.3415Y-2.625
X10.3415Y-3.375
X10.6585Y-1.875
X10.6585Y-2.625
X10.6585Y-3.375
X11.0915Y-1.875
X11.0915Y-2.625
X11.0915Y-3.375
X11.4085Y-1.875
X11.4085Y-2.627
X11.4085Y-3.375
X11.8415Y-1.875
X11.8415Y-2.627
X11.8415Y-3.375
T6
X4.875Y-1.875
X4.875Y-2.625
X4.875Y-3.375
X5.625Y-1.875
X5.625Y-2.625
X5.625Y-3.375
X6.375Y-1.875
X6.375Y-2.625
X6.375Y-3.375
X7.125Y-1.875
X7.125Y-2.625
X7.125Y-3.375
X7.125Y-4.125
X7.875Y-1.875
X7.875Y-2.625
X7.875Y-3.375
X7.875Y-4.125
X8.625Y-1.875
X8.625Y-2.625
X8.625Y-3.375
X8.625Y-4.125
X9.375Y-1.875
X9.375Y-2.625
X9.375Y-3.375
X9.375Y-4.125
X10.125Y-1.875
X10.125Y-2.625
X10.125Y-3.375
X10.875Y-1.875
X10.875Y-2.625
X10.875Y-3.375
X11.625Y-1.875
X11.625Y-2.627
X11.625Y-3.375
T7
X4.875Y-1.875
X4.875Y-2.625
X4.875Y-3.375
X5.625Y-1.875
X5.625Y-2.625
X5.625Y-3.375
X6.375Y-1.875
X6.375Y-2.625
X6.375Y-3.375
X7.125Y-1.875
X7.125Y-2.625
X7.125Y-3.375
X7.125Y-4.125
X7.875Y-1.875
X7.875Y-2.625
X7.875Y-3.375
X7.875Y-4.125
X8.625Y-1.875
X8.625Y-2.625
X8.625Y-3.375
X8.625Y-4.125
X9.375Y-1.875
X9.375Y-2.625
X9.375Y-3.375
X9.375Y-4.125
X10.125Y-1.875
X10.125Y-2.625
X10.125Y-3.375
X10.875Y-1.875
X10.875Y-2.625
X10.875Y-3.375
X11.625Y-1.875
X11.625Y-2.627
X11.625Y-3.375
T8
X5.25Y-2.25
X6.75Y-3.75
X8.25Y-3.0
X9.75Y-3.75
X11.25Y-2.25
M30
