%TF.GenerationSoftware,KiCad,Pcbnew,8.0.9-8.0.9-0~ubuntu22.04.1*%
%TF.CreationDate,2025-10-12T01:46:20+08:00*%
%TF.ProjectId,macropad,6d616372-6f70-4616-942e-6b696361645f,rev?*%
%TF.SameCoordinates,Original*%
%TF.FileFunction,Soldermask,Bot*%
%TF.FilePolarity,Negative*%
%FSLAX46Y46*%
G04 Gerber Fmt 4.6, Leading zero omitted, Abs format (unit mm)*
G04 Created by KiCad (PCBNEW 8.0.9-8.0.9-0~ubuntu22.04.1) date 2025-10-12 01:46:20*
%MOMM*%
%LPD*%
G01*
G04 APERTURE LIST*
G04 Aperture macros list*
%AMRoundRect*
0 Rectangle with rounded corners*
0 $1 Rounding radius*
0 $2 $3 $4 $5 $6 $7 $8 $9 X,Y pos of 4 corners*
0 Add a 4 corners polygon primitive as box body*
4,1,4,$2,$3,$4,$5,$6,$7,$8,$9,$2,$3,0*
0 Add four circle primitives for the rounded corners*
1,1,$1+$1,$2,$3*
1,1,$1+$1,$4,$5*
1,1,$1+$1,$6,$7*
1,1,$1+$1,$8,$9*
0 Add four rect primitives between the rounded corners*
20,1,$1+$1,$2,$3,$4,$5,0*
20,1,$1+$1,$4,$5,$6,$7,0*
20,1,$1+$1,$6,$7,$8,$9,0*
20,1,$1+$1,$8,$9,$2,$3,0*%
G04 Aperture macros list end*
%ADD10R,1.700000X1.700000*%
%ADD11O,1.700000X1.700000*%
%ADD12C,1.900000*%
%ADD13C,1.750000*%
%ADD14C,3.450000*%
%ADD15C,4.000000*%
%ADD16C,2.500000*%
%ADD17C,2.200000*%
%ADD18C,5.300000*%
%ADD19C,0.750000*%
%ADD20C,0.650000*%
%ADD21O,2.100000X1.000000*%
%ADD22O,1.600000X1.000000*%
%ADD23C,0.900000*%
%ADD24RoundRect,0.225000X0.375000X-0.225000X0.375000X0.225000X-0.375000X0.225000X-0.375000X-0.225000X0*%
%ADD25RoundRect,0.225000X-0.375000X0.225000X-0.375000X-0.225000X0.375000X-0.225000X0.375000X0.225000X0*%
%ADD26RoundRect,0.225000X-0.225000X-0.375000X0.225000X-0.375000X0.225000X0.375000X-0.225000X0.375000X0*%
%ADD27RoundRect,0.150000X-0.150000X-0.275000X0.150000X-0.275000X0.150000X0.275000X-0.150000X0.275000X0*%
%ADD28RoundRect,0.175000X-0.175000X-0.225000X0.175000X-0.225000X0.175000X0.225000X-0.175000X0.225000X0*%
G04 APERTURE END LIST*
D10*
%TO.C,JSWD1*%
X118430000Y-95800000D03*
D11*
X120970000Y-95800000D03*
X123510000Y-95800000D03*
X126050000Y-95800000D03*
%TD*%
D10*
%TO.C,J2*%
X248900000Y-109275723D03*
D11*
X248900000Y-106735723D03*
%TD*%
D12*
%TO.C,SW27*%
X232625000Y-104775000D03*
D13*
X233045000Y-104775000D03*
D14*
X238125000Y-104775000D03*
D15*
X238125000Y-104775000D03*
D13*
X243205000Y-104775000D03*
D12*
X243625000Y-104775000D03*
D16*
X234315000Y-102235000D03*
D17*
X238125000Y-98875000D03*
D16*
X240665000Y-99695000D03*
D17*
X243125000Y-100975000D03*
%TD*%
D12*
%TO.C,SW20*%
X289775000Y-85725000D03*
D13*
X290195000Y-85725000D03*
D14*
X295275000Y-85725000D03*
D15*
X295275000Y-85725000D03*
D13*
X300355000Y-85725000D03*
D12*
X300775000Y-85725000D03*
D16*
X291465000Y-83185000D03*
D17*
X295275000Y-79825000D03*
D16*
X297815000Y-80645000D03*
D17*
X300275000Y-81925000D03*
%TD*%
D12*
%TO.C,SW19*%
X270725000Y-85725000D03*
D13*
X271145000Y-85725000D03*
D14*
X276225000Y-85725000D03*
D15*
X276225000Y-85725000D03*
D13*
X281305000Y-85725000D03*
D12*
X281725000Y-85725000D03*
D16*
X272415000Y-83185000D03*
D17*
X276225000Y-79825000D03*
D16*
X278765000Y-80645000D03*
D17*
X281225000Y-81925000D03*
%TD*%
D12*
%TO.C,SW33*%
X156425000Y-47625000D03*
D13*
X156845000Y-47625000D03*
D14*
X161925000Y-47625000D03*
D15*
X161925000Y-47625000D03*
D13*
X167005000Y-47625000D03*
D12*
X167425000Y-47625000D03*
D16*
X158115000Y-45085000D03*
D17*
X161925000Y-41725000D03*
D16*
X164465000Y-42545000D03*
D17*
X166925000Y-43825000D03*
%TD*%
D12*
%TO.C,SW35*%
X194525000Y-47625000D03*
D13*
X194945000Y-47625000D03*
D14*
X200025000Y-47625000D03*
D15*
X200025000Y-47625000D03*
D13*
X205105000Y-47625000D03*
D12*
X205525000Y-47625000D03*
D16*
X196215000Y-45085000D03*
D17*
X200025000Y-41725000D03*
D16*
X202565000Y-42545000D03*
D17*
X205025000Y-43825000D03*
%TD*%
D12*
%TO.C,SW12*%
X137375000Y-85725000D03*
D13*
X137795000Y-85725000D03*
D14*
X142875000Y-85725000D03*
D15*
X142875000Y-85725000D03*
D13*
X147955000Y-85725000D03*
D12*
X148375000Y-85725000D03*
D16*
X139065000Y-83185000D03*
D17*
X142875000Y-79825000D03*
D16*
X145415000Y-80645000D03*
D17*
X147875000Y-81925000D03*
%TD*%
D12*
%TO.C,SW37*%
X232625000Y-47625000D03*
D13*
X233045000Y-47625000D03*
D14*
X238125000Y-47625000D03*
D15*
X238125000Y-47625000D03*
D13*
X243205000Y-47625000D03*
D12*
X243625000Y-47625000D03*
D16*
X234315000Y-45085000D03*
D17*
X238125000Y-41725000D03*
D16*
X240665000Y-42545000D03*
D17*
X243125000Y-43825000D03*
%TD*%
D12*
%TO.C,SW26*%
X213575000Y-104775000D03*
D13*
X213995000Y-104775000D03*
D14*
X219075000Y-104775000D03*
D15*
X219075000Y-104775000D03*
D13*
X224155000Y-104775000D03*
D12*
X224575000Y-104775000D03*
D16*
X215265000Y-102235000D03*
D17*
X219075000Y-98875000D03*
D16*
X221615000Y-99695000D03*
D17*
X224075000Y-100975000D03*
%TD*%
D12*
%TO.C,SW32*%
X137375000Y-47625000D03*
D13*
X137795000Y-47625000D03*
D14*
X142875000Y-47625000D03*
D15*
X142875000Y-47625000D03*
D13*
X147955000Y-47625000D03*
D12*
X148375000Y-47625000D03*
D16*
X139065000Y-45085000D03*
D17*
X142875000Y-41725000D03*
D16*
X145415000Y-42545000D03*
D17*
X147875000Y-43825000D03*
%TD*%
D12*
%TO.C,SW15*%
X194525000Y-85725000D03*
D13*
X194945000Y-85725000D03*
D14*
X200025000Y-85725000D03*
D15*
X200025000Y-85725000D03*
D13*
X205105000Y-85725000D03*
D12*
X205525000Y-85725000D03*
D16*
X196215000Y-83185000D03*
D17*
X200025000Y-79825000D03*
D16*
X202565000Y-80645000D03*
D17*
X205025000Y-81925000D03*
%TD*%
D12*
%TO.C,SW7*%
X232625000Y-66675000D03*
D13*
X233045000Y-66675000D03*
D14*
X238125000Y-66675000D03*
D15*
X238125000Y-66675000D03*
D13*
X243205000Y-66675000D03*
D12*
X243625000Y-66675000D03*
D16*
X234315000Y-64135000D03*
D17*
X238125000Y-60775000D03*
D16*
X240665000Y-61595000D03*
D17*
X243125000Y-62875000D03*
%TD*%
D12*
%TO.C,SW34*%
X175475000Y-47625000D03*
D13*
X175895000Y-47625000D03*
D14*
X180975000Y-47625000D03*
D15*
X180975000Y-47625000D03*
D13*
X186055000Y-47625000D03*
D12*
X186475000Y-47625000D03*
D16*
X177165000Y-45085000D03*
D17*
X180975000Y-41725000D03*
D16*
X183515000Y-42545000D03*
D17*
X185975000Y-43825000D03*
%TD*%
D12*
%TO.C,SW25*%
X194525000Y-104775000D03*
D13*
X194945000Y-104775000D03*
D14*
X200025000Y-104775000D03*
D15*
X200025000Y-104775000D03*
D13*
X205105000Y-104775000D03*
D12*
X205525000Y-104775000D03*
D16*
X196215000Y-102235000D03*
D17*
X200025000Y-98875000D03*
D16*
X202565000Y-99695000D03*
D17*
X205025000Y-100975000D03*
%TD*%
D12*
%TO.C,SW38*%
X251675000Y-47625000D03*
D13*
X252095000Y-47625000D03*
D14*
X257175000Y-47625000D03*
D15*
X257175000Y-47625000D03*
D13*
X262255000Y-47625000D03*
D12*
X262675000Y-47625000D03*
D16*
X253365000Y-45085000D03*
D17*
X257175000Y-41725000D03*
D16*
X259715000Y-42545000D03*
D17*
X262175000Y-43825000D03*
%TD*%
D12*
%TO.C,SW31*%
X118325000Y-47625000D03*
D13*
X118745000Y-47625000D03*
D14*
X123825000Y-47625000D03*
D15*
X123825000Y-47625000D03*
D13*
X128905000Y-47625000D03*
D12*
X129325000Y-47625000D03*
D16*
X120015000Y-45085000D03*
D17*
X123825000Y-41725000D03*
D16*
X126365000Y-42545000D03*
D17*
X128825000Y-43825000D03*
%TD*%
D12*
%TO.C,SW13*%
X156425000Y-85725000D03*
D13*
X156845000Y-85725000D03*
D14*
X161925000Y-85725000D03*
D15*
X161925000Y-85725000D03*
D13*
X167005000Y-85725000D03*
D12*
X167425000Y-85725000D03*
D16*
X158115000Y-83185000D03*
D17*
X161925000Y-79825000D03*
D16*
X164465000Y-80645000D03*
D17*
X166925000Y-81925000D03*
%TD*%
D12*
%TO.C,SW6*%
X213575000Y-66675000D03*
D13*
X213995000Y-66675000D03*
D14*
X219075000Y-66675000D03*
D15*
X219075000Y-66675000D03*
D13*
X224155000Y-66675000D03*
D12*
X224575000Y-66675000D03*
D16*
X215265000Y-64135000D03*
D17*
X219075000Y-60775000D03*
D16*
X221615000Y-61595000D03*
D17*
X224075000Y-62875000D03*
%TD*%
D12*
%TO.C,SW2*%
X137375000Y-66675000D03*
D13*
X137795000Y-66675000D03*
D14*
X142875000Y-66675000D03*
D15*
X142875000Y-66675000D03*
D13*
X147955000Y-66675000D03*
D12*
X148375000Y-66675000D03*
D16*
X139065000Y-64135000D03*
D17*
X142875000Y-60775000D03*
D16*
X145415000Y-61595000D03*
D17*
X147875000Y-62875000D03*
%TD*%
D12*
%TO.C,SW3*%
X156425000Y-66675000D03*
D13*
X156845000Y-66675000D03*
D14*
X161925000Y-66675000D03*
D15*
X161925000Y-66675000D03*
D13*
X167005000Y-66675000D03*
D12*
X167425000Y-66675000D03*
D16*
X158115000Y-64135000D03*
D17*
X161925000Y-60775000D03*
D16*
X164465000Y-61595000D03*
D17*
X166925000Y-62875000D03*
%TD*%
D12*
%TO.C,SW11*%
X118325000Y-85725000D03*
D13*
X118745000Y-85725000D03*
D14*
X123825000Y-85725000D03*
D15*
X123825000Y-85725000D03*
D13*
X128905000Y-85725000D03*
D12*
X129325000Y-85725000D03*
D16*
X120015000Y-83185000D03*
D17*
X123825000Y-79825000D03*
D16*
X126365000Y-80645000D03*
D17*
X128825000Y-81925000D03*
%TD*%
D12*
%TO.C,SW24*%
X175475000Y-104775000D03*
D13*
X175895000Y-104775000D03*
D14*
X180975000Y-104775000D03*
D15*
X180975000Y-104775000D03*
D13*
X186055000Y-104775000D03*
D12*
X186475000Y-104775000D03*
D16*
X177165000Y-102235000D03*
D17*
X180975000Y-98875000D03*
D16*
X183515000Y-99695000D03*
D17*
X185975000Y-100975000D03*
%TD*%
D12*
%TO.C,SW1*%
X118325000Y-66675000D03*
D13*
X118745000Y-66675000D03*
D14*
X123825000Y-66675000D03*
D15*
X123825000Y-66675000D03*
D13*
X128905000Y-66675000D03*
D12*
X129325000Y-66675000D03*
D16*
X120015000Y-64135000D03*
D17*
X123825000Y-60775000D03*
D16*
X126365000Y-61595000D03*
D17*
X128825000Y-62875000D03*
%TD*%
D12*
%TO.C,SW39*%
X270725000Y-47625000D03*
D13*
X271145000Y-47625000D03*
D14*
X276225000Y-47625000D03*
D15*
X276225000Y-47625000D03*
D13*
X281305000Y-47625000D03*
D12*
X281725000Y-47625000D03*
D16*
X272415000Y-45085000D03*
D17*
X276225000Y-41725000D03*
D16*
X278765000Y-42545000D03*
D17*
X281225000Y-43825000D03*
%TD*%
D12*
%TO.C,SW4*%
X175475000Y-66675000D03*
D13*
X175895000Y-66675000D03*
D14*
X180975000Y-66675000D03*
D15*
X180975000Y-66675000D03*
D13*
X186055000Y-66675000D03*
D12*
X186475000Y-66675000D03*
D16*
X177165000Y-64135000D03*
D17*
X180975000Y-60775000D03*
D16*
X183515000Y-61595000D03*
D17*
X185975000Y-62875000D03*
%TD*%
D12*
%TO.C,SW8*%
X251675000Y-66675000D03*
D13*
X252095000Y-66675000D03*
D14*
X257175000Y-66675000D03*
D15*
X257175000Y-66675000D03*
D13*
X262255000Y-66675000D03*
D12*
X262675000Y-66675000D03*
D16*
X253365000Y-64135000D03*
D17*
X257175000Y-60775000D03*
D16*
X259715000Y-61595000D03*
D17*
X262175000Y-62875000D03*
%TD*%
D12*
%TO.C,SW5*%
X194525000Y-66675000D03*
D13*
X194945000Y-66675000D03*
D14*
X200025000Y-66675000D03*
D15*
X200025000Y-66675000D03*
D13*
X205105000Y-66675000D03*
D12*
X205525000Y-66675000D03*
D16*
X196215000Y-64135000D03*
D17*
X200025000Y-60775000D03*
D16*
X202565000Y-61595000D03*
D17*
X205025000Y-62875000D03*
%TD*%
D12*
%TO.C,SW40*%
X289775000Y-47625000D03*
D13*
X290195000Y-47625000D03*
D14*
X295275000Y-47625000D03*
D15*
X295275000Y-47625000D03*
D13*
X300355000Y-47625000D03*
D12*
X300775000Y-47625000D03*
D16*
X291465000Y-45085000D03*
D17*
X295275000Y-41725000D03*
D16*
X297815000Y-42545000D03*
D17*
X300275000Y-43825000D03*
%TD*%
D12*
%TO.C,SW10*%
X289775000Y-66725000D03*
D13*
X290195000Y-66725000D03*
D14*
X295275000Y-66725000D03*
D15*
X295275000Y-66725000D03*
D13*
X300355000Y-66725000D03*
D12*
X300775000Y-66725000D03*
D16*
X291465000Y-64185000D03*
D17*
X295275000Y-60825000D03*
D16*
X297815000Y-61645000D03*
D17*
X300275000Y-62925000D03*
%TD*%
D12*
%TO.C,SW17*%
X232625000Y-85725000D03*
D13*
X233045000Y-85725000D03*
D14*
X238125000Y-85725000D03*
D15*
X238125000Y-85725000D03*
D13*
X243205000Y-85725000D03*
D12*
X243625000Y-85725000D03*
D16*
X234315000Y-83185000D03*
D17*
X238125000Y-79825000D03*
D16*
X240665000Y-80645000D03*
D17*
X243125000Y-81925000D03*
%TD*%
D12*
%TO.C,SW16*%
X213575000Y-85725000D03*
D13*
X213995000Y-85725000D03*
D14*
X219075000Y-85725000D03*
D15*
X219075000Y-85725000D03*
D13*
X224155000Y-85725000D03*
D12*
X224575000Y-85725000D03*
D16*
X215265000Y-83185000D03*
D17*
X219075000Y-79825000D03*
D16*
X221615000Y-80645000D03*
D17*
X224075000Y-81925000D03*
%TD*%
D12*
%TO.C,SW14*%
X175475000Y-85725000D03*
D13*
X175895000Y-85725000D03*
D14*
X180975000Y-85725000D03*
D15*
X180975000Y-85725000D03*
D13*
X186055000Y-85725000D03*
D12*
X186475000Y-85725000D03*
D16*
X177165000Y-83185000D03*
D17*
X180975000Y-79825000D03*
D16*
X183515000Y-80645000D03*
D17*
X185975000Y-81925000D03*
%TD*%
D12*
%TO.C,SW18*%
X251675000Y-85725000D03*
D13*
X252095000Y-85725000D03*
D14*
X257175000Y-85725000D03*
D15*
X257175000Y-85725000D03*
D13*
X262255000Y-85725000D03*
D12*
X262675000Y-85725000D03*
D16*
X253365000Y-83185000D03*
D17*
X257175000Y-79825000D03*
D16*
X259715000Y-80645000D03*
D17*
X262175000Y-81925000D03*
%TD*%
D12*
%TO.C,SW36*%
X213575000Y-47625000D03*
D13*
X213995000Y-47625000D03*
D14*
X219075000Y-47625000D03*
D15*
X219075000Y-47625000D03*
D13*
X224155000Y-47625000D03*
D12*
X224575000Y-47625000D03*
D16*
X215265000Y-45085000D03*
D17*
X219075000Y-41725000D03*
D16*
X221615000Y-42545000D03*
D17*
X224075000Y-43825000D03*
%TD*%
D12*
%TO.C,SW9*%
X270725000Y-66675000D03*
D13*
X271145000Y-66675000D03*
D14*
X276225000Y-66675000D03*
D15*
X276225000Y-66675000D03*
D13*
X281305000Y-66675000D03*
D12*
X281725000Y-66675000D03*
D16*
X272415000Y-64135000D03*
D17*
X276225000Y-60775000D03*
D16*
X278765000Y-61595000D03*
D17*
X281225000Y-62875000D03*
%TD*%
D18*
%TO.C,H3*%
X247650000Y-95250000D03*
%TD*%
%TO.C,H4*%
X209550000Y-76200000D03*
%TD*%
%TO.C,H5*%
X133350000Y-57150000D03*
%TD*%
%TO.C,H2*%
X285750000Y-57150000D03*
%TD*%
%TO.C,H1*%
X171450000Y-95250000D03*
%TD*%
D19*
%TO.C,R_TACT1*%
X149500000Y-100625000D03*
X149500000Y-103375000D03*
%TD*%
D20*
%TO.C,J1*%
X121555000Y-100560000D03*
X121555000Y-106340000D03*
D21*
X122085000Y-99130000D03*
D22*
X117905000Y-99130000D03*
D21*
X122085000Y-107770000D03*
D22*
X117905000Y-107770000D03*
%TD*%
D23*
%TO.C,SW21*%
X165350000Y-110610000D03*
X168350000Y-110610000D03*
%TD*%
D24*
%TO.C,D23*%
X228621425Y-69400000D03*
X228621425Y-66100000D03*
%TD*%
D25*
%TO.C,D39*%
X285850000Y-67700000D03*
X285850000Y-71000000D03*
%TD*%
D24*
%TO.C,D32*%
X266450000Y-88550000D03*
X266450000Y-85250000D03*
%TD*%
%TO.C,D26*%
X247507142Y-46700000D03*
X247507142Y-50000000D03*
%TD*%
%TO.C,D24*%
X228421425Y-88550000D03*
X228421425Y-85250000D03*
%TD*%
%TO.C,D14*%
X190378571Y-46700000D03*
X190378571Y-50000000D03*
%TD*%
%TO.C,D11*%
X171428570Y-69400000D03*
X171428570Y-66100000D03*
%TD*%
%TO.C,D27*%
X247685710Y-69400000D03*
X247685710Y-66100000D03*
%TD*%
%TO.C,D7*%
X152364285Y-69400000D03*
X152364285Y-66100000D03*
%TD*%
D26*
%TO.C,D25*%
X237100000Y-95450000D03*
X240400000Y-95450000D03*
%TD*%
D24*
%TO.C,D31*%
X266750000Y-69400000D03*
X266750000Y-66100000D03*
%TD*%
D26*
%TO.C,D21*%
X217783332Y-95400000D03*
X221083332Y-95400000D03*
%TD*%
D24*
%TO.C,D28*%
X247435710Y-88550000D03*
X247435710Y-85250000D03*
%TD*%
%TO.C,D22*%
X228464285Y-46700000D03*
X228464285Y-50000000D03*
%TD*%
%TO.C,D1*%
X133250000Y-46700000D03*
X133250000Y-50000000D03*
%TD*%
%TO.C,D2*%
X133300000Y-69400000D03*
X133300000Y-66100000D03*
%TD*%
%TO.C,D20*%
X209407140Y-88550000D03*
X209407140Y-85250000D03*
%TD*%
%TO.C,D3*%
X133350000Y-88550000D03*
X133350000Y-85250000D03*
%TD*%
D26*
%TO.C,D17*%
X198466666Y-95500000D03*
X201766666Y-95500000D03*
%TD*%
D24*
%TO.C,D19*%
X209557140Y-69400000D03*
X209557140Y-66100000D03*
%TD*%
D25*
%TO.C,D38*%
X285600000Y-47450000D03*
X285600000Y-50750000D03*
%TD*%
D24*
%TO.C,D18*%
X209421428Y-46700000D03*
X209421428Y-50000000D03*
%TD*%
%TO.C,D12*%
X171378570Y-88550000D03*
X171378570Y-85250000D03*
%TD*%
%TO.C,D6*%
X152292857Y-46700000D03*
X152292857Y-50000000D03*
%TD*%
%TO.C,D16*%
X190392855Y-88550000D03*
X190392855Y-85250000D03*
%TD*%
D25*
%TO.C,D40*%
X285900000Y-86100000D03*
X285900000Y-89400000D03*
%TD*%
D27*
%TO.C,J3*%
X151800000Y-77875000D03*
X153000000Y-77875000D03*
D28*
X150650000Y-74100000D03*
X154150000Y-74100000D03*
%TD*%
D24*
%TO.C,D36*%
X285950000Y-84050000D03*
X285950000Y-80750000D03*
%TD*%
%TO.C,D35*%
X285850000Y-65700000D03*
X285850000Y-62400000D03*
%TD*%
%TO.C,D10*%
X171335714Y-46700000D03*
X171335714Y-50000000D03*
%TD*%
D26*
%TO.C,D13*%
X179150000Y-95400000D03*
X182450000Y-95400000D03*
%TD*%
D24*
%TO.C,D15*%
X190492855Y-69400000D03*
X190492855Y-66100000D03*
%TD*%
%TO.C,D34*%
X285600000Y-42150000D03*
X285600000Y-45450000D03*
%TD*%
%TO.C,D30*%
X266550000Y-50000000D03*
X266550000Y-46700000D03*
%TD*%
%TO.C,D8*%
X152300000Y-88450000D03*
X152300000Y-85150000D03*
%TD*%
M02*
