%TF.GenerationSoftware,KiCad,Pcbnew,8.0.9-8.0.9-0~ubuntu22.04.1*%
%TF.CreationDate,2025-10-12T01:46:20+08:00*%
%TF.ProjectId,macropad,6d616372-6f70-4616-942e-6b696361645f,rev?*%
%TF.SameCoordinates,Original*%
%TF.FileFunction,Legend,Bot*%
%TF.FilePolarity,Positive*%
%FSLAX46Y46*%
G04 Gerber Fmt 4.6, Leading zero omitted, Abs format (unit mm)*
G04 Created by KiCad (PCBNEW 8.0.9-8.0.9-0~ubuntu22.04.1) date 2025-10-12 01:46:20*
%MOMM*%
%LPD*%
G01*
G04 APERTURE LIST*
G04 Aperture macros list*
%AMRoundRect*
0 Rectangle with rounded corners*
0 $1 Rounding radius*
0 $2 $3 $4 $5 $6 $7 $8 $9 X,Y pos of 4 corners*
0 Add a 4 corners polygon primitive as box body*
4,1,4,$2,$3,$4,$5,$6,$7,$8,$9,$2,$3,0*
0 Add four circle primitives for the rounded corners*
1,1,$1+$1,$2,$3*
1,1,$1+$1,$4,$5*
1,1,$1+$1,$6,$7*
1,1,$1+$1,$8,$9*
0 Add four rect primitives between the rounded corners*
20,1,$1+$1,$2,$3,$4,$5,0*
20,1,$1+$1,$4,$5,$6,$7,0*
20,1,$1+$1,$6,$7,$8,$9,0*
20,1,$1+$1,$8,$9,$2,$3,0*%
G04 Aperture macros list end*
%ADD10C,0.100000*%
%ADD11C,0.000000*%
%ADD12C,0.150000*%
%ADD13C,0.120000*%
%ADD14R,1.700000X1.700000*%
%ADD15O,1.700000X1.700000*%
%ADD16C,1.900000*%
%ADD17C,1.750000*%
%ADD18C,3.450000*%
%ADD19C,4.000000*%
%ADD20C,2.500000*%
%ADD21C,2.200000*%
%ADD22C,5.300000*%
%ADD23C,0.750000*%
%ADD24C,0.650000*%
%ADD25O,2.100000X1.000000*%
%ADD26O,1.600000X1.000000*%
%ADD27C,0.900000*%
%ADD28RoundRect,0.225000X0.375000X-0.225000X0.375000X0.225000X-0.375000X0.225000X-0.375000X-0.225000X0*%
%ADD29RoundRect,0.225000X-0.375000X0.225000X-0.375000X-0.225000X0.375000X-0.225000X0.375000X0.225000X0*%
%ADD30RoundRect,0.225000X-0.225000X-0.375000X0.225000X-0.375000X0.225000X0.375000X-0.225000X0.375000X0*%
%ADD31RoundRect,0.150000X-0.150000X-0.275000X0.150000X-0.275000X0.150000X0.275000X-0.150000X0.275000X0*%
%ADD32RoundRect,0.175000X-0.175000X-0.225000X0.175000X-0.225000X0.175000X0.225000X-0.175000X0.225000X0*%
G04 APERTURE END LIST*
D10*
X154196115Y-76866466D02*
X153434211Y-76866466D01*
X150891466Y-76453884D02*
X150891466Y-77215789D01*
X151272419Y-76834836D02*
X150510514Y-76834836D01*
D11*
G36*
X182175640Y-92614684D02*
G01*
X182175518Y-92635728D01*
X182175154Y-92656791D01*
X182174554Y-92677867D01*
X182173725Y-92698949D01*
X182171402Y-92741109D01*
X182168232Y-92783221D01*
X180253712Y-92614684D01*
X180427648Y-92630024D01*
X180590716Y-92644416D01*
X180743268Y-92657888D01*
X180885653Y-92670473D01*
X181018223Y-92682199D01*
X181141328Y-92693099D01*
X181255318Y-92703202D01*
X181360544Y-92712538D01*
X181457357Y-92721139D01*
X181546107Y-92729035D01*
X181627144Y-92736257D01*
X181700820Y-92742834D01*
X181767485Y-92748798D01*
X181827489Y-92754178D01*
X181881183Y-92759007D01*
X181928917Y-92763313D01*
X181971043Y-92767128D01*
X182007910Y-92770482D01*
X182039869Y-92773405D01*
X182067271Y-92775929D01*
X182090467Y-92778083D01*
X182100596Y-92779031D01*
X182109806Y-92779899D01*
X182118139Y-92780689D01*
X182125639Y-92781406D01*
X182132351Y-92782053D01*
X182138318Y-92782635D01*
X182143584Y-92783155D01*
X182148192Y-92783617D01*
X182152187Y-92784025D01*
X182155612Y-92784382D01*
X182158512Y-92784693D01*
X182160929Y-92784962D01*
X182162908Y-92785191D01*
X182164493Y-92785385D01*
X182165727Y-92785548D01*
X182166655Y-92785683D01*
X182167319Y-92785795D01*
X182167567Y-92785843D01*
X182167765Y-92785887D01*
X182167919Y-92785926D01*
X182168035Y-92785962D01*
X182168118Y-92785995D01*
X182168174Y-92786026D01*
X182168208Y-92786054D01*
X182168225Y-92786081D01*
X182168231Y-92786107D01*
X182168232Y-92786132D01*
X182168232Y-92787986D01*
X182167172Y-92792483D01*
X182166779Y-92797046D01*
X182166386Y-92802005D01*
X182166109Y-92804633D01*
X182165869Y-92807355D01*
X182165452Y-92813052D01*
X182165038Y-92819046D01*
X182164525Y-92825289D01*
X182162956Y-92838982D01*
X182161088Y-92853865D01*
X182156857Y-92887202D01*
X182151946Y-92925121D01*
X182145944Y-92967703D01*
X182138851Y-93014749D01*
X182130665Y-93066062D01*
X182110453Y-93180766D01*
X182084293Y-93311594D01*
X182068764Y-93382605D01*
X182051488Y-93457107D01*
X182032376Y-93534921D01*
X182011341Y-93615866D01*
X181963451Y-93785630D01*
X181905896Y-93968742D01*
X181837769Y-94163493D01*
X181758160Y-94368175D01*
X181666162Y-94581081D01*
X181615233Y-94690083D01*
X181560866Y-94800500D01*
X181502947Y-94912120D01*
X181441363Y-95024727D01*
X181375999Y-95138108D01*
X181306744Y-95252051D01*
X181145628Y-95495618D01*
X180967532Y-95735564D01*
X180772093Y-95970219D01*
X180558950Y-96197915D01*
X180327741Y-96416984D01*
X180078104Y-96625757D01*
X179809679Y-96822565D01*
X179522104Y-97005741D01*
X179215016Y-97173615D01*
X178888055Y-97324520D01*
X178540858Y-97456786D01*
X178173065Y-97568745D01*
X177784313Y-97658728D01*
X177374241Y-97725068D01*
X176942487Y-97766096D01*
X176488690Y-97780142D01*
X176303864Y-97777850D01*
X176122631Y-97771044D01*
X175944968Y-97759833D01*
X175770849Y-97744326D01*
X175433154Y-97700855D01*
X175109355Y-97641497D01*
X174799262Y-97567118D01*
X174502685Y-97478584D01*
X174219434Y-97376762D01*
X173949317Y-97262519D01*
X173692146Y-97136719D01*
X173447729Y-97000229D01*
X173215877Y-96853917D01*
X172996399Y-96698647D01*
X172789105Y-96535286D01*
X172593804Y-96364700D01*
X172410307Y-96187756D01*
X172238423Y-96005320D01*
X172057320Y-96136115D01*
X171869998Y-96262501D01*
X171676140Y-96384336D01*
X171475430Y-96501476D01*
X171267552Y-96613780D01*
X171052189Y-96721105D01*
X170829025Y-96823307D01*
X170597744Y-96920245D01*
X170285399Y-97038079D01*
X169962386Y-97145662D01*
X169628344Y-97243359D01*
X169282912Y-97331537D01*
X168925729Y-97410560D01*
X168556433Y-97480793D01*
X168174664Y-97542604D01*
X167780060Y-97596356D01*
X166950903Y-97681148D01*
X166066071Y-97738094D01*
X165122675Y-97770118D01*
X164117825Y-97780142D01*
X163499243Y-97764542D01*
X162901726Y-97718602D01*
X162325180Y-97643617D01*
X161769512Y-97540879D01*
X161234627Y-97411682D01*
X160720433Y-97257318D01*
X160226836Y-97079081D01*
X159753742Y-96878265D01*
X159301057Y-96656161D01*
X158868689Y-96414064D01*
X158456542Y-96153267D01*
X158064525Y-95875063D01*
X157692543Y-95580745D01*
X157340502Y-95271606D01*
X157008309Y-94948939D01*
X156695871Y-94614039D01*
X156403093Y-94268197D01*
X156129883Y-93912707D01*
X155876146Y-93548862D01*
X155641790Y-93177955D01*
X155426719Y-92801280D01*
X155230842Y-92420130D01*
X154896291Y-91649577D01*
X154637388Y-90876640D01*
X154453384Y-90111667D01*
X154343531Y-89365002D01*
X154307080Y-88646990D01*
X158150952Y-88646990D01*
X158171931Y-89042035D01*
X158235488Y-89459204D01*
X158342555Y-89891927D01*
X158494065Y-90333634D01*
X158690949Y-90777757D01*
X158934138Y-91217725D01*
X159224565Y-91646971D01*
X159387783Y-91855519D01*
X159563160Y-92058923D01*
X159750813Y-92256362D01*
X159950857Y-92447014D01*
X160163409Y-92630058D01*
X160388586Y-92804673D01*
X160626504Y-92970038D01*
X160877280Y-93125331D01*
X161141029Y-93269732D01*
X161417870Y-93402419D01*
X161707917Y-93522572D01*
X162011287Y-93629368D01*
X162328098Y-93721987D01*
X162658464Y-93799607D01*
X163002504Y-93861408D01*
X163360333Y-93906569D01*
X163732068Y-93934267D01*
X164117825Y-93943682D01*
X164607127Y-93941151D01*
X165068449Y-93933623D01*
X165502822Y-93921199D01*
X165911275Y-93903982D01*
X166294838Y-93882073D01*
X166654542Y-93855572D01*
X166991414Y-93824580D01*
X167306487Y-93789199D01*
X167600788Y-93749530D01*
X167875348Y-93705674D01*
X168131197Y-93657732D01*
X168369364Y-93605806D01*
X168590880Y-93549996D01*
X168796774Y-93490404D01*
X168988075Y-93427131D01*
X169165814Y-93360278D01*
X169309451Y-93299564D01*
X169447366Y-93234629D01*
X169580150Y-93164925D01*
X169708396Y-93089903D01*
X169832692Y-93009012D01*
X169953631Y-92921704D01*
X170071804Y-92827430D01*
X170187801Y-92725641D01*
X170302214Y-92615787D01*
X170415633Y-92497319D01*
X170528650Y-92369688D01*
X170641856Y-92232346D01*
X170755842Y-92084742D01*
X170871198Y-91926327D01*
X170988516Y-91756553D01*
X171108387Y-91574870D01*
X171196293Y-91450023D01*
X171292707Y-91333813D01*
X171397003Y-91226489D01*
X171508554Y-91128298D01*
X171626734Y-91039488D01*
X171750917Y-90960306D01*
X171880476Y-90891001D01*
X172014785Y-90831819D01*
X172153218Y-90783009D01*
X172295149Y-90744818D01*
X172439950Y-90717494D01*
X172586996Y-90701284D01*
X172735660Y-90696436D01*
X172885317Y-90703199D01*
X173035339Y-90721818D01*
X173185101Y-90752543D01*
X173258765Y-90772288D01*
X173331141Y-90794771D01*
X173471816Y-90847697D01*
X173606694Y-90910822D01*
X173735347Y-90983645D01*
X173857345Y-91065666D01*
X173972257Y-91156385D01*
X174079655Y-91255300D01*
X174179107Y-91361913D01*
X174270185Y-91475722D01*
X174352458Y-91596227D01*
X174425497Y-91722927D01*
X174488872Y-91855323D01*
X174542153Y-91992914D01*
X174584911Y-92135200D01*
X174616715Y-92281679D01*
X174628375Y-92356336D01*
X174636233Y-92424076D01*
X174636082Y-92422595D01*
X174638989Y-92442172D01*
X174644730Y-92474629D01*
X174653372Y-92517281D01*
X174658852Y-92542081D01*
X174665142Y-92569011D01*
X174672269Y-92597932D01*
X174680264Y-92628703D01*
X174699412Y-92696357D01*
X174721835Y-92767304D01*
X174747680Y-92840868D01*
X174777097Y-92916372D01*
X174810236Y-92993143D01*
X174828247Y-93031791D01*
X174847244Y-93070502D01*
X174867247Y-93109191D01*
X174888272Y-93147774D01*
X174910340Y-93186167D01*
X174933468Y-93224284D01*
X174972672Y-93284772D01*
X175016334Y-93346504D01*
X175065158Y-93408769D01*
X175119844Y-93470858D01*
X175181094Y-93532059D01*
X175249609Y-93591664D01*
X175326091Y-93648962D01*
X175411241Y-93703243D01*
X175505761Y-93753798D01*
X175610353Y-93799915D01*
X175725718Y-93840886D01*
X175852557Y-93875999D01*
X175991573Y-93904545D01*
X176143465Y-93925815D01*
X176308937Y-93939097D01*
X176488690Y-93943682D01*
X176580371Y-93942521D01*
X176668395Y-93939097D01*
X176752851Y-93933499D01*
X176833826Y-93925815D01*
X176911408Y-93916134D01*
X176985684Y-93904545D01*
X177056742Y-93891137D01*
X177124669Y-93875999D01*
X177189554Y-93859219D01*
X177251483Y-93840886D01*
X177310545Y-93821088D01*
X177366827Y-93799915D01*
X177420416Y-93777455D01*
X177471401Y-93753798D01*
X177519869Y-93729031D01*
X177565908Y-93703243D01*
X177609605Y-93676524D01*
X177651048Y-93648962D01*
X177690324Y-93620646D01*
X177727521Y-93591664D01*
X177762728Y-93562106D01*
X177796031Y-93532059D01*
X177827518Y-93501614D01*
X177857276Y-93470858D01*
X177911959Y-93408769D01*
X177960781Y-93346504D01*
X178004442Y-93284772D01*
X178043644Y-93224284D01*
X178066816Y-93186167D01*
X178088916Y-93147774D01*
X178109964Y-93109191D01*
X178129982Y-93070502D01*
X178148989Y-93031791D01*
X178167005Y-92993143D01*
X178200145Y-92916372D01*
X178229565Y-92840868D01*
X178255424Y-92767304D01*
X178277885Y-92696357D01*
X178297108Y-92628703D01*
X178303244Y-92604717D01*
X178308778Y-92581819D01*
X178313753Y-92560081D01*
X178318213Y-92539573D01*
X178325763Y-92502536D01*
X178331776Y-92471278D01*
X178331776Y-57478598D01*
X178331492Y-57419565D01*
X178330666Y-57364881D01*
X178329341Y-57314363D01*
X178327559Y-57267829D01*
X178325361Y-57225099D01*
X178322790Y-57185990D01*
X178319887Y-57150321D01*
X178316694Y-57117909D01*
X178313252Y-57088573D01*
X178309605Y-57062132D01*
X178305793Y-57038403D01*
X178301859Y-57017206D01*
X178297844Y-56998357D01*
X178293790Y-56981676D01*
X178289739Y-56966980D01*
X178285733Y-56954089D01*
X178266187Y-56896741D01*
X178244835Y-56838227D01*
X178221650Y-56778774D01*
X178196606Y-56718610D01*
X178169676Y-56657962D01*
X178140835Y-56597057D01*
X178110056Y-56536125D01*
X178077312Y-56475391D01*
X178042578Y-56415084D01*
X178005826Y-56355432D01*
X177967032Y-56296661D01*
X177926168Y-56238999D01*
X177883208Y-56182675D01*
X177838126Y-56127915D01*
X177790895Y-56074947D01*
X177741490Y-56023999D01*
X177698318Y-55982910D01*
X177651848Y-55941996D01*
X177601786Y-55901597D01*
X177547836Y-55862058D01*
X177489701Y-55823719D01*
X177427086Y-55786923D01*
X177359695Y-55752012D01*
X177287233Y-55719328D01*
X177209404Y-55689214D01*
X177125911Y-55662011D01*
X177036460Y-55638062D01*
X176940755Y-55617709D01*
X176838500Y-55601295D01*
X176729398Y-55589161D01*
X176613156Y-55581649D01*
X176489476Y-55579102D01*
X176427849Y-55579757D01*
X176368060Y-55581646D01*
X176310074Y-55584726D01*
X176253854Y-55588957D01*
X176199367Y-55594298D01*
X176146577Y-55600707D01*
X176095448Y-55608143D01*
X176045946Y-55616564D01*
X175998035Y-55625930D01*
X175951680Y-55636200D01*
X175906846Y-55647331D01*
X175863499Y-55659283D01*
X175781120Y-55685484D01*
X175704262Y-55714473D01*
X175632645Y-55745920D01*
X175565986Y-55779494D01*
X175504004Y-55814867D01*
X175446418Y-55851707D01*
X175392947Y-55889685D01*
X175343309Y-55928471D01*
X175297222Y-55967734D01*
X175254406Y-56007145D01*
X175205807Y-56055611D01*
X175159213Y-56106085D01*
X175114604Y-56158369D01*
X175071958Y-56212266D01*
X175031252Y-56267577D01*
X174992467Y-56324105D01*
X174955578Y-56381653D01*
X174920566Y-56440023D01*
X174887408Y-56499018D01*
X174856082Y-56558439D01*
X174826568Y-56618090D01*
X174798842Y-56677772D01*
X174772883Y-56737288D01*
X174748671Y-56796441D01*
X174726182Y-56855033D01*
X174705395Y-56912867D01*
X174693851Y-56950567D01*
X174682839Y-56997054D01*
X174672670Y-57053939D01*
X174663655Y-57122833D01*
X174656103Y-57205348D01*
X174650324Y-57303094D01*
X174646629Y-57417682D01*
X174645329Y-57550724D01*
X174645329Y-65203029D01*
X174642817Y-65301096D01*
X174635332Y-65398450D01*
X174622946Y-65494922D01*
X174605733Y-65590341D01*
X174583767Y-65684535D01*
X174557121Y-65777336D01*
X174525870Y-65868571D01*
X174490086Y-65958071D01*
X174449844Y-66045664D01*
X174405217Y-66131181D01*
X174356279Y-66214450D01*
X174303103Y-66295301D01*
X174245763Y-66373564D01*
X174184333Y-66449067D01*
X174118886Y-66521640D01*
X174049496Y-66591113D01*
X173976639Y-66656972D01*
X173900862Y-66718745D01*
X173822342Y-66776368D01*
X173741254Y-66829776D01*
X173657772Y-66878904D01*
X173572071Y-66923689D01*
X173484327Y-66964066D01*
X173394716Y-66999970D01*
X173303411Y-67031337D01*
X173210589Y-67058103D01*
X173116424Y-67080202D01*
X173021091Y-67097571D01*
X172924766Y-67110145D01*
X172827624Y-67117860D01*
X172729840Y-67120651D01*
X172631588Y-67118454D01*
X172104471Y-67084045D01*
X171544198Y-67032038D01*
X170958991Y-66966280D01*
X170357068Y-66890618D01*
X167946614Y-66565845D01*
X167333312Y-66491928D01*
X166737680Y-66428688D01*
X166161613Y-66378117D01*
X165607005Y-66342209D01*
X165075750Y-66322956D01*
X164569745Y-66322351D01*
X164326802Y-66329664D01*
X164090882Y-66342386D01*
X163862221Y-66360767D01*
X163641056Y-66385055D01*
X163377097Y-66424881D01*
X163118690Y-66477065D01*
X162866023Y-66541257D01*
X162619281Y-66617107D01*
X162378648Y-66704266D01*
X162144310Y-66802386D01*
X161916453Y-66911115D01*
X161695261Y-67030105D01*
X161480919Y-67159006D01*
X161273614Y-67297468D01*
X161073530Y-67445144D01*
X160880852Y-67601682D01*
X160695767Y-67766733D01*
X160518458Y-67939948D01*
X160349111Y-68120977D01*
X160187912Y-68309472D01*
X160035046Y-68505082D01*
X159890698Y-68707458D01*
X159755054Y-68916250D01*
X159628298Y-69131110D01*
X159510615Y-69351687D01*
X159402192Y-69577632D01*
X159303214Y-69808596D01*
X159213865Y-70044228D01*
X159134330Y-70284181D01*
X159064796Y-70528104D01*
X159005448Y-70775648D01*
X158956470Y-71026462D01*
X158918048Y-71280199D01*
X158890367Y-71536508D01*
X158873613Y-71795040D01*
X158867970Y-72055445D01*
X158878509Y-72357889D01*
X158909473Y-72656187D01*
X158959877Y-72950547D01*
X159028741Y-73241177D01*
X159115081Y-73528288D01*
X159217915Y-73812086D01*
X159336260Y-74092782D01*
X159469134Y-74370583D01*
X159615554Y-74645698D01*
X159774539Y-74918336D01*
X159945105Y-75188706D01*
X160126269Y-75457016D01*
X160317050Y-75723475D01*
X160516466Y-75988292D01*
X160723532Y-76251675D01*
X160937268Y-76513833D01*
X161126784Y-76739292D01*
X161332701Y-76979883D01*
X161767073Y-77484918D01*
X161982196Y-77738593D01*
X162187057Y-77985860D01*
X162374989Y-78221335D01*
X162539326Y-78439631D01*
X162622048Y-78556422D01*
X162710018Y-78687165D01*
X162800475Y-78831030D01*
X162890656Y-78987186D01*
X162934780Y-79069613D01*
X162977799Y-79154801D01*
X163019367Y-79242647D01*
X163059140Y-79333046D01*
X163096773Y-79425894D01*
X163131919Y-79521088D01*
X163164233Y-79618523D01*
X163193371Y-79718096D01*
X163223689Y-79840938D01*
X163248734Y-79968880D01*
X163267871Y-80101360D01*
X163280467Y-80237817D01*
X163285886Y-80377689D01*
X163283494Y-80520415D01*
X163272657Y-80665433D01*
X163252740Y-80812181D01*
X163223109Y-80960099D01*
X163183130Y-81108624D01*
X163132167Y-81257194D01*
X163069587Y-81405249D01*
X162994755Y-81552226D01*
X162907037Y-81697565D01*
X162805798Y-81840702D01*
X162749910Y-81911271D01*
X162690403Y-81981078D01*
X161486647Y-83288979D01*
X161110713Y-83708724D01*
X160718021Y-84162452D01*
X160315190Y-84648599D01*
X159908841Y-85165602D01*
X159714549Y-85424451D01*
X159527327Y-85683070D01*
X159348019Y-85940858D01*
X159177466Y-86197213D01*
X159016513Y-86451535D01*
X158866002Y-86703221D01*
X158726778Y-86951670D01*
X158599682Y-87196280D01*
X158539838Y-87319266D01*
X158484925Y-87437902D01*
X158434794Y-87552195D01*
X158389297Y-87662157D01*
X158348287Y-87767794D01*
X158311616Y-87869117D01*
X158279135Y-87966134D01*
X158250697Y-88058854D01*
X158226153Y-88147286D01*
X158205355Y-88231439D01*
X158188155Y-88311321D01*
X158174406Y-88386942D01*
X158163959Y-88458311D01*
X158156667Y-88525436D01*
X158152380Y-88588326D01*
X158150952Y-88646990D01*
X154307080Y-88646990D01*
X154311595Y-88433631D01*
X154324825Y-88221510D01*
X154346292Y-88010819D01*
X154375520Y-87801747D01*
X154412033Y-87594486D01*
X154455355Y-87389226D01*
X154505008Y-87186159D01*
X154560518Y-86985474D01*
X154621407Y-86787362D01*
X154687199Y-86592015D01*
X154757418Y-86399623D01*
X154831588Y-86210376D01*
X154909232Y-86024465D01*
X154989874Y-85842081D01*
X155158246Y-85488658D01*
X155340871Y-85137048D01*
X155535338Y-84789630D01*
X155739870Y-84447271D01*
X155952690Y-84110841D01*
X156172020Y-83781208D01*
X156396086Y-83459239D01*
X156623110Y-83145802D01*
X156851315Y-82841767D01*
X157140665Y-82470250D01*
X157434270Y-82106759D01*
X157728297Y-81753941D01*
X158018915Y-81414440D01*
X158302290Y-81090901D01*
X158574590Y-80785968D01*
X159070637Y-80242501D01*
X158602556Y-79698517D01*
X158311946Y-79359429D01*
X157975521Y-78958478D01*
X157494256Y-78359752D01*
X156993542Y-77682194D01*
X156743946Y-77314379D01*
X156499152Y-76927485D01*
X156262383Y-76521723D01*
X156036859Y-76097304D01*
X155825802Y-75654436D01*
X155632435Y-75193329D01*
X155459977Y-74714195D01*
X155311651Y-74217242D01*
X155190679Y-73702681D01*
X155100282Y-73170721D01*
X155043681Y-72621572D01*
X155024098Y-72055445D01*
X155033123Y-71640559D01*
X155060059Y-71226430D01*
X155104697Y-70813749D01*
X155166828Y-70403205D01*
X155246244Y-69995490D01*
X155342734Y-69591293D01*
X155456092Y-69191304D01*
X155586106Y-68796214D01*
X155732570Y-68406714D01*
X155895273Y-68023494D01*
X156074007Y-67647243D01*
X156268562Y-67278652D01*
X156478731Y-66918413D01*
X156704304Y-66567214D01*
X156945072Y-66225746D01*
X157200826Y-65894699D01*
X157471358Y-65574765D01*
X157756458Y-65266632D01*
X158055918Y-64970992D01*
X158369528Y-64688535D01*
X158697080Y-64419951D01*
X159038365Y-64165930D01*
X159393174Y-63927163D01*
X159761298Y-63704340D01*
X160142529Y-63498151D01*
X160536656Y-63309287D01*
X160943472Y-63138437D01*
X161362767Y-62986293D01*
X161794333Y-62853544D01*
X162237961Y-62740882D01*
X162693441Y-62648995D01*
X163160565Y-62578575D01*
X163479504Y-62543336D01*
X163803130Y-62516807D01*
X164130736Y-62498451D01*
X164461616Y-62487730D01*
X165130365Y-62487050D01*
X165803719Y-62510474D01*
X166476018Y-62553708D01*
X167141605Y-62612459D01*
X167794820Y-62682434D01*
X168430005Y-62759338D01*
X169067135Y-62842274D01*
X169674375Y-62924626D01*
X170801472Y-63078743D01*
X170801472Y-57550724D01*
X170802902Y-57362361D01*
X170808797Y-57155565D01*
X170821563Y-56932675D01*
X170843605Y-56696031D01*
X170858857Y-56573282D01*
X170877331Y-56447973D01*
X170899327Y-56320395D01*
X170925146Y-56190841D01*
X170955088Y-56059603D01*
X170989455Y-55926975D01*
X171028548Y-55793248D01*
X171072667Y-55658715D01*
X171166075Y-55405802D01*
X171282568Y-55127576D01*
X171350204Y-54980689D01*
X171424492Y-54829537D01*
X171505724Y-54674807D01*
X171594194Y-54517187D01*
X171690195Y-54357365D01*
X171794021Y-54196028D01*
X171905966Y-54033864D01*
X172026322Y-53871560D01*
X172155383Y-53709805D01*
X172293442Y-53549285D01*
X172440793Y-53390688D01*
X172597729Y-53234703D01*
X172772505Y-53075102D01*
X172956237Y-52921740D01*
X173148959Y-52775176D01*
X173350705Y-52635969D01*
X173561508Y-52504678D01*
X173781402Y-52381860D01*
X174010418Y-52268076D01*
X174248592Y-52163882D01*
X174495956Y-52069838D01*
X174752543Y-51986502D01*
X175018387Y-51914434D01*
X175293522Y-51854190D01*
X175577980Y-51806331D01*
X175871795Y-51771415D01*
X176175000Y-51750000D01*
X176487629Y-51742645D01*
X176808633Y-51750127D01*
X177119609Y-51772431D01*
X177420600Y-51808940D01*
X177711648Y-51859041D01*
X177992796Y-51922118D01*
X178264086Y-51997556D01*
X178525562Y-52084740D01*
X178777265Y-52183056D01*
X179019239Y-52291888D01*
X179251526Y-52410622D01*
X179474169Y-52538643D01*
X179687210Y-52675335D01*
X179890692Y-52820084D01*
X180084658Y-52972275D01*
X180269150Y-53131293D01*
X180444210Y-53296523D01*
X180600655Y-53457349D01*
X180747241Y-53620644D01*
X180884278Y-53785677D01*
X181012079Y-53951718D01*
X181130953Y-54118038D01*
X181241211Y-54283905D01*
X181343164Y-54448590D01*
X181437124Y-54611362D01*
X181523400Y-54771491D01*
X181602304Y-54928248D01*
X181674146Y-55080901D01*
X181739238Y-55228721D01*
X181797890Y-55370977D01*
X181850412Y-55506939D01*
X181938313Y-55757061D01*
X181976645Y-55880101D01*
X182010650Y-56002224D01*
X182040584Y-56123184D01*
X182066702Y-56242738D01*
X182089261Y-56360639D01*
X182108516Y-56476644D01*
X182124723Y-56590508D01*
X182138138Y-56701987D01*
X182157615Y-56916811D01*
X182168994Y-57119158D01*
X182174320Y-57307073D01*
X182175640Y-57478598D01*
X182175640Y-92614684D01*
G37*
G36*
X219716179Y-51743758D02*
G01*
X219777689Y-51747030D01*
X219838646Y-51752360D01*
X219899037Y-51759647D01*
X219958844Y-51768789D01*
X220018053Y-51779686D01*
X220076648Y-51792235D01*
X220134614Y-51806336D01*
X220192656Y-51792235D01*
X220251287Y-51779686D01*
X220310501Y-51768789D01*
X220370293Y-51759647D01*
X220430654Y-51752360D01*
X220491581Y-51747030D01*
X220553065Y-51743758D01*
X220615101Y-51742645D01*
X254249685Y-51742645D01*
X254348589Y-51745141D01*
X254446196Y-51752548D01*
X254542383Y-51764747D01*
X254637030Y-51781616D01*
X254730016Y-51803035D01*
X254821221Y-51828884D01*
X254910524Y-51859042D01*
X254997804Y-51893389D01*
X255082940Y-51931803D01*
X255165812Y-51974165D01*
X255246298Y-52020353D01*
X255324278Y-52070248D01*
X255399632Y-52123729D01*
X255472238Y-52180675D01*
X255541976Y-52240966D01*
X255608725Y-52304481D01*
X255672364Y-52371100D01*
X255732773Y-52440702D01*
X255789830Y-52513167D01*
X255843415Y-52588374D01*
X255893407Y-52666202D01*
X255939686Y-52746532D01*
X255982130Y-52829242D01*
X256020620Y-52914212D01*
X256055033Y-53001322D01*
X256085250Y-53090451D01*
X256111149Y-53181478D01*
X256132610Y-53274283D01*
X256149513Y-53368746D01*
X256161735Y-53464746D01*
X256169157Y-53562161D01*
X256171658Y-53660873D01*
X256169157Y-53759586D01*
X256161735Y-53857002D01*
X256149513Y-53953003D01*
X256132610Y-54047466D01*
X256111149Y-54140272D01*
X256085250Y-54231299D01*
X256055033Y-54320428D01*
X256020620Y-54407538D01*
X255982131Y-54492509D01*
X255939686Y-54575219D01*
X255893408Y-54655549D01*
X255843415Y-54733377D01*
X255789830Y-54808584D01*
X255732773Y-54881049D01*
X255672364Y-54950651D01*
X255608725Y-55017269D01*
X255541976Y-55080784D01*
X255472238Y-55141075D01*
X255399632Y-55198021D01*
X255324278Y-55251501D01*
X255246298Y-55301396D01*
X255165812Y-55347584D01*
X255082940Y-55389946D01*
X254997804Y-55428360D01*
X254910524Y-55462706D01*
X254821221Y-55492863D01*
X254730016Y-55518712D01*
X254637030Y-55540131D01*
X254542383Y-55557000D01*
X254446196Y-55569199D01*
X254348589Y-55576606D01*
X254249685Y-55579102D01*
X222556878Y-55579102D01*
X222694657Y-59211016D01*
X222962302Y-62799420D01*
X223355284Y-66319137D01*
X223869078Y-69744990D01*
X224169864Y-71414849D01*
X224499156Y-73051801D01*
X224856387Y-74652698D01*
X225240992Y-76214393D01*
X225652404Y-77733740D01*
X226090058Y-79207590D01*
X226553388Y-80632798D01*
X227041829Y-82006215D01*
X227312134Y-82715777D01*
X227588351Y-83406868D01*
X227870321Y-84079168D01*
X228157884Y-84732356D01*
X228450878Y-85366114D01*
X228749144Y-85980120D01*
X229052522Y-86574054D01*
X229360852Y-87147596D01*
X229673973Y-87700427D01*
X229991724Y-88232225D01*
X230313947Y-88742672D01*
X230640481Y-89231446D01*
X230971165Y-89698227D01*
X231305840Y-90142696D01*
X231644344Y-90564532D01*
X231986519Y-90963416D01*
X232329317Y-91336109D01*
X232672087Y-91682477D01*
X233014764Y-92002834D01*
X233357287Y-92297495D01*
X233699590Y-92566775D01*
X234041613Y-92810988D01*
X234383290Y-93030448D01*
X234724558Y-93225472D01*
X235065355Y-93396372D01*
X235405617Y-93543466D01*
X235745281Y-93667065D01*
X236084283Y-93767487D01*
X236422561Y-93845044D01*
X236760050Y-93900053D01*
X237096688Y-93932827D01*
X237432412Y-93943682D01*
X237812009Y-93934924D01*
X238189405Y-93908859D01*
X238564503Y-93865801D01*
X238937209Y-93806062D01*
X239307428Y-93729957D01*
X239675065Y-93637799D01*
X240040027Y-93529902D01*
X240402218Y-93406579D01*
X240761543Y-93268143D01*
X241117909Y-93114909D01*
X241821380Y-92765299D01*
X242511874Y-92360257D01*
X243188633Y-91902291D01*
X243850901Y-91393909D01*
X244497919Y-90837620D01*
X245128929Y-90235932D01*
X245743175Y-89591354D01*
X246339898Y-88906393D01*
X246918341Y-88183559D01*
X247477747Y-87425359D01*
X248017358Y-86634303D01*
X248528091Y-85826074D01*
X249008042Y-85007067D01*
X249456912Y-84181482D01*
X249874403Y-83353518D01*
X250260215Y-82527377D01*
X250614048Y-81707259D01*
X250935603Y-80897363D01*
X251224581Y-80101891D01*
X251480683Y-79325043D01*
X251703609Y-78571018D01*
X251893060Y-77844018D01*
X252048737Y-77148243D01*
X252170339Y-76487892D01*
X252257569Y-75867167D01*
X252310126Y-75290267D01*
X252327712Y-74761393D01*
X252330213Y-74662681D01*
X252337635Y-74565264D01*
X252349858Y-74469264D01*
X252366760Y-74374801D01*
X252388221Y-74281995D01*
X252414121Y-74190967D01*
X252444338Y-74101838D01*
X252478751Y-74014728D01*
X252517241Y-73929757D01*
X252559685Y-73847047D01*
X252605964Y-73766717D01*
X252655957Y-73688889D01*
X252709542Y-73613682D01*
X252766600Y-73541217D01*
X252827009Y-73471615D01*
X252890648Y-73404997D01*
X252957397Y-73341482D01*
X253027135Y-73281191D01*
X253099741Y-73224245D01*
X253175095Y-73170764D01*
X253253076Y-73120870D01*
X253333562Y-73074681D01*
X253416434Y-73032320D01*
X253501570Y-72993906D01*
X253588849Y-72959560D01*
X253678152Y-72929402D01*
X253769357Y-72903554D01*
X253862343Y-72882134D01*
X253956989Y-72865265D01*
X254053176Y-72853067D01*
X254150781Y-72845659D01*
X254249685Y-72843163D01*
X254348589Y-72845659D01*
X254446196Y-72853067D01*
X254542383Y-72865265D01*
X254637030Y-72882134D01*
X254730016Y-72903554D01*
X254821221Y-72929402D01*
X254910524Y-72959560D01*
X254997804Y-72993906D01*
X255082940Y-73032320D01*
X255165812Y-73074681D01*
X255246298Y-73120870D01*
X255324278Y-73170764D01*
X255399632Y-73224245D01*
X255472238Y-73281191D01*
X255541976Y-73341482D01*
X255608725Y-73404997D01*
X255672364Y-73471615D01*
X255732773Y-73541217D01*
X255789830Y-73613682D01*
X255843415Y-73688889D01*
X255893408Y-73766717D01*
X255939686Y-73847047D01*
X255982131Y-73929757D01*
X256020620Y-74014728D01*
X256055033Y-74101838D01*
X256085250Y-74190967D01*
X256111149Y-74281995D01*
X256132610Y-74374801D01*
X256149513Y-74469264D01*
X256161735Y-74565264D01*
X256169157Y-74662681D01*
X256171658Y-74761393D01*
X256150033Y-75467442D01*
X256085779Y-76215886D01*
X255979829Y-77002422D01*
X255833116Y-77822750D01*
X255646572Y-78672570D01*
X255421130Y-79547580D01*
X255157723Y-80443479D01*
X254857284Y-81355967D01*
X254520745Y-82280743D01*
X254149039Y-83213505D01*
X253743098Y-84149953D01*
X253303855Y-85085786D01*
X252832244Y-86016703D01*
X252329196Y-86938403D01*
X251795645Y-87846585D01*
X251232522Y-88736949D01*
X250639137Y-89607342D01*
X250007654Y-90465003D01*
X249338548Y-91303940D01*
X248632293Y-92118162D01*
X247889366Y-92901678D01*
X247110238Y-93648495D01*
X246295387Y-94352623D01*
X245445285Y-95008070D01*
X244560407Y-95608844D01*
X243641229Y-96148954D01*
X242688224Y-96622408D01*
X241701867Y-97023215D01*
X241196330Y-97194504D01*
X240682633Y-97345384D01*
X240160835Y-97475106D01*
X239630996Y-97582922D01*
X239093175Y-97668082D01*
X238547431Y-97729839D01*
X237993823Y-97767442D01*
X237432412Y-97780142D01*
X236827137Y-97760249D01*
X236232778Y-97701421D01*
X235649425Y-97604941D01*
X235077171Y-97472089D01*
X234516107Y-97304146D01*
X233966326Y-97102393D01*
X233427920Y-96868111D01*
X232900980Y-96602581D01*
X232385598Y-96307084D01*
X231881867Y-95982900D01*
X231389878Y-95631311D01*
X230909723Y-95253598D01*
X230441494Y-94851042D01*
X229985283Y-94424923D01*
X229541183Y-93976522D01*
X229109284Y-93507121D01*
X228689073Y-93017541D01*
X228277650Y-92505504D01*
X227875012Y-91971657D01*
X227481153Y-91416649D01*
X227096069Y-90841127D01*
X226719754Y-90245739D01*
X226352205Y-89631135D01*
X225993417Y-88997960D01*
X225643385Y-88346865D01*
X225302104Y-87678496D01*
X224645779Y-86292529D01*
X224024403Y-84845246D01*
X223437939Y-83341830D01*
X222915919Y-81874377D01*
X222422019Y-80356020D01*
X221520376Y-77179628D01*
X220736612Y-73838727D01*
X220074325Y-70359388D01*
X219537115Y-66767684D01*
X219128584Y-63089687D01*
X218852329Y-59351469D01*
X218711953Y-55579102D01*
X188921460Y-55579102D01*
X189055327Y-59213103D01*
X189315480Y-62803629D01*
X189697512Y-66325490D01*
X190197013Y-69753496D01*
X190809573Y-73062455D01*
X191156873Y-74664420D01*
X191530785Y-76227177D01*
X191930757Y-77747577D01*
X192356239Y-79222471D01*
X192806678Y-80648710D01*
X193281525Y-82023146D01*
X193544348Y-82733369D01*
X193812905Y-83425055D01*
X194087037Y-84097884D01*
X194366586Y-84751538D01*
X194651396Y-85385699D01*
X194941309Y-86000048D01*
X195236165Y-86594266D01*
X195535809Y-87168035D01*
X195840082Y-87721037D01*
X196148826Y-88252952D01*
X196461884Y-88763462D01*
X196779098Y-89252249D01*
X197100310Y-89718994D01*
X197425362Y-90163378D01*
X197754097Y-90585083D01*
X198086358Y-90983790D01*
X198419504Y-91356647D01*
X198752147Y-91702660D01*
X199084217Y-92022212D01*
X199415645Y-92315690D01*
X199746362Y-92583478D01*
X200076297Y-92825961D01*
X200405383Y-93043524D01*
X200733548Y-93236551D01*
X201060724Y-93405428D01*
X201386842Y-93550540D01*
X201711832Y-93672270D01*
X202035624Y-93771005D01*
X202358150Y-93847129D01*
X202679340Y-93901026D01*
X202999124Y-93933082D01*
X203317433Y-93943682D01*
X203828211Y-93926786D01*
X204335190Y-93876549D01*
X204838179Y-93793652D01*
X205336988Y-93678773D01*
X205831426Y-93532592D01*
X206321304Y-93355789D01*
X206806431Y-93149043D01*
X207286616Y-92913033D01*
X207761670Y-92648438D01*
X208231402Y-92355939D01*
X208695623Y-92036214D01*
X209154140Y-91689943D01*
X209606765Y-91317805D01*
X210053307Y-90920480D01*
X210493575Y-90498647D01*
X210927380Y-90052985D01*
X211351272Y-89587592D01*
X211764224Y-89104559D01*
X212165964Y-88605274D01*
X212556218Y-88091128D01*
X212934713Y-87563512D01*
X213301176Y-87023816D01*
X213655333Y-86473430D01*
X213996911Y-85913744D01*
X214325638Y-85346148D01*
X214641240Y-84772033D01*
X214943442Y-84192789D01*
X215231974Y-83609806D01*
X215506560Y-83024474D01*
X215766928Y-82438184D01*
X216012804Y-81852326D01*
X216243916Y-81268290D01*
X216391906Y-80874372D01*
X216532430Y-80483702D01*
X216665437Y-80096753D01*
X216790879Y-79713996D01*
X216908706Y-79335902D01*
X217018868Y-78962943D01*
X217121316Y-78595589D01*
X217216000Y-78234313D01*
X217242707Y-78139246D01*
X217273866Y-78046639D01*
X217309329Y-77956577D01*
X217348950Y-77869150D01*
X217392583Y-77784443D01*
X217440081Y-77702545D01*
X217491296Y-77623544D01*
X217546083Y-77547525D01*
X217604294Y-77474578D01*
X217665784Y-77404788D01*
X217730404Y-77338245D01*
X217798009Y-77275034D01*
X217868452Y-77215244D01*
X217941586Y-77158962D01*
X218017265Y-77106276D01*
X218095341Y-77057272D01*
X218175668Y-77012038D01*
X218258099Y-76970662D01*
X218342488Y-76933232D01*
X218428689Y-76899833D01*
X218516553Y-76870555D01*
X218605935Y-76845484D01*
X218696688Y-76824707D01*
X218788665Y-76808313D01*
X218881719Y-76796389D01*
X218975704Y-76789021D01*
X219070473Y-76786298D01*
X219165880Y-76788307D01*
X219261777Y-76795135D01*
X219358018Y-76806870D01*
X219454457Y-76823599D01*
X219550946Y-76845410D01*
X219646184Y-76872061D01*
X219738960Y-76903156D01*
X219829186Y-76938548D01*
X219916774Y-76978091D01*
X220001637Y-77021638D01*
X220083686Y-77069043D01*
X220162835Y-77120159D01*
X220238996Y-77174840D01*
X220312081Y-77232940D01*
X220382002Y-77294310D01*
X220448673Y-77358807D01*
X220512005Y-77426282D01*
X220571911Y-77496589D01*
X220628303Y-77569582D01*
X220681094Y-77645114D01*
X220730196Y-77723039D01*
X220775521Y-77803210D01*
X220816982Y-77885480D01*
X220854491Y-77969704D01*
X220887962Y-78055735D01*
X220917305Y-78143426D01*
X220942434Y-78232631D01*
X220963260Y-78323202D01*
X220979697Y-78414995D01*
X220991657Y-78507862D01*
X220999052Y-78601656D01*
X221001794Y-78696232D01*
X220999797Y-78791442D01*
X220992971Y-78887140D01*
X220981231Y-78983181D01*
X220964488Y-79079416D01*
X220942654Y-79175700D01*
X220832748Y-79594803D01*
X220714434Y-80018936D01*
X220587810Y-80447595D01*
X220452976Y-80880279D01*
X220310031Y-81316485D01*
X220159074Y-81755711D01*
X220000204Y-82197455D01*
X219833519Y-82641213D01*
X219576801Y-83290191D01*
X219302738Y-83943738D01*
X219011482Y-84600256D01*
X218703183Y-85258150D01*
X218377990Y-85915824D01*
X218036053Y-86571681D01*
X217677523Y-87224126D01*
X217302549Y-87871563D01*
X216911282Y-88512396D01*
X216503871Y-89145028D01*
X216080467Y-89767864D01*
X215641219Y-90379308D01*
X215186277Y-90977762D01*
X214715792Y-91561633D01*
X214229913Y-92129323D01*
X213728791Y-92679236D01*
X213211763Y-93210389D01*
X212675840Y-93723998D01*
X212121252Y-94217755D01*
X211548227Y-94689353D01*
X210956996Y-95136484D01*
X210347788Y-95556840D01*
X209720832Y-95948115D01*
X209076358Y-96308000D01*
X208414595Y-96634188D01*
X207735772Y-96924371D01*
X207040119Y-97176242D01*
X206327865Y-97387492D01*
X205599240Y-97555815D01*
X204854474Y-97678903D01*
X204093795Y-97754448D01*
X203317433Y-97780142D01*
X203018120Y-97775076D01*
X202721601Y-97759991D01*
X202427885Y-97735054D01*
X202136983Y-97700437D01*
X201563658Y-97602832D01*
X201001703Y-97468529D01*
X200451194Y-97298879D01*
X199912211Y-97095234D01*
X199384829Y-96858947D01*
X198869128Y-96591368D01*
X198365184Y-96293850D01*
X197873075Y-95967745D01*
X197392879Y-95614404D01*
X196924672Y-95235179D01*
X196468534Y-94831423D01*
X196024540Y-94404487D01*
X195592769Y-93955723D01*
X195173298Y-93486483D01*
X194764940Y-92996779D01*
X194365164Y-92484667D01*
X193973962Y-91950795D01*
X193591329Y-91395811D01*
X193217255Y-90820364D01*
X192851736Y-90225100D01*
X192494763Y-89610669D01*
X192146330Y-88977718D01*
X191806430Y-88326896D01*
X191475056Y-87658849D01*
X190837857Y-86273677D01*
X190234678Y-84827386D01*
X189665463Y-83325160D01*
X189127476Y-81763901D01*
X188620356Y-80145331D01*
X188144632Y-78473365D01*
X187700835Y-76751920D01*
X186911141Y-73176260D01*
X186255517Y-69449685D01*
X185738204Y-65603525D01*
X185363443Y-61669115D01*
X185135476Y-57677787D01*
X185058545Y-53660873D01*
X185061046Y-53562161D01*
X185068470Y-53464746D01*
X185080695Y-53368746D01*
X185097601Y-53274283D01*
X185119066Y-53181478D01*
X185144971Y-53090451D01*
X185175193Y-53001322D01*
X185209613Y-52914212D01*
X185248109Y-52829242D01*
X185290562Y-52746532D01*
X185336848Y-52666202D01*
X185386849Y-52588374D01*
X185440444Y-52513167D01*
X185497510Y-52440702D01*
X185557928Y-52371100D01*
X185621577Y-52304481D01*
X185688335Y-52240966D01*
X185758083Y-52180675D01*
X185830699Y-52123729D01*
X185906062Y-52070248D01*
X185984052Y-52020353D01*
X186064548Y-51974165D01*
X186147429Y-51931803D01*
X186232573Y-51893389D01*
X186319861Y-51859042D01*
X186409172Y-51828884D01*
X186500384Y-51803035D01*
X186593377Y-51781616D01*
X186688030Y-51764747D01*
X186784222Y-51752548D01*
X186881832Y-51745141D01*
X186980740Y-51742645D01*
X219654133Y-51742645D01*
X219716179Y-51743758D01*
G37*
D10*
X117414598Y-110997419D02*
X117414598Y-111711704D01*
X117414598Y-111711704D02*
X117366979Y-111854561D01*
X117366979Y-111854561D02*
X117271741Y-111949800D01*
X117271741Y-111949800D02*
X117128884Y-111997419D01*
X117128884Y-111997419D02*
X117033646Y-111997419D01*
X118366979Y-111997419D02*
X117890789Y-111997419D01*
X117890789Y-111997419D02*
X117890789Y-110997419D01*
X119271741Y-111902180D02*
X119224122Y-111949800D01*
X119224122Y-111949800D02*
X119081265Y-111997419D01*
X119081265Y-111997419D02*
X118986027Y-111997419D01*
X118986027Y-111997419D02*
X118843170Y-111949800D01*
X118843170Y-111949800D02*
X118747932Y-111854561D01*
X118747932Y-111854561D02*
X118700313Y-111759323D01*
X118700313Y-111759323D02*
X118652694Y-111568847D01*
X118652694Y-111568847D02*
X118652694Y-111425990D01*
X118652694Y-111425990D02*
X118700313Y-111235514D01*
X118700313Y-111235514D02*
X118747932Y-111140276D01*
X118747932Y-111140276D02*
X118843170Y-111045038D01*
X118843170Y-111045038D02*
X118986027Y-110997419D01*
X118986027Y-110997419D02*
X119081265Y-110997419D01*
X119081265Y-110997419D02*
X119224122Y-111045038D01*
X119224122Y-111045038D02*
X119271741Y-111092657D01*
X119986027Y-110997419D02*
X119986027Y-111711704D01*
X119986027Y-111711704D02*
X119938408Y-111854561D01*
X119938408Y-111854561D02*
X119843170Y-111949800D01*
X119843170Y-111949800D02*
X119700313Y-111997419D01*
X119700313Y-111997419D02*
X119605075Y-111997419D01*
X120938408Y-111997419D02*
X120462218Y-111997419D01*
X120462218Y-111997419D02*
X120462218Y-110997419D01*
X121843170Y-111902180D02*
X121795551Y-111949800D01*
X121795551Y-111949800D02*
X121652694Y-111997419D01*
X121652694Y-111997419D02*
X121557456Y-111997419D01*
X121557456Y-111997419D02*
X121414599Y-111949800D01*
X121414599Y-111949800D02*
X121319361Y-111854561D01*
X121319361Y-111854561D02*
X121271742Y-111759323D01*
X121271742Y-111759323D02*
X121224123Y-111568847D01*
X121224123Y-111568847D02*
X121224123Y-111425990D01*
X121224123Y-111425990D02*
X121271742Y-111235514D01*
X121271742Y-111235514D02*
X121319361Y-111140276D01*
X121319361Y-111140276D02*
X121414599Y-111045038D01*
X121414599Y-111045038D02*
X121557456Y-110997419D01*
X121557456Y-110997419D02*
X121652694Y-110997419D01*
X121652694Y-110997419D02*
X121795551Y-111045038D01*
X121795551Y-111045038D02*
X121843170Y-111092657D01*
X122557456Y-110997419D02*
X122557456Y-111711704D01*
X122557456Y-111711704D02*
X122509837Y-111854561D01*
X122509837Y-111854561D02*
X122414599Y-111949800D01*
X122414599Y-111949800D02*
X122271742Y-111997419D01*
X122271742Y-111997419D02*
X122176504Y-111997419D01*
X123509837Y-111997419D02*
X123033647Y-111997419D01*
X123033647Y-111997419D02*
X123033647Y-110997419D01*
X124414599Y-111902180D02*
X124366980Y-111949800D01*
X124366980Y-111949800D02*
X124224123Y-111997419D01*
X124224123Y-111997419D02*
X124128885Y-111997419D01*
X124128885Y-111997419D02*
X123986028Y-111949800D01*
X123986028Y-111949800D02*
X123890790Y-111854561D01*
X123890790Y-111854561D02*
X123843171Y-111759323D01*
X123843171Y-111759323D02*
X123795552Y-111568847D01*
X123795552Y-111568847D02*
X123795552Y-111425990D01*
X123795552Y-111425990D02*
X123843171Y-111235514D01*
X123843171Y-111235514D02*
X123890790Y-111140276D01*
X123890790Y-111140276D02*
X123986028Y-111045038D01*
X123986028Y-111045038D02*
X124128885Y-110997419D01*
X124128885Y-110997419D02*
X124224123Y-110997419D01*
X124224123Y-110997419D02*
X124366980Y-111045038D01*
X124366980Y-111045038D02*
X124414599Y-111092657D01*
X125128885Y-110997419D02*
X125128885Y-111711704D01*
X125128885Y-111711704D02*
X125081266Y-111854561D01*
X125081266Y-111854561D02*
X124986028Y-111949800D01*
X124986028Y-111949800D02*
X124843171Y-111997419D01*
X124843171Y-111997419D02*
X124747933Y-111997419D01*
X126081266Y-111997419D02*
X125605076Y-111997419D01*
X125605076Y-111997419D02*
X125605076Y-110997419D01*
X126986028Y-111902180D02*
X126938409Y-111949800D01*
X126938409Y-111949800D02*
X126795552Y-111997419D01*
X126795552Y-111997419D02*
X126700314Y-111997419D01*
X126700314Y-111997419D02*
X126557457Y-111949800D01*
X126557457Y-111949800D02*
X126462219Y-111854561D01*
X126462219Y-111854561D02*
X126414600Y-111759323D01*
X126414600Y-111759323D02*
X126366981Y-111568847D01*
X126366981Y-111568847D02*
X126366981Y-111425990D01*
X126366981Y-111425990D02*
X126414600Y-111235514D01*
X126414600Y-111235514D02*
X126462219Y-111140276D01*
X126462219Y-111140276D02*
X126557457Y-111045038D01*
X126557457Y-111045038D02*
X126700314Y-110997419D01*
X126700314Y-110997419D02*
X126795552Y-110997419D01*
X126795552Y-110997419D02*
X126938409Y-111045038D01*
X126938409Y-111045038D02*
X126986028Y-111092657D01*
D12*
X231076244Y-66535714D02*
X230076244Y-66535714D01*
X230076244Y-66535714D02*
X230076244Y-66773809D01*
X230076244Y-66773809D02*
X230123863Y-66916666D01*
X230123863Y-66916666D02*
X230219101Y-67011904D01*
X230219101Y-67011904D02*
X230314339Y-67059523D01*
X230314339Y-67059523D02*
X230504815Y-67107142D01*
X230504815Y-67107142D02*
X230647672Y-67107142D01*
X230647672Y-67107142D02*
X230838148Y-67059523D01*
X230838148Y-67059523D02*
X230933386Y-67011904D01*
X230933386Y-67011904D02*
X231028625Y-66916666D01*
X231028625Y-66916666D02*
X231076244Y-66773809D01*
X231076244Y-66773809D02*
X231076244Y-66535714D01*
X230171482Y-67488095D02*
X230123863Y-67535714D01*
X230123863Y-67535714D02*
X230076244Y-67630952D01*
X230076244Y-67630952D02*
X230076244Y-67869047D01*
X230076244Y-67869047D02*
X230123863Y-67964285D01*
X230123863Y-67964285D02*
X230171482Y-68011904D01*
X230171482Y-68011904D02*
X230266720Y-68059523D01*
X230266720Y-68059523D02*
X230361958Y-68059523D01*
X230361958Y-68059523D02*
X230504815Y-68011904D01*
X230504815Y-68011904D02*
X231076244Y-67440476D01*
X231076244Y-67440476D02*
X231076244Y-68059523D01*
X230076244Y-68392857D02*
X230076244Y-69011904D01*
X230076244Y-69011904D02*
X230457196Y-68678571D01*
X230457196Y-68678571D02*
X230457196Y-68821428D01*
X230457196Y-68821428D02*
X230504815Y-68916666D01*
X230504815Y-68916666D02*
X230552434Y-68964285D01*
X230552434Y-68964285D02*
X230647672Y-69011904D01*
X230647672Y-69011904D02*
X230885767Y-69011904D01*
X230885767Y-69011904D02*
X230981005Y-68964285D01*
X230981005Y-68964285D02*
X231028625Y-68916666D01*
X231028625Y-68916666D02*
X231076244Y-68821428D01*
X231076244Y-68821428D02*
X231076244Y-68535714D01*
X231076244Y-68535714D02*
X231028625Y-68440476D01*
X231028625Y-68440476D02*
X230981005Y-68392857D01*
X284304819Y-68135714D02*
X283304819Y-68135714D01*
X283304819Y-68135714D02*
X283304819Y-68373809D01*
X283304819Y-68373809D02*
X283352438Y-68516666D01*
X283352438Y-68516666D02*
X283447676Y-68611904D01*
X283447676Y-68611904D02*
X283542914Y-68659523D01*
X283542914Y-68659523D02*
X283733390Y-68707142D01*
X283733390Y-68707142D02*
X283876247Y-68707142D01*
X283876247Y-68707142D02*
X284066723Y-68659523D01*
X284066723Y-68659523D02*
X284161961Y-68611904D01*
X284161961Y-68611904D02*
X284257200Y-68516666D01*
X284257200Y-68516666D02*
X284304819Y-68373809D01*
X284304819Y-68373809D02*
X284304819Y-68135714D01*
X283304819Y-69040476D02*
X283304819Y-69659523D01*
X283304819Y-69659523D02*
X283685771Y-69326190D01*
X283685771Y-69326190D02*
X283685771Y-69469047D01*
X283685771Y-69469047D02*
X283733390Y-69564285D01*
X283733390Y-69564285D02*
X283781009Y-69611904D01*
X283781009Y-69611904D02*
X283876247Y-69659523D01*
X283876247Y-69659523D02*
X284114342Y-69659523D01*
X284114342Y-69659523D02*
X284209580Y-69611904D01*
X284209580Y-69611904D02*
X284257200Y-69564285D01*
X284257200Y-69564285D02*
X284304819Y-69469047D01*
X284304819Y-69469047D02*
X284304819Y-69183333D01*
X284304819Y-69183333D02*
X284257200Y-69088095D01*
X284257200Y-69088095D02*
X284209580Y-69040476D01*
X284304819Y-70135714D02*
X284304819Y-70326190D01*
X284304819Y-70326190D02*
X284257200Y-70421428D01*
X284257200Y-70421428D02*
X284209580Y-70469047D01*
X284209580Y-70469047D02*
X284066723Y-70564285D01*
X284066723Y-70564285D02*
X283876247Y-70611904D01*
X283876247Y-70611904D02*
X283495295Y-70611904D01*
X283495295Y-70611904D02*
X283400057Y-70564285D01*
X283400057Y-70564285D02*
X283352438Y-70516666D01*
X283352438Y-70516666D02*
X283304819Y-70421428D01*
X283304819Y-70421428D02*
X283304819Y-70230952D01*
X283304819Y-70230952D02*
X283352438Y-70135714D01*
X283352438Y-70135714D02*
X283400057Y-70088095D01*
X283400057Y-70088095D02*
X283495295Y-70040476D01*
X283495295Y-70040476D02*
X283733390Y-70040476D01*
X283733390Y-70040476D02*
X283828628Y-70088095D01*
X283828628Y-70088095D02*
X283876247Y-70135714D01*
X283876247Y-70135714D02*
X283923866Y-70230952D01*
X283923866Y-70230952D02*
X283923866Y-70421428D01*
X283923866Y-70421428D02*
X283876247Y-70516666D01*
X283876247Y-70516666D02*
X283828628Y-70564285D01*
X283828628Y-70564285D02*
X283733390Y-70611904D01*
X268904819Y-85685714D02*
X267904819Y-85685714D01*
X267904819Y-85685714D02*
X267904819Y-85923809D01*
X267904819Y-85923809D02*
X267952438Y-86066666D01*
X267952438Y-86066666D02*
X268047676Y-86161904D01*
X268047676Y-86161904D02*
X268142914Y-86209523D01*
X268142914Y-86209523D02*
X268333390Y-86257142D01*
X268333390Y-86257142D02*
X268476247Y-86257142D01*
X268476247Y-86257142D02*
X268666723Y-86209523D01*
X268666723Y-86209523D02*
X268761961Y-86161904D01*
X268761961Y-86161904D02*
X268857200Y-86066666D01*
X268857200Y-86066666D02*
X268904819Y-85923809D01*
X268904819Y-85923809D02*
X268904819Y-85685714D01*
X267904819Y-86590476D02*
X267904819Y-87209523D01*
X267904819Y-87209523D02*
X268285771Y-86876190D01*
X268285771Y-86876190D02*
X268285771Y-87019047D01*
X268285771Y-87019047D02*
X268333390Y-87114285D01*
X268333390Y-87114285D02*
X268381009Y-87161904D01*
X268381009Y-87161904D02*
X268476247Y-87209523D01*
X268476247Y-87209523D02*
X268714342Y-87209523D01*
X268714342Y-87209523D02*
X268809580Y-87161904D01*
X268809580Y-87161904D02*
X268857200Y-87114285D01*
X268857200Y-87114285D02*
X268904819Y-87019047D01*
X268904819Y-87019047D02*
X268904819Y-86733333D01*
X268904819Y-86733333D02*
X268857200Y-86638095D01*
X268857200Y-86638095D02*
X268809580Y-86590476D01*
X268000057Y-87590476D02*
X267952438Y-87638095D01*
X267952438Y-87638095D02*
X267904819Y-87733333D01*
X267904819Y-87733333D02*
X267904819Y-87971428D01*
X267904819Y-87971428D02*
X267952438Y-88066666D01*
X267952438Y-88066666D02*
X268000057Y-88114285D01*
X268000057Y-88114285D02*
X268095295Y-88161904D01*
X268095295Y-88161904D02*
X268190533Y-88161904D01*
X268190533Y-88161904D02*
X268333390Y-88114285D01*
X268333390Y-88114285D02*
X268904819Y-87542857D01*
X268904819Y-87542857D02*
X268904819Y-88161904D01*
X249961961Y-47135714D02*
X248961961Y-47135714D01*
X248961961Y-47135714D02*
X248961961Y-47373809D01*
X248961961Y-47373809D02*
X249009580Y-47516666D01*
X249009580Y-47516666D02*
X249104818Y-47611904D01*
X249104818Y-47611904D02*
X249200056Y-47659523D01*
X249200056Y-47659523D02*
X249390532Y-47707142D01*
X249390532Y-47707142D02*
X249533389Y-47707142D01*
X249533389Y-47707142D02*
X249723865Y-47659523D01*
X249723865Y-47659523D02*
X249819103Y-47611904D01*
X249819103Y-47611904D02*
X249914342Y-47516666D01*
X249914342Y-47516666D02*
X249961961Y-47373809D01*
X249961961Y-47373809D02*
X249961961Y-47135714D01*
X249057199Y-48088095D02*
X249009580Y-48135714D01*
X249009580Y-48135714D02*
X248961961Y-48230952D01*
X248961961Y-48230952D02*
X248961961Y-48469047D01*
X248961961Y-48469047D02*
X249009580Y-48564285D01*
X249009580Y-48564285D02*
X249057199Y-48611904D01*
X249057199Y-48611904D02*
X249152437Y-48659523D01*
X249152437Y-48659523D02*
X249247675Y-48659523D01*
X249247675Y-48659523D02*
X249390532Y-48611904D01*
X249390532Y-48611904D02*
X249961961Y-48040476D01*
X249961961Y-48040476D02*
X249961961Y-48659523D01*
X248961961Y-49516666D02*
X248961961Y-49326190D01*
X248961961Y-49326190D02*
X249009580Y-49230952D01*
X249009580Y-49230952D02*
X249057199Y-49183333D01*
X249057199Y-49183333D02*
X249200056Y-49088095D01*
X249200056Y-49088095D02*
X249390532Y-49040476D01*
X249390532Y-49040476D02*
X249771484Y-49040476D01*
X249771484Y-49040476D02*
X249866722Y-49088095D01*
X249866722Y-49088095D02*
X249914342Y-49135714D01*
X249914342Y-49135714D02*
X249961961Y-49230952D01*
X249961961Y-49230952D02*
X249961961Y-49421428D01*
X249961961Y-49421428D02*
X249914342Y-49516666D01*
X249914342Y-49516666D02*
X249866722Y-49564285D01*
X249866722Y-49564285D02*
X249771484Y-49611904D01*
X249771484Y-49611904D02*
X249533389Y-49611904D01*
X249533389Y-49611904D02*
X249438151Y-49564285D01*
X249438151Y-49564285D02*
X249390532Y-49516666D01*
X249390532Y-49516666D02*
X249342913Y-49421428D01*
X249342913Y-49421428D02*
X249342913Y-49230952D01*
X249342913Y-49230952D02*
X249390532Y-49135714D01*
X249390532Y-49135714D02*
X249438151Y-49088095D01*
X249438151Y-49088095D02*
X249533389Y-49040476D01*
X230876244Y-85685714D02*
X229876244Y-85685714D01*
X229876244Y-85685714D02*
X229876244Y-85923809D01*
X229876244Y-85923809D02*
X229923863Y-86066666D01*
X229923863Y-86066666D02*
X230019101Y-86161904D01*
X230019101Y-86161904D02*
X230114339Y-86209523D01*
X230114339Y-86209523D02*
X230304815Y-86257142D01*
X230304815Y-86257142D02*
X230447672Y-86257142D01*
X230447672Y-86257142D02*
X230638148Y-86209523D01*
X230638148Y-86209523D02*
X230733386Y-86161904D01*
X230733386Y-86161904D02*
X230828625Y-86066666D01*
X230828625Y-86066666D02*
X230876244Y-85923809D01*
X230876244Y-85923809D02*
X230876244Y-85685714D01*
X229971482Y-86638095D02*
X229923863Y-86685714D01*
X229923863Y-86685714D02*
X229876244Y-86780952D01*
X229876244Y-86780952D02*
X229876244Y-87019047D01*
X229876244Y-87019047D02*
X229923863Y-87114285D01*
X229923863Y-87114285D02*
X229971482Y-87161904D01*
X229971482Y-87161904D02*
X230066720Y-87209523D01*
X230066720Y-87209523D02*
X230161958Y-87209523D01*
X230161958Y-87209523D02*
X230304815Y-87161904D01*
X230304815Y-87161904D02*
X230876244Y-86590476D01*
X230876244Y-86590476D02*
X230876244Y-87209523D01*
X230209577Y-88066666D02*
X230876244Y-88066666D01*
X229828625Y-87828571D02*
X230542910Y-87590476D01*
X230542910Y-87590476D02*
X230542910Y-88209523D01*
X192833390Y-47135714D02*
X191833390Y-47135714D01*
X191833390Y-47135714D02*
X191833390Y-47373809D01*
X191833390Y-47373809D02*
X191881009Y-47516666D01*
X191881009Y-47516666D02*
X191976247Y-47611904D01*
X191976247Y-47611904D02*
X192071485Y-47659523D01*
X192071485Y-47659523D02*
X192261961Y-47707142D01*
X192261961Y-47707142D02*
X192404818Y-47707142D01*
X192404818Y-47707142D02*
X192595294Y-47659523D01*
X192595294Y-47659523D02*
X192690532Y-47611904D01*
X192690532Y-47611904D02*
X192785771Y-47516666D01*
X192785771Y-47516666D02*
X192833390Y-47373809D01*
X192833390Y-47373809D02*
X192833390Y-47135714D01*
X192833390Y-48659523D02*
X192833390Y-48088095D01*
X192833390Y-48373809D02*
X191833390Y-48373809D01*
X191833390Y-48373809D02*
X191976247Y-48278571D01*
X191976247Y-48278571D02*
X192071485Y-48183333D01*
X192071485Y-48183333D02*
X192119104Y-48088095D01*
X192166723Y-49516666D02*
X192833390Y-49516666D01*
X191785771Y-49278571D02*
X192500056Y-49040476D01*
X192500056Y-49040476D02*
X192500056Y-49659523D01*
X173883389Y-66535714D02*
X172883389Y-66535714D01*
X172883389Y-66535714D02*
X172883389Y-66773809D01*
X172883389Y-66773809D02*
X172931008Y-66916666D01*
X172931008Y-66916666D02*
X173026246Y-67011904D01*
X173026246Y-67011904D02*
X173121484Y-67059523D01*
X173121484Y-67059523D02*
X173311960Y-67107142D01*
X173311960Y-67107142D02*
X173454817Y-67107142D01*
X173454817Y-67107142D02*
X173645293Y-67059523D01*
X173645293Y-67059523D02*
X173740531Y-67011904D01*
X173740531Y-67011904D02*
X173835770Y-66916666D01*
X173835770Y-66916666D02*
X173883389Y-66773809D01*
X173883389Y-66773809D02*
X173883389Y-66535714D01*
X173883389Y-68059523D02*
X173883389Y-67488095D01*
X173883389Y-67773809D02*
X172883389Y-67773809D01*
X172883389Y-67773809D02*
X173026246Y-67678571D01*
X173026246Y-67678571D02*
X173121484Y-67583333D01*
X173121484Y-67583333D02*
X173169103Y-67488095D01*
X173883389Y-69011904D02*
X173883389Y-68440476D01*
X173883389Y-68726190D02*
X172883389Y-68726190D01*
X172883389Y-68726190D02*
X173026246Y-68630952D01*
X173026246Y-68630952D02*
X173121484Y-68535714D01*
X173121484Y-68535714D02*
X173169103Y-68440476D01*
X250140529Y-66535714D02*
X249140529Y-66535714D01*
X249140529Y-66535714D02*
X249140529Y-66773809D01*
X249140529Y-66773809D02*
X249188148Y-66916666D01*
X249188148Y-66916666D02*
X249283386Y-67011904D01*
X249283386Y-67011904D02*
X249378624Y-67059523D01*
X249378624Y-67059523D02*
X249569100Y-67107142D01*
X249569100Y-67107142D02*
X249711957Y-67107142D01*
X249711957Y-67107142D02*
X249902433Y-67059523D01*
X249902433Y-67059523D02*
X249997671Y-67011904D01*
X249997671Y-67011904D02*
X250092910Y-66916666D01*
X250092910Y-66916666D02*
X250140529Y-66773809D01*
X250140529Y-66773809D02*
X250140529Y-66535714D01*
X249235767Y-67488095D02*
X249188148Y-67535714D01*
X249188148Y-67535714D02*
X249140529Y-67630952D01*
X249140529Y-67630952D02*
X249140529Y-67869047D01*
X249140529Y-67869047D02*
X249188148Y-67964285D01*
X249188148Y-67964285D02*
X249235767Y-68011904D01*
X249235767Y-68011904D02*
X249331005Y-68059523D01*
X249331005Y-68059523D02*
X249426243Y-68059523D01*
X249426243Y-68059523D02*
X249569100Y-68011904D01*
X249569100Y-68011904D02*
X250140529Y-67440476D01*
X250140529Y-67440476D02*
X250140529Y-68059523D01*
X249140529Y-68392857D02*
X249140529Y-69059523D01*
X249140529Y-69059523D02*
X250140529Y-68630952D01*
X154819104Y-67011905D02*
X153819104Y-67011905D01*
X153819104Y-67011905D02*
X153819104Y-67250000D01*
X153819104Y-67250000D02*
X153866723Y-67392857D01*
X153866723Y-67392857D02*
X153961961Y-67488095D01*
X153961961Y-67488095D02*
X154057199Y-67535714D01*
X154057199Y-67535714D02*
X154247675Y-67583333D01*
X154247675Y-67583333D02*
X154390532Y-67583333D01*
X154390532Y-67583333D02*
X154581008Y-67535714D01*
X154581008Y-67535714D02*
X154676246Y-67488095D01*
X154676246Y-67488095D02*
X154771485Y-67392857D01*
X154771485Y-67392857D02*
X154819104Y-67250000D01*
X154819104Y-67250000D02*
X154819104Y-67011905D01*
X153819104Y-67916667D02*
X153819104Y-68583333D01*
X153819104Y-68583333D02*
X154819104Y-68154762D01*
X239964285Y-97904819D02*
X239964285Y-96904819D01*
X239964285Y-96904819D02*
X239726190Y-96904819D01*
X239726190Y-96904819D02*
X239583333Y-96952438D01*
X239583333Y-96952438D02*
X239488095Y-97047676D01*
X239488095Y-97047676D02*
X239440476Y-97142914D01*
X239440476Y-97142914D02*
X239392857Y-97333390D01*
X239392857Y-97333390D02*
X239392857Y-97476247D01*
X239392857Y-97476247D02*
X239440476Y-97666723D01*
X239440476Y-97666723D02*
X239488095Y-97761961D01*
X239488095Y-97761961D02*
X239583333Y-97857200D01*
X239583333Y-97857200D02*
X239726190Y-97904819D01*
X239726190Y-97904819D02*
X239964285Y-97904819D01*
X239011904Y-97000057D02*
X238964285Y-96952438D01*
X238964285Y-96952438D02*
X238869047Y-96904819D01*
X238869047Y-96904819D02*
X238630952Y-96904819D01*
X238630952Y-96904819D02*
X238535714Y-96952438D01*
X238535714Y-96952438D02*
X238488095Y-97000057D01*
X238488095Y-97000057D02*
X238440476Y-97095295D01*
X238440476Y-97095295D02*
X238440476Y-97190533D01*
X238440476Y-97190533D02*
X238488095Y-97333390D01*
X238488095Y-97333390D02*
X239059523Y-97904819D01*
X239059523Y-97904819D02*
X238440476Y-97904819D01*
X237535714Y-96904819D02*
X238011904Y-96904819D01*
X238011904Y-96904819D02*
X238059523Y-97381009D01*
X238059523Y-97381009D02*
X238011904Y-97333390D01*
X238011904Y-97333390D02*
X237916666Y-97285771D01*
X237916666Y-97285771D02*
X237678571Y-97285771D01*
X237678571Y-97285771D02*
X237583333Y-97333390D01*
X237583333Y-97333390D02*
X237535714Y-97381009D01*
X237535714Y-97381009D02*
X237488095Y-97476247D01*
X237488095Y-97476247D02*
X237488095Y-97714342D01*
X237488095Y-97714342D02*
X237535714Y-97809580D01*
X237535714Y-97809580D02*
X237583333Y-97857200D01*
X237583333Y-97857200D02*
X237678571Y-97904819D01*
X237678571Y-97904819D02*
X237916666Y-97904819D01*
X237916666Y-97904819D02*
X238011904Y-97857200D01*
X238011904Y-97857200D02*
X238059523Y-97809580D01*
X269204819Y-66535714D02*
X268204819Y-66535714D01*
X268204819Y-66535714D02*
X268204819Y-66773809D01*
X268204819Y-66773809D02*
X268252438Y-66916666D01*
X268252438Y-66916666D02*
X268347676Y-67011904D01*
X268347676Y-67011904D02*
X268442914Y-67059523D01*
X268442914Y-67059523D02*
X268633390Y-67107142D01*
X268633390Y-67107142D02*
X268776247Y-67107142D01*
X268776247Y-67107142D02*
X268966723Y-67059523D01*
X268966723Y-67059523D02*
X269061961Y-67011904D01*
X269061961Y-67011904D02*
X269157200Y-66916666D01*
X269157200Y-66916666D02*
X269204819Y-66773809D01*
X269204819Y-66773809D02*
X269204819Y-66535714D01*
X268204819Y-67440476D02*
X268204819Y-68059523D01*
X268204819Y-68059523D02*
X268585771Y-67726190D01*
X268585771Y-67726190D02*
X268585771Y-67869047D01*
X268585771Y-67869047D02*
X268633390Y-67964285D01*
X268633390Y-67964285D02*
X268681009Y-68011904D01*
X268681009Y-68011904D02*
X268776247Y-68059523D01*
X268776247Y-68059523D02*
X269014342Y-68059523D01*
X269014342Y-68059523D02*
X269109580Y-68011904D01*
X269109580Y-68011904D02*
X269157200Y-67964285D01*
X269157200Y-67964285D02*
X269204819Y-67869047D01*
X269204819Y-67869047D02*
X269204819Y-67583333D01*
X269204819Y-67583333D02*
X269157200Y-67488095D01*
X269157200Y-67488095D02*
X269109580Y-67440476D01*
X269204819Y-69011904D02*
X269204819Y-68440476D01*
X269204819Y-68726190D02*
X268204819Y-68726190D01*
X268204819Y-68726190D02*
X268347676Y-68630952D01*
X268347676Y-68630952D02*
X268442914Y-68535714D01*
X268442914Y-68535714D02*
X268490533Y-68440476D01*
X220647617Y-97854819D02*
X220647617Y-96854819D01*
X220647617Y-96854819D02*
X220409522Y-96854819D01*
X220409522Y-96854819D02*
X220266665Y-96902438D01*
X220266665Y-96902438D02*
X220171427Y-96997676D01*
X220171427Y-96997676D02*
X220123808Y-97092914D01*
X220123808Y-97092914D02*
X220076189Y-97283390D01*
X220076189Y-97283390D02*
X220076189Y-97426247D01*
X220076189Y-97426247D02*
X220123808Y-97616723D01*
X220123808Y-97616723D02*
X220171427Y-97711961D01*
X220171427Y-97711961D02*
X220266665Y-97807200D01*
X220266665Y-97807200D02*
X220409522Y-97854819D01*
X220409522Y-97854819D02*
X220647617Y-97854819D01*
X219695236Y-96950057D02*
X219647617Y-96902438D01*
X219647617Y-96902438D02*
X219552379Y-96854819D01*
X219552379Y-96854819D02*
X219314284Y-96854819D01*
X219314284Y-96854819D02*
X219219046Y-96902438D01*
X219219046Y-96902438D02*
X219171427Y-96950057D01*
X219171427Y-96950057D02*
X219123808Y-97045295D01*
X219123808Y-97045295D02*
X219123808Y-97140533D01*
X219123808Y-97140533D02*
X219171427Y-97283390D01*
X219171427Y-97283390D02*
X219742855Y-97854819D01*
X219742855Y-97854819D02*
X219123808Y-97854819D01*
X218171427Y-97854819D02*
X218742855Y-97854819D01*
X218457141Y-97854819D02*
X218457141Y-96854819D01*
X218457141Y-96854819D02*
X218552379Y-96997676D01*
X218552379Y-96997676D02*
X218647617Y-97092914D01*
X218647617Y-97092914D02*
X218742855Y-97140533D01*
X249890529Y-85685714D02*
X248890529Y-85685714D01*
X248890529Y-85685714D02*
X248890529Y-85923809D01*
X248890529Y-85923809D02*
X248938148Y-86066666D01*
X248938148Y-86066666D02*
X249033386Y-86161904D01*
X249033386Y-86161904D02*
X249128624Y-86209523D01*
X249128624Y-86209523D02*
X249319100Y-86257142D01*
X249319100Y-86257142D02*
X249461957Y-86257142D01*
X249461957Y-86257142D02*
X249652433Y-86209523D01*
X249652433Y-86209523D02*
X249747671Y-86161904D01*
X249747671Y-86161904D02*
X249842910Y-86066666D01*
X249842910Y-86066666D02*
X249890529Y-85923809D01*
X249890529Y-85923809D02*
X249890529Y-85685714D01*
X248985767Y-86638095D02*
X248938148Y-86685714D01*
X248938148Y-86685714D02*
X248890529Y-86780952D01*
X248890529Y-86780952D02*
X248890529Y-87019047D01*
X248890529Y-87019047D02*
X248938148Y-87114285D01*
X248938148Y-87114285D02*
X248985767Y-87161904D01*
X248985767Y-87161904D02*
X249081005Y-87209523D01*
X249081005Y-87209523D02*
X249176243Y-87209523D01*
X249176243Y-87209523D02*
X249319100Y-87161904D01*
X249319100Y-87161904D02*
X249890529Y-86590476D01*
X249890529Y-86590476D02*
X249890529Y-87209523D01*
X249319100Y-87780952D02*
X249271481Y-87685714D01*
X249271481Y-87685714D02*
X249223862Y-87638095D01*
X249223862Y-87638095D02*
X249128624Y-87590476D01*
X249128624Y-87590476D02*
X249081005Y-87590476D01*
X249081005Y-87590476D02*
X248985767Y-87638095D01*
X248985767Y-87638095D02*
X248938148Y-87685714D01*
X248938148Y-87685714D02*
X248890529Y-87780952D01*
X248890529Y-87780952D02*
X248890529Y-87971428D01*
X248890529Y-87971428D02*
X248938148Y-88066666D01*
X248938148Y-88066666D02*
X248985767Y-88114285D01*
X248985767Y-88114285D02*
X249081005Y-88161904D01*
X249081005Y-88161904D02*
X249128624Y-88161904D01*
X249128624Y-88161904D02*
X249223862Y-88114285D01*
X249223862Y-88114285D02*
X249271481Y-88066666D01*
X249271481Y-88066666D02*
X249319100Y-87971428D01*
X249319100Y-87971428D02*
X249319100Y-87780952D01*
X249319100Y-87780952D02*
X249366719Y-87685714D01*
X249366719Y-87685714D02*
X249414338Y-87638095D01*
X249414338Y-87638095D02*
X249509576Y-87590476D01*
X249509576Y-87590476D02*
X249700052Y-87590476D01*
X249700052Y-87590476D02*
X249795290Y-87638095D01*
X249795290Y-87638095D02*
X249842910Y-87685714D01*
X249842910Y-87685714D02*
X249890529Y-87780952D01*
X249890529Y-87780952D02*
X249890529Y-87971428D01*
X249890529Y-87971428D02*
X249842910Y-88066666D01*
X249842910Y-88066666D02*
X249795290Y-88114285D01*
X249795290Y-88114285D02*
X249700052Y-88161904D01*
X249700052Y-88161904D02*
X249509576Y-88161904D01*
X249509576Y-88161904D02*
X249414338Y-88114285D01*
X249414338Y-88114285D02*
X249366719Y-88066666D01*
X249366719Y-88066666D02*
X249319100Y-87971428D01*
X230919104Y-47135714D02*
X229919104Y-47135714D01*
X229919104Y-47135714D02*
X229919104Y-47373809D01*
X229919104Y-47373809D02*
X229966723Y-47516666D01*
X229966723Y-47516666D02*
X230061961Y-47611904D01*
X230061961Y-47611904D02*
X230157199Y-47659523D01*
X230157199Y-47659523D02*
X230347675Y-47707142D01*
X230347675Y-47707142D02*
X230490532Y-47707142D01*
X230490532Y-47707142D02*
X230681008Y-47659523D01*
X230681008Y-47659523D02*
X230776246Y-47611904D01*
X230776246Y-47611904D02*
X230871485Y-47516666D01*
X230871485Y-47516666D02*
X230919104Y-47373809D01*
X230919104Y-47373809D02*
X230919104Y-47135714D01*
X230014342Y-48088095D02*
X229966723Y-48135714D01*
X229966723Y-48135714D02*
X229919104Y-48230952D01*
X229919104Y-48230952D02*
X229919104Y-48469047D01*
X229919104Y-48469047D02*
X229966723Y-48564285D01*
X229966723Y-48564285D02*
X230014342Y-48611904D01*
X230014342Y-48611904D02*
X230109580Y-48659523D01*
X230109580Y-48659523D02*
X230204818Y-48659523D01*
X230204818Y-48659523D02*
X230347675Y-48611904D01*
X230347675Y-48611904D02*
X230919104Y-48040476D01*
X230919104Y-48040476D02*
X230919104Y-48659523D01*
X230014342Y-49040476D02*
X229966723Y-49088095D01*
X229966723Y-49088095D02*
X229919104Y-49183333D01*
X229919104Y-49183333D02*
X229919104Y-49421428D01*
X229919104Y-49421428D02*
X229966723Y-49516666D01*
X229966723Y-49516666D02*
X230014342Y-49564285D01*
X230014342Y-49564285D02*
X230109580Y-49611904D01*
X230109580Y-49611904D02*
X230204818Y-49611904D01*
X230204818Y-49611904D02*
X230347675Y-49564285D01*
X230347675Y-49564285D02*
X230919104Y-48992857D01*
X230919104Y-48992857D02*
X230919104Y-49611904D01*
X135704819Y-47611905D02*
X134704819Y-47611905D01*
X134704819Y-47611905D02*
X134704819Y-47850000D01*
X134704819Y-47850000D02*
X134752438Y-47992857D01*
X134752438Y-47992857D02*
X134847676Y-48088095D01*
X134847676Y-48088095D02*
X134942914Y-48135714D01*
X134942914Y-48135714D02*
X135133390Y-48183333D01*
X135133390Y-48183333D02*
X135276247Y-48183333D01*
X135276247Y-48183333D02*
X135466723Y-48135714D01*
X135466723Y-48135714D02*
X135561961Y-48088095D01*
X135561961Y-48088095D02*
X135657200Y-47992857D01*
X135657200Y-47992857D02*
X135704819Y-47850000D01*
X135704819Y-47850000D02*
X135704819Y-47611905D01*
X135704819Y-49135714D02*
X135704819Y-48564286D01*
X135704819Y-48850000D02*
X134704819Y-48850000D01*
X134704819Y-48850000D02*
X134847676Y-48754762D01*
X134847676Y-48754762D02*
X134942914Y-48659524D01*
X134942914Y-48659524D02*
X134990533Y-48564286D01*
X135754819Y-67011905D02*
X134754819Y-67011905D01*
X134754819Y-67011905D02*
X134754819Y-67250000D01*
X134754819Y-67250000D02*
X134802438Y-67392857D01*
X134802438Y-67392857D02*
X134897676Y-67488095D01*
X134897676Y-67488095D02*
X134992914Y-67535714D01*
X134992914Y-67535714D02*
X135183390Y-67583333D01*
X135183390Y-67583333D02*
X135326247Y-67583333D01*
X135326247Y-67583333D02*
X135516723Y-67535714D01*
X135516723Y-67535714D02*
X135611961Y-67488095D01*
X135611961Y-67488095D02*
X135707200Y-67392857D01*
X135707200Y-67392857D02*
X135754819Y-67250000D01*
X135754819Y-67250000D02*
X135754819Y-67011905D01*
X134850057Y-67964286D02*
X134802438Y-68011905D01*
X134802438Y-68011905D02*
X134754819Y-68107143D01*
X134754819Y-68107143D02*
X134754819Y-68345238D01*
X134754819Y-68345238D02*
X134802438Y-68440476D01*
X134802438Y-68440476D02*
X134850057Y-68488095D01*
X134850057Y-68488095D02*
X134945295Y-68535714D01*
X134945295Y-68535714D02*
X135040533Y-68535714D01*
X135040533Y-68535714D02*
X135183390Y-68488095D01*
X135183390Y-68488095D02*
X135754819Y-67916667D01*
X135754819Y-67916667D02*
X135754819Y-68535714D01*
X211861959Y-85685714D02*
X210861959Y-85685714D01*
X210861959Y-85685714D02*
X210861959Y-85923809D01*
X210861959Y-85923809D02*
X210909578Y-86066666D01*
X210909578Y-86066666D02*
X211004816Y-86161904D01*
X211004816Y-86161904D02*
X211100054Y-86209523D01*
X211100054Y-86209523D02*
X211290530Y-86257142D01*
X211290530Y-86257142D02*
X211433387Y-86257142D01*
X211433387Y-86257142D02*
X211623863Y-86209523D01*
X211623863Y-86209523D02*
X211719101Y-86161904D01*
X211719101Y-86161904D02*
X211814340Y-86066666D01*
X211814340Y-86066666D02*
X211861959Y-85923809D01*
X211861959Y-85923809D02*
X211861959Y-85685714D01*
X210957197Y-86638095D02*
X210909578Y-86685714D01*
X210909578Y-86685714D02*
X210861959Y-86780952D01*
X210861959Y-86780952D02*
X210861959Y-87019047D01*
X210861959Y-87019047D02*
X210909578Y-87114285D01*
X210909578Y-87114285D02*
X210957197Y-87161904D01*
X210957197Y-87161904D02*
X211052435Y-87209523D01*
X211052435Y-87209523D02*
X211147673Y-87209523D01*
X211147673Y-87209523D02*
X211290530Y-87161904D01*
X211290530Y-87161904D02*
X211861959Y-86590476D01*
X211861959Y-86590476D02*
X211861959Y-87209523D01*
X210861959Y-87828571D02*
X210861959Y-87923809D01*
X210861959Y-87923809D02*
X210909578Y-88019047D01*
X210909578Y-88019047D02*
X210957197Y-88066666D01*
X210957197Y-88066666D02*
X211052435Y-88114285D01*
X211052435Y-88114285D02*
X211242911Y-88161904D01*
X211242911Y-88161904D02*
X211481006Y-88161904D01*
X211481006Y-88161904D02*
X211671482Y-88114285D01*
X211671482Y-88114285D02*
X211766720Y-88066666D01*
X211766720Y-88066666D02*
X211814340Y-88019047D01*
X211814340Y-88019047D02*
X211861959Y-87923809D01*
X211861959Y-87923809D02*
X211861959Y-87828571D01*
X211861959Y-87828571D02*
X211814340Y-87733333D01*
X211814340Y-87733333D02*
X211766720Y-87685714D01*
X211766720Y-87685714D02*
X211671482Y-87638095D01*
X211671482Y-87638095D02*
X211481006Y-87590476D01*
X211481006Y-87590476D02*
X211242911Y-87590476D01*
X211242911Y-87590476D02*
X211052435Y-87638095D01*
X211052435Y-87638095D02*
X210957197Y-87685714D01*
X210957197Y-87685714D02*
X210909578Y-87733333D01*
X210909578Y-87733333D02*
X210861959Y-87828571D01*
X135804819Y-86161905D02*
X134804819Y-86161905D01*
X134804819Y-86161905D02*
X134804819Y-86400000D01*
X134804819Y-86400000D02*
X134852438Y-86542857D01*
X134852438Y-86542857D02*
X134947676Y-86638095D01*
X134947676Y-86638095D02*
X135042914Y-86685714D01*
X135042914Y-86685714D02*
X135233390Y-86733333D01*
X135233390Y-86733333D02*
X135376247Y-86733333D01*
X135376247Y-86733333D02*
X135566723Y-86685714D01*
X135566723Y-86685714D02*
X135661961Y-86638095D01*
X135661961Y-86638095D02*
X135757200Y-86542857D01*
X135757200Y-86542857D02*
X135804819Y-86400000D01*
X135804819Y-86400000D02*
X135804819Y-86161905D01*
X134804819Y-87066667D02*
X134804819Y-87685714D01*
X134804819Y-87685714D02*
X135185771Y-87352381D01*
X135185771Y-87352381D02*
X135185771Y-87495238D01*
X135185771Y-87495238D02*
X135233390Y-87590476D01*
X135233390Y-87590476D02*
X135281009Y-87638095D01*
X135281009Y-87638095D02*
X135376247Y-87685714D01*
X135376247Y-87685714D02*
X135614342Y-87685714D01*
X135614342Y-87685714D02*
X135709580Y-87638095D01*
X135709580Y-87638095D02*
X135757200Y-87590476D01*
X135757200Y-87590476D02*
X135804819Y-87495238D01*
X135804819Y-87495238D02*
X135804819Y-87209524D01*
X135804819Y-87209524D02*
X135757200Y-87114286D01*
X135757200Y-87114286D02*
X135709580Y-87066667D01*
X201330951Y-97954819D02*
X201330951Y-96954819D01*
X201330951Y-96954819D02*
X201092856Y-96954819D01*
X201092856Y-96954819D02*
X200949999Y-97002438D01*
X200949999Y-97002438D02*
X200854761Y-97097676D01*
X200854761Y-97097676D02*
X200807142Y-97192914D01*
X200807142Y-97192914D02*
X200759523Y-97383390D01*
X200759523Y-97383390D02*
X200759523Y-97526247D01*
X200759523Y-97526247D02*
X200807142Y-97716723D01*
X200807142Y-97716723D02*
X200854761Y-97811961D01*
X200854761Y-97811961D02*
X200949999Y-97907200D01*
X200949999Y-97907200D02*
X201092856Y-97954819D01*
X201092856Y-97954819D02*
X201330951Y-97954819D01*
X199807142Y-97954819D02*
X200378570Y-97954819D01*
X200092856Y-97954819D02*
X200092856Y-96954819D01*
X200092856Y-96954819D02*
X200188094Y-97097676D01*
X200188094Y-97097676D02*
X200283332Y-97192914D01*
X200283332Y-97192914D02*
X200378570Y-97240533D01*
X199473808Y-96954819D02*
X198807142Y-96954819D01*
X198807142Y-96954819D02*
X199235713Y-97954819D01*
X212011959Y-66535714D02*
X211011959Y-66535714D01*
X211011959Y-66535714D02*
X211011959Y-66773809D01*
X211011959Y-66773809D02*
X211059578Y-66916666D01*
X211059578Y-66916666D02*
X211154816Y-67011904D01*
X211154816Y-67011904D02*
X211250054Y-67059523D01*
X211250054Y-67059523D02*
X211440530Y-67107142D01*
X211440530Y-67107142D02*
X211583387Y-67107142D01*
X211583387Y-67107142D02*
X211773863Y-67059523D01*
X211773863Y-67059523D02*
X211869101Y-67011904D01*
X211869101Y-67011904D02*
X211964340Y-66916666D01*
X211964340Y-66916666D02*
X212011959Y-66773809D01*
X212011959Y-66773809D02*
X212011959Y-66535714D01*
X212011959Y-68059523D02*
X212011959Y-67488095D01*
X212011959Y-67773809D02*
X211011959Y-67773809D01*
X211011959Y-67773809D02*
X211154816Y-67678571D01*
X211154816Y-67678571D02*
X211250054Y-67583333D01*
X211250054Y-67583333D02*
X211297673Y-67488095D01*
X212011959Y-68535714D02*
X212011959Y-68726190D01*
X212011959Y-68726190D02*
X211964340Y-68821428D01*
X211964340Y-68821428D02*
X211916720Y-68869047D01*
X211916720Y-68869047D02*
X211773863Y-68964285D01*
X211773863Y-68964285D02*
X211583387Y-69011904D01*
X211583387Y-69011904D02*
X211202435Y-69011904D01*
X211202435Y-69011904D02*
X211107197Y-68964285D01*
X211107197Y-68964285D02*
X211059578Y-68916666D01*
X211059578Y-68916666D02*
X211011959Y-68821428D01*
X211011959Y-68821428D02*
X211011959Y-68630952D01*
X211011959Y-68630952D02*
X211059578Y-68535714D01*
X211059578Y-68535714D02*
X211107197Y-68488095D01*
X211107197Y-68488095D02*
X211202435Y-68440476D01*
X211202435Y-68440476D02*
X211440530Y-68440476D01*
X211440530Y-68440476D02*
X211535768Y-68488095D01*
X211535768Y-68488095D02*
X211583387Y-68535714D01*
X211583387Y-68535714D02*
X211631006Y-68630952D01*
X211631006Y-68630952D02*
X211631006Y-68821428D01*
X211631006Y-68821428D02*
X211583387Y-68916666D01*
X211583387Y-68916666D02*
X211535768Y-68964285D01*
X211535768Y-68964285D02*
X211440530Y-69011904D01*
X284054819Y-47885714D02*
X283054819Y-47885714D01*
X283054819Y-47885714D02*
X283054819Y-48123809D01*
X283054819Y-48123809D02*
X283102438Y-48266666D01*
X283102438Y-48266666D02*
X283197676Y-48361904D01*
X283197676Y-48361904D02*
X283292914Y-48409523D01*
X283292914Y-48409523D02*
X283483390Y-48457142D01*
X283483390Y-48457142D02*
X283626247Y-48457142D01*
X283626247Y-48457142D02*
X283816723Y-48409523D01*
X283816723Y-48409523D02*
X283911961Y-48361904D01*
X283911961Y-48361904D02*
X284007200Y-48266666D01*
X284007200Y-48266666D02*
X284054819Y-48123809D01*
X284054819Y-48123809D02*
X284054819Y-47885714D01*
X283054819Y-48790476D02*
X283054819Y-49409523D01*
X283054819Y-49409523D02*
X283435771Y-49076190D01*
X283435771Y-49076190D02*
X283435771Y-49219047D01*
X283435771Y-49219047D02*
X283483390Y-49314285D01*
X283483390Y-49314285D02*
X283531009Y-49361904D01*
X283531009Y-49361904D02*
X283626247Y-49409523D01*
X283626247Y-49409523D02*
X283864342Y-49409523D01*
X283864342Y-49409523D02*
X283959580Y-49361904D01*
X283959580Y-49361904D02*
X284007200Y-49314285D01*
X284007200Y-49314285D02*
X284054819Y-49219047D01*
X284054819Y-49219047D02*
X284054819Y-48933333D01*
X284054819Y-48933333D02*
X284007200Y-48838095D01*
X284007200Y-48838095D02*
X283959580Y-48790476D01*
X283483390Y-49980952D02*
X283435771Y-49885714D01*
X283435771Y-49885714D02*
X283388152Y-49838095D01*
X283388152Y-49838095D02*
X283292914Y-49790476D01*
X283292914Y-49790476D02*
X283245295Y-49790476D01*
X283245295Y-49790476D02*
X283150057Y-49838095D01*
X283150057Y-49838095D02*
X283102438Y-49885714D01*
X283102438Y-49885714D02*
X283054819Y-49980952D01*
X283054819Y-49980952D02*
X283054819Y-50171428D01*
X283054819Y-50171428D02*
X283102438Y-50266666D01*
X283102438Y-50266666D02*
X283150057Y-50314285D01*
X283150057Y-50314285D02*
X283245295Y-50361904D01*
X283245295Y-50361904D02*
X283292914Y-50361904D01*
X283292914Y-50361904D02*
X283388152Y-50314285D01*
X283388152Y-50314285D02*
X283435771Y-50266666D01*
X283435771Y-50266666D02*
X283483390Y-50171428D01*
X283483390Y-50171428D02*
X283483390Y-49980952D01*
X283483390Y-49980952D02*
X283531009Y-49885714D01*
X283531009Y-49885714D02*
X283578628Y-49838095D01*
X283578628Y-49838095D02*
X283673866Y-49790476D01*
X283673866Y-49790476D02*
X283864342Y-49790476D01*
X283864342Y-49790476D02*
X283959580Y-49838095D01*
X283959580Y-49838095D02*
X284007200Y-49885714D01*
X284007200Y-49885714D02*
X284054819Y-49980952D01*
X284054819Y-49980952D02*
X284054819Y-50171428D01*
X284054819Y-50171428D02*
X284007200Y-50266666D01*
X284007200Y-50266666D02*
X283959580Y-50314285D01*
X283959580Y-50314285D02*
X283864342Y-50361904D01*
X283864342Y-50361904D02*
X283673866Y-50361904D01*
X283673866Y-50361904D02*
X283578628Y-50314285D01*
X283578628Y-50314285D02*
X283531009Y-50266666D01*
X283531009Y-50266666D02*
X283483390Y-50171428D01*
X211876247Y-47135714D02*
X210876247Y-47135714D01*
X210876247Y-47135714D02*
X210876247Y-47373809D01*
X210876247Y-47373809D02*
X210923866Y-47516666D01*
X210923866Y-47516666D02*
X211019104Y-47611904D01*
X211019104Y-47611904D02*
X211114342Y-47659523D01*
X211114342Y-47659523D02*
X211304818Y-47707142D01*
X211304818Y-47707142D02*
X211447675Y-47707142D01*
X211447675Y-47707142D02*
X211638151Y-47659523D01*
X211638151Y-47659523D02*
X211733389Y-47611904D01*
X211733389Y-47611904D02*
X211828628Y-47516666D01*
X211828628Y-47516666D02*
X211876247Y-47373809D01*
X211876247Y-47373809D02*
X211876247Y-47135714D01*
X211876247Y-48659523D02*
X211876247Y-48088095D01*
X211876247Y-48373809D02*
X210876247Y-48373809D01*
X210876247Y-48373809D02*
X211019104Y-48278571D01*
X211019104Y-48278571D02*
X211114342Y-48183333D01*
X211114342Y-48183333D02*
X211161961Y-48088095D01*
X211304818Y-49230952D02*
X211257199Y-49135714D01*
X211257199Y-49135714D02*
X211209580Y-49088095D01*
X211209580Y-49088095D02*
X211114342Y-49040476D01*
X211114342Y-49040476D02*
X211066723Y-49040476D01*
X211066723Y-49040476D02*
X210971485Y-49088095D01*
X210971485Y-49088095D02*
X210923866Y-49135714D01*
X210923866Y-49135714D02*
X210876247Y-49230952D01*
X210876247Y-49230952D02*
X210876247Y-49421428D01*
X210876247Y-49421428D02*
X210923866Y-49516666D01*
X210923866Y-49516666D02*
X210971485Y-49564285D01*
X210971485Y-49564285D02*
X211066723Y-49611904D01*
X211066723Y-49611904D02*
X211114342Y-49611904D01*
X211114342Y-49611904D02*
X211209580Y-49564285D01*
X211209580Y-49564285D02*
X211257199Y-49516666D01*
X211257199Y-49516666D02*
X211304818Y-49421428D01*
X211304818Y-49421428D02*
X211304818Y-49230952D01*
X211304818Y-49230952D02*
X211352437Y-49135714D01*
X211352437Y-49135714D02*
X211400056Y-49088095D01*
X211400056Y-49088095D02*
X211495294Y-49040476D01*
X211495294Y-49040476D02*
X211685770Y-49040476D01*
X211685770Y-49040476D02*
X211781008Y-49088095D01*
X211781008Y-49088095D02*
X211828628Y-49135714D01*
X211828628Y-49135714D02*
X211876247Y-49230952D01*
X211876247Y-49230952D02*
X211876247Y-49421428D01*
X211876247Y-49421428D02*
X211828628Y-49516666D01*
X211828628Y-49516666D02*
X211781008Y-49564285D01*
X211781008Y-49564285D02*
X211685770Y-49611904D01*
X211685770Y-49611904D02*
X211495294Y-49611904D01*
X211495294Y-49611904D02*
X211400056Y-49564285D01*
X211400056Y-49564285D02*
X211352437Y-49516666D01*
X211352437Y-49516666D02*
X211304818Y-49421428D01*
X173833389Y-85685714D02*
X172833389Y-85685714D01*
X172833389Y-85685714D02*
X172833389Y-85923809D01*
X172833389Y-85923809D02*
X172881008Y-86066666D01*
X172881008Y-86066666D02*
X172976246Y-86161904D01*
X172976246Y-86161904D02*
X173071484Y-86209523D01*
X173071484Y-86209523D02*
X173261960Y-86257142D01*
X173261960Y-86257142D02*
X173404817Y-86257142D01*
X173404817Y-86257142D02*
X173595293Y-86209523D01*
X173595293Y-86209523D02*
X173690531Y-86161904D01*
X173690531Y-86161904D02*
X173785770Y-86066666D01*
X173785770Y-86066666D02*
X173833389Y-85923809D01*
X173833389Y-85923809D02*
X173833389Y-85685714D01*
X173833389Y-87209523D02*
X173833389Y-86638095D01*
X173833389Y-86923809D02*
X172833389Y-86923809D01*
X172833389Y-86923809D02*
X172976246Y-86828571D01*
X172976246Y-86828571D02*
X173071484Y-86733333D01*
X173071484Y-86733333D02*
X173119103Y-86638095D01*
X172928627Y-87590476D02*
X172881008Y-87638095D01*
X172881008Y-87638095D02*
X172833389Y-87733333D01*
X172833389Y-87733333D02*
X172833389Y-87971428D01*
X172833389Y-87971428D02*
X172881008Y-88066666D01*
X172881008Y-88066666D02*
X172928627Y-88114285D01*
X172928627Y-88114285D02*
X173023865Y-88161904D01*
X173023865Y-88161904D02*
X173119103Y-88161904D01*
X173119103Y-88161904D02*
X173261960Y-88114285D01*
X173261960Y-88114285D02*
X173833389Y-87542857D01*
X173833389Y-87542857D02*
X173833389Y-88161904D01*
X154747676Y-47611905D02*
X153747676Y-47611905D01*
X153747676Y-47611905D02*
X153747676Y-47850000D01*
X153747676Y-47850000D02*
X153795295Y-47992857D01*
X153795295Y-47992857D02*
X153890533Y-48088095D01*
X153890533Y-48088095D02*
X153985771Y-48135714D01*
X153985771Y-48135714D02*
X154176247Y-48183333D01*
X154176247Y-48183333D02*
X154319104Y-48183333D01*
X154319104Y-48183333D02*
X154509580Y-48135714D01*
X154509580Y-48135714D02*
X154604818Y-48088095D01*
X154604818Y-48088095D02*
X154700057Y-47992857D01*
X154700057Y-47992857D02*
X154747676Y-47850000D01*
X154747676Y-47850000D02*
X154747676Y-47611905D01*
X153747676Y-49040476D02*
X153747676Y-48850000D01*
X153747676Y-48850000D02*
X153795295Y-48754762D01*
X153795295Y-48754762D02*
X153842914Y-48707143D01*
X153842914Y-48707143D02*
X153985771Y-48611905D01*
X153985771Y-48611905D02*
X154176247Y-48564286D01*
X154176247Y-48564286D02*
X154557199Y-48564286D01*
X154557199Y-48564286D02*
X154652437Y-48611905D01*
X154652437Y-48611905D02*
X154700057Y-48659524D01*
X154700057Y-48659524D02*
X154747676Y-48754762D01*
X154747676Y-48754762D02*
X154747676Y-48945238D01*
X154747676Y-48945238D02*
X154700057Y-49040476D01*
X154700057Y-49040476D02*
X154652437Y-49088095D01*
X154652437Y-49088095D02*
X154557199Y-49135714D01*
X154557199Y-49135714D02*
X154319104Y-49135714D01*
X154319104Y-49135714D02*
X154223866Y-49088095D01*
X154223866Y-49088095D02*
X154176247Y-49040476D01*
X154176247Y-49040476D02*
X154128628Y-48945238D01*
X154128628Y-48945238D02*
X154128628Y-48754762D01*
X154128628Y-48754762D02*
X154176247Y-48659524D01*
X154176247Y-48659524D02*
X154223866Y-48611905D01*
X154223866Y-48611905D02*
X154319104Y-48564286D01*
X192847674Y-85685714D02*
X191847674Y-85685714D01*
X191847674Y-85685714D02*
X191847674Y-85923809D01*
X191847674Y-85923809D02*
X191895293Y-86066666D01*
X191895293Y-86066666D02*
X191990531Y-86161904D01*
X191990531Y-86161904D02*
X192085769Y-86209523D01*
X192085769Y-86209523D02*
X192276245Y-86257142D01*
X192276245Y-86257142D02*
X192419102Y-86257142D01*
X192419102Y-86257142D02*
X192609578Y-86209523D01*
X192609578Y-86209523D02*
X192704816Y-86161904D01*
X192704816Y-86161904D02*
X192800055Y-86066666D01*
X192800055Y-86066666D02*
X192847674Y-85923809D01*
X192847674Y-85923809D02*
X192847674Y-85685714D01*
X192847674Y-87209523D02*
X192847674Y-86638095D01*
X192847674Y-86923809D02*
X191847674Y-86923809D01*
X191847674Y-86923809D02*
X191990531Y-86828571D01*
X191990531Y-86828571D02*
X192085769Y-86733333D01*
X192085769Y-86733333D02*
X192133388Y-86638095D01*
X191847674Y-88066666D02*
X191847674Y-87876190D01*
X191847674Y-87876190D02*
X191895293Y-87780952D01*
X191895293Y-87780952D02*
X191942912Y-87733333D01*
X191942912Y-87733333D02*
X192085769Y-87638095D01*
X192085769Y-87638095D02*
X192276245Y-87590476D01*
X192276245Y-87590476D02*
X192657197Y-87590476D01*
X192657197Y-87590476D02*
X192752435Y-87638095D01*
X192752435Y-87638095D02*
X192800055Y-87685714D01*
X192800055Y-87685714D02*
X192847674Y-87780952D01*
X192847674Y-87780952D02*
X192847674Y-87971428D01*
X192847674Y-87971428D02*
X192800055Y-88066666D01*
X192800055Y-88066666D02*
X192752435Y-88114285D01*
X192752435Y-88114285D02*
X192657197Y-88161904D01*
X192657197Y-88161904D02*
X192419102Y-88161904D01*
X192419102Y-88161904D02*
X192323864Y-88114285D01*
X192323864Y-88114285D02*
X192276245Y-88066666D01*
X192276245Y-88066666D02*
X192228626Y-87971428D01*
X192228626Y-87971428D02*
X192228626Y-87780952D01*
X192228626Y-87780952D02*
X192276245Y-87685714D01*
X192276245Y-87685714D02*
X192323864Y-87638095D01*
X192323864Y-87638095D02*
X192419102Y-87590476D01*
X284354819Y-86535714D02*
X283354819Y-86535714D01*
X283354819Y-86535714D02*
X283354819Y-86773809D01*
X283354819Y-86773809D02*
X283402438Y-86916666D01*
X283402438Y-86916666D02*
X283497676Y-87011904D01*
X283497676Y-87011904D02*
X283592914Y-87059523D01*
X283592914Y-87059523D02*
X283783390Y-87107142D01*
X283783390Y-87107142D02*
X283926247Y-87107142D01*
X283926247Y-87107142D02*
X284116723Y-87059523D01*
X284116723Y-87059523D02*
X284211961Y-87011904D01*
X284211961Y-87011904D02*
X284307200Y-86916666D01*
X284307200Y-86916666D02*
X284354819Y-86773809D01*
X284354819Y-86773809D02*
X284354819Y-86535714D01*
X283688152Y-87964285D02*
X284354819Y-87964285D01*
X283307200Y-87726190D02*
X284021485Y-87488095D01*
X284021485Y-87488095D02*
X284021485Y-88107142D01*
X283354819Y-88678571D02*
X283354819Y-88773809D01*
X283354819Y-88773809D02*
X283402438Y-88869047D01*
X283402438Y-88869047D02*
X283450057Y-88916666D01*
X283450057Y-88916666D02*
X283545295Y-88964285D01*
X283545295Y-88964285D02*
X283735771Y-89011904D01*
X283735771Y-89011904D02*
X283973866Y-89011904D01*
X283973866Y-89011904D02*
X284164342Y-88964285D01*
X284164342Y-88964285D02*
X284259580Y-88916666D01*
X284259580Y-88916666D02*
X284307200Y-88869047D01*
X284307200Y-88869047D02*
X284354819Y-88773809D01*
X284354819Y-88773809D02*
X284354819Y-88678571D01*
X284354819Y-88678571D02*
X284307200Y-88583333D01*
X284307200Y-88583333D02*
X284259580Y-88535714D01*
X284259580Y-88535714D02*
X284164342Y-88488095D01*
X284164342Y-88488095D02*
X283973866Y-88440476D01*
X283973866Y-88440476D02*
X283735771Y-88440476D01*
X283735771Y-88440476D02*
X283545295Y-88488095D01*
X283545295Y-88488095D02*
X283450057Y-88535714D01*
X283450057Y-88535714D02*
X283402438Y-88583333D01*
X283402438Y-88583333D02*
X283354819Y-88678571D01*
X152733333Y-78954819D02*
X152733333Y-79669104D01*
X152733333Y-79669104D02*
X152780952Y-79811961D01*
X152780952Y-79811961D02*
X152876190Y-79907200D01*
X152876190Y-79907200D02*
X153019047Y-79954819D01*
X153019047Y-79954819D02*
X153114285Y-79954819D01*
X152352380Y-78954819D02*
X151733333Y-78954819D01*
X151733333Y-78954819D02*
X152066666Y-79335771D01*
X152066666Y-79335771D02*
X151923809Y-79335771D01*
X151923809Y-79335771D02*
X151828571Y-79383390D01*
X151828571Y-79383390D02*
X151780952Y-79431009D01*
X151780952Y-79431009D02*
X151733333Y-79526247D01*
X151733333Y-79526247D02*
X151733333Y-79764342D01*
X151733333Y-79764342D02*
X151780952Y-79859580D01*
X151780952Y-79859580D02*
X151828571Y-79907200D01*
X151828571Y-79907200D02*
X151923809Y-79954819D01*
X151923809Y-79954819D02*
X152209523Y-79954819D01*
X152209523Y-79954819D02*
X152304761Y-79907200D01*
X152304761Y-79907200D02*
X152352380Y-79859580D01*
X288404819Y-81185714D02*
X287404819Y-81185714D01*
X287404819Y-81185714D02*
X287404819Y-81423809D01*
X287404819Y-81423809D02*
X287452438Y-81566666D01*
X287452438Y-81566666D02*
X287547676Y-81661904D01*
X287547676Y-81661904D02*
X287642914Y-81709523D01*
X287642914Y-81709523D02*
X287833390Y-81757142D01*
X287833390Y-81757142D02*
X287976247Y-81757142D01*
X287976247Y-81757142D02*
X288166723Y-81709523D01*
X288166723Y-81709523D02*
X288261961Y-81661904D01*
X288261961Y-81661904D02*
X288357200Y-81566666D01*
X288357200Y-81566666D02*
X288404819Y-81423809D01*
X288404819Y-81423809D02*
X288404819Y-81185714D01*
X287404819Y-82090476D02*
X287404819Y-82709523D01*
X287404819Y-82709523D02*
X287785771Y-82376190D01*
X287785771Y-82376190D02*
X287785771Y-82519047D01*
X287785771Y-82519047D02*
X287833390Y-82614285D01*
X287833390Y-82614285D02*
X287881009Y-82661904D01*
X287881009Y-82661904D02*
X287976247Y-82709523D01*
X287976247Y-82709523D02*
X288214342Y-82709523D01*
X288214342Y-82709523D02*
X288309580Y-82661904D01*
X288309580Y-82661904D02*
X288357200Y-82614285D01*
X288357200Y-82614285D02*
X288404819Y-82519047D01*
X288404819Y-82519047D02*
X288404819Y-82233333D01*
X288404819Y-82233333D02*
X288357200Y-82138095D01*
X288357200Y-82138095D02*
X288309580Y-82090476D01*
X287404819Y-83566666D02*
X287404819Y-83376190D01*
X287404819Y-83376190D02*
X287452438Y-83280952D01*
X287452438Y-83280952D02*
X287500057Y-83233333D01*
X287500057Y-83233333D02*
X287642914Y-83138095D01*
X287642914Y-83138095D02*
X287833390Y-83090476D01*
X287833390Y-83090476D02*
X288214342Y-83090476D01*
X288214342Y-83090476D02*
X288309580Y-83138095D01*
X288309580Y-83138095D02*
X288357200Y-83185714D01*
X288357200Y-83185714D02*
X288404819Y-83280952D01*
X288404819Y-83280952D02*
X288404819Y-83471428D01*
X288404819Y-83471428D02*
X288357200Y-83566666D01*
X288357200Y-83566666D02*
X288309580Y-83614285D01*
X288309580Y-83614285D02*
X288214342Y-83661904D01*
X288214342Y-83661904D02*
X287976247Y-83661904D01*
X287976247Y-83661904D02*
X287881009Y-83614285D01*
X287881009Y-83614285D02*
X287833390Y-83566666D01*
X287833390Y-83566666D02*
X287785771Y-83471428D01*
X287785771Y-83471428D02*
X287785771Y-83280952D01*
X287785771Y-83280952D02*
X287833390Y-83185714D01*
X287833390Y-83185714D02*
X287881009Y-83138095D01*
X287881009Y-83138095D02*
X287976247Y-83090476D01*
X288304819Y-62835714D02*
X287304819Y-62835714D01*
X287304819Y-62835714D02*
X287304819Y-63073809D01*
X287304819Y-63073809D02*
X287352438Y-63216666D01*
X287352438Y-63216666D02*
X287447676Y-63311904D01*
X287447676Y-63311904D02*
X287542914Y-63359523D01*
X287542914Y-63359523D02*
X287733390Y-63407142D01*
X287733390Y-63407142D02*
X287876247Y-63407142D01*
X287876247Y-63407142D02*
X288066723Y-63359523D01*
X288066723Y-63359523D02*
X288161961Y-63311904D01*
X288161961Y-63311904D02*
X288257200Y-63216666D01*
X288257200Y-63216666D02*
X288304819Y-63073809D01*
X288304819Y-63073809D02*
X288304819Y-62835714D01*
X287304819Y-63740476D02*
X287304819Y-64359523D01*
X287304819Y-64359523D02*
X287685771Y-64026190D01*
X287685771Y-64026190D02*
X287685771Y-64169047D01*
X287685771Y-64169047D02*
X287733390Y-64264285D01*
X287733390Y-64264285D02*
X287781009Y-64311904D01*
X287781009Y-64311904D02*
X287876247Y-64359523D01*
X287876247Y-64359523D02*
X288114342Y-64359523D01*
X288114342Y-64359523D02*
X288209580Y-64311904D01*
X288209580Y-64311904D02*
X288257200Y-64264285D01*
X288257200Y-64264285D02*
X288304819Y-64169047D01*
X288304819Y-64169047D02*
X288304819Y-63883333D01*
X288304819Y-63883333D02*
X288257200Y-63788095D01*
X288257200Y-63788095D02*
X288209580Y-63740476D01*
X287304819Y-65264285D02*
X287304819Y-64788095D01*
X287304819Y-64788095D02*
X287781009Y-64740476D01*
X287781009Y-64740476D02*
X287733390Y-64788095D01*
X287733390Y-64788095D02*
X287685771Y-64883333D01*
X287685771Y-64883333D02*
X287685771Y-65121428D01*
X287685771Y-65121428D02*
X287733390Y-65216666D01*
X287733390Y-65216666D02*
X287781009Y-65264285D01*
X287781009Y-65264285D02*
X287876247Y-65311904D01*
X287876247Y-65311904D02*
X288114342Y-65311904D01*
X288114342Y-65311904D02*
X288209580Y-65264285D01*
X288209580Y-65264285D02*
X288257200Y-65216666D01*
X288257200Y-65216666D02*
X288304819Y-65121428D01*
X288304819Y-65121428D02*
X288304819Y-64883333D01*
X288304819Y-64883333D02*
X288257200Y-64788095D01*
X288257200Y-64788095D02*
X288209580Y-64740476D01*
X173790533Y-47135714D02*
X172790533Y-47135714D01*
X172790533Y-47135714D02*
X172790533Y-47373809D01*
X172790533Y-47373809D02*
X172838152Y-47516666D01*
X172838152Y-47516666D02*
X172933390Y-47611904D01*
X172933390Y-47611904D02*
X173028628Y-47659523D01*
X173028628Y-47659523D02*
X173219104Y-47707142D01*
X173219104Y-47707142D02*
X173361961Y-47707142D01*
X173361961Y-47707142D02*
X173552437Y-47659523D01*
X173552437Y-47659523D02*
X173647675Y-47611904D01*
X173647675Y-47611904D02*
X173742914Y-47516666D01*
X173742914Y-47516666D02*
X173790533Y-47373809D01*
X173790533Y-47373809D02*
X173790533Y-47135714D01*
X173790533Y-48659523D02*
X173790533Y-48088095D01*
X173790533Y-48373809D02*
X172790533Y-48373809D01*
X172790533Y-48373809D02*
X172933390Y-48278571D01*
X172933390Y-48278571D02*
X173028628Y-48183333D01*
X173028628Y-48183333D02*
X173076247Y-48088095D01*
X172790533Y-49278571D02*
X172790533Y-49373809D01*
X172790533Y-49373809D02*
X172838152Y-49469047D01*
X172838152Y-49469047D02*
X172885771Y-49516666D01*
X172885771Y-49516666D02*
X172981009Y-49564285D01*
X172981009Y-49564285D02*
X173171485Y-49611904D01*
X173171485Y-49611904D02*
X173409580Y-49611904D01*
X173409580Y-49611904D02*
X173600056Y-49564285D01*
X173600056Y-49564285D02*
X173695294Y-49516666D01*
X173695294Y-49516666D02*
X173742914Y-49469047D01*
X173742914Y-49469047D02*
X173790533Y-49373809D01*
X173790533Y-49373809D02*
X173790533Y-49278571D01*
X173790533Y-49278571D02*
X173742914Y-49183333D01*
X173742914Y-49183333D02*
X173695294Y-49135714D01*
X173695294Y-49135714D02*
X173600056Y-49088095D01*
X173600056Y-49088095D02*
X173409580Y-49040476D01*
X173409580Y-49040476D02*
X173171485Y-49040476D01*
X173171485Y-49040476D02*
X172981009Y-49088095D01*
X172981009Y-49088095D02*
X172885771Y-49135714D01*
X172885771Y-49135714D02*
X172838152Y-49183333D01*
X172838152Y-49183333D02*
X172790533Y-49278571D01*
X182014285Y-97854819D02*
X182014285Y-96854819D01*
X182014285Y-96854819D02*
X181776190Y-96854819D01*
X181776190Y-96854819D02*
X181633333Y-96902438D01*
X181633333Y-96902438D02*
X181538095Y-96997676D01*
X181538095Y-96997676D02*
X181490476Y-97092914D01*
X181490476Y-97092914D02*
X181442857Y-97283390D01*
X181442857Y-97283390D02*
X181442857Y-97426247D01*
X181442857Y-97426247D02*
X181490476Y-97616723D01*
X181490476Y-97616723D02*
X181538095Y-97711961D01*
X181538095Y-97711961D02*
X181633333Y-97807200D01*
X181633333Y-97807200D02*
X181776190Y-97854819D01*
X181776190Y-97854819D02*
X182014285Y-97854819D01*
X180490476Y-97854819D02*
X181061904Y-97854819D01*
X180776190Y-97854819D02*
X180776190Y-96854819D01*
X180776190Y-96854819D02*
X180871428Y-96997676D01*
X180871428Y-96997676D02*
X180966666Y-97092914D01*
X180966666Y-97092914D02*
X181061904Y-97140533D01*
X180157142Y-96854819D02*
X179538095Y-96854819D01*
X179538095Y-96854819D02*
X179871428Y-97235771D01*
X179871428Y-97235771D02*
X179728571Y-97235771D01*
X179728571Y-97235771D02*
X179633333Y-97283390D01*
X179633333Y-97283390D02*
X179585714Y-97331009D01*
X179585714Y-97331009D02*
X179538095Y-97426247D01*
X179538095Y-97426247D02*
X179538095Y-97664342D01*
X179538095Y-97664342D02*
X179585714Y-97759580D01*
X179585714Y-97759580D02*
X179633333Y-97807200D01*
X179633333Y-97807200D02*
X179728571Y-97854819D01*
X179728571Y-97854819D02*
X180014285Y-97854819D01*
X180014285Y-97854819D02*
X180109523Y-97807200D01*
X180109523Y-97807200D02*
X180157142Y-97759580D01*
X192947674Y-66535714D02*
X191947674Y-66535714D01*
X191947674Y-66535714D02*
X191947674Y-66773809D01*
X191947674Y-66773809D02*
X191995293Y-66916666D01*
X191995293Y-66916666D02*
X192090531Y-67011904D01*
X192090531Y-67011904D02*
X192185769Y-67059523D01*
X192185769Y-67059523D02*
X192376245Y-67107142D01*
X192376245Y-67107142D02*
X192519102Y-67107142D01*
X192519102Y-67107142D02*
X192709578Y-67059523D01*
X192709578Y-67059523D02*
X192804816Y-67011904D01*
X192804816Y-67011904D02*
X192900055Y-66916666D01*
X192900055Y-66916666D02*
X192947674Y-66773809D01*
X192947674Y-66773809D02*
X192947674Y-66535714D01*
X192947674Y-68059523D02*
X192947674Y-67488095D01*
X192947674Y-67773809D02*
X191947674Y-67773809D01*
X191947674Y-67773809D02*
X192090531Y-67678571D01*
X192090531Y-67678571D02*
X192185769Y-67583333D01*
X192185769Y-67583333D02*
X192233388Y-67488095D01*
X191947674Y-68964285D02*
X191947674Y-68488095D01*
X191947674Y-68488095D02*
X192423864Y-68440476D01*
X192423864Y-68440476D02*
X192376245Y-68488095D01*
X192376245Y-68488095D02*
X192328626Y-68583333D01*
X192328626Y-68583333D02*
X192328626Y-68821428D01*
X192328626Y-68821428D02*
X192376245Y-68916666D01*
X192376245Y-68916666D02*
X192423864Y-68964285D01*
X192423864Y-68964285D02*
X192519102Y-69011904D01*
X192519102Y-69011904D02*
X192757197Y-69011904D01*
X192757197Y-69011904D02*
X192852435Y-68964285D01*
X192852435Y-68964285D02*
X192900055Y-68916666D01*
X192900055Y-68916666D02*
X192947674Y-68821428D01*
X192947674Y-68821428D02*
X192947674Y-68583333D01*
X192947674Y-68583333D02*
X192900055Y-68488095D01*
X192900055Y-68488095D02*
X192852435Y-68440476D01*
X288054819Y-42585714D02*
X287054819Y-42585714D01*
X287054819Y-42585714D02*
X287054819Y-42823809D01*
X287054819Y-42823809D02*
X287102438Y-42966666D01*
X287102438Y-42966666D02*
X287197676Y-43061904D01*
X287197676Y-43061904D02*
X287292914Y-43109523D01*
X287292914Y-43109523D02*
X287483390Y-43157142D01*
X287483390Y-43157142D02*
X287626247Y-43157142D01*
X287626247Y-43157142D02*
X287816723Y-43109523D01*
X287816723Y-43109523D02*
X287911961Y-43061904D01*
X287911961Y-43061904D02*
X288007200Y-42966666D01*
X288007200Y-42966666D02*
X288054819Y-42823809D01*
X288054819Y-42823809D02*
X288054819Y-42585714D01*
X287054819Y-43490476D02*
X287054819Y-44109523D01*
X287054819Y-44109523D02*
X287435771Y-43776190D01*
X287435771Y-43776190D02*
X287435771Y-43919047D01*
X287435771Y-43919047D02*
X287483390Y-44014285D01*
X287483390Y-44014285D02*
X287531009Y-44061904D01*
X287531009Y-44061904D02*
X287626247Y-44109523D01*
X287626247Y-44109523D02*
X287864342Y-44109523D01*
X287864342Y-44109523D02*
X287959580Y-44061904D01*
X287959580Y-44061904D02*
X288007200Y-44014285D01*
X288007200Y-44014285D02*
X288054819Y-43919047D01*
X288054819Y-43919047D02*
X288054819Y-43633333D01*
X288054819Y-43633333D02*
X288007200Y-43538095D01*
X288007200Y-43538095D02*
X287959580Y-43490476D01*
X287388152Y-44966666D02*
X288054819Y-44966666D01*
X287007200Y-44728571D02*
X287721485Y-44490476D01*
X287721485Y-44490476D02*
X287721485Y-45109523D01*
X269004819Y-47135714D02*
X268004819Y-47135714D01*
X268004819Y-47135714D02*
X268004819Y-47373809D01*
X268004819Y-47373809D02*
X268052438Y-47516666D01*
X268052438Y-47516666D02*
X268147676Y-47611904D01*
X268147676Y-47611904D02*
X268242914Y-47659523D01*
X268242914Y-47659523D02*
X268433390Y-47707142D01*
X268433390Y-47707142D02*
X268576247Y-47707142D01*
X268576247Y-47707142D02*
X268766723Y-47659523D01*
X268766723Y-47659523D02*
X268861961Y-47611904D01*
X268861961Y-47611904D02*
X268957200Y-47516666D01*
X268957200Y-47516666D02*
X269004819Y-47373809D01*
X269004819Y-47373809D02*
X269004819Y-47135714D01*
X268004819Y-48040476D02*
X268004819Y-48659523D01*
X268004819Y-48659523D02*
X268385771Y-48326190D01*
X268385771Y-48326190D02*
X268385771Y-48469047D01*
X268385771Y-48469047D02*
X268433390Y-48564285D01*
X268433390Y-48564285D02*
X268481009Y-48611904D01*
X268481009Y-48611904D02*
X268576247Y-48659523D01*
X268576247Y-48659523D02*
X268814342Y-48659523D01*
X268814342Y-48659523D02*
X268909580Y-48611904D01*
X268909580Y-48611904D02*
X268957200Y-48564285D01*
X268957200Y-48564285D02*
X269004819Y-48469047D01*
X269004819Y-48469047D02*
X269004819Y-48183333D01*
X269004819Y-48183333D02*
X268957200Y-48088095D01*
X268957200Y-48088095D02*
X268909580Y-48040476D01*
X268004819Y-49278571D02*
X268004819Y-49373809D01*
X268004819Y-49373809D02*
X268052438Y-49469047D01*
X268052438Y-49469047D02*
X268100057Y-49516666D01*
X268100057Y-49516666D02*
X268195295Y-49564285D01*
X268195295Y-49564285D02*
X268385771Y-49611904D01*
X268385771Y-49611904D02*
X268623866Y-49611904D01*
X268623866Y-49611904D02*
X268814342Y-49564285D01*
X268814342Y-49564285D02*
X268909580Y-49516666D01*
X268909580Y-49516666D02*
X268957200Y-49469047D01*
X268957200Y-49469047D02*
X269004819Y-49373809D01*
X269004819Y-49373809D02*
X269004819Y-49278571D01*
X269004819Y-49278571D02*
X268957200Y-49183333D01*
X268957200Y-49183333D02*
X268909580Y-49135714D01*
X268909580Y-49135714D02*
X268814342Y-49088095D01*
X268814342Y-49088095D02*
X268623866Y-49040476D01*
X268623866Y-49040476D02*
X268385771Y-49040476D01*
X268385771Y-49040476D02*
X268195295Y-49088095D01*
X268195295Y-49088095D02*
X268100057Y-49135714D01*
X268100057Y-49135714D02*
X268052438Y-49183333D01*
X268052438Y-49183333D02*
X268004819Y-49278571D01*
X154754819Y-86061905D02*
X153754819Y-86061905D01*
X153754819Y-86061905D02*
X153754819Y-86300000D01*
X153754819Y-86300000D02*
X153802438Y-86442857D01*
X153802438Y-86442857D02*
X153897676Y-86538095D01*
X153897676Y-86538095D02*
X153992914Y-86585714D01*
X153992914Y-86585714D02*
X154183390Y-86633333D01*
X154183390Y-86633333D02*
X154326247Y-86633333D01*
X154326247Y-86633333D02*
X154516723Y-86585714D01*
X154516723Y-86585714D02*
X154611961Y-86538095D01*
X154611961Y-86538095D02*
X154707200Y-86442857D01*
X154707200Y-86442857D02*
X154754819Y-86300000D01*
X154754819Y-86300000D02*
X154754819Y-86061905D01*
X154183390Y-87204762D02*
X154135771Y-87109524D01*
X154135771Y-87109524D02*
X154088152Y-87061905D01*
X154088152Y-87061905D02*
X153992914Y-87014286D01*
X153992914Y-87014286D02*
X153945295Y-87014286D01*
X153945295Y-87014286D02*
X153850057Y-87061905D01*
X153850057Y-87061905D02*
X153802438Y-87109524D01*
X153802438Y-87109524D02*
X153754819Y-87204762D01*
X153754819Y-87204762D02*
X153754819Y-87395238D01*
X153754819Y-87395238D02*
X153802438Y-87490476D01*
X153802438Y-87490476D02*
X153850057Y-87538095D01*
X153850057Y-87538095D02*
X153945295Y-87585714D01*
X153945295Y-87585714D02*
X153992914Y-87585714D01*
X153992914Y-87585714D02*
X154088152Y-87538095D01*
X154088152Y-87538095D02*
X154135771Y-87490476D01*
X154135771Y-87490476D02*
X154183390Y-87395238D01*
X154183390Y-87395238D02*
X154183390Y-87204762D01*
X154183390Y-87204762D02*
X154231009Y-87109524D01*
X154231009Y-87109524D02*
X154278628Y-87061905D01*
X154278628Y-87061905D02*
X154373866Y-87014286D01*
X154373866Y-87014286D02*
X154564342Y-87014286D01*
X154564342Y-87014286D02*
X154659580Y-87061905D01*
X154659580Y-87061905D02*
X154707200Y-87109524D01*
X154707200Y-87109524D02*
X154754819Y-87204762D01*
X154754819Y-87204762D02*
X154754819Y-87395238D01*
X154754819Y-87395238D02*
X154707200Y-87490476D01*
X154707200Y-87490476D02*
X154659580Y-87538095D01*
X154659580Y-87538095D02*
X154564342Y-87585714D01*
X154564342Y-87585714D02*
X154373866Y-87585714D01*
X154373866Y-87585714D02*
X154278628Y-87538095D01*
X154278628Y-87538095D02*
X154231009Y-87490476D01*
X154231009Y-87490476D02*
X154183390Y-87395238D01*
D13*
%TO.C,D23*%
X227621425Y-66100000D02*
X227621425Y-70110000D01*
X227621425Y-70110000D02*
X229621425Y-70110000D01*
X229621425Y-66100000D02*
X229621425Y-70110000D01*
%TO.C,D39*%
X286850000Y-71000000D02*
X286850000Y-66990000D01*
X286850000Y-66990000D02*
X284850000Y-66990000D01*
X284850000Y-71000000D02*
X284850000Y-66990000D01*
%TO.C,D32*%
X265450000Y-85250000D02*
X265450000Y-89260000D01*
X265450000Y-89260000D02*
X267450000Y-89260000D01*
X267450000Y-85250000D02*
X267450000Y-89260000D01*
%TO.C,D26*%
X248507142Y-46700000D02*
X248507142Y-50710000D01*
X246507142Y-50710000D02*
X248507142Y-50710000D01*
X246507142Y-46700000D02*
X246507142Y-50710000D01*
%TO.C,D24*%
X227421425Y-85250000D02*
X227421425Y-89260000D01*
X227421425Y-89260000D02*
X229421425Y-89260000D01*
X229421425Y-85250000D02*
X229421425Y-89260000D01*
%TO.C,D14*%
X189378571Y-46700000D02*
X189378571Y-50710000D01*
X189378571Y-50710000D02*
X191378571Y-50710000D01*
X191378571Y-46700000D02*
X191378571Y-50710000D01*
%TO.C,D11*%
X170428570Y-66100000D02*
X170428570Y-70110000D01*
X170428570Y-70110000D02*
X172428570Y-70110000D01*
X172428570Y-66100000D02*
X172428570Y-70110000D01*
%TO.C,D27*%
X246685710Y-66100000D02*
X246685710Y-70110000D01*
X246685710Y-70110000D02*
X248685710Y-70110000D01*
X248685710Y-66100000D02*
X248685710Y-70110000D01*
%TO.C,D7*%
X151364285Y-66100000D02*
X151364285Y-70110000D01*
X151364285Y-70110000D02*
X153364285Y-70110000D01*
X153364285Y-66100000D02*
X153364285Y-70110000D01*
%TO.C,D25*%
X240400000Y-96450000D02*
X236390000Y-96450000D01*
X236390000Y-94450000D02*
X236390000Y-96450000D01*
X240400000Y-94450000D02*
X236390000Y-94450000D01*
%TO.C,D31*%
X265750000Y-66100000D02*
X265750000Y-70110000D01*
X265750000Y-70110000D02*
X267750000Y-70110000D01*
X267750000Y-66100000D02*
X267750000Y-70110000D01*
%TO.C,D21*%
X221083332Y-96400000D02*
X217073332Y-96400000D01*
X217073332Y-94400000D02*
X217073332Y-96400000D01*
X221083332Y-94400000D02*
X217073332Y-94400000D01*
%TO.C,D28*%
X246435710Y-85250000D02*
X246435710Y-89260000D01*
X246435710Y-89260000D02*
X248435710Y-89260000D01*
X248435710Y-85250000D02*
X248435710Y-89260000D01*
%TO.C,D22*%
X229464285Y-46700000D02*
X229464285Y-50710000D01*
X227464285Y-50710000D02*
X229464285Y-50710000D01*
X227464285Y-46700000D02*
X227464285Y-50710000D01*
%TO.C,D1*%
X132250000Y-46700000D02*
X132250000Y-50710000D01*
X132250000Y-50710000D02*
X134250000Y-50710000D01*
X134250000Y-46700000D02*
X134250000Y-50710000D01*
%TO.C,D2*%
X132300000Y-66100000D02*
X132300000Y-70110000D01*
X132300000Y-70110000D02*
X134300000Y-70110000D01*
X134300000Y-66100000D02*
X134300000Y-70110000D01*
%TO.C,D20*%
X208407140Y-85250000D02*
X208407140Y-89260000D01*
X208407140Y-89260000D02*
X210407140Y-89260000D01*
X210407140Y-85250000D02*
X210407140Y-89260000D01*
%TO.C,D3*%
X132350000Y-85250000D02*
X132350000Y-89260000D01*
X132350000Y-89260000D02*
X134350000Y-89260000D01*
X134350000Y-85250000D02*
X134350000Y-89260000D01*
%TO.C,D17*%
X201766666Y-96500000D02*
X197756666Y-96500000D01*
X197756666Y-94500000D02*
X197756666Y-96500000D01*
X201766666Y-94500000D02*
X197756666Y-94500000D01*
%TO.C,D19*%
X208557140Y-66100000D02*
X208557140Y-70110000D01*
X208557140Y-70110000D02*
X210557140Y-70110000D01*
X210557140Y-66100000D02*
X210557140Y-70110000D01*
%TO.C,D38*%
X286600000Y-50750000D02*
X286600000Y-46740000D01*
X286600000Y-46740000D02*
X284600000Y-46740000D01*
X284600000Y-50750000D02*
X284600000Y-46740000D01*
%TO.C,D18*%
X208421428Y-46700000D02*
X208421428Y-50710000D01*
X208421428Y-50710000D02*
X210421428Y-50710000D01*
X210421428Y-46700000D02*
X210421428Y-50710000D01*
%TO.C,D12*%
X170378570Y-85250000D02*
X170378570Y-89260000D01*
X170378570Y-89260000D02*
X172378570Y-89260000D01*
X172378570Y-85250000D02*
X172378570Y-89260000D01*
%TO.C,D6*%
X151292857Y-46700000D02*
X151292857Y-50710000D01*
X151292857Y-50710000D02*
X153292857Y-50710000D01*
X153292857Y-46700000D02*
X153292857Y-50710000D01*
%TO.C,D16*%
X189392855Y-85250000D02*
X189392855Y-89260000D01*
X189392855Y-89260000D02*
X191392855Y-89260000D01*
X191392855Y-85250000D02*
X191392855Y-89260000D01*
%TO.C,D40*%
X286900000Y-89400000D02*
X286900000Y-85390000D01*
X286900000Y-85390000D02*
X284900000Y-85390000D01*
X284900000Y-89400000D02*
X284900000Y-85390000D01*
%TO.C,J3*%
X150190000Y-78090000D02*
X150190000Y-74760000D01*
X151240000Y-78090000D02*
X150190000Y-78090000D01*
X151240000Y-78300000D02*
X151240000Y-78090000D01*
X151550000Y-79153553D02*
X152050000Y-79153553D01*
X151760000Y-73370000D02*
X151260000Y-73370000D01*
X151800000Y-78800000D02*
X151550000Y-79153553D01*
X152050000Y-79153553D02*
X151800000Y-78800000D01*
X152060000Y-73870000D02*
X151760000Y-73370000D01*
X152740000Y-73870000D02*
X152060000Y-73870000D01*
X153040000Y-73370000D02*
X152740000Y-73870000D01*
X153540000Y-73370000D02*
X153040000Y-73370000D01*
X153560000Y-78090000D02*
X154610000Y-78090000D01*
X154610000Y-78090000D02*
X154610000Y-74760000D01*
%TO.C,D36*%
X284950000Y-80750000D02*
X284950000Y-84760000D01*
X284950000Y-84760000D02*
X286950000Y-84760000D01*
X286950000Y-80750000D02*
X286950000Y-84760000D01*
%TO.C,D35*%
X284850000Y-62400000D02*
X284850000Y-66410000D01*
X284850000Y-66410000D02*
X286850000Y-66410000D01*
X286850000Y-62400000D02*
X286850000Y-66410000D01*
%TO.C,D10*%
X170335714Y-46700000D02*
X170335714Y-50710000D01*
X170335714Y-50710000D02*
X172335714Y-50710000D01*
X172335714Y-46700000D02*
X172335714Y-50710000D01*
%TO.C,D13*%
X182450000Y-96400000D02*
X178440000Y-96400000D01*
X178440000Y-94400000D02*
X178440000Y-96400000D01*
X182450000Y-94400000D02*
X178440000Y-94400000D01*
%TO.C,D15*%
X189492855Y-66100000D02*
X189492855Y-70110000D01*
X189492855Y-70110000D02*
X191492855Y-70110000D01*
X191492855Y-66100000D02*
X191492855Y-70110000D01*
%TO.C,D34*%
X286600000Y-42150000D02*
X286600000Y-46160000D01*
X284600000Y-46160000D02*
X286600000Y-46160000D01*
X284600000Y-42150000D02*
X284600000Y-46160000D01*
%TO.C,D30*%
X265550000Y-46700000D02*
X265550000Y-50710000D01*
X265550000Y-50710000D02*
X267550000Y-50710000D01*
X267550000Y-46700000D02*
X267550000Y-50710000D01*
%TO.C,D8*%
X151300000Y-85150000D02*
X151300000Y-89160000D01*
X151300000Y-89160000D02*
X153300000Y-89160000D01*
X153300000Y-85150000D02*
X153300000Y-89160000D01*
%TD*%
%LPC*%
D14*
%TO.C,JSWD1*%
X118430000Y-95800000D03*
D15*
X120970000Y-95800000D03*
X123510000Y-95800000D03*
X126050000Y-95800000D03*
%TD*%
D14*
%TO.C,J2*%
X248900000Y-109275723D03*
D15*
X248900000Y-106735723D03*
%TD*%
D16*
%TO.C,SW27*%
X232625000Y-104775000D03*
D17*
X233045000Y-104775000D03*
D18*
X238125000Y-104775000D03*
D19*
X238125000Y-104775000D03*
D17*
X243205000Y-104775000D03*
D16*
X243625000Y-104775000D03*
D20*
X234315000Y-102235000D03*
D21*
X238125000Y-98875000D03*
D20*
X240665000Y-99695000D03*
D21*
X243125000Y-100975000D03*
%TD*%
D16*
%TO.C,SW20*%
X289775000Y-85725000D03*
D17*
X290195000Y-85725000D03*
D18*
X295275000Y-85725000D03*
D19*
X295275000Y-85725000D03*
D17*
X300355000Y-85725000D03*
D16*
X300775000Y-85725000D03*
D20*
X291465000Y-83185000D03*
D21*
X295275000Y-79825000D03*
D20*
X297815000Y-80645000D03*
D21*
X300275000Y-81925000D03*
%TD*%
D16*
%TO.C,SW19*%
X270725000Y-85725000D03*
D17*
X271145000Y-85725000D03*
D18*
X276225000Y-85725000D03*
D19*
X276225000Y-85725000D03*
D17*
X281305000Y-85725000D03*
D16*
X281725000Y-85725000D03*
D20*
X272415000Y-83185000D03*
D21*
X276225000Y-79825000D03*
D20*
X278765000Y-80645000D03*
D21*
X281225000Y-81925000D03*
%TD*%
D16*
%TO.C,SW33*%
X156425000Y-47625000D03*
D17*
X156845000Y-47625000D03*
D18*
X161925000Y-47625000D03*
D19*
X161925000Y-47625000D03*
D17*
X167005000Y-47625000D03*
D16*
X167425000Y-47625000D03*
D20*
X158115000Y-45085000D03*
D21*
X161925000Y-41725000D03*
D20*
X164465000Y-42545000D03*
D21*
X166925000Y-43825000D03*
%TD*%
D16*
%TO.C,SW35*%
X194525000Y-47625000D03*
D17*
X194945000Y-47625000D03*
D18*
X200025000Y-47625000D03*
D19*
X200025000Y-47625000D03*
D17*
X205105000Y-47625000D03*
D16*
X205525000Y-47625000D03*
D20*
X196215000Y-45085000D03*
D21*
X200025000Y-41725000D03*
D20*
X202565000Y-42545000D03*
D21*
X205025000Y-43825000D03*
%TD*%
D16*
%TO.C,SW12*%
X137375000Y-85725000D03*
D17*
X137795000Y-85725000D03*
D18*
X142875000Y-85725000D03*
D19*
X142875000Y-85725000D03*
D17*
X147955000Y-85725000D03*
D16*
X148375000Y-85725000D03*
D20*
X139065000Y-83185000D03*
D21*
X142875000Y-79825000D03*
D20*
X145415000Y-80645000D03*
D21*
X147875000Y-81925000D03*
%TD*%
D16*
%TO.C,SW37*%
X232625000Y-47625000D03*
D17*
X233045000Y-47625000D03*
D18*
X238125000Y-47625000D03*
D19*
X238125000Y-47625000D03*
D17*
X243205000Y-47625000D03*
D16*
X243625000Y-47625000D03*
D20*
X234315000Y-45085000D03*
D21*
X238125000Y-41725000D03*
D20*
X240665000Y-42545000D03*
D21*
X243125000Y-43825000D03*
%TD*%
D16*
%TO.C,SW26*%
X213575000Y-104775000D03*
D17*
X213995000Y-104775000D03*
D18*
X219075000Y-104775000D03*
D19*
X219075000Y-104775000D03*
D17*
X224155000Y-104775000D03*
D16*
X224575000Y-104775000D03*
D20*
X215265000Y-102235000D03*
D21*
X219075000Y-98875000D03*
D20*
X221615000Y-99695000D03*
D21*
X224075000Y-100975000D03*
%TD*%
D16*
%TO.C,SW32*%
X137375000Y-47625000D03*
D17*
X137795000Y-47625000D03*
D18*
X142875000Y-47625000D03*
D19*
X142875000Y-47625000D03*
D17*
X147955000Y-47625000D03*
D16*
X148375000Y-47625000D03*
D20*
X139065000Y-45085000D03*
D21*
X142875000Y-41725000D03*
D20*
X145415000Y-42545000D03*
D21*
X147875000Y-43825000D03*
%TD*%
D16*
%TO.C,SW15*%
X194525000Y-85725000D03*
D17*
X194945000Y-85725000D03*
D18*
X200025000Y-85725000D03*
D19*
X200025000Y-85725000D03*
D17*
X205105000Y-85725000D03*
D16*
X205525000Y-85725000D03*
D20*
X196215000Y-83185000D03*
D21*
X200025000Y-79825000D03*
D20*
X202565000Y-80645000D03*
D21*
X205025000Y-81925000D03*
%TD*%
D16*
%TO.C,SW7*%
X232625000Y-66675000D03*
D17*
X233045000Y-66675000D03*
D18*
X238125000Y-66675000D03*
D19*
X238125000Y-66675000D03*
D17*
X243205000Y-66675000D03*
D16*
X243625000Y-66675000D03*
D20*
X234315000Y-64135000D03*
D21*
X238125000Y-60775000D03*
D20*
X240665000Y-61595000D03*
D21*
X243125000Y-62875000D03*
%TD*%
D16*
%TO.C,SW34*%
X175475000Y-47625000D03*
D17*
X175895000Y-47625000D03*
D18*
X180975000Y-47625000D03*
D19*
X180975000Y-47625000D03*
D17*
X186055000Y-47625000D03*
D16*
X186475000Y-47625000D03*
D20*
X177165000Y-45085000D03*
D21*
X180975000Y-41725000D03*
D20*
X183515000Y-42545000D03*
D21*
X185975000Y-43825000D03*
%TD*%
D16*
%TO.C,SW25*%
X194525000Y-104775000D03*
D17*
X194945000Y-104775000D03*
D18*
X200025000Y-104775000D03*
D19*
X200025000Y-104775000D03*
D17*
X205105000Y-104775000D03*
D16*
X205525000Y-104775000D03*
D20*
X196215000Y-102235000D03*
D21*
X200025000Y-98875000D03*
D20*
X202565000Y-99695000D03*
D21*
X205025000Y-100975000D03*
%TD*%
D16*
%TO.C,SW38*%
X251675000Y-47625000D03*
D17*
X252095000Y-47625000D03*
D18*
X257175000Y-47625000D03*
D19*
X257175000Y-47625000D03*
D17*
X262255000Y-47625000D03*
D16*
X262675000Y-47625000D03*
D20*
X253365000Y-45085000D03*
D21*
X257175000Y-41725000D03*
D20*
X259715000Y-42545000D03*
D21*
X262175000Y-43825000D03*
%TD*%
D16*
%TO.C,SW31*%
X118325000Y-47625000D03*
D17*
X118745000Y-47625000D03*
D18*
X123825000Y-47625000D03*
D19*
X123825000Y-47625000D03*
D17*
X128905000Y-47625000D03*
D16*
X129325000Y-47625000D03*
D20*
X120015000Y-45085000D03*
D21*
X123825000Y-41725000D03*
D20*
X126365000Y-42545000D03*
D21*
X128825000Y-43825000D03*
%TD*%
D16*
%TO.C,SW13*%
X156425000Y-85725000D03*
D17*
X156845000Y-85725000D03*
D18*
X161925000Y-85725000D03*
D19*
X161925000Y-85725000D03*
D17*
X167005000Y-85725000D03*
D16*
X167425000Y-85725000D03*
D20*
X158115000Y-83185000D03*
D21*
X161925000Y-79825000D03*
D20*
X164465000Y-80645000D03*
D21*
X166925000Y-81925000D03*
%TD*%
D16*
%TO.C,SW6*%
X213575000Y-66675000D03*
D17*
X213995000Y-66675000D03*
D18*
X219075000Y-66675000D03*
D19*
X219075000Y-66675000D03*
D17*
X224155000Y-66675000D03*
D16*
X224575000Y-66675000D03*
D20*
X215265000Y-64135000D03*
D21*
X219075000Y-60775000D03*
D20*
X221615000Y-61595000D03*
D21*
X224075000Y-62875000D03*
%TD*%
D16*
%TO.C,SW2*%
X137375000Y-66675000D03*
D17*
X137795000Y-66675000D03*
D18*
X142875000Y-66675000D03*
D19*
X142875000Y-66675000D03*
D17*
X147955000Y-66675000D03*
D16*
X148375000Y-66675000D03*
D20*
X139065000Y-64135000D03*
D21*
X142875000Y-60775000D03*
D20*
X145415000Y-61595000D03*
D21*
X147875000Y-62875000D03*
%TD*%
D16*
%TO.C,SW3*%
X156425000Y-66675000D03*
D17*
X156845000Y-66675000D03*
D18*
X161925000Y-66675000D03*
D19*
X161925000Y-66675000D03*
D17*
X167005000Y-66675000D03*
D16*
X167425000Y-66675000D03*
D20*
X158115000Y-64135000D03*
D21*
X161925000Y-60775000D03*
D20*
X164465000Y-61595000D03*
D21*
X166925000Y-62875000D03*
%TD*%
D16*
%TO.C,SW11*%
X118325000Y-85725000D03*
D17*
X118745000Y-85725000D03*
D18*
X123825000Y-85725000D03*
D19*
X123825000Y-85725000D03*
D17*
X128905000Y-85725000D03*
D16*
X129325000Y-85725000D03*
D20*
X120015000Y-83185000D03*
D21*
X123825000Y-79825000D03*
D20*
X126365000Y-80645000D03*
D21*
X128825000Y-81925000D03*
%TD*%
D16*
%TO.C,SW24*%
X175475000Y-104775000D03*
D17*
X175895000Y-104775000D03*
D18*
X180975000Y-104775000D03*
D19*
X180975000Y-104775000D03*
D17*
X186055000Y-104775000D03*
D16*
X186475000Y-104775000D03*
D20*
X177165000Y-102235000D03*
D21*
X180975000Y-98875000D03*
D20*
X183515000Y-99695000D03*
D21*
X185975000Y-100975000D03*
%TD*%
D16*
%TO.C,SW1*%
X118325000Y-66675000D03*
D17*
X118745000Y-66675000D03*
D18*
X123825000Y-66675000D03*
D19*
X123825000Y-66675000D03*
D17*
X128905000Y-66675000D03*
D16*
X129325000Y-66675000D03*
D20*
X120015000Y-64135000D03*
D21*
X123825000Y-60775000D03*
D20*
X126365000Y-61595000D03*
D21*
X128825000Y-62875000D03*
%TD*%
D16*
%TO.C,SW39*%
X270725000Y-47625000D03*
D17*
X271145000Y-47625000D03*
D18*
X276225000Y-47625000D03*
D19*
X276225000Y-47625000D03*
D17*
X281305000Y-47625000D03*
D16*
X281725000Y-47625000D03*
D20*
X272415000Y-45085000D03*
D21*
X276225000Y-41725000D03*
D20*
X278765000Y-42545000D03*
D21*
X281225000Y-43825000D03*
%TD*%
D16*
%TO.C,SW4*%
X175475000Y-66675000D03*
D17*
X175895000Y-66675000D03*
D18*
X180975000Y-66675000D03*
D19*
X180975000Y-66675000D03*
D17*
X186055000Y-66675000D03*
D16*
X186475000Y-66675000D03*
D20*
X177165000Y-64135000D03*
D21*
X180975000Y-60775000D03*
D20*
X183515000Y-61595000D03*
D21*
X185975000Y-62875000D03*
%TD*%
D16*
%TO.C,SW8*%
X251675000Y-66675000D03*
D17*
X252095000Y-66675000D03*
D18*
X257175000Y-66675000D03*
D19*
X257175000Y-66675000D03*
D17*
X262255000Y-66675000D03*
D16*
X262675000Y-66675000D03*
D20*
X253365000Y-64135000D03*
D21*
X257175000Y-60775000D03*
D20*
X259715000Y-61595000D03*
D21*
X262175000Y-62875000D03*
%TD*%
D16*
%TO.C,SW5*%
X194525000Y-66675000D03*
D17*
X194945000Y-66675000D03*
D18*
X200025000Y-66675000D03*
D19*
X200025000Y-66675000D03*
D17*
X205105000Y-66675000D03*
D16*
X205525000Y-66675000D03*
D20*
X196215000Y-64135000D03*
D21*
X200025000Y-60775000D03*
D20*
X202565000Y-61595000D03*
D21*
X205025000Y-62875000D03*
%TD*%
D16*
%TO.C,SW40*%
X289775000Y-47625000D03*
D17*
X290195000Y-47625000D03*
D18*
X295275000Y-47625000D03*
D19*
X295275000Y-47625000D03*
D17*
X300355000Y-47625000D03*
D16*
X300775000Y-47625000D03*
D20*
X291465000Y-45085000D03*
D21*
X295275000Y-41725000D03*
D20*
X297815000Y-42545000D03*
D21*
X300275000Y-43825000D03*
%TD*%
D16*
%TO.C,SW10*%
X289775000Y-66725000D03*
D17*
X290195000Y-66725000D03*
D18*
X295275000Y-66725000D03*
D19*
X295275000Y-66725000D03*
D17*
X300355000Y-66725000D03*
D16*
X300775000Y-66725000D03*
D20*
X291465000Y-64185000D03*
D21*
X295275000Y-60825000D03*
D20*
X297815000Y-61645000D03*
D21*
X300275000Y-62925000D03*
%TD*%
D16*
%TO.C,SW17*%
X232625000Y-85725000D03*
D17*
X233045000Y-85725000D03*
D18*
X238125000Y-85725000D03*
D19*
X238125000Y-85725000D03*
D17*
X243205000Y-85725000D03*
D16*
X243625000Y-85725000D03*
D20*
X234315000Y-83185000D03*
D21*
X238125000Y-79825000D03*
D20*
X240665000Y-80645000D03*
D21*
X243125000Y-81925000D03*
%TD*%
D16*
%TO.C,SW16*%
X213575000Y-85725000D03*
D17*
X213995000Y-85725000D03*
D18*
X219075000Y-85725000D03*
D19*
X219075000Y-85725000D03*
D17*
X224155000Y-85725000D03*
D16*
X224575000Y-85725000D03*
D20*
X215265000Y-83185000D03*
D21*
X219075000Y-79825000D03*
D20*
X221615000Y-80645000D03*
D21*
X224075000Y-81925000D03*
%TD*%
D16*
%TO.C,SW14*%
X175475000Y-85725000D03*
D17*
X175895000Y-85725000D03*
D18*
X180975000Y-85725000D03*
D19*
X180975000Y-85725000D03*
D17*
X186055000Y-85725000D03*
D16*
X186475000Y-85725000D03*
D20*
X177165000Y-83185000D03*
D21*
X180975000Y-79825000D03*
D20*
X183515000Y-80645000D03*
D21*
X185975000Y-81925000D03*
%TD*%
D16*
%TO.C,SW18*%
X251675000Y-85725000D03*
D17*
X252095000Y-85725000D03*
D18*
X257175000Y-85725000D03*
D19*
X257175000Y-85725000D03*
D17*
X262255000Y-85725000D03*
D16*
X262675000Y-85725000D03*
D20*
X253365000Y-83185000D03*
D21*
X257175000Y-79825000D03*
D20*
X259715000Y-80645000D03*
D21*
X262175000Y-81925000D03*
%TD*%
D16*
%TO.C,SW36*%
X213575000Y-47625000D03*
D17*
X213995000Y-47625000D03*
D18*
X219075000Y-47625000D03*
D19*
X219075000Y-47625000D03*
D17*
X224155000Y-47625000D03*
D16*
X224575000Y-47625000D03*
D20*
X215265000Y-45085000D03*
D21*
X219075000Y-41725000D03*
D20*
X221615000Y-42545000D03*
D21*
X224075000Y-43825000D03*
%TD*%
D16*
%TO.C,SW9*%
X270725000Y-66675000D03*
D17*
X271145000Y-66675000D03*
D18*
X276225000Y-66675000D03*
D19*
X276225000Y-66675000D03*
D17*
X281305000Y-66675000D03*
D16*
X281725000Y-66675000D03*
D20*
X272415000Y-64135000D03*
D21*
X276225000Y-60775000D03*
D20*
X278765000Y-61595000D03*
D21*
X281225000Y-62875000D03*
%TD*%
D22*
%TO.C,H3*%
X247650000Y-95250000D03*
%TD*%
%TO.C,H4*%
X209550000Y-76200000D03*
%TD*%
%TO.C,H5*%
X133350000Y-57150000D03*
%TD*%
%TO.C,H2*%
X285750000Y-57150000D03*
%TD*%
%TO.C,H1*%
X171450000Y-95250000D03*
%TD*%
D23*
%TO.C,R_TACT1*%
X149500000Y-100625000D03*
X149500000Y-103375000D03*
%TD*%
D24*
%TO.C,J1*%
X121555000Y-100560000D03*
X121555000Y-106340000D03*
D25*
X122085000Y-99130000D03*
D26*
X117905000Y-99130000D03*
D25*
X122085000Y-107770000D03*
D26*
X117905000Y-107770000D03*
%TD*%
D27*
%TO.C,SW21*%
X165350000Y-110610000D03*
X168350000Y-110610000D03*
%TD*%
D28*
%TO.C,D23*%
X228621425Y-69400000D03*
X228621425Y-66100000D03*
%TD*%
D29*
%TO.C,D39*%
X285850000Y-67700000D03*
X285850000Y-71000000D03*
%TD*%
D28*
%TO.C,D32*%
X266450000Y-88550000D03*
X266450000Y-85250000D03*
%TD*%
%TO.C,D26*%
X247507142Y-46700000D03*
X247507142Y-50000000D03*
%TD*%
%TO.C,D24*%
X228421425Y-88550000D03*
X228421425Y-85250000D03*
%TD*%
%TO.C,D14*%
X190378571Y-46700000D03*
X190378571Y-50000000D03*
%TD*%
%TO.C,D11*%
X171428570Y-69400000D03*
X171428570Y-66100000D03*
%TD*%
%TO.C,D27*%
X247685710Y-69400000D03*
X247685710Y-66100000D03*
%TD*%
%TO.C,D7*%
X152364285Y-69400000D03*
X152364285Y-66100000D03*
%TD*%
D30*
%TO.C,D25*%
X237100000Y-95450000D03*
X240400000Y-95450000D03*
%TD*%
D28*
%TO.C,D31*%
X266750000Y-69400000D03*
X266750000Y-66100000D03*
%TD*%
D30*
%TO.C,D21*%
X217783332Y-95400000D03*
X221083332Y-95400000D03*
%TD*%
D28*
%TO.C,D28*%
X247435710Y-88550000D03*
X247435710Y-85250000D03*
%TD*%
%TO.C,D22*%
X228464285Y-46700000D03*
X228464285Y-50000000D03*
%TD*%
%TO.C,D1*%
X133250000Y-46700000D03*
X133250000Y-50000000D03*
%TD*%
%TO.C,D2*%
X133300000Y-69400000D03*
X133300000Y-66100000D03*
%TD*%
%TO.C,D20*%
X209407140Y-88550000D03*
X209407140Y-85250000D03*
%TD*%
%TO.C,D3*%
X133350000Y-88550000D03*
X133350000Y-85250000D03*
%TD*%
D30*
%TO.C,D17*%
X198466666Y-95500000D03*
X201766666Y-95500000D03*
%TD*%
D28*
%TO.C,D19*%
X209557140Y-69400000D03*
X209557140Y-66100000D03*
%TD*%
D29*
%TO.C,D38*%
X285600000Y-47450000D03*
X285600000Y-50750000D03*
%TD*%
D28*
%TO.C,D18*%
X209421428Y-46700000D03*
X209421428Y-50000000D03*
%TD*%
%TO.C,D12*%
X171378570Y-88550000D03*
X171378570Y-85250000D03*
%TD*%
%TO.C,D6*%
X152292857Y-46700000D03*
X152292857Y-50000000D03*
%TD*%
%TO.C,D16*%
X190392855Y-88550000D03*
X190392855Y-85250000D03*
%TD*%
D29*
%TO.C,D40*%
X285900000Y-86100000D03*
X285900000Y-89400000D03*
%TD*%
D31*
%TO.C,J3*%
X151800000Y-77875000D03*
X153000000Y-77875000D03*
D32*
X150650000Y-74100000D03*
X154150000Y-74100000D03*
%TD*%
D28*
%TO.C,D36*%
X285950000Y-84050000D03*
X285950000Y-80750000D03*
%TD*%
%TO.C,D35*%
X285850000Y-65700000D03*
X285850000Y-62400000D03*
%TD*%
%TO.C,D10*%
X171335714Y-46700000D03*
X171335714Y-50000000D03*
%TD*%
D30*
%TO.C,D13*%
X179150000Y-95400000D03*
X182450000Y-95400000D03*
%TD*%
D28*
%TO.C,D15*%
X190492855Y-69400000D03*
X190492855Y-66100000D03*
%TD*%
%TO.C,D34*%
X285600000Y-42150000D03*
X285600000Y-45450000D03*
%TD*%
%TO.C,D30*%
X266550000Y-50000000D03*
X266550000Y-46700000D03*
%TD*%
%TO.C,D8*%
X152300000Y-88450000D03*
X152300000Y-85150000D03*
%TD*%
%LPD*%
M02*
