%TF.GenerationSoftware,KiCad,Pcbnew,8.0.9-8.0.9-0~ubuntu22.04.1*%
%TF.CreationDate,2025-10-12T01:46:20+08:00*%
%TF.ProjectId,macropad,6d616372-6f70-4616-942e-6b696361645f,rev?*%
%TF.SameCoordinates,Original*%
%TF.FileFunction,Soldermask,Top*%
%TF.FilePolarity,Negative*%
%FSLAX46Y46*%
G04 Gerber Fmt 4.6, Leading zero omitted, Abs format (unit mm)*
G04 Created by KiCad (PCBNEW 8.0.9-8.0.9-0~ubuntu22.04.1) date 2025-10-12 01:46:20*
%MOMM*%
%LPD*%
G01*
G04 APERTURE LIST*
G04 Aperture macros list*
%AMRoundRect*
0 Rectangle with rounded corners*
0 $1 Rounding radius*
0 $2 $3 $4 $5 $6 $7 $8 $9 X,Y pos of 4 corners*
0 Add a 4 corners polygon primitive as box body*
4,1,4,$2,$3,$4,$5,$6,$7,$8,$9,$2,$3,0*
0 Add four circle primitives for the rounded corners*
1,1,$1+$1,$2,$3*
1,1,$1+$1,$4,$5*
1,1,$1+$1,$6,$7*
1,1,$1+$1,$8,$9*
0 Add four rect primitives between the rounded corners*
20,1,$1+$1,$2,$3,$4,$5,0*
20,1,$1+$1,$4,$5,$6,$7,0*
20,1,$1+$1,$6,$7,$8,$9,0*
20,1,$1+$1,$8,$9,$2,$3,0*%
G04 Aperture macros list end*
%ADD10RoundRect,0.200000X0.275000X-0.200000X0.275000X0.200000X-0.275000X0.200000X-0.275000X-0.200000X0*%
%ADD11RoundRect,0.200000X-0.275000X0.200000X-0.275000X-0.200000X0.275000X-0.200000X0.275000X0.200000X0*%
%ADD12R,1.700000X1.700000*%
%ADD13O,1.700000X1.700000*%
%ADD14C,1.900000*%
%ADD15C,1.750000*%
%ADD16C,3.450000*%
%ADD17C,4.000000*%
%ADD18C,2.500000*%
%ADD19C,2.200000*%
%ADD20RoundRect,0.218750X0.256250X-0.218750X0.256250X0.218750X-0.256250X0.218750X-0.256250X-0.218750X0*%
%ADD21C,5.300000*%
%ADD22RoundRect,0.225000X-0.375000X0.225000X-0.375000X-0.225000X0.375000X-0.225000X0.375000X0.225000X0*%
%ADD23RoundRect,0.225000X0.250000X-0.225000X0.250000X0.225000X-0.250000X0.225000X-0.250000X-0.225000X0*%
%ADD24RoundRect,0.225000X-0.250000X0.225000X-0.250000X-0.225000X0.250000X-0.225000X0.250000X0.225000X0*%
%ADD25RoundRect,0.150000X0.587500X0.150000X-0.587500X0.150000X-0.587500X-0.150000X0.587500X-0.150000X0*%
%ADD26RoundRect,0.225000X0.225000X0.250000X-0.225000X0.250000X-0.225000X-0.250000X0.225000X-0.250000X0*%
%ADD27RoundRect,0.150000X0.150000X-0.512500X0.150000X0.512500X-0.150000X0.512500X-0.150000X-0.512500X0*%
%ADD28RoundRect,0.150000X-0.150000X0.587500X-0.150000X-0.587500X0.150000X-0.587500X0.150000X0.587500X0*%
%ADD29RoundRect,0.200000X-0.200000X-0.275000X0.200000X-0.275000X0.200000X0.275000X-0.200000X0.275000X0*%
%ADD30C,0.750000*%
%ADD31R,1.550000X1.000000*%
%ADD32C,0.650000*%
%ADD33R,1.450000X0.600000*%
%ADD34R,1.450000X0.300000*%
%ADD35O,2.100000X1.000000*%
%ADD36O,1.600000X1.000000*%
%ADD37R,1.000000X0.800000*%
%ADD38C,0.900000*%
%ADD39R,0.700000X1.500000*%
%ADD40RoundRect,0.102000X0.500000X0.350000X-0.500000X0.350000X-0.500000X-0.350000X0.500000X-0.350000X0*%
%ADD41RoundRect,0.102000X0.350000X0.500000X-0.350000X0.500000X-0.350000X-0.500000X0.350000X-0.500000X0*%
%ADD42RoundRect,0.200000X0.200000X0.275000X-0.200000X0.275000X-0.200000X-0.275000X0.200000X-0.275000X0*%
G04 APERTURE END LIST*
D10*
%TO.C,R6*%
X126000000Y-100325000D03*
X126000000Y-98675000D03*
%TD*%
D11*
%TO.C,R5*%
X125350000Y-105075000D03*
X125350000Y-106725000D03*
%TD*%
D12*
%TO.C,JSWD1*%
X118430000Y-95800000D03*
D13*
X120970000Y-95800000D03*
X123510000Y-95800000D03*
X126050000Y-95800000D03*
%TD*%
D12*
%TO.C,J2*%
X248900000Y-109275723D03*
D13*
X248900000Y-106735723D03*
%TD*%
D14*
%TO.C,SW27*%
X232625000Y-104775000D03*
D15*
X233045000Y-104775000D03*
D16*
X238125000Y-104775000D03*
D17*
X238125000Y-104775000D03*
D15*
X243205000Y-104775000D03*
D14*
X243625000Y-104775000D03*
D18*
X234315000Y-102235000D03*
D19*
X238125000Y-98875000D03*
D18*
X240665000Y-99695000D03*
D19*
X243125000Y-100975000D03*
%TD*%
D14*
%TO.C,SW20*%
X289775000Y-85725000D03*
D15*
X290195000Y-85725000D03*
D16*
X295275000Y-85725000D03*
D17*
X295275000Y-85725000D03*
D15*
X300355000Y-85725000D03*
D14*
X300775000Y-85725000D03*
D18*
X291465000Y-83185000D03*
D19*
X295275000Y-79825000D03*
D18*
X297815000Y-80645000D03*
D19*
X300275000Y-81925000D03*
%TD*%
D14*
%TO.C,SW19*%
X270725000Y-85725000D03*
D15*
X271145000Y-85725000D03*
D16*
X276225000Y-85725000D03*
D17*
X276225000Y-85725000D03*
D15*
X281305000Y-85725000D03*
D14*
X281725000Y-85725000D03*
D18*
X272415000Y-83185000D03*
D19*
X276225000Y-79825000D03*
D18*
X278765000Y-80645000D03*
D19*
X281225000Y-81925000D03*
%TD*%
D14*
%TO.C,SW33*%
X156425000Y-47625000D03*
D15*
X156845000Y-47625000D03*
D16*
X161925000Y-47625000D03*
D17*
X161925000Y-47625000D03*
D15*
X167005000Y-47625000D03*
D14*
X167425000Y-47625000D03*
D18*
X158115000Y-45085000D03*
D19*
X161925000Y-41725000D03*
D18*
X164465000Y-42545000D03*
D19*
X166925000Y-43825000D03*
%TD*%
D14*
%TO.C,SW35*%
X194525000Y-47625000D03*
D15*
X194945000Y-47625000D03*
D16*
X200025000Y-47625000D03*
D17*
X200025000Y-47625000D03*
D15*
X205105000Y-47625000D03*
D14*
X205525000Y-47625000D03*
D18*
X196215000Y-45085000D03*
D19*
X200025000Y-41725000D03*
D18*
X202565000Y-42545000D03*
D19*
X205025000Y-43825000D03*
%TD*%
D14*
%TO.C,SW12*%
X137375000Y-85725000D03*
D15*
X137795000Y-85725000D03*
D16*
X142875000Y-85725000D03*
D17*
X142875000Y-85725000D03*
D15*
X147955000Y-85725000D03*
D14*
X148375000Y-85725000D03*
D18*
X139065000Y-83185000D03*
D19*
X142875000Y-79825000D03*
D18*
X145415000Y-80645000D03*
D19*
X147875000Y-81925000D03*
%TD*%
D14*
%TO.C,SW37*%
X232625000Y-47625000D03*
D15*
X233045000Y-47625000D03*
D16*
X238125000Y-47625000D03*
D17*
X238125000Y-47625000D03*
D15*
X243205000Y-47625000D03*
D14*
X243625000Y-47625000D03*
D18*
X234315000Y-45085000D03*
D19*
X238125000Y-41725000D03*
D18*
X240665000Y-42545000D03*
D19*
X243125000Y-43825000D03*
%TD*%
D14*
%TO.C,SW26*%
X213575000Y-104775000D03*
D15*
X213995000Y-104775000D03*
D16*
X219075000Y-104775000D03*
D17*
X219075000Y-104775000D03*
D15*
X224155000Y-104775000D03*
D14*
X224575000Y-104775000D03*
D18*
X215265000Y-102235000D03*
D19*
X219075000Y-98875000D03*
D18*
X221615000Y-99695000D03*
D19*
X224075000Y-100975000D03*
%TD*%
D14*
%TO.C,SW32*%
X137375000Y-47625000D03*
D15*
X137795000Y-47625000D03*
D16*
X142875000Y-47625000D03*
D17*
X142875000Y-47625000D03*
D15*
X147955000Y-47625000D03*
D14*
X148375000Y-47625000D03*
D18*
X139065000Y-45085000D03*
D19*
X142875000Y-41725000D03*
D18*
X145415000Y-42545000D03*
D19*
X147875000Y-43825000D03*
%TD*%
D14*
%TO.C,SW15*%
X194525000Y-85725000D03*
D15*
X194945000Y-85725000D03*
D16*
X200025000Y-85725000D03*
D17*
X200025000Y-85725000D03*
D15*
X205105000Y-85725000D03*
D14*
X205525000Y-85725000D03*
D18*
X196215000Y-83185000D03*
D19*
X200025000Y-79825000D03*
D18*
X202565000Y-80645000D03*
D19*
X205025000Y-81925000D03*
%TD*%
D14*
%TO.C,SW7*%
X232625000Y-66675000D03*
D15*
X233045000Y-66675000D03*
D16*
X238125000Y-66675000D03*
D17*
X238125000Y-66675000D03*
D15*
X243205000Y-66675000D03*
D14*
X243625000Y-66675000D03*
D18*
X234315000Y-64135000D03*
D19*
X238125000Y-60775000D03*
D18*
X240665000Y-61595000D03*
D19*
X243125000Y-62875000D03*
%TD*%
D14*
%TO.C,SW34*%
X175475000Y-47625000D03*
D15*
X175895000Y-47625000D03*
D16*
X180975000Y-47625000D03*
D17*
X180975000Y-47625000D03*
D15*
X186055000Y-47625000D03*
D14*
X186475000Y-47625000D03*
D18*
X177165000Y-45085000D03*
D19*
X180975000Y-41725000D03*
D18*
X183515000Y-42545000D03*
D19*
X185975000Y-43825000D03*
%TD*%
D14*
%TO.C,SW25*%
X194525000Y-104775000D03*
D15*
X194945000Y-104775000D03*
D16*
X200025000Y-104775000D03*
D17*
X200025000Y-104775000D03*
D15*
X205105000Y-104775000D03*
D14*
X205525000Y-104775000D03*
D18*
X196215000Y-102235000D03*
D19*
X200025000Y-98875000D03*
D18*
X202565000Y-99695000D03*
D19*
X205025000Y-100975000D03*
%TD*%
D14*
%TO.C,SW38*%
X251675000Y-47625000D03*
D15*
X252095000Y-47625000D03*
D16*
X257175000Y-47625000D03*
D17*
X257175000Y-47625000D03*
D15*
X262255000Y-47625000D03*
D14*
X262675000Y-47625000D03*
D18*
X253365000Y-45085000D03*
D19*
X257175000Y-41725000D03*
D18*
X259715000Y-42545000D03*
D19*
X262175000Y-43825000D03*
%TD*%
D14*
%TO.C,SW31*%
X118325000Y-47625000D03*
D15*
X118745000Y-47625000D03*
D16*
X123825000Y-47625000D03*
D17*
X123825000Y-47625000D03*
D15*
X128905000Y-47625000D03*
D14*
X129325000Y-47625000D03*
D18*
X120015000Y-45085000D03*
D19*
X123825000Y-41725000D03*
D18*
X126365000Y-42545000D03*
D19*
X128825000Y-43825000D03*
%TD*%
D14*
%TO.C,SW13*%
X156425000Y-85725000D03*
D15*
X156845000Y-85725000D03*
D16*
X161925000Y-85725000D03*
D17*
X161925000Y-85725000D03*
D15*
X167005000Y-85725000D03*
D14*
X167425000Y-85725000D03*
D18*
X158115000Y-83185000D03*
D19*
X161925000Y-79825000D03*
D18*
X164465000Y-80645000D03*
D19*
X166925000Y-81925000D03*
%TD*%
D14*
%TO.C,SW6*%
X213575000Y-66675000D03*
D15*
X213995000Y-66675000D03*
D16*
X219075000Y-66675000D03*
D17*
X219075000Y-66675000D03*
D15*
X224155000Y-66675000D03*
D14*
X224575000Y-66675000D03*
D18*
X215265000Y-64135000D03*
D19*
X219075000Y-60775000D03*
D18*
X221615000Y-61595000D03*
D19*
X224075000Y-62875000D03*
%TD*%
D14*
%TO.C,SW2*%
X137375000Y-66675000D03*
D15*
X137795000Y-66675000D03*
D16*
X142875000Y-66675000D03*
D17*
X142875000Y-66675000D03*
D15*
X147955000Y-66675000D03*
D14*
X148375000Y-66675000D03*
D18*
X139065000Y-64135000D03*
D19*
X142875000Y-60775000D03*
D18*
X145415000Y-61595000D03*
D19*
X147875000Y-62875000D03*
%TD*%
D14*
%TO.C,SW3*%
X156425000Y-66675000D03*
D15*
X156845000Y-66675000D03*
D16*
X161925000Y-66675000D03*
D17*
X161925000Y-66675000D03*
D15*
X167005000Y-66675000D03*
D14*
X167425000Y-66675000D03*
D18*
X158115000Y-64135000D03*
D19*
X161925000Y-60775000D03*
D18*
X164465000Y-61595000D03*
D19*
X166925000Y-62875000D03*
%TD*%
D14*
%TO.C,SW11*%
X118325000Y-85725000D03*
D15*
X118745000Y-85725000D03*
D16*
X123825000Y-85725000D03*
D17*
X123825000Y-85725000D03*
D15*
X128905000Y-85725000D03*
D14*
X129325000Y-85725000D03*
D18*
X120015000Y-83185000D03*
D19*
X123825000Y-79825000D03*
D18*
X126365000Y-80645000D03*
D19*
X128825000Y-81925000D03*
%TD*%
D14*
%TO.C,SW24*%
X175475000Y-104775000D03*
D15*
X175895000Y-104775000D03*
D16*
X180975000Y-104775000D03*
D17*
X180975000Y-104775000D03*
D15*
X186055000Y-104775000D03*
D14*
X186475000Y-104775000D03*
D18*
X177165000Y-102235000D03*
D19*
X180975000Y-98875000D03*
D18*
X183515000Y-99695000D03*
D19*
X185975000Y-100975000D03*
%TD*%
D14*
%TO.C,SW1*%
X118325000Y-66675000D03*
D15*
X118745000Y-66675000D03*
D16*
X123825000Y-66675000D03*
D17*
X123825000Y-66675000D03*
D15*
X128905000Y-66675000D03*
D14*
X129325000Y-66675000D03*
D18*
X120015000Y-64135000D03*
D19*
X123825000Y-60775000D03*
D18*
X126365000Y-61595000D03*
D19*
X128825000Y-62875000D03*
%TD*%
D14*
%TO.C,SW39*%
X270725000Y-47625000D03*
D15*
X271145000Y-47625000D03*
D16*
X276225000Y-47625000D03*
D17*
X276225000Y-47625000D03*
D15*
X281305000Y-47625000D03*
D14*
X281725000Y-47625000D03*
D18*
X272415000Y-45085000D03*
D19*
X276225000Y-41725000D03*
D18*
X278765000Y-42545000D03*
D19*
X281225000Y-43825000D03*
%TD*%
D14*
%TO.C,SW4*%
X175475000Y-66675000D03*
D15*
X175895000Y-66675000D03*
D16*
X180975000Y-66675000D03*
D17*
X180975000Y-66675000D03*
D15*
X186055000Y-66675000D03*
D14*
X186475000Y-66675000D03*
D18*
X177165000Y-64135000D03*
D19*
X180975000Y-60775000D03*
D18*
X183515000Y-61595000D03*
D19*
X185975000Y-62875000D03*
%TD*%
D14*
%TO.C,SW8*%
X251675000Y-66675000D03*
D15*
X252095000Y-66675000D03*
D16*
X257175000Y-66675000D03*
D17*
X257175000Y-66675000D03*
D15*
X262255000Y-66675000D03*
D14*
X262675000Y-66675000D03*
D18*
X253365000Y-64135000D03*
D19*
X257175000Y-60775000D03*
D18*
X259715000Y-61595000D03*
D19*
X262175000Y-62875000D03*
%TD*%
D14*
%TO.C,SW5*%
X194525000Y-66675000D03*
D15*
X194945000Y-66675000D03*
D16*
X200025000Y-66675000D03*
D17*
X200025000Y-66675000D03*
D15*
X205105000Y-66675000D03*
D14*
X205525000Y-66675000D03*
D18*
X196215000Y-64135000D03*
D19*
X200025000Y-60775000D03*
D18*
X202565000Y-61595000D03*
D19*
X205025000Y-62875000D03*
%TD*%
D14*
%TO.C,SW40*%
X289775000Y-47625000D03*
D15*
X290195000Y-47625000D03*
D16*
X295275000Y-47625000D03*
D17*
X295275000Y-47625000D03*
D15*
X300355000Y-47625000D03*
D14*
X300775000Y-47625000D03*
D18*
X291465000Y-45085000D03*
D19*
X295275000Y-41725000D03*
D18*
X297815000Y-42545000D03*
D19*
X300275000Y-43825000D03*
%TD*%
D14*
%TO.C,SW10*%
X289775000Y-66725000D03*
D15*
X290195000Y-66725000D03*
D16*
X295275000Y-66725000D03*
D17*
X295275000Y-66725000D03*
D15*
X300355000Y-66725000D03*
D14*
X300775000Y-66725000D03*
D18*
X291465000Y-64185000D03*
D19*
X295275000Y-60825000D03*
D18*
X297815000Y-61645000D03*
D19*
X300275000Y-62925000D03*
%TD*%
D14*
%TO.C,SW17*%
X232625000Y-85725000D03*
D15*
X233045000Y-85725000D03*
D16*
X238125000Y-85725000D03*
D17*
X238125000Y-85725000D03*
D15*
X243205000Y-85725000D03*
D14*
X243625000Y-85725000D03*
D18*
X234315000Y-83185000D03*
D19*
X238125000Y-79825000D03*
D18*
X240665000Y-80645000D03*
D19*
X243125000Y-81925000D03*
%TD*%
D14*
%TO.C,SW16*%
X213575000Y-85725000D03*
D15*
X213995000Y-85725000D03*
D16*
X219075000Y-85725000D03*
D17*
X219075000Y-85725000D03*
D15*
X224155000Y-85725000D03*
D14*
X224575000Y-85725000D03*
D18*
X215265000Y-83185000D03*
D19*
X219075000Y-79825000D03*
D18*
X221615000Y-80645000D03*
D19*
X224075000Y-81925000D03*
%TD*%
D14*
%TO.C,SW14*%
X175475000Y-85725000D03*
D15*
X175895000Y-85725000D03*
D16*
X180975000Y-85725000D03*
D17*
X180975000Y-85725000D03*
D15*
X186055000Y-85725000D03*
D14*
X186475000Y-85725000D03*
D18*
X177165000Y-83185000D03*
D19*
X180975000Y-79825000D03*
D18*
X183515000Y-80645000D03*
D19*
X185975000Y-81925000D03*
%TD*%
D14*
%TO.C,SW18*%
X251675000Y-85725000D03*
D15*
X252095000Y-85725000D03*
D16*
X257175000Y-85725000D03*
D17*
X257175000Y-85725000D03*
D15*
X262255000Y-85725000D03*
D14*
X262675000Y-85725000D03*
D18*
X253365000Y-83185000D03*
D19*
X257175000Y-79825000D03*
D18*
X259715000Y-80645000D03*
D19*
X262175000Y-81925000D03*
%TD*%
D14*
%TO.C,SW36*%
X213575000Y-47625000D03*
D15*
X213995000Y-47625000D03*
D16*
X219075000Y-47625000D03*
D17*
X219075000Y-47625000D03*
D15*
X224155000Y-47625000D03*
D14*
X224575000Y-47625000D03*
D18*
X215265000Y-45085000D03*
D19*
X219075000Y-41725000D03*
D18*
X221615000Y-42545000D03*
D19*
X224075000Y-43825000D03*
%TD*%
D14*
%TO.C,SW9*%
X270725000Y-66675000D03*
D15*
X271145000Y-66675000D03*
D16*
X276225000Y-66675000D03*
D17*
X276225000Y-66675000D03*
D15*
X281305000Y-66675000D03*
D14*
X281725000Y-66675000D03*
D18*
X272415000Y-64135000D03*
D19*
X276225000Y-60775000D03*
D18*
X278765000Y-61595000D03*
D19*
X281225000Y-62875000D03*
%TD*%
D11*
%TO.C,R8*%
X128000000Y-110112500D03*
X128000000Y-111762500D03*
%TD*%
%TO.C,R4*%
X130000000Y-110032500D03*
X130000000Y-111682500D03*
%TD*%
D20*
%TO.C,D9*%
X128000000Y-108575000D03*
X128000000Y-107000000D03*
%TD*%
%TO.C,D4*%
X130000000Y-108575000D03*
X130000000Y-107000000D03*
%TD*%
D21*
%TO.C,H3*%
X247650000Y-95250000D03*
%TD*%
%TO.C,H4*%
X209550000Y-76200000D03*
%TD*%
D22*
%TO.C,D5*%
X158550000Y-105000000D03*
X158550000Y-108300000D03*
%TD*%
D23*
%TO.C,C3*%
X156550000Y-106425000D03*
X156550000Y-104875000D03*
%TD*%
D21*
%TO.C,H5*%
X133350000Y-57150000D03*
%TD*%
D24*
%TO.C,C4*%
X155000000Y-101000000D03*
X155000000Y-102550000D03*
%TD*%
D25*
%TO.C,Q1*%
X154425000Y-107600000D03*
X154425000Y-105700000D03*
X152550000Y-106650000D03*
%TD*%
D26*
%TO.C,C1*%
X165275000Y-100750000D03*
X163725000Y-100750000D03*
%TD*%
D21*
%TO.C,H2*%
X285750000Y-57150000D03*
%TD*%
D26*
%TO.C,C2*%
X167050000Y-107000000D03*
X165500000Y-107000000D03*
%TD*%
D27*
%TO.C,U2*%
X165050000Y-105137500D03*
X166000000Y-105137500D03*
X166950000Y-105137500D03*
X166950000Y-102862500D03*
X165050000Y-102862500D03*
%TD*%
D28*
%TO.C,U3*%
X158500000Y-100775000D03*
X156600000Y-100775000D03*
X157550000Y-102650000D03*
%TD*%
D29*
%TO.C,R7*%
X152675000Y-109775000D03*
X154325000Y-109775000D03*
%TD*%
D11*
%TO.C,R1*%
X163250000Y-103425000D03*
X163250000Y-105075000D03*
%TD*%
D21*
%TO.C,H1*%
X171450000Y-95250000D03*
%TD*%
D30*
%TO.C,R_TACT1*%
X149500000Y-100625000D03*
X149500000Y-103375000D03*
D31*
X146875000Y-101150000D03*
X152125000Y-101150000D03*
X146875000Y-102850000D03*
X152125000Y-102850000D03*
%TD*%
D32*
%TO.C,J1*%
X121555000Y-100560000D03*
X121555000Y-106340000D03*
D33*
X123000000Y-100200000D03*
X123000000Y-101000000D03*
D34*
X123000000Y-102200000D03*
X123000000Y-103200000D03*
X123000000Y-103700000D03*
X123000000Y-104700000D03*
D33*
X123000000Y-105900000D03*
X123000000Y-106700000D03*
X123000000Y-106700000D03*
X123000000Y-105900000D03*
D34*
X123000000Y-105200000D03*
X123000000Y-104200000D03*
X123000000Y-102700000D03*
X123000000Y-101700000D03*
D33*
X123000000Y-101000000D03*
X123000000Y-100200000D03*
D35*
X122085000Y-99130000D03*
D36*
X117905000Y-99130000D03*
D35*
X122085000Y-107770000D03*
D36*
X117905000Y-107770000D03*
%TD*%
D37*
%TO.C,SW21*%
X163200000Y-109500000D03*
X163200000Y-111710000D03*
D38*
X165350000Y-110610000D03*
X168350000Y-110610000D03*
D37*
X170500000Y-109500000D03*
X170500000Y-111710000D03*
D39*
X164600000Y-108850000D03*
X167600000Y-108850000D03*
X169100000Y-108850000D03*
%TD*%
D40*
%TO.C,U1*%
X144350000Y-108700000D03*
X144350000Y-107600000D03*
X144350000Y-106500000D03*
X144350000Y-105400000D03*
X144350000Y-104300000D03*
X144350000Y-103199999D03*
X144350000Y-102100000D03*
X144350000Y-100999999D03*
X144350000Y-99900000D03*
X144350001Y-98800000D03*
X144350000Y-97700000D03*
X144350000Y-96600001D03*
X144350000Y-95500000D03*
D41*
X143500000Y-94300000D03*
X142400000Y-94300000D03*
X141299999Y-94300000D03*
X140200000Y-94300000D03*
X139099999Y-94300000D03*
X138000000Y-94300000D03*
X136900001Y-94300000D03*
X135800000Y-94300000D03*
X134700001Y-94300000D03*
X133600000Y-94300000D03*
X132500000Y-94300000D03*
D40*
X131650000Y-95500000D03*
X131650000Y-96600001D03*
X131650000Y-97700000D03*
X131649999Y-98800000D03*
X131650000Y-99900000D03*
X131650000Y-100999999D03*
X131650000Y-102100000D03*
X131650000Y-103199999D03*
X131650000Y-104300000D03*
X131650000Y-105400000D03*
X131650000Y-106500000D03*
X131650000Y-107600000D03*
X131650000Y-108700000D03*
X142250000Y-106500000D03*
X142250000Y-105400000D03*
X142250000Y-104300000D03*
X142250000Y-103200000D03*
X142250000Y-102100000D03*
X142250000Y-101000000D03*
X142250000Y-99900000D03*
X142250000Y-98800000D03*
X142250000Y-97700000D03*
X133750000Y-106500000D03*
X133750000Y-105400000D03*
X133750000Y-104300000D03*
X133750000Y-103200000D03*
X133750000Y-102100000D03*
X133750000Y-101000000D03*
X133750000Y-99900000D03*
X133750000Y-98800000D03*
X133750000Y-97700000D03*
%TD*%
D42*
%TO.C,R2*%
X148100000Y-95700000D03*
X146450000Y-95700000D03*
%TD*%
D29*
%TO.C,R3*%
X146450000Y-97700000D03*
X148100000Y-97700000D03*
%TD*%
M02*
