%TF.GenerationSoftware,KiCad,Pcbnew,8.0.9-8.0.9-0~ubuntu22.04.1*%
%TF.CreationDate,2025-10-12T01:46:20+08:00*%
%TF.ProjectId,macropad,6d616372-6f70-4616-942e-6b696361645f,rev?*%
%TF.SameCoordinates,Original*%
%TF.FileFunction,Copper,L2,Bot*%
%TF.FilePolarity,Positive*%
%FSLAX46Y46*%
G04 Gerber Fmt 4.6, Leading zero omitted, Abs format (unit mm)*
G04 Created by KiCad (PCBNEW 8.0.9-8.0.9-0~ubuntu22.04.1) date 2025-10-12 01:46:20*
%MOMM*%
%LPD*%
G01*
G04 APERTURE LIST*
G04 Aperture macros list*
%AMRoundRect*
0 Rectangle with rounded corners*
0 $1 Rounding radius*
0 $2 $3 $4 $5 $6 $7 $8 $9 X,Y pos of 4 corners*
0 Add a 4 corners polygon primitive as box body*
4,1,4,$2,$3,$4,$5,$6,$7,$8,$9,$2,$3,0*
0 Add four circle primitives for the rounded corners*
1,1,$1+$1,$2,$3*
1,1,$1+$1,$4,$5*
1,1,$1+$1,$6,$7*
1,1,$1+$1,$8,$9*
0 Add four rect primitives between the rounded corners*
20,1,$1+$1,$2,$3,$4,$5,0*
20,1,$1+$1,$4,$5,$6,$7,0*
20,1,$1+$1,$6,$7,$8,$9,0*
20,1,$1+$1,$8,$9,$2,$3,0*%
G04 Aperture macros list end*
%TA.AperFunction,ComponentPad*%
%ADD10R,1.700000X1.700000*%
%TD*%
%TA.AperFunction,ComponentPad*%
%ADD11O,1.700000X1.700000*%
%TD*%
%TA.AperFunction,ComponentPad*%
%ADD12C,2.500000*%
%TD*%
%TA.AperFunction,ComponentPad*%
%ADD13C,2.200000*%
%TD*%
%TA.AperFunction,HeatsinkPad*%
%ADD14O,2.100000X1.000000*%
%TD*%
%TA.AperFunction,HeatsinkPad*%
%ADD15O,1.600000X1.000000*%
%TD*%
%TA.AperFunction,SMDPad,CuDef*%
%ADD16RoundRect,0.225000X0.375000X-0.225000X0.375000X0.225000X-0.375000X0.225000X-0.375000X-0.225000X0*%
%TD*%
%TA.AperFunction,SMDPad,CuDef*%
%ADD17RoundRect,0.225000X-0.375000X0.225000X-0.375000X-0.225000X0.375000X-0.225000X0.375000X0.225000X0*%
%TD*%
%TA.AperFunction,SMDPad,CuDef*%
%ADD18RoundRect,0.225000X-0.225000X-0.375000X0.225000X-0.375000X0.225000X0.375000X-0.225000X0.375000X0*%
%TD*%
%TA.AperFunction,SMDPad,CuDef*%
%ADD19RoundRect,0.150000X-0.150000X-0.275000X0.150000X-0.275000X0.150000X0.275000X-0.150000X0.275000X0*%
%TD*%
%TA.AperFunction,SMDPad,CuDef*%
%ADD20RoundRect,0.175000X-0.175000X-0.225000X0.175000X-0.225000X0.175000X0.225000X-0.175000X0.225000X0*%
%TD*%
%TA.AperFunction,ViaPad*%
%ADD21C,0.600000*%
%TD*%
%TA.AperFunction,Conductor*%
%ADD22C,0.500000*%
%TD*%
%TA.AperFunction,Conductor*%
%ADD23C,0.300000*%
%TD*%
G04 APERTURE END LIST*
D10*
%TO.P,JSWD1,1,Pin_1*%
%TO.N,GND*%
X118430000Y-95800000D03*
D11*
%TO.P,JSWD1,2,Pin_2*%
%TO.N,SWDCLK*%
X120970000Y-95800000D03*
%TO.P,JSWD1,3,Pin_3*%
%TO.N,SWDIO*%
X123510000Y-95800000D03*
%TO.P,JSWD1,4,Pin_4*%
%TO.N,+3V3*%
X126050000Y-95800000D03*
%TD*%
D10*
%TO.P,J2,1,Pin_1*%
%TO.N,+BATT*%
X248900000Y-109275723D03*
D11*
%TO.P,J2,2,Pin_2*%
%TO.N,GND*%
X248900000Y-106735723D03*
%TD*%
D12*
%TO.P,SW27,1,A*%
%TO.N,COL7*%
X234315000Y-102235000D03*
D13*
X238125000Y-98875000D03*
D12*
%TO.P,SW27,2,B*%
%TO.N,Net-(D25-A)*%
X240665000Y-99695000D03*
D13*
X243125000Y-100975000D03*
%TD*%
D12*
%TO.P,SW20,1,A*%
%TO.N,COL10*%
X291465000Y-83185000D03*
D13*
X295275000Y-79825000D03*
D12*
%TO.P,SW20,2,B*%
%TO.N,Net-(D40-A)*%
X297815000Y-80645000D03*
D13*
X300275000Y-81925000D03*
%TD*%
D12*
%TO.P,SW19,1,A*%
%TO.N,COL9*%
X272415000Y-83185000D03*
D13*
X276225000Y-79825000D03*
D12*
%TO.P,SW19,2,B*%
%TO.N,Net-(D36-A)*%
X278765000Y-80645000D03*
D13*
X281225000Y-81925000D03*
%TD*%
D12*
%TO.P,SW33,1,A*%
%TO.N,COL3*%
X158115000Y-45085000D03*
D13*
X161925000Y-41725000D03*
D12*
%TO.P,SW33,2,B*%
%TO.N,Net-(D10-A)*%
X164465000Y-42545000D03*
D13*
X166925000Y-43825000D03*
%TD*%
D12*
%TO.P,SW35,1,A*%
%TO.N,COL5*%
X196215000Y-45085000D03*
D13*
X200025000Y-41725000D03*
D12*
%TO.P,SW35,2,B*%
%TO.N,Net-(D18-A)*%
X202565000Y-42545000D03*
D13*
X205025000Y-43825000D03*
%TD*%
D12*
%TO.P,SW12,1,A*%
%TO.N,COL2*%
X139065000Y-83185000D03*
D13*
X142875000Y-79825000D03*
D12*
%TO.P,SW12,2,B*%
%TO.N,Net-(D8-A)*%
X145415000Y-80645000D03*
D13*
X147875000Y-81925000D03*
%TD*%
D12*
%TO.P,SW37,1,A*%
%TO.N,COL7*%
X234315000Y-45085000D03*
D13*
X238125000Y-41725000D03*
D12*
%TO.P,SW37,2,B*%
%TO.N,Net-(D26-A)*%
X240665000Y-42545000D03*
D13*
X243125000Y-43825000D03*
%TD*%
D12*
%TO.P,SW26,1,A*%
%TO.N,COL6*%
X215265000Y-102235000D03*
D13*
X219075000Y-98875000D03*
D12*
%TO.P,SW26,2,B*%
%TO.N,Net-(D21-A)*%
X221615000Y-99695000D03*
D13*
X224075000Y-100975000D03*
%TD*%
D12*
%TO.P,SW32,1,A*%
%TO.N,COL2*%
X139065000Y-45085000D03*
D13*
X142875000Y-41725000D03*
D12*
%TO.P,SW32,2,B*%
%TO.N,Net-(D6-A)*%
X145415000Y-42545000D03*
D13*
X147875000Y-43825000D03*
%TD*%
D12*
%TO.P,SW15,1,A*%
%TO.N,COL5*%
X196215000Y-83185000D03*
D13*
X200025000Y-79825000D03*
D12*
%TO.P,SW15,2,B*%
%TO.N,Net-(D20-A)*%
X202565000Y-80645000D03*
D13*
X205025000Y-81925000D03*
%TD*%
D12*
%TO.P,SW7,1,A*%
%TO.N,COL7*%
X234315000Y-64135000D03*
D13*
X238125000Y-60775000D03*
D12*
%TO.P,SW7,2,B*%
%TO.N,Net-(D27-A)*%
X240665000Y-61595000D03*
D13*
X243125000Y-62875000D03*
%TD*%
D12*
%TO.P,SW34,1,A*%
%TO.N,COL4*%
X177165000Y-45085000D03*
D13*
X180975000Y-41725000D03*
D12*
%TO.P,SW34,2,B*%
%TO.N,Net-(D14-A)*%
X183515000Y-42545000D03*
D13*
X185975000Y-43825000D03*
%TD*%
D12*
%TO.P,SW25,1,A*%
%TO.N,COL5*%
X196215000Y-102235000D03*
D13*
X200025000Y-98875000D03*
D12*
%TO.P,SW25,2,B*%
%TO.N,Net-(D17-A)*%
X202565000Y-99695000D03*
D13*
X205025000Y-100975000D03*
%TD*%
D12*
%TO.P,SW38,1,A*%
%TO.N,COL8*%
X253365000Y-45085000D03*
D13*
X257175000Y-41725000D03*
D12*
%TO.P,SW38,2,B*%
%TO.N,Net-(D30-A)*%
X259715000Y-42545000D03*
D13*
X262175000Y-43825000D03*
%TD*%
D12*
%TO.P,SW31,1,A*%
%TO.N,COL1*%
X120015000Y-45085000D03*
D13*
X123825000Y-41725000D03*
D12*
%TO.P,SW31,2,B*%
%TO.N,Net-(D1-A)*%
X126365000Y-42545000D03*
D13*
X128825000Y-43825000D03*
%TD*%
D12*
%TO.P,SW13,1,A*%
%TO.N,COL3*%
X158115000Y-83185000D03*
D13*
X161925000Y-79825000D03*
D12*
%TO.P,SW13,2,B*%
%TO.N,Net-(D12-A)*%
X164465000Y-80645000D03*
D13*
X166925000Y-81925000D03*
%TD*%
D12*
%TO.P,SW6,1,A*%
%TO.N,COL6*%
X215265000Y-64135000D03*
D13*
X219075000Y-60775000D03*
D12*
%TO.P,SW6,2,B*%
%TO.N,Net-(D23-A)*%
X221615000Y-61595000D03*
D13*
X224075000Y-62875000D03*
%TD*%
D12*
%TO.P,SW2,1,A*%
%TO.N,COL2*%
X139065000Y-64135000D03*
D13*
X142875000Y-60775000D03*
D12*
%TO.P,SW2,2,B*%
%TO.N,Net-(D7-A)*%
X145415000Y-61595000D03*
D13*
X147875000Y-62875000D03*
%TD*%
D12*
%TO.P,SW3,1,A*%
%TO.N,COL3*%
X158115000Y-64135000D03*
D13*
X161925000Y-60775000D03*
D12*
%TO.P,SW3,2,B*%
%TO.N,Net-(D11-A)*%
X164465000Y-61595000D03*
D13*
X166925000Y-62875000D03*
%TD*%
D12*
%TO.P,SW11,1,A*%
%TO.N,COL1*%
X120015000Y-83185000D03*
D13*
X123825000Y-79825000D03*
D12*
%TO.P,SW11,2,B*%
%TO.N,Net-(D3-A)*%
X126365000Y-80645000D03*
D13*
X128825000Y-81925000D03*
%TD*%
D12*
%TO.P,SW24,1,A*%
%TO.N,COL4*%
X177165000Y-102235000D03*
D13*
X180975000Y-98875000D03*
D12*
%TO.P,SW24,2,B*%
%TO.N,Net-(D13-A)*%
X183515000Y-99695000D03*
D13*
X185975000Y-100975000D03*
%TD*%
D12*
%TO.P,SW1,1,A*%
%TO.N,COL1*%
X120015000Y-64135000D03*
D13*
X123825000Y-60775000D03*
D12*
%TO.P,SW1,2,B*%
%TO.N,Net-(D2-A)*%
X126365000Y-61595000D03*
D13*
X128825000Y-62875000D03*
%TD*%
D12*
%TO.P,SW39,1,A*%
%TO.N,COL9*%
X272415000Y-45085000D03*
D13*
X276225000Y-41725000D03*
D12*
%TO.P,SW39,2,B*%
%TO.N,Net-(D34-A)*%
X278765000Y-42545000D03*
D13*
X281225000Y-43825000D03*
%TD*%
D12*
%TO.P,SW4,1,A*%
%TO.N,COL4*%
X177165000Y-64135000D03*
D13*
X180975000Y-60775000D03*
D12*
%TO.P,SW4,2,B*%
%TO.N,Net-(D15-A)*%
X183515000Y-61595000D03*
D13*
X185975000Y-62875000D03*
%TD*%
D12*
%TO.P,SW8,1,A*%
%TO.N,COL8*%
X253365000Y-64135000D03*
D13*
X257175000Y-60775000D03*
D12*
%TO.P,SW8,2,B*%
%TO.N,Net-(D31-A)*%
X259715000Y-61595000D03*
D13*
X262175000Y-62875000D03*
%TD*%
D12*
%TO.P,SW5,1,A*%
%TO.N,COL5*%
X196215000Y-64135000D03*
D13*
X200025000Y-60775000D03*
D12*
%TO.P,SW5,2,B*%
%TO.N,Net-(D19-A)*%
X202565000Y-61595000D03*
D13*
X205025000Y-62875000D03*
%TD*%
D12*
%TO.P,SW40,1,A*%
%TO.N,COL10*%
X291465000Y-45085000D03*
D13*
X295275000Y-41725000D03*
D12*
%TO.P,SW40,2,B*%
%TO.N,Net-(D38-A)*%
X297815000Y-42545000D03*
D13*
X300275000Y-43825000D03*
%TD*%
D12*
%TO.P,SW10,1,A*%
%TO.N,COL10*%
X291465000Y-64185000D03*
D13*
X295275000Y-60825000D03*
D12*
%TO.P,SW10,2,B*%
%TO.N,Net-(D39-A)*%
X297815000Y-61645000D03*
D13*
X300275000Y-62925000D03*
%TD*%
D12*
%TO.P,SW17,1,A*%
%TO.N,COL7*%
X234315000Y-83185000D03*
D13*
X238125000Y-79825000D03*
D12*
%TO.P,SW17,2,B*%
%TO.N,Net-(D28-A)*%
X240665000Y-80645000D03*
D13*
X243125000Y-81925000D03*
%TD*%
D12*
%TO.P,SW16,1,A*%
%TO.N,COL6*%
X215265000Y-83185000D03*
D13*
X219075000Y-79825000D03*
D12*
%TO.P,SW16,2,B*%
%TO.N,Net-(D24-A)*%
X221615000Y-80645000D03*
D13*
X224075000Y-81925000D03*
%TD*%
D12*
%TO.P,SW14,1,A*%
%TO.N,COL4*%
X177165000Y-83185000D03*
D13*
X180975000Y-79825000D03*
D12*
%TO.P,SW14,2,B*%
%TO.N,Net-(D16-A)*%
X183515000Y-80645000D03*
D13*
X185975000Y-81925000D03*
%TD*%
D12*
%TO.P,SW18,1,A*%
%TO.N,COL8*%
X253365000Y-83185000D03*
D13*
X257175000Y-79825000D03*
D12*
%TO.P,SW18,2,B*%
%TO.N,Net-(D32-A)*%
X259715000Y-80645000D03*
D13*
X262175000Y-81925000D03*
%TD*%
D12*
%TO.P,SW36,1,A*%
%TO.N,COL6*%
X215265000Y-45085000D03*
D13*
X219075000Y-41725000D03*
D12*
%TO.P,SW36,2,B*%
%TO.N,Net-(D22-A)*%
X221615000Y-42545000D03*
D13*
X224075000Y-43825000D03*
%TD*%
D12*
%TO.P,SW9,1,A*%
%TO.N,COL9*%
X272415000Y-64135000D03*
D13*
X276225000Y-60775000D03*
D12*
%TO.P,SW9,2,B*%
%TO.N,Net-(D35-A)*%
X278765000Y-61595000D03*
D13*
X281225000Y-62875000D03*
%TD*%
D14*
%TO.P,J1,S1,SHIELD*%
%TO.N,GND*%
X122085000Y-99130000D03*
D15*
X117905000Y-99130000D03*
D14*
X122085000Y-107770000D03*
D15*
X117905000Y-107770000D03*
%TD*%
D16*
%TO.P,D23,1,K*%
%TO.N,ROW2*%
X228621425Y-69400000D03*
%TO.P,D23,2,A*%
%TO.N,Net-(D23-A)*%
X228621425Y-66100000D03*
%TD*%
D17*
%TO.P,D39,1,K*%
%TO.N,ROW2*%
X285850000Y-67700000D03*
%TO.P,D39,2,A*%
%TO.N,Net-(D39-A)*%
X285850000Y-71000000D03*
%TD*%
D16*
%TO.P,D32,1,K*%
%TO.N,ROW3*%
X266450000Y-88550000D03*
%TO.P,D32,2,A*%
%TO.N,Net-(D32-A)*%
X266450000Y-85250000D03*
%TD*%
%TO.P,D26,2,A*%
%TO.N,Net-(D26-A)*%
X247507142Y-46700000D03*
%TO.P,D26,1,K*%
%TO.N,ROW1*%
X247507142Y-50000000D03*
%TD*%
%TO.P,D24,1,K*%
%TO.N,ROW3*%
X228421425Y-88550000D03*
%TO.P,D24,2,A*%
%TO.N,Net-(D24-A)*%
X228421425Y-85250000D03*
%TD*%
%TO.P,D14,2,A*%
%TO.N,Net-(D14-A)*%
X190378571Y-46700000D03*
%TO.P,D14,1,K*%
%TO.N,ROW1*%
X190378571Y-50000000D03*
%TD*%
%TO.P,D11,1,K*%
%TO.N,ROW2*%
X171428570Y-69400000D03*
%TO.P,D11,2,A*%
%TO.N,Net-(D11-A)*%
X171428570Y-66100000D03*
%TD*%
%TO.P,D27,1,K*%
%TO.N,ROW2*%
X247685710Y-69400000D03*
%TO.P,D27,2,A*%
%TO.N,Net-(D27-A)*%
X247685710Y-66100000D03*
%TD*%
%TO.P,D7,1,K*%
%TO.N,ROW2*%
X152364285Y-69400000D03*
%TO.P,D7,2,A*%
%TO.N,Net-(D7-A)*%
X152364285Y-66100000D03*
%TD*%
D18*
%TO.P,D25,1,K*%
%TO.N,ROW4*%
X237100000Y-95450000D03*
%TO.P,D25,2,A*%
%TO.N,Net-(D25-A)*%
X240400000Y-95450000D03*
%TD*%
D16*
%TO.P,D31,1,K*%
%TO.N,ROW2*%
X266750000Y-69400000D03*
%TO.P,D31,2,A*%
%TO.N,Net-(D31-A)*%
X266750000Y-66100000D03*
%TD*%
D18*
%TO.P,D21,1,K*%
%TO.N,ROW4*%
X217783332Y-95400000D03*
%TO.P,D21,2,A*%
%TO.N,Net-(D21-A)*%
X221083332Y-95400000D03*
%TD*%
D16*
%TO.P,D28,1,K*%
%TO.N,ROW3*%
X247435710Y-88550000D03*
%TO.P,D28,2,A*%
%TO.N,Net-(D28-A)*%
X247435710Y-85250000D03*
%TD*%
%TO.P,D22,2,A*%
%TO.N,Net-(D22-A)*%
X228464285Y-46700000D03*
%TO.P,D22,1,K*%
%TO.N,ROW1*%
X228464285Y-50000000D03*
%TD*%
%TO.P,D1,2,A*%
%TO.N,Net-(D1-A)*%
X133250000Y-46700000D03*
%TO.P,D1,1,K*%
%TO.N,ROW1*%
X133250000Y-50000000D03*
%TD*%
%TO.P,D2,1,K*%
%TO.N,ROW2*%
X133300000Y-69400000D03*
%TO.P,D2,2,A*%
%TO.N,Net-(D2-A)*%
X133300000Y-66100000D03*
%TD*%
%TO.P,D20,1,K*%
%TO.N,ROW3*%
X209407140Y-88550000D03*
%TO.P,D20,2,A*%
%TO.N,Net-(D20-A)*%
X209407140Y-85250000D03*
%TD*%
%TO.P,D3,1,K*%
%TO.N,ROW3*%
X133350000Y-88550000D03*
%TO.P,D3,2,A*%
%TO.N,Net-(D3-A)*%
X133350000Y-85250000D03*
%TD*%
D18*
%TO.P,D17,1,K*%
%TO.N,ROW4*%
X198466666Y-95500000D03*
%TO.P,D17,2,A*%
%TO.N,Net-(D17-A)*%
X201766666Y-95500000D03*
%TD*%
D16*
%TO.P,D19,1,K*%
%TO.N,ROW2*%
X209557140Y-69400000D03*
%TO.P,D19,2,A*%
%TO.N,Net-(D19-A)*%
X209557140Y-66100000D03*
%TD*%
D17*
%TO.P,D38,1,K*%
%TO.N,ROW1*%
X285600000Y-47450000D03*
%TO.P,D38,2,A*%
%TO.N,Net-(D38-A)*%
X285600000Y-50750000D03*
%TD*%
D16*
%TO.P,D18,2,A*%
%TO.N,Net-(D18-A)*%
X209421428Y-46700000D03*
%TO.P,D18,1,K*%
%TO.N,ROW1*%
X209421428Y-50000000D03*
%TD*%
%TO.P,D12,1,K*%
%TO.N,ROW3*%
X171378570Y-88550000D03*
%TO.P,D12,2,A*%
%TO.N,Net-(D12-A)*%
X171378570Y-85250000D03*
%TD*%
%TO.P,D6,2,A*%
%TO.N,Net-(D6-A)*%
X152292857Y-46700000D03*
%TO.P,D6,1,K*%
%TO.N,ROW1*%
X152292857Y-50000000D03*
%TD*%
%TO.P,D16,1,K*%
%TO.N,ROW3*%
X190392855Y-88550000D03*
%TO.P,D16,2,A*%
%TO.N,Net-(D16-A)*%
X190392855Y-85250000D03*
%TD*%
D17*
%TO.P,D40,1,K*%
%TO.N,ROW3*%
X285900000Y-86100000D03*
%TO.P,D40,2,A*%
%TO.N,Net-(D40-A)*%
X285900000Y-89400000D03*
%TD*%
D19*
%TO.P,J3,1,Pin_1*%
%TO.N,+BATT*%
X151800000Y-77875000D03*
%TO.P,J3,2,Pin_2*%
%TO.N,GND*%
X153000000Y-77875000D03*
D20*
%TO.P,J3,MP*%
%TO.N,N/C*%
X150650000Y-74100000D03*
X154150000Y-74100000D03*
%TD*%
D16*
%TO.P,D36,1,K*%
%TO.N,ROW3*%
X285950000Y-84050000D03*
%TO.P,D36,2,A*%
%TO.N,Net-(D36-A)*%
X285950000Y-80750000D03*
%TD*%
%TO.P,D35,1,K*%
%TO.N,ROW2*%
X285850000Y-65700000D03*
%TO.P,D35,2,A*%
%TO.N,Net-(D35-A)*%
X285850000Y-62400000D03*
%TD*%
%TO.P,D10,2,A*%
%TO.N,Net-(D10-A)*%
X171335714Y-46700000D03*
%TO.P,D10,1,K*%
%TO.N,ROW1*%
X171335714Y-50000000D03*
%TD*%
D18*
%TO.P,D13,1,K*%
%TO.N,ROW4*%
X179150000Y-95400000D03*
%TO.P,D13,2,A*%
%TO.N,Net-(D13-A)*%
X182450000Y-95400000D03*
%TD*%
D16*
%TO.P,D15,1,K*%
%TO.N,ROW2*%
X190492855Y-69400000D03*
%TO.P,D15,2,A*%
%TO.N,Net-(D15-A)*%
X190492855Y-66100000D03*
%TD*%
%TO.P,D34,2,A*%
%TO.N,Net-(D34-A)*%
X285600000Y-42150000D03*
%TO.P,D34,1,K*%
%TO.N,ROW1*%
X285600000Y-45450000D03*
%TD*%
%TO.P,D30,1,K*%
%TO.N,ROW1*%
X266550000Y-50000000D03*
%TO.P,D30,2,A*%
%TO.N,Net-(D30-A)*%
X266550000Y-46700000D03*
%TD*%
%TO.P,D8,1,K*%
%TO.N,ROW3*%
X152300000Y-88450000D03*
%TO.P,D8,2,A*%
%TO.N,Net-(D8-A)*%
X152300000Y-85150000D03*
%TD*%
D21*
%TO.N,GND*%
X130100000Y-95500000D03*
X152900000Y-108600000D03*
X166000000Y-103900000D03*
X172400000Y-107700000D03*
X149500000Y-98900000D03*
X148500000Y-99400000D03*
X160200000Y-98500000D03*
X158400000Y-98300000D03*
X148400000Y-110100000D03*
X146800000Y-110100000D03*
X171600000Y-104900000D03*
X171600000Y-103500000D03*
X171600000Y-102200000D03*
X164700000Y-94700000D03*
X163300000Y-94700000D03*
X161900000Y-94700000D03*
X150700000Y-107350000D03*
X153800000Y-103600000D03*
X137000000Y-102000000D03*
X139000000Y-102000000D03*
X139000000Y-104000000D03*
X137000000Y-104000000D03*
X124000000Y-92000000D03*
X122000000Y-92000000D03*
X120000000Y-92000000D03*
X126150000Y-97450000D03*
X133550000Y-108500000D03*
X129050000Y-110950000D03*
%TO.N,+3V3*%
X147150000Y-94100000D03*
X126150000Y-101750000D03*
%TO.N,COL7*%
X230150000Y-89600000D03*
%TO.N,COL6*%
X210850000Y-89300000D03*
%TO.N,COL5*%
X192550000Y-88700000D03*
%TO.N,ROW4*%
X235950000Y-96500000D03*
X217550000Y-97000000D03*
X197350000Y-97000000D03*
%TO.N,COL4*%
X174400000Y-88200000D03*
%TO.N,COL10*%
X139450000Y-90200000D03*
X145350000Y-102000000D03*
%TO.N,COL9*%
X140400000Y-90200000D03*
X145350000Y-101000000D03*
%TO.N,COL8*%
X141203989Y-90200000D03*
X145350000Y-99850000D03*
%TO.N,COL7*%
X142003992Y-90200000D03*
X145400000Y-98800000D03*
%TO.N,COL6*%
X142803995Y-90200000D03*
X145400000Y-97550000D03*
%TO.N,COL5*%
X143603998Y-90200000D03*
X145450000Y-96500000D03*
%TO.N,COL4*%
X144308046Y-89738140D03*
X130550000Y-105450000D03*
%TO.N,COL3*%
X130550000Y-104250000D03*
X144900000Y-89200000D03*
%TO.N,COL2*%
X134200000Y-91700000D03*
X130650000Y-100700000D03*
%TO.N,COL1*%
X130650000Y-99300000D03*
X132950000Y-91750000D03*
%TO.N,ROW3*%
X155475000Y-87625000D03*
X152750000Y-87400000D03*
%TO.N,ROW2*%
X151000000Y-71050000D03*
%TO.N,ROW1*%
X151800000Y-51700000D03*
%TO.N,ROW2*%
X150200000Y-89200000D03*
X149450000Y-107150000D03*
%TO.N,ROW1*%
X150750000Y-106100000D03*
X151050000Y-89300000D03*
%TO.N,ROW3*%
X151600000Y-105000000D03*
%TO.N,ROW4*%
X163950000Y-98150000D03*
X155350000Y-104350000D03*
X178650000Y-97050000D03*
%TO.N,SWDIO*%
X130472793Y-103072793D03*
%TO.N,SWDCLK*%
X129463173Y-103163173D03*
%TO.N,VBUS*%
X124300000Y-101000000D03*
X124300000Y-105950000D03*
X136000000Y-106950000D03*
X158775000Y-107325000D03*
X166600000Y-100500000D03*
%TO.N,+BATT*%
X167900000Y-104900000D03*
X153600000Y-96400000D03*
%TD*%
D22*
%TO.N,VBUS*%
X136000000Y-106950000D02*
X143760660Y-106950000D01*
X151010661Y-108100000D02*
X151610661Y-107500000D01*
X158600000Y-107500000D02*
X158775000Y-107325000D01*
X143760660Y-106950000D02*
X144910660Y-108100000D01*
X144910660Y-108100000D02*
X151010661Y-108100000D01*
X151610661Y-107500000D02*
X158600000Y-107500000D01*
%TO.N,+BATT*%
X167900000Y-104900000D02*
X172275723Y-109275723D01*
X172275723Y-109275723D02*
X248900000Y-109275723D01*
%TO.N,GND*%
X247935723Y-107700000D02*
X172400000Y-107700000D01*
X248900000Y-106735723D02*
X247935723Y-107700000D01*
D23*
%TO.N,Net-(D26-A)*%
X243125000Y-43825000D02*
X244725000Y-43825000D01*
X244725000Y-43825000D02*
X247507142Y-46607142D01*
X247507142Y-46607142D02*
X247507142Y-46700000D01*
%TO.N,Net-(D22-A)*%
X224075000Y-43825000D02*
X226025000Y-43825000D01*
X226025000Y-43825000D02*
X228464285Y-46264285D01*
X228464285Y-46264285D02*
X228464285Y-46700000D01*
%TO.N,Net-(D1-A)*%
X128825000Y-43825000D02*
X130625000Y-43825000D01*
X130625000Y-43825000D02*
X133250000Y-46450000D01*
X133250000Y-46450000D02*
X133250000Y-46700000D01*
%TO.N,Net-(D6-A)*%
X147875000Y-43825000D02*
X149925000Y-43825000D01*
X149925000Y-43825000D02*
X152292857Y-46192857D01*
X152292857Y-46192857D02*
X152292857Y-46700000D01*
%TO.N,Net-(D10-A)*%
X166925000Y-43825000D02*
X169125000Y-43825000D01*
X169125000Y-43825000D02*
X171335714Y-46035714D01*
X171335714Y-46035714D02*
X171335714Y-46700000D01*
%TO.N,Net-(D14-A)*%
X185975000Y-43825000D02*
X188225000Y-43825000D01*
X188225000Y-43825000D02*
X190378571Y-45978571D01*
X190378571Y-45978571D02*
X190378571Y-46700000D01*
%TO.N,Net-(D18-A)*%
X205025000Y-43825000D02*
X206925000Y-43825000D01*
X209421428Y-46321428D02*
X209421428Y-46700000D01*
X206925000Y-43825000D02*
X209421428Y-46321428D01*
%TO.N,Net-(D13-A)*%
X183515000Y-99695000D02*
X183515000Y-96465000D01*
X183515000Y-96465000D02*
X182450000Y-95400000D01*
D22*
%TO.N,GND*%
X154725000Y-92625000D02*
X155000000Y-92900000D01*
X154725000Y-79600000D02*
X154725000Y-92625000D01*
X153000000Y-77875000D02*
X154725000Y-79600000D01*
D23*
%TO.N,ROW3*%
X155475000Y-87625000D02*
X156400000Y-88550000D01*
X156400000Y-88550000D02*
X171378570Y-88550000D01*
X152700000Y-87400000D02*
X152300000Y-87800000D01*
X152750000Y-87400000D02*
X152700000Y-87400000D01*
X152300000Y-87800000D02*
X152300000Y-88450000D01*
D22*
%TO.N,+BATT*%
X153600000Y-96400000D02*
X153500000Y-96300000D01*
X153500000Y-96300000D02*
X153500000Y-81150000D01*
X153500000Y-81150000D02*
X151800000Y-79450000D01*
X151800000Y-79450000D02*
X151800000Y-77875000D01*
D23*
%TO.N,GND*%
X153600000Y-104450000D02*
X150700000Y-107350000D01*
X153600000Y-103800000D02*
X153600000Y-104450000D01*
X153800000Y-103600000D02*
X153600000Y-103800000D01*
D22*
%TO.N,VBUS*%
X136000000Y-106950000D02*
X135950000Y-106900000D01*
X125250000Y-106900000D02*
X124300000Y-105950000D01*
X135950000Y-106900000D02*
X125250000Y-106900000D01*
D23*
%TO.N,ROW2*%
X149450000Y-107150000D02*
X150100000Y-106500000D01*
X150100000Y-106500000D02*
X150100000Y-103871016D01*
X150100000Y-103871016D02*
X150275000Y-103696016D01*
X150275000Y-103696016D02*
X150275000Y-89275000D01*
X150275000Y-89275000D02*
X150200000Y-89200000D01*
%TO.N,ROW1*%
X150750000Y-106100000D02*
X150950000Y-105900000D01*
X150950000Y-105900000D02*
X150950000Y-89400000D01*
X150950000Y-89400000D02*
X151050000Y-89300000D01*
D22*
%TO.N,+3V3*%
X147150000Y-94100000D02*
X147150000Y-104100000D01*
X145050000Y-106200000D02*
X128000000Y-106200000D01*
X147150000Y-104100000D02*
X145050000Y-106200000D01*
X128000000Y-106200000D02*
X126150000Y-104350000D01*
X126150000Y-104350000D02*
X126150000Y-101750000D01*
D23*
%TO.N,COL7*%
X230150000Y-89600000D02*
X234315000Y-93765000D01*
X234315000Y-93765000D02*
X234315000Y-102235000D01*
%TO.N,COL6*%
X210850000Y-89300000D02*
X215265000Y-93715000D01*
X215265000Y-93715000D02*
X215265000Y-102235000D01*
%TO.N,COL5*%
X192550000Y-88700000D02*
X196215000Y-92365000D01*
X196215000Y-92365000D02*
X196215000Y-102235000D01*
%TO.N,ROW3*%
X189550000Y-88450000D02*
X190492855Y-88450000D01*
X190492855Y-88450000D02*
X191092855Y-87850000D01*
X191092855Y-87850000D02*
X197650000Y-87850000D01*
X197650000Y-87850000D02*
X198350000Y-88550000D01*
X198350000Y-88550000D02*
X266450000Y-88550000D01*
X178600000Y-88450000D02*
X189550000Y-88450000D01*
X189550000Y-88450000D02*
X190292855Y-88450000D01*
X190292855Y-88450000D02*
X190392855Y-88550000D01*
X171378570Y-88550000D02*
X172628570Y-87300000D01*
X172628570Y-87300000D02*
X177450000Y-87300000D01*
X177450000Y-87300000D02*
X178600000Y-88450000D01*
%TO.N,COL4*%
X174400000Y-88200000D02*
X177165000Y-90965000D01*
X177165000Y-90965000D02*
X177165000Y-102235000D01*
%TO.N,ROW4*%
X217550000Y-97000000D02*
X217550000Y-95633332D01*
X217550000Y-95633332D02*
X217783332Y-95400000D01*
X197350000Y-97000000D02*
X197350000Y-96616666D01*
X197350000Y-96616666D02*
X198466666Y-95500000D01*
X235950000Y-96500000D02*
X236050000Y-96500000D01*
X236050000Y-96500000D02*
X237100000Y-95450000D01*
%TO.N,COL10*%
X139450000Y-96100000D02*
X139450000Y-90200000D01*
X145350000Y-102000000D02*
X139450000Y-96100000D01*
%TO.N,COL9*%
X140400000Y-96050000D02*
X140400000Y-90200000D01*
X145350000Y-101000000D02*
X140400000Y-96050000D01*
%TO.N,COL8*%
X141203989Y-90200000D02*
X141200000Y-90203989D01*
X141200000Y-90203989D02*
X141200000Y-95700000D01*
X141200000Y-95700000D02*
X145350000Y-99850000D01*
%TO.N,COL7*%
X142003992Y-90200000D02*
X142003992Y-95403992D01*
X142003992Y-95403992D02*
X145400000Y-98800000D01*
%TO.N,COL6*%
X142803995Y-90200000D02*
X142900000Y-90296005D01*
X142900000Y-90296005D02*
X142900000Y-95050000D01*
X142900000Y-95050000D02*
X145400000Y-97550000D01*
%TO.N,COL5*%
X143600000Y-90203998D02*
X143600000Y-94650000D01*
X143603998Y-90200000D02*
X143600000Y-90203998D01*
X143600000Y-94650000D02*
X145450000Y-96500000D01*
%TO.N,COL4*%
X144308046Y-89738140D02*
X144119906Y-89550000D01*
X144119906Y-89550000D02*
X138800000Y-89550000D01*
X135850000Y-92500000D02*
X135850000Y-100150000D01*
X138800000Y-89550000D02*
X135850000Y-92500000D01*
X135850000Y-100150000D02*
X130550000Y-105450000D01*
%TO.N,COL3*%
X144900000Y-89200000D02*
X144750000Y-89050000D01*
X144750000Y-89050000D02*
X138050000Y-89050000D01*
X138050000Y-89050000D02*
X135150000Y-91950000D01*
X135150000Y-91950000D02*
X135150000Y-99650000D01*
X135150000Y-99650000D02*
X130550000Y-104250000D01*
%TO.N,COL2*%
X134200000Y-91700000D02*
X134200000Y-97150000D01*
X134200000Y-97150000D02*
X130650000Y-100700000D01*
%TO.N,COL1*%
X130650000Y-98900000D02*
X132950000Y-96600000D01*
X130650000Y-99300000D02*
X130650000Y-98900000D01*
X132950000Y-96600000D02*
X132950000Y-91750000D01*
%TO.N,Net-(D3-A)*%
X128825000Y-81925000D02*
X132150000Y-85250000D01*
X132150000Y-85250000D02*
X133350000Y-85250000D01*
%TO.N,Net-(D8-A)*%
X147875000Y-81925000D02*
X151100000Y-85150000D01*
X151100000Y-85150000D02*
X152300000Y-85150000D01*
%TO.N,Net-(D12-A)*%
X166925000Y-81925000D02*
X170250000Y-85250000D01*
X170250000Y-85250000D02*
X171378570Y-85250000D01*
%TO.N,Net-(D16-A)*%
X185975000Y-81925000D02*
X189300000Y-85250000D01*
X189300000Y-85250000D02*
X190392855Y-85250000D01*
%TO.N,Net-(D20-A)*%
X205025000Y-81925000D02*
X208350000Y-85250000D01*
X208350000Y-85250000D02*
X209407140Y-85250000D01*
%TO.N,Net-(D24-A)*%
X224075000Y-81925000D02*
X227400000Y-85250000D01*
X227400000Y-85250000D02*
X228421425Y-85250000D01*
%TO.N,Net-(D28-A)*%
X243125000Y-81925000D02*
X246450000Y-85250000D01*
X246450000Y-85250000D02*
X247435710Y-85250000D01*
%TO.N,Net-(D32-A)*%
X262175000Y-81925000D02*
X265500000Y-85250000D01*
X265500000Y-85250000D02*
X266450000Y-85250000D01*
%TO.N,Net-(D31-A)*%
X262175000Y-62875000D02*
X265400000Y-66100000D01*
X265400000Y-66100000D02*
X266750000Y-66100000D01*
%TO.N,Net-(D27-A)*%
X243125000Y-62875000D02*
X246350000Y-66100000D01*
X246350000Y-66100000D02*
X247685710Y-66100000D01*
%TO.N,Net-(D23-A)*%
X224075000Y-62875000D02*
X227300000Y-66100000D01*
X227300000Y-66100000D02*
X228621425Y-66100000D01*
%TO.N,Net-(D19-A)*%
X205025000Y-62875000D02*
X208250000Y-66100000D01*
X208250000Y-66100000D02*
X209557140Y-66100000D01*
%TO.N,Net-(D15-A)*%
X185975000Y-62875000D02*
X189200000Y-66100000D01*
X189200000Y-66100000D02*
X190492855Y-66100000D01*
%TO.N,Net-(D11-A)*%
X166925000Y-62875000D02*
X170150000Y-66100000D01*
X170150000Y-66100000D02*
X171428570Y-66100000D01*
%TO.N,Net-(D7-A)*%
X152364285Y-66100000D02*
X152364285Y-65314285D01*
X152364285Y-65314285D02*
X149925000Y-62875000D01*
X149925000Y-62875000D02*
X147875000Y-62875000D01*
%TO.N,Net-(D2-A)*%
X133300000Y-66100000D02*
X132050000Y-66100000D01*
X132050000Y-66100000D02*
X128825000Y-62875000D01*
%TO.N,Net-(D17-A)*%
X201766666Y-95500000D02*
X201766666Y-98896666D01*
X201766666Y-98896666D02*
X202565000Y-99695000D01*
%TO.N,Net-(D21-A)*%
X221083332Y-95400000D02*
X221083332Y-99163332D01*
X221083332Y-99163332D02*
X221615000Y-99695000D01*
%TO.N,Net-(D25-A)*%
X240400000Y-95450000D02*
X240400000Y-99430000D01*
X240400000Y-99430000D02*
X240665000Y-99695000D01*
X240665000Y-99695000D02*
X241845000Y-99695000D01*
X241845000Y-99695000D02*
X243125000Y-100975000D01*
%TO.N,COL7*%
X234315000Y-102235000D02*
X237675000Y-98875000D01*
X237675000Y-98875000D02*
X238125000Y-98875000D01*
%TO.N,Net-(D21-A)*%
X221615000Y-99695000D02*
X222795000Y-99695000D01*
X222795000Y-99695000D02*
X224075000Y-100975000D01*
%TO.N,COL6*%
X215265000Y-102235000D02*
X218625000Y-98875000D01*
X218625000Y-98875000D02*
X219075000Y-98875000D01*
%TO.N,Net-(D17-A)*%
X202565000Y-99695000D02*
X203745000Y-99695000D01*
X203745000Y-99695000D02*
X205025000Y-100975000D01*
%TO.N,COL5*%
X196215000Y-102235000D02*
X199575000Y-98875000D01*
X199575000Y-98875000D02*
X200025000Y-98875000D01*
%TO.N,Net-(D13-A)*%
X183515000Y-99695000D02*
X184695000Y-99695000D01*
X184695000Y-99695000D02*
X185975000Y-100975000D01*
%TO.N,COL4*%
X177165000Y-102235000D02*
X180525000Y-98875000D01*
X180525000Y-98875000D02*
X180975000Y-98875000D01*
%TO.N,COL10*%
X291465000Y-83185000D02*
X294825000Y-79825000D01*
X294825000Y-79825000D02*
X295275000Y-79825000D01*
%TO.N,Net-(D36-A)*%
X278765000Y-80645000D02*
X279945000Y-80645000D01*
X279945000Y-80645000D02*
X281225000Y-81925000D01*
%TO.N,COL9*%
X272415000Y-83185000D02*
X275775000Y-79825000D01*
X275775000Y-79825000D02*
X276225000Y-79825000D01*
%TO.N,Net-(D32-A)*%
X259715000Y-80645000D02*
X260895000Y-80645000D01*
X260895000Y-80645000D02*
X262175000Y-81925000D01*
%TO.N,COL8*%
X253365000Y-83185000D02*
X256725000Y-79825000D01*
X256725000Y-79825000D02*
X257175000Y-79825000D01*
%TO.N,Net-(D28-A)*%
X240665000Y-80645000D02*
X241845000Y-80645000D01*
X241845000Y-80645000D02*
X243125000Y-81925000D01*
%TO.N,COL7*%
X234315000Y-83185000D02*
X237675000Y-79825000D01*
X237675000Y-79825000D02*
X238125000Y-79825000D01*
%TO.N,Net-(D24-A)*%
X221615000Y-80645000D02*
X222795000Y-80645000D01*
X222795000Y-80645000D02*
X224075000Y-81925000D01*
%TO.N,COL6*%
X215265000Y-83185000D02*
X218625000Y-79825000D01*
X218625000Y-79825000D02*
X219075000Y-79825000D01*
%TO.N,Net-(D20-A)*%
X202565000Y-80645000D02*
X203745000Y-80645000D01*
X203745000Y-80645000D02*
X205025000Y-81925000D01*
%TO.N,COL5*%
X196215000Y-83185000D02*
X199575000Y-79825000D01*
X199575000Y-79825000D02*
X200025000Y-79825000D01*
%TO.N,Net-(D16-A)*%
X183515000Y-80645000D02*
X184695000Y-80645000D01*
X184695000Y-80645000D02*
X185975000Y-81925000D01*
%TO.N,COL4*%
X177165000Y-83185000D02*
X180525000Y-79825000D01*
X180525000Y-79825000D02*
X180975000Y-79825000D01*
%TO.N,Net-(D12-A)*%
X164465000Y-80645000D02*
X165645000Y-80645000D01*
X165645000Y-80645000D02*
X166925000Y-81925000D01*
%TO.N,COL3*%
X158115000Y-83185000D02*
X161475000Y-79825000D01*
X161475000Y-79825000D02*
X161925000Y-79825000D01*
%TO.N,Net-(D8-A)*%
X145415000Y-80645000D02*
X146595000Y-80645000D01*
X146595000Y-80645000D02*
X147875000Y-81925000D01*
%TO.N,COL2*%
X139065000Y-83185000D02*
X142425000Y-79825000D01*
X142425000Y-79825000D02*
X142875000Y-79825000D01*
%TO.N,Net-(D3-A)*%
X126365000Y-80645000D02*
X127545000Y-80645000D01*
X127545000Y-80645000D02*
X128825000Y-81925000D01*
%TO.N,COL1*%
X120015000Y-83185000D02*
X123375000Y-79825000D01*
X123375000Y-79825000D02*
X123825000Y-79825000D01*
%TO.N,Net-(D26-A)*%
X240665000Y-42545000D02*
X241845000Y-42545000D01*
X241845000Y-42545000D02*
X243125000Y-43825000D01*
%TO.N,COL7*%
X234315000Y-45085000D02*
X237675000Y-41725000D01*
X237675000Y-41725000D02*
X238125000Y-41725000D01*
%TO.N,Net-(D22-A)*%
X221615000Y-42545000D02*
X222795000Y-42545000D01*
X222795000Y-42545000D02*
X224075000Y-43825000D01*
%TO.N,COL6*%
X215265000Y-45085000D02*
X218625000Y-41725000D01*
X218625000Y-41725000D02*
X219075000Y-41725000D01*
%TO.N,Net-(D18-A)*%
X202565000Y-42545000D02*
X203745000Y-42545000D01*
X203745000Y-42545000D02*
X205025000Y-43825000D01*
%TO.N,COL5*%
X196215000Y-45085000D02*
X199575000Y-41725000D01*
X199575000Y-41725000D02*
X200025000Y-41725000D01*
%TO.N,Net-(D14-A)*%
X183515000Y-42545000D02*
X184695000Y-42545000D01*
X184695000Y-42545000D02*
X185975000Y-43825000D01*
%TO.N,COL4*%
X177165000Y-45085000D02*
X180525000Y-41725000D01*
X180525000Y-41725000D02*
X180975000Y-41725000D01*
%TO.N,Net-(D10-A)*%
X164465000Y-42545000D02*
X165645000Y-42545000D01*
X165645000Y-42545000D02*
X166925000Y-43825000D01*
%TO.N,COL3*%
X161925000Y-41725000D02*
X158565000Y-45085000D01*
X158565000Y-45085000D02*
X158115000Y-45085000D01*
%TO.N,Net-(D6-A)*%
X145415000Y-42545000D02*
X146595000Y-42545000D01*
X146595000Y-42545000D02*
X147875000Y-43825000D01*
%TO.N,COL2*%
X139065000Y-45085000D02*
X142425000Y-41725000D01*
X142425000Y-41725000D02*
X142875000Y-41725000D01*
%TO.N,Net-(D1-A)*%
X126365000Y-42545000D02*
X127545000Y-42545000D01*
X127545000Y-42545000D02*
X128825000Y-43825000D01*
%TO.N,COL1*%
X120015000Y-45085000D02*
X123375000Y-41725000D01*
X123375000Y-41725000D02*
X123825000Y-41725000D01*
X123825000Y-60775000D02*
X120465000Y-64135000D01*
X120465000Y-64135000D02*
X120015000Y-64135000D01*
%TO.N,Net-(D2-A)*%
X126365000Y-61595000D02*
X127545000Y-61595000D01*
X127545000Y-61595000D02*
X128825000Y-62875000D01*
%TO.N,COL2*%
X142875000Y-60775000D02*
X139515000Y-64135000D01*
X139515000Y-64135000D02*
X139065000Y-64135000D01*
%TO.N,Net-(D7-A)*%
X145415000Y-61595000D02*
X146595000Y-61595000D01*
X146595000Y-61595000D02*
X147875000Y-62875000D01*
%TO.N,COL3*%
X161925000Y-60775000D02*
X158565000Y-64135000D01*
X158565000Y-64135000D02*
X158115000Y-64135000D01*
%TO.N,Net-(D11-A)*%
X164465000Y-61595000D02*
X165645000Y-61595000D01*
X165645000Y-61595000D02*
X166925000Y-62875000D01*
%TO.N,COL4*%
X180975000Y-60775000D02*
X177615000Y-64135000D01*
X177615000Y-64135000D02*
X177165000Y-64135000D01*
%TO.N,Net-(D15-A)*%
X183515000Y-61595000D02*
X184695000Y-61595000D01*
X184695000Y-61595000D02*
X185975000Y-62875000D01*
%TO.N,COL5*%
X200025000Y-60775000D02*
X196665000Y-64135000D01*
X196665000Y-64135000D02*
X196215000Y-64135000D01*
%TO.N,Net-(D19-A)*%
X202565000Y-61595000D02*
X203745000Y-61595000D01*
X203745000Y-61595000D02*
X205025000Y-62875000D01*
%TO.N,COL6*%
X219075000Y-60775000D02*
X215715000Y-64135000D01*
X215715000Y-64135000D02*
X215265000Y-64135000D01*
%TO.N,Net-(D23-A)*%
X221615000Y-61595000D02*
X222795000Y-61595000D01*
X222795000Y-61595000D02*
X224075000Y-62875000D01*
%TO.N,COL7*%
X238125000Y-60775000D02*
X234765000Y-64135000D01*
X234765000Y-64135000D02*
X234315000Y-64135000D01*
%TO.N,Net-(D27-A)*%
X240665000Y-61595000D02*
X241845000Y-61595000D01*
X241845000Y-61595000D02*
X243125000Y-62875000D01*
%TO.N,COL8*%
X257175000Y-60775000D02*
X253815000Y-64135000D01*
X253815000Y-64135000D02*
X253365000Y-64135000D01*
%TO.N,Net-(D31-A)*%
X259715000Y-61595000D02*
X260895000Y-61595000D01*
X260895000Y-61595000D02*
X262175000Y-62875000D01*
%TO.N,COL8*%
X257175000Y-41725000D02*
X253815000Y-45085000D01*
X253815000Y-45085000D02*
X253365000Y-45085000D01*
%TO.N,Net-(D35-A)*%
X278765000Y-61595000D02*
X279945000Y-61595000D01*
X279945000Y-61595000D02*
X281225000Y-62875000D01*
%TO.N,COL9*%
X272415000Y-64135000D02*
X275775000Y-60775000D01*
X275775000Y-60775000D02*
X276225000Y-60775000D01*
%TO.N,COL10*%
X291465000Y-64185000D02*
X294825000Y-60825000D01*
X294825000Y-60825000D02*
X295275000Y-60825000D01*
X291465000Y-45085000D02*
X294825000Y-41725000D01*
X294825000Y-41725000D02*
X295275000Y-41725000D01*
%TO.N,COL9*%
X272415000Y-45085000D02*
X275775000Y-41725000D01*
X275775000Y-41725000D02*
X276225000Y-41725000D01*
%TO.N,Net-(D34-A)*%
X281225000Y-43825000D02*
X280045000Y-43825000D01*
X280045000Y-43825000D02*
X278765000Y-42545000D01*
X285600000Y-42150000D02*
X282900000Y-42150000D01*
X282900000Y-42150000D02*
X281225000Y-43825000D01*
%TO.N,Net-(D30-A)*%
X262175000Y-43825000D02*
X260995000Y-43825000D01*
X260995000Y-43825000D02*
X259715000Y-42545000D01*
X266550000Y-46700000D02*
X265050000Y-46700000D01*
X265050000Y-46700000D02*
X262175000Y-43825000D01*
%TO.N,Net-(D38-A)*%
X298300000Y-45800000D02*
X297815000Y-45315000D01*
X297815000Y-45315000D02*
X297815000Y-42545000D01*
X296300000Y-50750000D02*
X298300000Y-48750000D01*
X285600000Y-50750000D02*
X296300000Y-50750000D01*
X298300000Y-48750000D02*
X298300000Y-45800000D01*
X298300000Y-45800000D02*
X300275000Y-43825000D01*
%TO.N,Net-(D39-A)*%
X298350000Y-64250000D02*
X297815000Y-63715000D01*
X297815000Y-63715000D02*
X297815000Y-61645000D01*
%TO.N,Net-(D35-A)*%
X285850000Y-62400000D02*
X281700000Y-62400000D01*
X281700000Y-62400000D02*
X281225000Y-62875000D01*
%TO.N,Net-(D39-A)*%
X285850000Y-71000000D02*
X296400000Y-71000000D01*
X296400000Y-71000000D02*
X298350000Y-69050000D01*
X298350000Y-69050000D02*
X298350000Y-64250000D01*
X298350000Y-64250000D02*
X298950000Y-64250000D01*
X298950000Y-64250000D02*
X300275000Y-62925000D01*
%TO.N,Net-(D40-A)*%
X285900000Y-89400000D02*
X296000000Y-89400000D01*
X296000000Y-89400000D02*
X298500000Y-86900000D01*
X298500000Y-86900000D02*
X298500000Y-83700000D01*
X298500000Y-83700000D02*
X300275000Y-81925000D01*
X299675000Y-82535000D02*
X299675000Y-81355000D01*
X299675000Y-81355000D02*
X298395000Y-80075000D01*
%TO.N,Net-(D36-A)*%
X285950000Y-80750000D02*
X282400000Y-80750000D01*
X282400000Y-80750000D02*
X281225000Y-81925000D01*
%TO.N,ROW3*%
X285900000Y-86100000D02*
X285900000Y-84100000D01*
X285900000Y-84100000D02*
X285950000Y-84050000D01*
X266450000Y-88550000D02*
X283450000Y-88550000D01*
X283450000Y-88550000D02*
X285900000Y-86100000D01*
X133350000Y-88550000D02*
X152200000Y-88550000D01*
X152200000Y-88550000D02*
X152300000Y-88450000D01*
%TO.N,ROW2*%
X285850000Y-67700000D02*
X285850000Y-65700000D01*
X266750000Y-69400000D02*
X284150000Y-69400000D01*
X284150000Y-69400000D02*
X285850000Y-67700000D01*
X133300000Y-69400000D02*
X266750000Y-69400000D01*
%TO.N,ROW1*%
X285600000Y-47450000D02*
X285600000Y-45600000D01*
X285600000Y-45600000D02*
X285700000Y-45500000D01*
X266550000Y-50000000D02*
X266850000Y-50300000D01*
X266850000Y-50300000D02*
X283100000Y-50300000D01*
X283100000Y-50300000D02*
X285600000Y-47800000D01*
X285600000Y-47800000D02*
X285600000Y-47450000D01*
X133250000Y-50000000D02*
X133275000Y-50025000D01*
X133275000Y-50025000D02*
X266525000Y-50025000D01*
X266525000Y-50025000D02*
X266550000Y-50000000D01*
%TO.N,ROW2*%
X151000000Y-71050000D02*
X151000000Y-70764285D01*
X151000000Y-70764285D02*
X152364285Y-69400000D01*
%TO.N,ROW1*%
X151800000Y-51700000D02*
X151800000Y-50492857D01*
X151800000Y-50492857D02*
X152292857Y-50000000D01*
%TO.N,ROW3*%
X151600000Y-105000000D02*
X151700000Y-104900000D01*
X151700000Y-104900000D02*
X151700000Y-89050000D01*
X151700000Y-89050000D02*
X152300000Y-88450000D01*
%TO.N,ROW4*%
X157750000Y-104350000D02*
X163950000Y-98150000D01*
X178650000Y-95900000D02*
X179150000Y-95400000D01*
X155350000Y-104350000D02*
X157750000Y-104350000D01*
X178650000Y-97050000D02*
X178650000Y-95900000D01*
%TO.N,SWDIO*%
X130472793Y-103072793D02*
X123510000Y-96110000D01*
X123510000Y-96110000D02*
X123510000Y-95800000D01*
%TO.N,SWDCLK*%
X129463173Y-103163173D02*
X126650000Y-100350000D01*
X126650000Y-100350000D02*
X125520000Y-100350000D01*
X125520000Y-100350000D02*
X120970000Y-95800000D01*
D22*
%TO.N,VBUS*%
X158775000Y-107325000D02*
X165600000Y-100500000D01*
X165600000Y-100500000D02*
X166600000Y-100500000D01*
X124300000Y-105950000D02*
X124300000Y-101000000D01*
%TO.N,+BATT*%
X153900000Y-96400000D02*
X163960661Y-96400000D01*
X153600000Y-96400000D02*
X153900000Y-96400000D01*
X167900000Y-100339339D02*
X167900000Y-104900000D01*
X163960661Y-96400000D02*
X167900000Y-100339339D01*
%TD*%
%TA.AperFunction,Conductor*%
%TO.N,GND*%
G36*
X118680000Y-97150000D02*
G01*
X119327828Y-97150000D01*
X119327844Y-97149999D01*
X119387372Y-97143598D01*
X119387379Y-97143596D01*
X119522086Y-97093354D01*
X119522093Y-97093350D01*
X119637187Y-97007190D01*
X119637190Y-97007187D01*
X119723350Y-96892093D01*
X119723354Y-96892086D01*
X119772422Y-96760529D01*
X119814293Y-96704595D01*
X119879757Y-96680178D01*
X119948030Y-96695030D01*
X119976285Y-96716181D01*
X120098599Y-96838495D01*
X120168951Y-96887756D01*
X120292165Y-96974032D01*
X120292167Y-96974033D01*
X120292170Y-96974035D01*
X120506337Y-97073903D01*
X120734592Y-97135063D01*
X120905319Y-97150000D01*
X120969999Y-97155659D01*
X120970000Y-97155659D01*
X120970001Y-97155659D01*
X121034681Y-97150000D01*
X121205408Y-97135063D01*
X121277989Y-97115615D01*
X121347839Y-97117278D01*
X121397763Y-97147709D01*
X122298681Y-98048627D01*
X122332166Y-98109950D01*
X122335000Y-98136308D01*
X122335000Y-98830000D01*
X121835000Y-98830000D01*
X121835000Y-98130000D01*
X121436504Y-98130000D01*
X121243318Y-98168427D01*
X121243306Y-98168430D01*
X121061328Y-98243807D01*
X121061315Y-98243814D01*
X120897537Y-98353248D01*
X120897533Y-98353251D01*
X120758251Y-98492533D01*
X120758248Y-98492537D01*
X120648814Y-98656315D01*
X120648807Y-98656328D01*
X120573430Y-98838307D01*
X120573430Y-98838309D01*
X120565138Y-98880000D01*
X121368012Y-98880000D01*
X121350795Y-98889940D01*
X121294940Y-98945795D01*
X121255444Y-99014204D01*
X121235000Y-99090504D01*
X121235000Y-99169496D01*
X121255444Y-99245796D01*
X121294940Y-99314205D01*
X121350795Y-99370060D01*
X121368012Y-99380000D01*
X120565138Y-99380000D01*
X120573430Y-99421690D01*
X120573430Y-99421692D01*
X120648807Y-99603671D01*
X120648814Y-99603684D01*
X120758248Y-99767462D01*
X120758251Y-99767466D01*
X120897533Y-99906748D01*
X120897537Y-99906751D01*
X121066387Y-100019574D01*
X121065430Y-100021005D01*
X121109425Y-100064211D01*
X121124895Y-100132346D01*
X121101072Y-100198029D01*
X121099309Y-100200094D01*
X121099432Y-100200189D01*
X121094485Y-100206635D01*
X121018719Y-100337863D01*
X120990668Y-100442555D01*
X120979500Y-100484234D01*
X120979500Y-100635766D01*
X120996710Y-100699996D01*
X121018719Y-100782136D01*
X121056602Y-100847750D01*
X121094485Y-100913365D01*
X121201635Y-101020515D01*
X121332865Y-101096281D01*
X121479234Y-101135500D01*
X121479236Y-101135500D01*
X121630764Y-101135500D01*
X121630766Y-101135500D01*
X121777135Y-101096281D01*
X121908365Y-101020515D01*
X122015515Y-100913365D01*
X122091281Y-100782135D01*
X122130500Y-100635766D01*
X122130500Y-100484234D01*
X122091281Y-100337865D01*
X122015515Y-100206635D01*
X121908365Y-100099485D01*
X121896998Y-100092922D01*
X121848783Y-100042354D01*
X121835000Y-99985536D01*
X121835000Y-99430000D01*
X122335000Y-99430000D01*
X122335000Y-100130000D01*
X122733492Y-100130000D01*
X122733495Y-100129999D01*
X122926681Y-100091572D01*
X122926693Y-100091569D01*
X123108671Y-100016192D01*
X123108684Y-100016185D01*
X123272462Y-99906751D01*
X123272466Y-99906748D01*
X123411748Y-99767466D01*
X123411751Y-99767462D01*
X123521185Y-99603684D01*
X123521189Y-99603677D01*
X123547569Y-99539988D01*
X123591409Y-99485584D01*
X123657703Y-99463518D01*
X123725403Y-99480796D01*
X123749812Y-99499758D01*
X124247785Y-99997731D01*
X124281270Y-100059054D01*
X124276286Y-100128746D01*
X124234414Y-100184679D01*
X124173988Y-100208632D01*
X124120749Y-100214630D01*
X124120745Y-100214631D01*
X123950476Y-100274211D01*
X123797737Y-100370184D01*
X123670184Y-100497737D01*
X123574211Y-100650476D01*
X123514631Y-100820745D01*
X123514630Y-100820750D01*
X123494435Y-100999996D01*
X123494435Y-101000003D01*
X123514630Y-101179249D01*
X123514631Y-101179254D01*
X123542542Y-101259017D01*
X123549500Y-101299972D01*
X123549500Y-105650028D01*
X123542542Y-105690982D01*
X123514631Y-105770747D01*
X123494435Y-105949996D01*
X123494435Y-105950003D01*
X123514630Y-106129249D01*
X123514631Y-106129254D01*
X123574211Y-106299523D01*
X123611557Y-106358958D01*
X123670184Y-106452262D01*
X123797738Y-106579816D01*
X123950478Y-106675789D01*
X123950480Y-106675789D01*
X123950484Y-106675792D01*
X123956756Y-106678813D01*
X123955869Y-106680653D01*
X123991939Y-106703307D01*
X124771584Y-107482952D01*
X124822615Y-107517049D01*
X124894505Y-107565084D01*
X125031087Y-107621658D01*
X125031091Y-107621658D01*
X125031092Y-107621659D01*
X125176079Y-107650500D01*
X125176082Y-107650500D01*
X125176083Y-107650500D01*
X125323917Y-107650500D01*
X135574506Y-107650500D01*
X135640477Y-107669506D01*
X135650474Y-107675787D01*
X135650475Y-107675787D01*
X135650478Y-107675789D01*
X135820745Y-107735368D01*
X135820750Y-107735369D01*
X135999996Y-107755565D01*
X136000000Y-107755565D01*
X136000004Y-107755565D01*
X136179249Y-107735369D01*
X136179252Y-107735368D01*
X136179255Y-107735368D01*
X136259017Y-107707457D01*
X136299972Y-107700500D01*
X143398430Y-107700500D01*
X143465469Y-107720185D01*
X143486111Y-107736819D01*
X144327709Y-108578416D01*
X144359932Y-108610639D01*
X144387112Y-108637819D01*
X144420596Y-108699143D01*
X144415611Y-108768835D01*
X144373740Y-108824768D01*
X144308275Y-108849184D01*
X144299430Y-108849500D01*
X130834108Y-108849500D01*
X130706812Y-108883608D01*
X130592686Y-108949500D01*
X130592683Y-108949502D01*
X130499502Y-109042683D01*
X130499500Y-109042686D01*
X130433608Y-109156812D01*
X130399500Y-109284108D01*
X130399500Y-111975500D01*
X130379815Y-112042539D01*
X130327011Y-112088294D01*
X130275500Y-112099500D01*
X117581962Y-112099500D01*
X117568078Y-112098720D01*
X117555553Y-112097308D01*
X117477735Y-112088540D01*
X117450666Y-112082362D01*
X117371462Y-112054648D01*
X117346444Y-112042600D01*
X117275395Y-111997957D01*
X117253686Y-111980644D01*
X117194355Y-111921313D01*
X117177042Y-111899604D01*
X117132399Y-111828555D01*
X117120351Y-111803537D01*
X117092637Y-111724333D01*
X117086459Y-111697263D01*
X117076280Y-111606922D01*
X117075500Y-111593038D01*
X117075500Y-108818645D01*
X117095185Y-108751606D01*
X117147989Y-108705851D01*
X117217147Y-108695907D01*
X117246953Y-108704084D01*
X117313310Y-108731570D01*
X117313318Y-108731572D01*
X117506504Y-108769999D01*
X117506508Y-108770000D01*
X117655000Y-108770000D01*
X117655000Y-108070000D01*
X118155000Y-108070000D01*
X118155000Y-108770000D01*
X118303492Y-108770000D01*
X118303495Y-108769999D01*
X118496681Y-108731572D01*
X118496693Y-108731569D01*
X118678671Y-108656192D01*
X118678684Y-108656185D01*
X118842462Y-108546751D01*
X118842466Y-108546748D01*
X118981748Y-108407466D01*
X118981751Y-108407462D01*
X119091185Y-108243684D01*
X119091192Y-108243671D01*
X119166569Y-108061692D01*
X119166569Y-108061690D01*
X119174862Y-108020000D01*
X118371988Y-108020000D01*
X118389205Y-108010060D01*
X118445060Y-107954205D01*
X118484556Y-107885796D01*
X118505000Y-107809496D01*
X118505000Y-107730504D01*
X118484556Y-107654204D01*
X118445060Y-107585795D01*
X118389205Y-107529940D01*
X118371988Y-107520000D01*
X119174862Y-107520000D01*
X120565138Y-107520000D01*
X121368012Y-107520000D01*
X121350795Y-107529940D01*
X121294940Y-107585795D01*
X121255444Y-107654204D01*
X121235000Y-107730504D01*
X121235000Y-107809496D01*
X121255444Y-107885796D01*
X121294940Y-107954205D01*
X121350795Y-108010060D01*
X121368012Y-108020000D01*
X120565138Y-108020000D01*
X120573430Y-108061690D01*
X120573430Y-108061692D01*
X120648807Y-108243671D01*
X120648814Y-108243684D01*
X120758248Y-108407462D01*
X120758251Y-108407466D01*
X120897533Y-108546748D01*
X120897537Y-108546751D01*
X121061315Y-108656185D01*
X121061328Y-108656192D01*
X121243306Y-108731569D01*
X121243318Y-108731572D01*
X121436504Y-108769999D01*
X121436508Y-108770000D01*
X121835000Y-108770000D01*
X121835000Y-108070000D01*
X122335000Y-108070000D01*
X122335000Y-108770000D01*
X122733492Y-108770000D01*
X122733495Y-108769999D01*
X122926681Y-108731572D01*
X122926693Y-108731569D01*
X123108671Y-108656192D01*
X123108684Y-108656185D01*
X123272462Y-108546751D01*
X123272466Y-108546748D01*
X123411748Y-108407466D01*
X123411751Y-108407462D01*
X123521185Y-108243684D01*
X123521192Y-108243671D01*
X123596569Y-108061692D01*
X123596569Y-108061690D01*
X123604862Y-108020000D01*
X122801988Y-108020000D01*
X122819205Y-108010060D01*
X122875060Y-107954205D01*
X122914556Y-107885796D01*
X122935000Y-107809496D01*
X122935000Y-107730504D01*
X122914556Y-107654204D01*
X122875060Y-107585795D01*
X122819205Y-107529940D01*
X122801988Y-107520000D01*
X123604862Y-107520000D01*
X123596569Y-107478309D01*
X123596569Y-107478307D01*
X123521192Y-107296328D01*
X123521185Y-107296315D01*
X123411751Y-107132537D01*
X123411748Y-107132533D01*
X123272466Y-106993251D01*
X123272462Y-106993248D01*
X123108684Y-106883814D01*
X123108671Y-106883807D01*
X122926693Y-106808430D01*
X122926681Y-106808427D01*
X122733495Y-106770000D01*
X122335000Y-106770000D01*
X122335000Y-107470000D01*
X121835000Y-107470000D01*
X121835000Y-106914463D01*
X121854685Y-106847424D01*
X121897000Y-106807076D01*
X121908365Y-106800515D01*
X122015515Y-106693365D01*
X122091281Y-106562135D01*
X122130500Y-106415766D01*
X122130500Y-106264234D01*
X122091281Y-106117865D01*
X122015515Y-105986635D01*
X121908365Y-105879485D01*
X121842750Y-105841602D01*
X121777136Y-105803719D01*
X121654080Y-105770747D01*
X121630766Y-105764500D01*
X121479234Y-105764500D01*
X121332863Y-105803719D01*
X121201635Y-105879485D01*
X121201632Y-105879487D01*
X121094487Y-105986632D01*
X121094485Y-105986635D01*
X121018719Y-106117863D01*
X120979500Y-106264234D01*
X120979500Y-106415765D01*
X121018719Y-106562136D01*
X121040125Y-106599211D01*
X121094485Y-106693365D01*
X121094487Y-106693367D01*
X121099432Y-106699811D01*
X121096612Y-106701974D01*
X121122302Y-106749020D01*
X121117318Y-106818712D01*
X121075446Y-106874645D01*
X121066379Y-106880416D01*
X121066387Y-106880427D01*
X120897536Y-106993248D01*
X120758251Y-107132533D01*
X120758248Y-107132537D01*
X120648814Y-107296315D01*
X120648807Y-107296328D01*
X120573430Y-107478307D01*
X120573430Y-107478309D01*
X120565138Y-107520000D01*
X119174862Y-107520000D01*
X119166569Y-107478309D01*
X119166569Y-107478307D01*
X119091192Y-107296328D01*
X119091185Y-107296315D01*
X118981751Y-107132537D01*
X118981748Y-107132533D01*
X118842466Y-106993251D01*
X118842462Y-106993248D01*
X118678684Y-106883814D01*
X118678671Y-106883807D01*
X118496693Y-106808430D01*
X118496681Y-106808427D01*
X118303495Y-106770000D01*
X118155000Y-106770000D01*
X118155000Y-107470000D01*
X117655000Y-107470000D01*
X117655000Y-106770000D01*
X117506504Y-106770000D01*
X117313318Y-106808427D01*
X117313306Y-106808430D01*
X117246952Y-106835915D01*
X117177483Y-106843384D01*
X117115004Y-106812108D01*
X117079352Y-106752019D01*
X117075500Y-106721354D01*
X117075500Y-100178645D01*
X117095185Y-100111606D01*
X117147989Y-100065851D01*
X117217147Y-100055907D01*
X117246953Y-100064084D01*
X117313310Y-100091570D01*
X117313318Y-100091572D01*
X117506504Y-100129999D01*
X117506508Y-100130000D01*
X117655000Y-100130000D01*
X117655000Y-99430000D01*
X118155000Y-99430000D01*
X118155000Y-100130000D01*
X118303492Y-100130000D01*
X118303495Y-100129999D01*
X118496681Y-100091572D01*
X118496693Y-100091569D01*
X118678671Y-100016192D01*
X118678684Y-100016185D01*
X118842462Y-99906751D01*
X118842466Y-99906748D01*
X118981748Y-99767466D01*
X118981751Y-99767462D01*
X119091185Y-99603684D01*
X119091192Y-99603671D01*
X119166569Y-99421692D01*
X119166569Y-99421690D01*
X119174862Y-99380000D01*
X118371988Y-99380000D01*
X118389205Y-99370060D01*
X118445060Y-99314205D01*
X118484556Y-99245796D01*
X118505000Y-99169496D01*
X118505000Y-99090504D01*
X118484556Y-99014204D01*
X118445060Y-98945795D01*
X118389205Y-98889940D01*
X118371988Y-98880000D01*
X119174862Y-98880000D01*
X119166569Y-98838309D01*
X119166569Y-98838307D01*
X119091192Y-98656328D01*
X119091185Y-98656315D01*
X118981751Y-98492537D01*
X118981748Y-98492533D01*
X118842466Y-98353251D01*
X118842462Y-98353248D01*
X118678684Y-98243814D01*
X118678671Y-98243807D01*
X118496693Y-98168430D01*
X118496681Y-98168427D01*
X118303495Y-98130000D01*
X118155000Y-98130000D01*
X118155000Y-98830000D01*
X117655000Y-98830000D01*
X117655000Y-98130000D01*
X117506504Y-98130000D01*
X117313318Y-98168427D01*
X117313306Y-98168430D01*
X117246952Y-98195915D01*
X117177483Y-98203384D01*
X117115004Y-98172108D01*
X117079352Y-98112019D01*
X117075500Y-98081354D01*
X117075500Y-97144634D01*
X117095185Y-97077595D01*
X117147989Y-97031840D01*
X117217147Y-97021896D01*
X117273812Y-97045368D01*
X117337910Y-97093352D01*
X117337913Y-97093354D01*
X117472620Y-97143596D01*
X117472627Y-97143598D01*
X117532155Y-97149999D01*
X117532172Y-97150000D01*
X118180000Y-97150000D01*
X118180000Y-96233012D01*
X118237007Y-96265925D01*
X118364174Y-96300000D01*
X118495826Y-96300000D01*
X118622993Y-96265925D01*
X118680000Y-96233012D01*
X118680000Y-97150000D01*
G37*
%TD.AperFunction*%
%TA.AperFunction,Conductor*%
G36*
X167093599Y-101220869D02*
G01*
X167138814Y-101274137D01*
X167149500Y-101324496D01*
X167149500Y-104600028D01*
X167142542Y-104640982D01*
X167114631Y-104720747D01*
X167094435Y-104899996D01*
X167094435Y-104900003D01*
X167114630Y-105079249D01*
X167114631Y-105079254D01*
X167174211Y-105249523D01*
X167230674Y-105339383D01*
X167270184Y-105402262D01*
X167397738Y-105529816D01*
X167550478Y-105625789D01*
X167550480Y-105625789D01*
X167550484Y-105625792D01*
X167556756Y-105628813D01*
X167555869Y-105630653D01*
X167591939Y-105653307D01*
X171797309Y-109858677D01*
X171826781Y-109878368D01*
X171870993Y-109907909D01*
X171920228Y-109940807D01*
X171920229Y-109940807D01*
X171920230Y-109940808D01*
X171920232Y-109940809D01*
X172037127Y-109989228D01*
X172056810Y-109997381D01*
X172056814Y-109997381D01*
X172056815Y-109997382D01*
X172201802Y-110026223D01*
X172876000Y-110026223D01*
X172943039Y-110045908D01*
X172988794Y-110098712D01*
X173000000Y-110150223D01*
X173000000Y-111975500D01*
X172980315Y-112042539D01*
X172927511Y-112088294D01*
X172876000Y-112099500D01*
X145724500Y-112099500D01*
X145657461Y-112079815D01*
X145611706Y-112027011D01*
X145600500Y-111975500D01*
X145600500Y-110678995D01*
X164649499Y-110678995D01*
X164676418Y-110814322D01*
X164676421Y-110814332D01*
X164729221Y-110941804D01*
X164729228Y-110941817D01*
X164805885Y-111056541D01*
X164805888Y-111056545D01*
X164903454Y-111154111D01*
X164903458Y-111154114D01*
X165018182Y-111230771D01*
X165018195Y-111230778D01*
X165145667Y-111283578D01*
X165145672Y-111283580D01*
X165145676Y-111283580D01*
X165145677Y-111283581D01*
X165281004Y-111310500D01*
X165281007Y-111310500D01*
X165418995Y-111310500D01*
X165510041Y-111292389D01*
X165554328Y-111283580D01*
X165681811Y-111230775D01*
X165796542Y-111154114D01*
X165894114Y-111056542D01*
X165970775Y-110941811D01*
X166023580Y-110814328D01*
X166050500Y-110678995D01*
X167649499Y-110678995D01*
X167676418Y-110814322D01*
X167676421Y-110814332D01*
X167729221Y-110941804D01*
X167729228Y-110941817D01*
X167805885Y-111056541D01*
X167805888Y-111056545D01*
X167903454Y-111154111D01*
X167903458Y-111154114D01*
X168018182Y-111230771D01*
X168018195Y-111230778D01*
X168145667Y-111283578D01*
X168145672Y-111283580D01*
X168145676Y-111283580D01*
X168145677Y-111283581D01*
X168281004Y-111310500D01*
X168281007Y-111310500D01*
X168418995Y-111310500D01*
X168510041Y-111292389D01*
X168554328Y-111283580D01*
X168681811Y-111230775D01*
X168796542Y-111154114D01*
X168894114Y-111056542D01*
X168970775Y-110941811D01*
X169023580Y-110814328D01*
X169050500Y-110678993D01*
X169050500Y-110541007D01*
X169050500Y-110541004D01*
X169023581Y-110405677D01*
X169023580Y-110405676D01*
X169023580Y-110405672D01*
X169023578Y-110405667D01*
X168970778Y-110278195D01*
X168970771Y-110278182D01*
X168894114Y-110163458D01*
X168894111Y-110163454D01*
X168796545Y-110065888D01*
X168796541Y-110065885D01*
X168681817Y-109989228D01*
X168681804Y-109989221D01*
X168554332Y-109936421D01*
X168554322Y-109936418D01*
X168418995Y-109909500D01*
X168418993Y-109909500D01*
X168281007Y-109909500D01*
X168281005Y-109909500D01*
X168145677Y-109936418D01*
X168145667Y-109936421D01*
X168018195Y-109989221D01*
X168018182Y-109989228D01*
X167903458Y-110065885D01*
X167903454Y-110065888D01*
X167805888Y-110163454D01*
X167805885Y-110163458D01*
X167729228Y-110278182D01*
X167729221Y-110278195D01*
X167676421Y-110405667D01*
X167676418Y-110405677D01*
X167649500Y-110541004D01*
X167649500Y-110541007D01*
X167649500Y-110678993D01*
X167649500Y-110678995D01*
X167649499Y-110678995D01*
X166050500Y-110678995D01*
X166050500Y-110678993D01*
X166050500Y-110541007D01*
X166050500Y-110541004D01*
X166023581Y-110405677D01*
X166023580Y-110405676D01*
X166023580Y-110405672D01*
X166023578Y-110405667D01*
X165970778Y-110278195D01*
X165970771Y-110278182D01*
X165894114Y-110163458D01*
X165894111Y-110163454D01*
X165796545Y-110065888D01*
X165796541Y-110065885D01*
X165681817Y-109989228D01*
X165681804Y-109989221D01*
X165554332Y-109936421D01*
X165554322Y-109936418D01*
X165418995Y-109909500D01*
X165418993Y-109909500D01*
X165281007Y-109909500D01*
X165281005Y-109909500D01*
X165145677Y-109936418D01*
X165145667Y-109936421D01*
X165018195Y-109989221D01*
X165018182Y-109989228D01*
X164903458Y-110065885D01*
X164903454Y-110065888D01*
X164805888Y-110163454D01*
X164805885Y-110163458D01*
X164729228Y-110278182D01*
X164729221Y-110278195D01*
X164676421Y-110405667D01*
X164676418Y-110405677D01*
X164649500Y-110541004D01*
X164649500Y-110541007D01*
X164649500Y-110678993D01*
X164649500Y-110678995D01*
X164649499Y-110678995D01*
X145600500Y-110678995D01*
X145600500Y-109284110D01*
X145600500Y-109284108D01*
X145566392Y-109156814D01*
X145500500Y-109042686D01*
X145500497Y-109042683D01*
X145496928Y-109036501D01*
X145480455Y-108968601D01*
X145503307Y-108902574D01*
X145558228Y-108859383D01*
X145604315Y-108850500D01*
X151084581Y-108850500D01*
X151213939Y-108824768D01*
X151229574Y-108821658D01*
X151366156Y-108765084D01*
X151415390Y-108732186D01*
X151416314Y-108731569D01*
X151439732Y-108715921D01*
X151489077Y-108682952D01*
X151885209Y-108286818D01*
X151946532Y-108253334D01*
X151972890Y-108250500D01*
X158673920Y-108250500D01*
X158771462Y-108231096D01*
X158818913Y-108221658D01*
X158955495Y-108165084D01*
X159004729Y-108132186D01*
X159078416Y-108082952D01*
X159083053Y-108078314D01*
X159119136Y-108055655D01*
X159118248Y-108053810D01*
X159124510Y-108050792D01*
X159124522Y-108050789D01*
X159277262Y-107954816D01*
X159404816Y-107827262D01*
X159500789Y-107674522D01*
X159500790Y-107674520D01*
X159503812Y-107668245D01*
X159505652Y-107669131D01*
X159528307Y-107633058D01*
X165874548Y-101286819D01*
X165935871Y-101253334D01*
X165962229Y-101250500D01*
X166300028Y-101250500D01*
X166340982Y-101257457D01*
X166388649Y-101274137D01*
X166420745Y-101285368D01*
X166420750Y-101285369D01*
X166599996Y-101305565D01*
X166600000Y-101305565D01*
X166600004Y-101305565D01*
X166779249Y-101285369D01*
X166779252Y-101285368D01*
X166779255Y-101285368D01*
X166949522Y-101225789D01*
X166949524Y-101225788D01*
X166959527Y-101219503D01*
X167026764Y-101200502D01*
X167093599Y-101220869D01*
G37*
%TD.AperFunction*%
%TA.AperFunction,Conductor*%
G36*
X172943039Y-90019685D02*
G01*
X172988794Y-90072489D01*
X173000000Y-90124000D01*
X173000000Y-92579783D01*
X172980315Y-92646822D01*
X172927511Y-92692577D01*
X172858353Y-92702521D01*
X172822199Y-92691503D01*
X172561733Y-92566069D01*
X172561725Y-92566066D01*
X172254238Y-92458471D01*
X172254226Y-92458467D01*
X171936620Y-92385976D01*
X171936604Y-92385974D01*
X171612893Y-92349500D01*
X171612889Y-92349500D01*
X171287111Y-92349500D01*
X171287107Y-92349500D01*
X170963395Y-92385974D01*
X170963379Y-92385976D01*
X170645773Y-92458467D01*
X170645761Y-92458471D01*
X170338274Y-92566066D01*
X170044765Y-92707413D01*
X169768920Y-92880738D01*
X169514217Y-93083856D01*
X169283856Y-93314217D01*
X169080738Y-93568920D01*
X168907413Y-93844765D01*
X168766066Y-94138274D01*
X168658471Y-94445761D01*
X168658467Y-94445773D01*
X168585976Y-94763379D01*
X168585974Y-94763395D01*
X168549500Y-95087106D01*
X168549500Y-95412893D01*
X168585974Y-95736604D01*
X168585976Y-95736620D01*
X168658467Y-96054226D01*
X168658471Y-96054238D01*
X168766066Y-96361725D01*
X168907413Y-96655234D01*
X168938429Y-96704595D01*
X169080739Y-96931081D01*
X169141434Y-97007190D01*
X169261268Y-97157458D01*
X169283857Y-97185783D01*
X169514217Y-97416143D01*
X169768919Y-97619261D01*
X170044763Y-97792585D01*
X170338278Y-97933935D01*
X170569217Y-98014744D01*
X170645761Y-98041528D01*
X170645773Y-98041532D01*
X170963383Y-98114024D01*
X171287106Y-98150499D01*
X171287107Y-98150500D01*
X171287111Y-98150500D01*
X171612893Y-98150500D01*
X171612893Y-98150499D01*
X171936617Y-98114024D01*
X172254227Y-98041532D01*
X172561722Y-97933935D01*
X172822198Y-97808496D01*
X172891139Y-97797144D01*
X172955274Y-97824866D01*
X172994240Y-97882861D01*
X173000000Y-97920216D01*
X173000000Y-108401223D01*
X172980315Y-108468262D01*
X172927511Y-108514017D01*
X172876000Y-108525223D01*
X172637953Y-108525223D01*
X172570914Y-108505538D01*
X172550272Y-108488904D01*
X168686819Y-104625451D01*
X168653334Y-104564128D01*
X168650500Y-104537770D01*
X168650500Y-100265421D01*
X168642711Y-100226267D01*
X168640285Y-100214069D01*
X168640285Y-100214066D01*
X168625382Y-100139144D01*
X168621659Y-100120427D01*
X168570839Y-99997738D01*
X168565084Y-99983844D01*
X168558267Y-99973642D01*
X168482954Y-99860927D01*
X168482953Y-99860926D01*
X168482951Y-99860923D01*
X168378416Y-99756388D01*
X167401843Y-98779815D01*
X164439082Y-95817052D01*
X164439079Y-95817049D01*
X164359787Y-95764069D01*
X164316156Y-95734916D01*
X164316153Y-95734914D01*
X164316152Y-95734914D01*
X164179578Y-95678343D01*
X164179568Y-95678340D01*
X164034581Y-95649500D01*
X164034579Y-95649500D01*
X154374500Y-95649500D01*
X154307461Y-95629815D01*
X154261706Y-95577011D01*
X154250500Y-95525500D01*
X154250500Y-90124000D01*
X154270185Y-90056961D01*
X154322989Y-90011206D01*
X154374500Y-90000000D01*
X172876000Y-90000000D01*
X172943039Y-90019685D01*
G37*
%TD.AperFunction*%
%TA.AperFunction,Conductor*%
G36*
X149567539Y-90019685D02*
G01*
X149613294Y-90072489D01*
X149624500Y-90124000D01*
X149624500Y-99875500D01*
X149604815Y-99942539D01*
X149552011Y-99988294D01*
X149500500Y-99999500D01*
X149438389Y-99999500D01*
X149317555Y-100023535D01*
X149317545Y-100023538D01*
X149203716Y-100070687D01*
X149203707Y-100070692D01*
X149101267Y-100139141D01*
X149101263Y-100139144D01*
X149014144Y-100226263D01*
X149014141Y-100226267D01*
X148945692Y-100328707D01*
X148945687Y-100328716D01*
X148898538Y-100442545D01*
X148898535Y-100442555D01*
X148874500Y-100563389D01*
X148874500Y-100686610D01*
X148898535Y-100807444D01*
X148898538Y-100807454D01*
X148945687Y-100921283D01*
X148945692Y-100921292D01*
X149014141Y-101023732D01*
X149014144Y-101023736D01*
X149101263Y-101110855D01*
X149101267Y-101110858D01*
X149203707Y-101179307D01*
X149203713Y-101179310D01*
X149203714Y-101179311D01*
X149317548Y-101226463D01*
X149424503Y-101247737D01*
X149438389Y-101250499D01*
X149438393Y-101250500D01*
X149500500Y-101250500D01*
X149567539Y-101270185D01*
X149613294Y-101322989D01*
X149624500Y-101374500D01*
X149624500Y-102625500D01*
X149604815Y-102692539D01*
X149552011Y-102738294D01*
X149500500Y-102749500D01*
X149438389Y-102749500D01*
X149317555Y-102773535D01*
X149317545Y-102773538D01*
X149203716Y-102820687D01*
X149203707Y-102820692D01*
X149101267Y-102889141D01*
X149101263Y-102889144D01*
X149014144Y-102976263D01*
X149014141Y-102976267D01*
X148945692Y-103078707D01*
X148945687Y-103078716D01*
X148898538Y-103192545D01*
X148898535Y-103192555D01*
X148874500Y-103313389D01*
X148874500Y-103436610D01*
X148898535Y-103557444D01*
X148898537Y-103557452D01*
X148907246Y-103578477D01*
X148945687Y-103671283D01*
X148945692Y-103671292D01*
X149014141Y-103773732D01*
X149014144Y-103773736D01*
X149101263Y-103860855D01*
X149101267Y-103860858D01*
X149203707Y-103929307D01*
X149203713Y-103929310D01*
X149203714Y-103929311D01*
X149317548Y-103976463D01*
X149349690Y-103982856D01*
X149411600Y-104015239D01*
X149446176Y-104075954D01*
X149449500Y-104104473D01*
X149449500Y-106179190D01*
X149429815Y-106246229D01*
X149413181Y-106266872D01*
X149351774Y-106328278D01*
X149290450Y-106361762D01*
X149277988Y-106363815D01*
X149270752Y-106364630D01*
X149270744Y-106364632D01*
X149100478Y-106424210D01*
X148947737Y-106520184D01*
X148820184Y-106647737D01*
X148724211Y-106800476D01*
X148664631Y-106970745D01*
X148664630Y-106970750D01*
X148644435Y-107149996D01*
X148644435Y-107150003D01*
X148651377Y-107211617D01*
X148639322Y-107280439D01*
X148591973Y-107331818D01*
X148528157Y-107349500D01*
X145272889Y-107349500D01*
X145205850Y-107329815D01*
X145185208Y-107313181D01*
X145034208Y-107162181D01*
X145000723Y-107100858D01*
X145005707Y-107031166D01*
X145047579Y-106975233D01*
X145113043Y-106950816D01*
X145121889Y-106950500D01*
X145123920Y-106950500D01*
X145221462Y-106931096D01*
X145268913Y-106921658D01*
X145405495Y-106865084D01*
X145464304Y-106825789D01*
X145528416Y-106782952D01*
X147732951Y-104578416D01*
X147815084Y-104455495D01*
X147871658Y-104318913D01*
X147872622Y-104314069D01*
X147900500Y-104173918D01*
X147900500Y-94399972D01*
X147907458Y-94359017D01*
X147935368Y-94279254D01*
X147935369Y-94279249D01*
X147955565Y-94100003D01*
X147955565Y-94099996D01*
X147935369Y-93920750D01*
X147935368Y-93920745D01*
X147875788Y-93750476D01*
X147779815Y-93597737D01*
X147652262Y-93470184D01*
X147499523Y-93374211D01*
X147329254Y-93314631D01*
X147329249Y-93314630D01*
X147150004Y-93294435D01*
X147149996Y-93294435D01*
X146970750Y-93314630D01*
X146970745Y-93314631D01*
X146800476Y-93374211D01*
X146647737Y-93470184D01*
X146520184Y-93597737D01*
X146424211Y-93750476D01*
X146364631Y-93920745D01*
X146364630Y-93920750D01*
X146344435Y-94099996D01*
X146344435Y-94100003D01*
X146364630Y-94279249D01*
X146364631Y-94279254D01*
X146392542Y-94359017D01*
X146399500Y-94399972D01*
X146399500Y-96076097D01*
X146379815Y-96143136D01*
X146327011Y-96188891D01*
X146257853Y-96198835D01*
X146194297Y-96169810D01*
X146170507Y-96142070D01*
X146079817Y-95997739D01*
X145952262Y-95870184D01*
X145799521Y-95774210D01*
X145629255Y-95714632D01*
X145629246Y-95714630D01*
X145622012Y-95713815D01*
X145557600Y-95686744D01*
X145548223Y-95678277D01*
X144286819Y-94416873D01*
X144253334Y-94355550D01*
X144250500Y-94329192D01*
X144250500Y-90711430D01*
X144269506Y-90645459D01*
X144303606Y-90591188D01*
X144355940Y-90544896D01*
X144394709Y-90533940D01*
X144487301Y-90523508D01*
X144657568Y-90463929D01*
X144810308Y-90367956D01*
X144937862Y-90240402D01*
X145033835Y-90087662D01*
X145035450Y-90083047D01*
X145076171Y-90026271D01*
X145141123Y-90000522D01*
X145152492Y-90000000D01*
X149500500Y-90000000D01*
X149567539Y-90019685D01*
G37*
%TD.AperFunction*%
%TA.AperFunction,Conductor*%
G36*
X150910402Y-106907300D02*
G01*
X150961781Y-106954649D01*
X150979406Y-107022259D01*
X150957680Y-107088665D01*
X150943145Y-107106147D01*
X150736112Y-107313181D01*
X150674789Y-107346666D01*
X150648431Y-107349500D01*
X150469808Y-107349500D01*
X150402769Y-107329815D01*
X150357014Y-107277011D01*
X150347070Y-107207853D01*
X150376095Y-107144297D01*
X150382127Y-107137819D01*
X150585890Y-106934056D01*
X150647213Y-106900571D01*
X150687452Y-106898517D01*
X150750000Y-106905565D01*
X150750001Y-106905565D01*
X150766622Y-106903692D01*
X150841581Y-106895246D01*
X150910402Y-106907300D01*
G37*
%TD.AperFunction*%
%TA.AperFunction,Conductor*%
G36*
X152692539Y-90019685D02*
G01*
X152738294Y-90072489D01*
X152749500Y-90124000D01*
X152749500Y-96373918D01*
X152749500Y-96373920D01*
X152749499Y-96373920D01*
X152778340Y-96518907D01*
X152778342Y-96518913D01*
X152834914Y-96655491D01*
X152834919Y-96655500D01*
X152839596Y-96662499D01*
X152853535Y-96690434D01*
X152874211Y-96749523D01*
X152874212Y-96749524D01*
X152970184Y-96902262D01*
X153097738Y-97029816D01*
X153167899Y-97073901D01*
X153236353Y-97116914D01*
X153250478Y-97125789D01*
X153420745Y-97185368D01*
X153420750Y-97185369D01*
X153599996Y-97205565D01*
X153600000Y-97205565D01*
X153600004Y-97205565D01*
X153779249Y-97185369D01*
X153779252Y-97185368D01*
X153779255Y-97185368D01*
X153859017Y-97157457D01*
X153899972Y-97150500D01*
X163598431Y-97150500D01*
X163665470Y-97170185D01*
X163686112Y-97186819D01*
X163700227Y-97200934D01*
X163733712Y-97262257D01*
X163728728Y-97331949D01*
X163686856Y-97387882D01*
X163653501Y-97405656D01*
X163600480Y-97424208D01*
X163447737Y-97520184D01*
X163320184Y-97647737D01*
X163224210Y-97800478D01*
X163164632Y-97970744D01*
X163164630Y-97970752D01*
X163163815Y-97977988D01*
X163136743Y-98042400D01*
X163128277Y-98051775D01*
X157516873Y-103663181D01*
X157455550Y-103696666D01*
X157429192Y-103699500D01*
X155855068Y-103699500D01*
X155789096Y-103680494D01*
X155699522Y-103624210D01*
X155699518Y-103624209D01*
X155529262Y-103564633D01*
X155529249Y-103564630D01*
X155350004Y-103544435D01*
X155349996Y-103544435D01*
X155170750Y-103564630D01*
X155170745Y-103564631D01*
X155000476Y-103624211D01*
X154847737Y-103720184D01*
X154720184Y-103847737D01*
X154624211Y-104000476D01*
X154564631Y-104170745D01*
X154564630Y-104170750D01*
X154544435Y-104349996D01*
X154544435Y-104350003D01*
X154564630Y-104529249D01*
X154564631Y-104529254D01*
X154624211Y-104699523D01*
X154705204Y-104828421D01*
X154720184Y-104852262D01*
X154847738Y-104979816D01*
X155000478Y-105075789D01*
X155170739Y-105135366D01*
X155170745Y-105135368D01*
X155170750Y-105135369D01*
X155349996Y-105155565D01*
X155350000Y-105155565D01*
X155350004Y-105155565D01*
X155529249Y-105135369D01*
X155529251Y-105135368D01*
X155529255Y-105135368D01*
X155529258Y-105135366D01*
X155529262Y-105135366D01*
X155628965Y-105100478D01*
X155699522Y-105075789D01*
X155789096Y-105019505D01*
X155855068Y-105000500D01*
X157814071Y-105000500D01*
X157898615Y-104983682D01*
X157939744Y-104975501D01*
X158058127Y-104926465D01*
X158081696Y-104910717D01*
X158097736Y-104900000D01*
X158109353Y-104892237D01*
X158164669Y-104855277D01*
X164048224Y-98971720D01*
X164109545Y-98938237D01*
X164122019Y-98936183D01*
X164129255Y-98935368D01*
X164299522Y-98875789D01*
X164452262Y-98779816D01*
X164579816Y-98652262D01*
X164675789Y-98499522D01*
X164694342Y-98446499D01*
X164735063Y-98389723D01*
X164800015Y-98363975D01*
X164868577Y-98377430D01*
X164899065Y-98399772D01*
X165486385Y-98987092D01*
X166037113Y-99537819D01*
X166070598Y-99599142D01*
X166065614Y-99668834D01*
X166023742Y-99724767D01*
X165958278Y-99749184D01*
X165949432Y-99749500D01*
X165526076Y-99749500D01*
X165497242Y-99755234D01*
X165497243Y-99755235D01*
X165381093Y-99778339D01*
X165381089Y-99778340D01*
X165316062Y-99805276D01*
X165244507Y-99834914D01*
X165244498Y-99834919D01*
X165166102Y-99887303D01*
X165121582Y-99917049D01*
X158466939Y-106571692D01*
X158430872Y-106594359D01*
X158431753Y-106596188D01*
X158425483Y-106599207D01*
X158272737Y-106695184D01*
X158254741Y-106713181D01*
X158193418Y-106746666D01*
X158167060Y-106749500D01*
X151536742Y-106749500D01*
X151534012Y-106750043D01*
X151532552Y-106749912D01*
X151530678Y-106750097D01*
X151530642Y-106749741D01*
X151464421Y-106743814D01*
X151409244Y-106700950D01*
X151386001Y-106635060D01*
X151402070Y-106567063D01*
X151404830Y-106562452D01*
X151475788Y-106449524D01*
X151475789Y-106449522D01*
X151535368Y-106279255D01*
X151547743Y-106169413D01*
X151556402Y-106135851D01*
X151563853Y-106117865D01*
X151575501Y-106089744D01*
X151583682Y-106048615D01*
X151600500Y-105964071D01*
X151600500Y-105916321D01*
X151620185Y-105849282D01*
X151672989Y-105803527D01*
X151710612Y-105793101D01*
X151779255Y-105785368D01*
X151949522Y-105725789D01*
X152102262Y-105629816D01*
X152229816Y-105502262D01*
X152325789Y-105349522D01*
X152385368Y-105179255D01*
X152385369Y-105179249D01*
X152405565Y-105000003D01*
X152405565Y-104999996D01*
X152389259Y-104855277D01*
X152385368Y-104820745D01*
X152357458Y-104740982D01*
X152350500Y-104700028D01*
X152350500Y-90124000D01*
X152370185Y-90056961D01*
X152422989Y-90011206D01*
X152474500Y-90000000D01*
X152625500Y-90000000D01*
X152692539Y-90019685D01*
G37*
%TD.AperFunction*%
%TA.AperFunction,Conductor*%
G36*
X138718834Y-90653625D02*
G01*
X138774767Y-90695497D01*
X138799184Y-90760961D01*
X138799500Y-90769807D01*
X138799500Y-96164071D01*
X138815237Y-96243182D01*
X138815237Y-96243183D01*
X138824497Y-96289736D01*
X138824499Y-96289744D01*
X138856446Y-96366872D01*
X138873535Y-96408127D01*
X138920111Y-96477834D01*
X138944726Y-96514673D01*
X138944727Y-96514674D01*
X144528277Y-102098223D01*
X144561762Y-102159546D01*
X144563815Y-102172012D01*
X144564630Y-102179246D01*
X144564632Y-102179255D01*
X144624210Y-102349521D01*
X144682933Y-102442977D01*
X144720184Y-102502262D01*
X144847738Y-102629816D01*
X145000478Y-102725789D01*
X145103989Y-102762009D01*
X145170745Y-102785368D01*
X145170750Y-102785369D01*
X145349996Y-102805565D01*
X145350000Y-102805565D01*
X145350004Y-102805565D01*
X145529249Y-102785369D01*
X145529252Y-102785368D01*
X145529255Y-102785368D01*
X145699522Y-102725789D01*
X145852262Y-102629816D01*
X145979816Y-102502262D01*
X146075789Y-102349522D01*
X146135368Y-102179255D01*
X146149935Y-102049972D01*
X146152280Y-102029159D01*
X146163425Y-102002633D01*
X146156523Y-101991892D01*
X146152280Y-101970840D01*
X146135369Y-101820750D01*
X146135368Y-101820745D01*
X146075788Y-101650475D01*
X146022691Y-101565973D01*
X146003690Y-101498736D01*
X146022691Y-101434027D01*
X146075788Y-101349524D01*
X146082684Y-101329816D01*
X146135368Y-101179255D01*
X146140298Y-101135499D01*
X146152280Y-101029159D01*
X146163425Y-101002633D01*
X146156523Y-100991892D01*
X146152280Y-100970840D01*
X146135369Y-100820750D01*
X146135368Y-100820745D01*
X146121858Y-100782135D01*
X146075789Y-100650478D01*
X145979816Y-100497738D01*
X145979815Y-100497737D01*
X145976111Y-100491842D01*
X145978563Y-100490300D01*
X145957057Y-100437643D01*
X145969804Y-100368946D01*
X145976557Y-100358438D01*
X145976111Y-100358158D01*
X145980938Y-100350476D01*
X146075789Y-100199522D01*
X146135368Y-100029255D01*
X146136012Y-100023538D01*
X146152280Y-99879159D01*
X146163425Y-99852633D01*
X146156523Y-99841892D01*
X146152280Y-99820840D01*
X146135369Y-99670750D01*
X146135368Y-99670745D01*
X146075788Y-99500475D01*
X146031982Y-99430760D01*
X146012981Y-99363523D01*
X146031981Y-99298815D01*
X146125789Y-99149522D01*
X146158458Y-99056160D01*
X146199180Y-98999383D01*
X146264133Y-98973636D01*
X146332694Y-98987092D01*
X146383097Y-99035479D01*
X146399500Y-99097114D01*
X146399500Y-99806957D01*
X146386891Y-99849897D01*
X146397640Y-99871648D01*
X146399500Y-99893042D01*
X146399500Y-100956957D01*
X146386891Y-100999897D01*
X146397640Y-101021648D01*
X146399500Y-101043042D01*
X146399500Y-101956957D01*
X146386891Y-101999897D01*
X146397640Y-102021648D01*
X146399500Y-102043042D01*
X146399500Y-103737770D01*
X146379815Y-103804809D01*
X146363181Y-103825451D01*
X144775451Y-105413181D01*
X144714128Y-105446666D01*
X144687770Y-105449500D01*
X131769808Y-105449500D01*
X131702769Y-105429815D01*
X131657014Y-105377011D01*
X131647070Y-105307853D01*
X131676095Y-105244297D01*
X131682127Y-105237819D01*
X136355273Y-100564673D01*
X136355277Y-100564669D01*
X136426465Y-100458127D01*
X136475501Y-100339744D01*
X136486205Y-100285931D01*
X136500500Y-100214069D01*
X136500500Y-92820807D01*
X136520185Y-92753768D01*
X136536814Y-92733131D01*
X138587819Y-90682125D01*
X138649142Y-90648641D01*
X138718834Y-90653625D01*
G37*
%TD.AperFunction*%
%TA.AperFunction,Conductor*%
G36*
X135947730Y-90019685D02*
G01*
X135993485Y-90072489D01*
X136003429Y-90141647D01*
X135974404Y-90205203D01*
X135968372Y-90211681D01*
X134993746Y-91186306D01*
X134932423Y-91219791D01*
X134862731Y-91214807D01*
X134818384Y-91186306D01*
X134702262Y-91070184D01*
X134549523Y-90974211D01*
X134379254Y-90914631D01*
X134379249Y-90914630D01*
X134200004Y-90894435D01*
X134199996Y-90894435D01*
X134020750Y-90914630D01*
X134020745Y-90914631D01*
X133850476Y-90974211D01*
X133697737Y-91070184D01*
X133637681Y-91130241D01*
X133576358Y-91163726D01*
X133506666Y-91158742D01*
X133462319Y-91130241D01*
X133452262Y-91120184D01*
X133299523Y-91024211D01*
X133129254Y-90964631D01*
X133129249Y-90964630D01*
X132950004Y-90944435D01*
X132949996Y-90944435D01*
X132770750Y-90964630D01*
X132770745Y-90964631D01*
X132600476Y-91024211D01*
X132447737Y-91120184D01*
X132320184Y-91247737D01*
X132224211Y-91400476D01*
X132164631Y-91570745D01*
X132164630Y-91570750D01*
X132144435Y-91749996D01*
X132144435Y-91750003D01*
X132164630Y-91929249D01*
X132164631Y-91929254D01*
X132224211Y-92099524D01*
X132280493Y-92189094D01*
X132299500Y-92255067D01*
X132299500Y-96279191D01*
X132279815Y-96346230D01*
X132263181Y-96366872D01*
X130144727Y-98485325D01*
X130144721Y-98485332D01*
X130091711Y-98564668D01*
X130091712Y-98564669D01*
X130073534Y-98591874D01*
X130024498Y-98710257D01*
X130024497Y-98710261D01*
X130005495Y-98805789D01*
X129988872Y-98847568D01*
X129924213Y-98950472D01*
X129924209Y-98950481D01*
X129864633Y-99120737D01*
X129864630Y-99120750D01*
X129844435Y-99299996D01*
X129844435Y-99300003D01*
X129864630Y-99479249D01*
X129864631Y-99479254D01*
X129924211Y-99649523D01*
X130020184Y-99802262D01*
X130130241Y-99912319D01*
X130163726Y-99973642D01*
X130158742Y-100043334D01*
X130130241Y-100087681D01*
X130020184Y-100197737D01*
X129924211Y-100350476D01*
X129864631Y-100520745D01*
X129864630Y-100520750D01*
X129844435Y-100699996D01*
X129844435Y-100700003D01*
X129864630Y-100879249D01*
X129864631Y-100879254D01*
X129924211Y-101049523D01*
X130019078Y-101200502D01*
X130020184Y-101202262D01*
X130147738Y-101329816D01*
X130179100Y-101349522D01*
X130260192Y-101400476D01*
X130300478Y-101425789D01*
X130470745Y-101485368D01*
X130470750Y-101485369D01*
X130649996Y-101505565D01*
X130650000Y-101505565D01*
X130650004Y-101505565D01*
X130829249Y-101485369D01*
X130829252Y-101485368D01*
X130829255Y-101485368D01*
X130999522Y-101425789D01*
X131152262Y-101329816D01*
X131279816Y-101202262D01*
X131375789Y-101049522D01*
X131435368Y-100879255D01*
X131436182Y-100872025D01*
X131463245Y-100807611D01*
X131471712Y-100798232D01*
X134287819Y-97982126D01*
X134349142Y-97948641D01*
X134418834Y-97953625D01*
X134474767Y-97995497D01*
X134499184Y-98060961D01*
X134499500Y-98069807D01*
X134499500Y-99329191D01*
X134479815Y-99396230D01*
X134463181Y-99416872D01*
X131292400Y-102587652D01*
X131231077Y-102621137D01*
X131161385Y-102616153D01*
X131107322Y-102575681D01*
X131106952Y-102575977D01*
X131105817Y-102574554D01*
X131105452Y-102574281D01*
X131104540Y-102572953D01*
X131102608Y-102570530D01*
X130975055Y-102442977D01*
X130822314Y-102347003D01*
X130652048Y-102287425D01*
X130652039Y-102287423D01*
X130644805Y-102286608D01*
X130580393Y-102259537D01*
X130571016Y-102251070D01*
X125650623Y-97330677D01*
X125617138Y-97269354D01*
X125622122Y-97199662D01*
X125663994Y-97143729D01*
X125729458Y-97119312D01*
X125770396Y-97123220D01*
X125814592Y-97135063D01*
X125985319Y-97150000D01*
X126049999Y-97155659D01*
X126050000Y-97155659D01*
X126050001Y-97155659D01*
X126114681Y-97150000D01*
X126285408Y-97135063D01*
X126513663Y-97073903D01*
X126727830Y-96974035D01*
X126921401Y-96838495D01*
X127088495Y-96671401D01*
X127224035Y-96477830D01*
X127323903Y-96263663D01*
X127385063Y-96035408D01*
X127405659Y-95800000D01*
X127385063Y-95564592D01*
X127323903Y-95336337D01*
X127224035Y-95122171D01*
X127218425Y-95114158D01*
X127088494Y-94928597D01*
X126921402Y-94761506D01*
X126921395Y-94761501D01*
X126727834Y-94625967D01*
X126727830Y-94625965D01*
X126656727Y-94592809D01*
X126513663Y-94526097D01*
X126513659Y-94526096D01*
X126513655Y-94526094D01*
X126285413Y-94464938D01*
X126285403Y-94464936D01*
X126050001Y-94444341D01*
X126049999Y-94444341D01*
X125814596Y-94464936D01*
X125814586Y-94464938D01*
X125586344Y-94526094D01*
X125586335Y-94526098D01*
X125372171Y-94625964D01*
X125372169Y-94625965D01*
X125178597Y-94761505D01*
X125011505Y-94928597D01*
X124881575Y-95114158D01*
X124826998Y-95157783D01*
X124757500Y-95164977D01*
X124695145Y-95133454D01*
X124678425Y-95114158D01*
X124548494Y-94928597D01*
X124381402Y-94761506D01*
X124381395Y-94761501D01*
X124187834Y-94625967D01*
X124187830Y-94625965D01*
X124116727Y-94592809D01*
X123973663Y-94526097D01*
X123973659Y-94526096D01*
X123973655Y-94526094D01*
X123745413Y-94464938D01*
X123745403Y-94464936D01*
X123510001Y-94444341D01*
X123509999Y-94444341D01*
X123274596Y-94464936D01*
X123274586Y-94464938D01*
X123046344Y-94526094D01*
X123046335Y-94526098D01*
X122832171Y-94625964D01*
X122832169Y-94625965D01*
X122638597Y-94761505D01*
X122471505Y-94928597D01*
X122341575Y-95114158D01*
X122286998Y-95157783D01*
X122217500Y-95164977D01*
X122155145Y-95133454D01*
X122138425Y-95114158D01*
X122008494Y-94928597D01*
X121841402Y-94761506D01*
X121841395Y-94761501D01*
X121647834Y-94625967D01*
X121647830Y-94625965D01*
X121576727Y-94592809D01*
X121433663Y-94526097D01*
X121433659Y-94526096D01*
X121433655Y-94526094D01*
X121205413Y-94464938D01*
X121205403Y-94464936D01*
X120970001Y-94444341D01*
X120969999Y-94444341D01*
X120734596Y-94464936D01*
X120734586Y-94464938D01*
X120506344Y-94526094D01*
X120506335Y-94526098D01*
X120292171Y-94625964D01*
X120292169Y-94625965D01*
X120098600Y-94761503D01*
X119976284Y-94883819D01*
X119914961Y-94917303D01*
X119845269Y-94912319D01*
X119789336Y-94870447D01*
X119772421Y-94839470D01*
X119723354Y-94707913D01*
X119723350Y-94707906D01*
X119637190Y-94592812D01*
X119637187Y-94592809D01*
X119522093Y-94506649D01*
X119522086Y-94506645D01*
X119387379Y-94456403D01*
X119387372Y-94456401D01*
X119327844Y-94450000D01*
X118680000Y-94450000D01*
X118680000Y-95366988D01*
X118622993Y-95334075D01*
X118495826Y-95300000D01*
X118364174Y-95300000D01*
X118237007Y-95334075D01*
X118180000Y-95366988D01*
X118180000Y-94450000D01*
X117532155Y-94450000D01*
X117472627Y-94456401D01*
X117472620Y-94456403D01*
X117337913Y-94506645D01*
X117337910Y-94506647D01*
X117273811Y-94554632D01*
X117208346Y-94579049D01*
X117140073Y-94564197D01*
X117090668Y-94514792D01*
X117075500Y-94455365D01*
X117075500Y-90124000D01*
X117095185Y-90056961D01*
X117147989Y-90011206D01*
X117199500Y-90000000D01*
X135880691Y-90000000D01*
X135947730Y-90019685D01*
G37*
%TD.AperFunction*%
%TD*%
M02*
